<?xml version="1.0" encoding="UTF-8"?>
<!DOCTYPE svg PUBLIC "-//W3C//DTD SVG 1.1//EN" "http://www.w3.org/Graphics/SVG/1.1/DTD/svg11.dtd">
<svg xmlns="http://www.w3.org/2000/svg" width="515pt" height="125pt" viewBox="0 0 515 125" xmlns:xlink="http://www.w3.org/1999/xlink"><g id="graph0" class="graph" transform="scale(1 1) rotate(0) translate(4 121)"><title>G</title><g id="node1" class="node"><title>email</title><polygon fill="none" stroke="#000" points="74,-90 0,-90 0,-54 74,-54 74,-90"/><text text-anchor="middle" x="37" y="-68.3" font-family="Microsoft Yahei" font-size="14">电子邮件</text></g><g id="node2" class="node"><title>envelope</title><polygon fill="none" stroke="#000" points="193,-117 139,-117 139,-81 193,-81 193,-117"/><text text-anchor="middle" x="166" y="-95.3" font-family="Microsoft Yahei" font-size="14">信封</text></g><g id="edge1" class="edge"><title>email-&gt;envelope</title><path fill="none" stroke="#000" d="M74.05-79.66C91.18-83.31 111.6-87.65 128.75-91.29"/><polygon fill="#000" stroke="#000" points="128.44,-94.81 138.95,-93.46 129.9,-87.96 128.44,-94.81"/><text text-anchor="middle" x="106.5" y="-92.8" font-family="Microsoft Yahei" font-size="14">包含</text></g><g id="node3" class="node"><title>content</title><polygon fill="none" stroke="#000" points="193,-63 139,-63 139,-27 193,-27 193,-63"/><text text-anchor="middle" x="166" y="-41.3" font-family="Microsoft Yahei" font-size="14">内容</text></g><g id="edge2" class="edge"><title>email-&gt;content</title><path fill="none" stroke="#000" d="M74.05-64.34C91.18-60.69 111.6-56.35 128.75-52.71"/><polygon fill="#000" stroke="#000" points="129.9,-56.04 138.95,-50.54 128.44,-49.19 129.9,-56.04"/><text text-anchor="middle" x="106.5" y="-63.8" font-family="Microsoft Yahei" font-size="14">包含</text></g><g id="node4" class="node"><title>header</title><polygon fill="none" stroke="#000" points="312,-90 258,-90 258,-54 312,-54 312,-90"/><text text-anchor="middle" x="285" y="-68.3" font-family="Microsoft Yahei" font-size="14">首部</text></g><g id="edge3" class="edge"><title>content-&gt;header</title><path fill="none" stroke="#000" d="M193.26-51.06c16.1-3.72 36.96-8.53 54.61-12.6"/><polygon fill="#000" stroke="#000" points="247.3,-67.12 257.83,-65.96 248.87,-60.3 247.3,-67.12"/><text text-anchor="middle" x="225.5" y="-64.8" font-family="Microsoft Yahei" font-size="14">包含</text></g><g id="node5" class="node"><title>body</title><polygon fill="none" stroke="#000" points="312,-36 258,-36 258,0 312,0 312,-36"/><text text-anchor="middle" x="285" y="-14.3" font-family="Microsoft Yahei" font-size="14">主体</text></g><g id="edge4" class="edge"><title>content-&gt;body</title><path fill="none" stroke="#000" d="M193.26-38.94c16.1 3.72 36.96 8.53 54.61 12.6"/><polygon fill="#000" stroke="#000" points="248.87,-29.7 257.83,-24.04 247.3,-22.88 248.87,-29.7"/><text text-anchor="middle" x="225.5" y="-37.8" font-family="Microsoft Yahei" font-size="14">包含</text></g><g id="node6" class="node"><title>header_format</title><text text-anchor="middle" x="456" y="-68.3" font-family="Microsoft Yahei" font-size="14">RFC 标准</text></g><g id="edge5" class="edge"><title>header-&gt;header_format</title><path fill="none" stroke="#000" stroke-dasharray="5,2" d="M312.04-72c28.14.0 73.27.0 105.28.0"/><text text-anchor="middle" x="358.5" y="-75.8" font-family="Microsoft Yahei" font-size="14">由...定义</text></g><g id="node7" class="node"><title>body_content</title><text text-anchor="middle" x="456" y="-14.3" font-family="Microsoft Yahei" font-size="14">用户自由撰写</text></g><g id="edge6" class="edge"><title>body-&gt;body_content</title><path fill="none" stroke="#000" stroke-dasharray="5,2" d="M312.04-18c24.62.0 62.25.0 92.72.0"/><text text-anchor="middle" x="358.5" y="-21.8" font-family="Microsoft Yahei" font-size="14">由...撰写</text></g></g></svg>