<?xml version="1.0" encoding="UTF-8"?>
<!DOCTYPE svg PUBLIC "-//W3C//DTD SVG 1.1//EN" "http://www.w3.org/Graphics/SVG/1.1/DTD/svg11.dtd">
<svg xmlns="http://www.w3.org/2000/svg" width="219pt" height="483pt" viewBox="0 0 218.5 483" xmlns:xlink="http://www.w3.org/1999/xlink"><g id="graph0" class="graph" transform="scale(1 1) rotate(0) translate(4 479)"><title>selection_structure</title><g id="node1" class="node"><title>start</title><polygon fill="#90ee90" stroke="#000" points="136.5,-475 82.5,-475 82.5,-439 136.5,-439 136.5,-475"/><text text-anchor="middle" x="109.5" y="-453.3" font-family="Times,serif" font-size="14">开始</text></g><g id="node2" class="node"><title>compare</title><polygon fill="#add8e6" stroke="#000" points="164.5,-402 54.5,-402 54.5,-364 164.5,-364 164.5,-402"/><text text-anchor="middle" x="109.5" y="-386.8" font-family="Times,serif" font-size="14">cmp eax, ebx</text><text text-anchor="middle" x="109.5" y="-371.8" font-family="Times,serif" font-size="14">比较 a 和 b</text></g><g id="edge1" class="edge"><title>start-&gt;compare</title><path fill="none" stroke="#000" d="M109.5-438.94c0 7.94999999999999.0 17.63.0 26.63"/><polygon fill="#000" stroke="#000" points="113,-412.2 109.5,-402.2 106,-412.2 113,-412.2"/></g><g id="node3" class="node"><title>condition</title><polygon fill="#ff0" stroke="#000" points="109.5,-327 47.83,-309 109.5,-291 171.17,-309 109.5,-327"/><text text-anchor="middle" x="109.5" y="-305.3" font-family="Times,serif" font-size="14">a &gt; b ?</text></g><g id="edge2" class="edge"><title>compare-&gt;condition</title><path fill="none" stroke="#000" d="M109.5-363.83c0 7.94.0 17.42.0 26.2"/><polygon fill="#000" stroke="#000" points="113,-337.42 109.5,-327.42 106,-337.42 113,-337.42"/></g><g id="node4" class="node"><title>true_branch</title><polygon fill="#f08080" stroke="#000" points="123,-225 8,-225 8,-187 123,-187 123,-225"/><text text-anchor="middle" x="65.5" y="-209.8" font-family="Times,serif" font-size="14">mov max, eax</text><text text-anchor="middle" x="65.5" y="-194.8" font-family="Times,serif" font-size="14">max = a</text></g><g id="edge3" class="edge"><title>condition-&gt;true_branch</title><path fill="none" stroke="green" d="M90.51-296.36C82.57-290.42 74.13-282.44 69.5-273c-5.67 11.56-7.14 25.65-7 37.85"/><polygon fill="green" stroke="green" points="66,-235.19 62.97,-225.04 59.01,-234.86 66,-235.19"/><text text-anchor="middle" x="100" y="-261.8" font-family="Times,serif" font-size="14">jle不跳转</text><text text-anchor="middle" x="100" y="-246.8" font-family="Times,serif" font-size="14">(a &gt; b)</text></g><g id="node5" class="node"><title>false_branch</title><polygon fill="#f08080" stroke="#000" points="210.5,-169 94.5,-169 94.5,-131 210.5,-131 210.5,-169"/><text text-anchor="middle" x="152.5" y="-153.8" font-family="Times,serif" font-size="14">mov max, ebx</text><text text-anchor="middle" x="152.5" y="-138.8" font-family="Times,serif" font-size="14">max = b</text></g><g id="edge4" class="edge"><title>condition-&gt;false_branch</title><path fill="none" stroke="red" d="M119.74-293.62C123.65-287.51 127.81-280.16 130.5-273c11.59 30.85 17.19 68.44 19.81 93.68"/><polygon fill="red" stroke="red" points="153.8,-179.61 151.27,-169.32 146.83,-178.95 153.8,-179.61"/><text text-anchor="middle" x="170" y="-261.8" font-family="Times,serif" font-size="14">jle跳转</text><text text-anchor="middle" x="170" y="-246.8" font-family="Times,serif" font-size="14">(a &lt;= b)</text></g><g id="node6" class="node"><title>jump_skip</title><polygon fill="orange" stroke="#000" points="125,-113 0,-113 0,-75 125,-75 125,-113"/><text text-anchor="middle" x="62.5" y="-97.8" font-family="Times,serif" font-size="14">jmp endif_label</text><text text-anchor="middle" x="62.5" y="-82.8" font-family="Times,serif" font-size="14">跳过else分支</text></g><g id="edge5" class="edge"><title>true_branch-&gt;jump_skip</title><path fill="none" stroke="#000" d="M65-186.84C64.53-169.56 63.82-143.31 63.27-123.29"/><polygon fill="#000" stroke="#000" points="66.77,-123.09 63,-113.19 59.77,-123.28 66.77,-123.09"/></g><g id="node7" class="node"><title>end_label</title><polygon fill="#90ee90" stroke="#000" points="154.5,-38 60.5,-38 60.5,0 154.5,0 154.5,-38"/><text text-anchor="middle" x="107.5" y="-22.8" font-family="Times,serif" font-size="14">endif_label</text><text text-anchor="middle" x="107.5" y="-7.8" font-family="Times,serif" font-size="14">程序继续</text></g><g id="edge7" class="edge"><title>false_branch-&gt;end_label</title><path fill="none" stroke="red" d="M148.83-130.77C145.55-115.61 140.21-93.59 133.5-75c-3.34 9.27-7.7 19.08-11.89 27.81"/><polygon fill="red" stroke="red" points="124.74,-45.63 117.18,-38.21 118.46,-48.73 124.74,-45.63"/></g><g id="edge6" class="edge"><title>jump_skip-&gt;end_label</title><path fill="none" stroke="blue" d="M73.62-74.96c5.25 8.52 11.62 18.84 17.41 28.24"/><polygon fill="blue" stroke="blue" points="94.08,-48.44 96.35,-38.09 88.12,-44.77 94.08,-48.44"/></g></g></svg>