<?xml version="1.0" encoding="UTF-8"?>
<!DOCTYPE svg PUBLIC "-//W3C//DTD SVG 1.1//EN" "http://www.w3.org/Graphics/SVG/1.1/DTD/svg11.dtd">
<svg xmlns="http://www.w3.org/2000/svg" width="662pt" height="507pt" viewBox="0 0 662 507.37" xmlns:xlink="http://www.w3.org/1999/xlink"><g id="graph0" class="graph" transform="scale(1 1) rotate(0) translate(4 503.37)"><title>BST_Search</title><g id="clust1" class="cluster"><title>cluster_legend</title><polygon fill="#ffffe0" stroke="#000" points="365,-66.7 365,-476.74 556,-476.74 556,-66.7 365,-66.7"/><text text-anchor="middle" x="460.5" y="-461.54" font-family="Times,serif" font-size="14">查找示例：查找值35的路径</text></g><g id="clust2" class="cluster"><title>cluster_color_legend</title><polygon fill="#fff" stroke="#000" points="564,-66.7 564,-491.37 646,-491.37 646,-66.7 564,-66.7"/><text text-anchor="middle" x="605" y="-476.17" font-family="Times,serif" font-size="14">颜色说明</text></g><g id="node1" class="node"><title>50</title><ellipse fill="#add8e6" stroke="#000" stroke-width="3" cx="154" cy="-427.74" rx="43.68" ry="43.68"/><text text-anchor="middle" x="154" y="-431.14" font-family="Microsoft Yahei" font-size="12">50</text><text text-anchor="middle" x="154" y="-418.14" font-family="Microsoft Yahei" font-size="12">(根节点)</text></g><g id="node2" class="node"><title>30</title><ellipse fill="#90ee90" stroke="#000" cx="133" cy="-304.28" rx="19.9" ry="19.9"/><text text-anchor="middle" x="133" y="-301.18" font-family="Microsoft Yahei" font-size="12">30</text></g><g id="edge1" class="edge"><title>50-&gt;30</title><path fill="none" stroke="blue" d="M146.66-384.26C143.78-367.63 140.56-349 137.97-334"/><polygon fill="blue" stroke="blue" points="141.36,-333.07 136.2,-323.81 134.46,-334.26 141.36,-333.07"/><text text-anchor="middle" x="147.5" y="-357.9" font-family="Microsoft Yahei" font-size="10">&lt;</text></g><g id="edge21" class="edge"><title>50-&gt;30</title><path fill="none" stroke="orange" stroke-width="3" stroke-dasharray="5,2" d="M158.6-383.87C158.69-374.26 158.04-364.16 156-354.9 154.19-346.69 150.88-338.21 147.32-330.65"/><polygon fill="orange" stroke="orange" stroke-width="3" points="150.4,-328.99 142.78,-321.63 144.15,-332.14 150.4,-328.99"/></g><g id="node7" class="node"><title>70</title><ellipse fill="#f08080" stroke="#000" cx="214" cy="-304.28" rx="19.9" ry="19.9"/><text text-anchor="middle" x="214" y="-301.18" font-family="Microsoft Yahei" font-size="12">70</text></g><g id="edge2" class="edge"><title>50-&gt;70</title><path fill="none" stroke="red" d="M173.15-387.98C182.27-369.52 192.93-347.94 201.07-331.45"/><polygon fill="red" stroke="red" points="204.26,-332.9 205.55,-322.39 197.98,-329.8 204.26,-332.9"/><text text-anchor="middle" x="194.5" y="-357.9" font-family="Microsoft Yahei" font-size="10">&gt;</text></g><g id="node3" class="node"><title>20</title><ellipse fill="#90ee90" stroke="#000" cx="44" cy="-192.02" rx="19.9" ry="19.9"/><text text-anchor="middle" x="44" y="-188.92" font-family="Microsoft Yahei" font-size="12">20</text></g><g id="edge3" class="edge"><title>30-&gt;20</title><path fill="none" stroke="blue" d="M121-288.41c-15.06 18.66-41.05 50.85-58.62 72.62"/><polygon fill="blue" stroke="blue" points="65.1,-213.59 56.1,-208.01 59.65,-217.99 65.1,-213.59"/><text text-anchor="middle" x="96.5" y="-245.65" font-family="Microsoft Yahei" font-size="10">&lt;</text></g><g id="node4" class="node"><title>40</title><ellipse fill="#90ee90" stroke="#000" cx="133" cy="-192.02" rx="19.9" ry="19.9"/><text text-anchor="middle" x="133" y="-188.92" font-family="Microsoft Yahei" font-size="12">40</text></g><g id="edge4" class="edge"><title>30-&gt;40</title><path fill="none" stroke="red" d="M133-284.57c0 17.18.0 42.92.0 62.73"/><polygon fill="red" stroke="red" points="136.5,-221.82 133,-211.82 129.5,-221.82 136.5,-221.82"/><text text-anchor="middle" x="137.5" y="-245.65" font-family="Microsoft Yahei" font-size="10">&gt;</text></g><g id="edge22" class="edge"><title>30-&gt;40</title><path fill="none" stroke="orange" stroke-width="3" stroke-dasharray="5,2" d="M138.95-285.11C141.69-275.82 144.63-264.25 146-253.65 147.41-242.68 145.6-230.75 142.92-220.4"/><polygon fill="orange" stroke="orange" stroke-width="3" points="146.23,-219.26 140.04,-210.66 139.52,-221.25 146.23,-219.26"/></g><g id="node12" class="node"><title>null1</title><polygon fill="gray" stroke="#000" points="54,-110.7 0,-110.7 0,-74.7 54,-74.7 54,-110.7"/><text text-anchor="middle" x="27" y="-89.6" font-family="Microsoft Yahei" font-size="12" fill="#fff">NULL</text></g><g id="edge11" class="edge"><title>20-&gt;null1</title><path fill="none" stroke="gray" stroke-dasharray="5,2" d="M40.72-172.26c-2.55 14.59-6.12 35.04-8.98 51.41"/><polygon fill="gray" stroke="gray" points="35.15,-120.03 29.98,-110.78 28.26,-121.23 35.15,-120.03"/></g><g id="node5" class="node"><title>35</title><ellipse fill="#90ee90" stroke="#000" cx="92" cy="-92.7" rx="19.9" ry="19.9"/><text text-anchor="middle" x="92" y="-89.6" font-family="Microsoft Yahei" font-size="12">35</text></g><g id="edge7" class="edge"><title>40-&gt;35</title><path fill="none" stroke="blue" d="M118.67-178.26c-9.22 9.22-20.44 22.52-25.67 36.86C90.85-135.52 89.89-128.95 89.59-122.61"/><polygon fill="blue" stroke="blue" points="93.1,-122.35 89.64,-112.33 86.1,-122.32 93.1,-122.35"/><text text-anchor="middle" x="97.5" y="-133.4" font-family="Microsoft Yahei" font-size="10">&lt;</text></g><g id="edge23" class="edge"><title>40-&gt;35</title><path fill="none" stroke="orange" stroke-width="3" stroke-dasharray="5,2" d="M125.67-173.62c-6.2 14.71-15.19 36.05-22.32 52.97"/><polygon fill="orange" stroke="orange" stroke-width="3" points="106.51,-119.13 99.4,-111.28 100.06,-121.85 106.51,-119.13"/></g><g id="node6" class="node"><title>45</title><ellipse fill="#90ee90" stroke="#000" cx="149" cy="-92.7" rx="19.9" ry="19.9"/><text text-anchor="middle" x="149" y="-89.6" font-family="Microsoft Yahei" font-size="12">45</text></g><g id="edge8" class="edge"><title>40-&gt;45</title><path fill="none" stroke="red" d="M136.08-172.26C138.41-158.12 141.64-138.49 144.28-122.38"/><polygon fill="red" stroke="red" points="147.76,-122.84 145.92,-112.41 140.85,-121.71 147.76,-122.84"/><text text-anchor="middle" x="147.5" y="-133.4" font-family="Microsoft Yahei" font-size="10">&gt;</text></g><g id="node13" class="node"><title>null2</title><polygon fill="gray" stroke="#000" points="111,-36 57,-36 57,0 111,0 111,-36"/><text text-anchor="middle" x="84" y="-14.9" font-family="Microsoft Yahei" font-size="12" fill="#fff">NULL</text></g><g id="edge12" class="edge"><title>35-&gt;null2</title><path fill="none" stroke="gray" stroke-dasharray="5,2" d="M89.94-72.98C89.06-64.96 88.01-55.44 87.04-46.64"/><polygon fill="gray" stroke="gray" points="90.49,-45.97 85.92,-36.41 83.53,-46.73 90.49,-45.97"/></g><g id="node14" class="node"><title>null3</title><polygon fill="gray" stroke="#000" points="183,-36 129,-36 129,0 183,0 183,-36"/><text text-anchor="middle" x="156" y="-14.9" font-family="Microsoft Yahei" font-size="12" fill="#fff">NULL</text></g><g id="edge13" class="edge"><title>45-&gt;null3</title><path fill="none" stroke="gray" stroke-dasharray="5,2" d="M150.8-72.98C151.57-64.96 152.49-55.44 153.34-46.64"/><polygon fill="gray" stroke="gray" points="156.85,-46.7 154.32,-36.41 149.88,-46.03 156.85,-46.7"/></g><g id="node8" class="node"><title>60</title><ellipse fill="#f08080" stroke="#000" cx="214" cy="-192.02" rx="19.9" ry="19.9"/><text text-anchor="middle" x="214" y="-188.92" font-family="Microsoft Yahei" font-size="12">60</text></g><g id="edge5" class="edge"><title>70-&gt;60</title><path fill="none" stroke="blue" d="M214-284.57c0 17.18.0 42.92.0 62.73"/><polygon fill="blue" stroke="blue" points="217.5,-221.82 214,-211.82 210.5,-221.82 217.5,-221.82"/><text text-anchor="middle" x="218.5" y="-245.65" font-family="Microsoft Yahei" font-size="10">&lt;</text></g><g id="node9" class="node"><title>80</title><ellipse fill="#f08080" stroke="#000" cx="279" cy="-192.02" rx="19.9" ry="19.9"/><text text-anchor="middle" x="279" y="-188.92" font-family="Microsoft Yahei" font-size="12">80</text></g><g id="edge6" class="edge"><title>70-&gt;80</title><path fill="none" stroke="red" d="M223.59-287.01c10.71 18.16 28.16 47.76 40.62 68.89"/><polygon fill="red" stroke="red" points="267.31,-219.75 269.37,-209.36 261.28,-216.2 267.31,-219.75"/><text text-anchor="middle" x="253.5" y="-245.65" font-family="Microsoft Yahei" font-size="10">&gt;</text></g><g id="node15" class="node"><title>null4</title><polygon fill="gray" stroke="#000" points="241,-110.7 187,-110.7 187,-74.7 241,-74.7 241,-110.7"/><text text-anchor="middle" x="214" y="-89.6" font-family="Microsoft Yahei" font-size="12" fill="#fff">NULL</text></g><g id="edge14" class="edge"><title>60-&gt;null4</title><path fill="none" stroke="gray" stroke-dasharray="5,2" d="M214-172.26c0 14.59.0 35.04.0 51.41"/><polygon fill="gray" stroke="gray" points="217.5,-120.78 214,-110.78 210.5,-120.78 217.5,-120.78"/></g><g id="node10" class="node"><title>75</title><ellipse fill="#f08080" stroke="#000" cx="279" cy="-92.7" rx="19.9" ry="19.9"/><text text-anchor="middle" x="279" y="-89.6" font-family="Microsoft Yahei" font-size="12">75</text></g><g id="edge9" class="edge"><title>80-&gt;75</title><path fill="none" stroke="blue" d="M279-172.26c0 14 0 33.4.0 49.41"/><polygon fill="blue" stroke="blue" points="282.5,-122.41 279,-112.41 275.5,-122.41 282.5,-122.41"/><text text-anchor="middle" x="283.5" y="-133.4" font-family="Microsoft Yahei" font-size="10">&lt;</text></g><g id="node11" class="node"><title>90</title><ellipse fill="#f08080" stroke="#000" cx="336" cy="-92.7" rx="19.9" ry="19.9"/><text text-anchor="middle" x="336" y="-89.6" font-family="Microsoft Yahei" font-size="12">90</text></g><g id="edge10" class="edge"><title>80-&gt;90</title><path fill="none" stroke="red" d="M288.67-174.51C297.57-159.32 310.9-136.56 321.14-119.06"/><polygon fill="red" stroke="red" points="324.44,-120.36 326.47,-109.96 318.4,-116.83 324.44,-120.36"/><text text-anchor="middle" x="319.5" y="-133.4" font-family="Microsoft Yahei" font-size="10">&gt;</text></g><g id="node16" class="node"><title>path1</title><polygon fill="lightgrey" stroke="transparent" points="514.5,-445.74 379.5,-445.74 379.5,-409.74 514.5,-409.74 514.5,-445.74"/><text text-anchor="middle" x="447" y="-431.14" font-family="Microsoft Yahei" font-size="12">1. 从根节点50开始</text><text text-anchor="middle" x="447" y="-418.14" font-family="Microsoft Yahei" font-size="12">&#160;&#160;35 &lt; 50，向左子树</text></g><g id="node17" class="node"><title>path2</title><polygon fill="lightgrey" stroke="transparent" points="514.5,-322.28 379.5,-322.28 379.5,-286.28 514.5,-286.28 514.5,-322.28"/><text text-anchor="middle" x="447" y="-307.68" font-family="Microsoft Yahei" font-size="12">2. 到达节点30</text><text text-anchor="middle" x="447" y="-294.68" font-family="Microsoft Yahei" font-size="12">&#160;&#160;35 &gt; 30，向右子树</text></g><g id="node18" class="node"><title>path3</title><polygon fill="lightgrey" stroke="transparent" points="514.5,-210.02 379.5,-210.02 379.5,-174.02 514.5,-174.02 514.5,-210.02"/><text text-anchor="middle" x="447" y="-195.42" font-family="Microsoft Yahei" font-size="12">3. 到达节点40</text><text text-anchor="middle" x="447" y="-182.42" font-family="Microsoft Yahei" font-size="12">&#160;&#160;35 &lt; 40，向左子树</text></g><g id="node19" class="node"><title>path4</title><polygon fill="lightgrey" stroke="transparent" points="520.5,-110.7 373.5,-110.7 373.5,-74.7 520.5,-74.7 520.5,-110.7"/><text text-anchor="middle" x="447" y="-96.1" font-family="Microsoft Yahei" font-size="12">4. 到达节点35</text><text text-anchor="middle" x="447" y="-83.1" font-family="Microsoft Yahei" font-size="12">&#160;&#160;35 = 35，查找成功！</text></g><g id="node20" class="node"><title>legend_root</title><ellipse fill="#add8e6" stroke="#000" cx="605" cy="-427.74" rx="32.75" ry="32.75"/><text text-anchor="middle" x="605" y="-424.64" font-family="Microsoft Yahei" font-size="12">根节点</text></g><g id="node21" class="node"><title>legend_left</title><ellipse fill="#90ee90" stroke="#000" cx="605" cy="-304.28" rx="32.75" ry="32.75"/><text text-anchor="middle" x="605" y="-301.18" font-family="Microsoft Yahei" font-size="12">左子树</text></g><g id="node22" class="node"><title>legend_right</title><ellipse fill="#f08080" stroke="#000" cx="605" cy="-192.02" rx="32.75" ry="32.75"/><text text-anchor="middle" x="605" y="-188.92" font-family="Microsoft Yahei" font-size="12">右子树</text></g><g id="node23" class="node"><title>legend_null</title><polygon fill="gray" stroke="#000" points="632,-110.7 578,-110.7 578,-74.7 632,-74.7 632,-110.7"/><text text-anchor="middle" x="605" y="-89.6" font-family="Microsoft Yahei" font-size="12" fill="#fff">空节点</text></g></g></svg>