<?xml version="1.0" encoding="UTF-8"?>
<!DOCTYPE svg PUBLIC "-//W3C//DTD SVG 1.1//EN" "http://www.w3.org/Graphics/SVG/1.1/DTD/svg11.dtd">
<svg xmlns="http://www.w3.org/2000/svg" width="506pt" height="747pt" viewBox="0 0 506 747" xmlns:xlink="http://www.w3.org/1999/xlink"><g id="graph0" class="graph" transform="scale(1 1) rotate(0) translate(4 743)"><title>OSBootProcess</title><g id="node1" class="node"><title>power_on</title><polygon fill="grey" stroke="#000" points="404.5,-666 311.5,-666 311.5,-628 404.5,-628 404.5,-666"/><text text-anchor="middle" x="358" y="-650.8" font-family="Microsoft Yahei" font-size="14" fill="#fff">1. 电源开机</text><text text-anchor="middle" x="358" y="-635.8" font-family="Microsoft Yahei" font-size="14" fill="#fff">(Power-On)</text></g><g id="node2" class="node"><title>bios_uefi</title><polygon fill="orange" stroke="#000" points="435.5,-591 280.5,-591 280.5,-523 435.5,-523 435.5,-591"/><text text-anchor="middle" x="358" y="-575.8" font-family="Microsoft Yahei" font-size="14">2. BIOS/UEFI 阶段</text><text text-anchor="middle" x="358" y="-560.8" font-family="Microsoft Yahei" font-size="14">- 加电自检</text><text text-anchor="middle" x="358" y="-545.8" font-family="Microsoft Yahei" font-size="14">- 读取启动设备首扇区</text><text text-anchor="middle" x="358" y="-530.8" font-family="Microsoft Yahei" font-size="14">- 包含MBR或GPT</text></g><g id="edge1" class="edge"><title>power_on-&gt;bios_uefi</title><path fill="none" stroke="#000" d="M358-627.77C358-620 358-610.59 358-601.22"/><polygon fill="#000" stroke="#000" points="361.5,-601.15 358,-591.15 354.5,-601.15 361.5,-601.15"/></g><g id="node3" class="node"><title>bootloader</title><polygon fill="gold" stroke="#000" points="352,-464.5 246,-464.5 246,-426.5 352,-426.5 352,-464.5"/><text text-anchor="middle" x="299" y="-449.3" font-family="Microsoft Yahei" font-size="14">3. 引导加载器</text><text text-anchor="middle" x="299" y="-434.3" font-family="Microsoft Yahei" font-size="14">(Bootloader)</text></g><g id="edge2" class="edge"><title>bios_uefi-&gt;bootloader</title><path fill="none" stroke="#000" d="M340.14-522.85C331.68-507.15 321.7-488.63 313.69-473.77"/><polygon fill="#000" stroke="#000" points="316.57,-471.73 308.75,-464.59 310.41,-475.05 316.57,-471.73"/></g><g id="node9" class="node"><title>mbr_gpt</title><polygon fill="wheat" stroke="#000" points="465.5,-472 370.5,-472 370.5,-419 465.5,-419 465.5,-472"/><text text-anchor="middle" x="418" y="-456.8" font-family="Microsoft Yahei" font-size="14">MBR/GPT</text><text text-anchor="middle" x="418" y="-441.8" font-family="Microsoft Yahei" font-size="14">主引导记录/</text><text text-anchor="middle" x="418" y="-426.8" font-family="Microsoft Yahei" font-size="14">GUID分区表</text></g><g id="edge9" class="edge"><title>bios_uefi-&gt;mbr_gpt</title><path fill="none" stroke="#000" stroke-dasharray="5,2" d="M376.16-522.85C383.4-509.65 391.72-494.47 399.03-481.13"/><polygon fill="#000" stroke="#000" points="402.16,-482.69 403.9,-472.24 396.02,-479.32 402.16,-482.69"/><text text-anchor="middle" x="407.5" y="-493.8" font-family="Microsoft Yahei" font-size="14">读取</text></g><g id="node4" class="node"><title>grub</title><polygon fill="#90ee90" stroke="#000" points="277,-382 151,-382 151,-329 277,-329 277,-382"/><text text-anchor="middle" x="214" y="-366.8" font-family="Microsoft Yahei" font-size="14">GRUB</text><text text-anchor="middle" x="214" y="-351.8" font-family="Microsoft Yahei" font-size="14">- Linux系统常用</text><text text-anchor="middle" x="214" y="-336.8" font-family="Microsoft Yahei" font-size="14">- 支持多系统引导</text></g><g id="edge3" class="edge"><title>bootloader-&gt;grub</title><path fill="none" stroke="#000" d="M281.39-426.27c-10.23 10.59-23.43 24.26-35.43 36.68"/><polygon fill="#000" stroke="#000" points="248.14,-386.81 238.68,-382.05 243.11,-391.68 248.14,-386.81"/></g><g id="node5" class="node"><title>windows_boot</title><polygon fill="#add8e6" stroke="#000" points="475,-374.5 295,-374.5 295,-336.5 475,-336.5 475,-374.5"/><text text-anchor="middle" x="385" y="-359.3" font-family="Microsoft Yahei" font-size="14">Windows Boot Manager</text><text text-anchor="middle" x="385" y="-344.3" font-family="Microsoft Yahei" font-size="14">- Windows系统专用</text></g><g id="edge4" class="edge"><title>bootloader-&gt;windows_boot</title><path fill="none" stroke="#000" d="M316.82-426.27c12.45 12.75 29.26 29.94 43.07 44.07"/><polygon fill="#000" stroke="#000" points="362.72,-384.31 367.2,-374.71 357.71,-379.42 362.72,-384.31"/></g><g id="node6" class="node"><title>load_kernel</title><polygon fill="#add8e6" stroke="#000" points="383.5,-292 214.5,-292 214.5,-239 383.5,-239 383.5,-292"/><text text-anchor="middle" x="299" y="-276.8" font-family="Microsoft Yahei" font-size="14">4. 加载操作系统内核</text><text text-anchor="middle" x="299" y="-261.8" font-family="Microsoft Yahei" font-size="14">- 从存储设备加载到内存</text><text text-anchor="middle" x="299" y="-246.8" font-family="Microsoft Yahei" font-size="14">- 交给内核控制权</text></g><g id="edge5" class="edge"><title>grub-&gt;load_kernel</title><path fill="none" stroke="#000" d="M239.04-328.57C247.78-319.53 257.7-309.26 266.92-299.71"/><polygon fill="#000" stroke="#000" points="269.71,-301.87 274.14,-292.24 264.67,-297 269.71,-301.87"/></g><g id="edge6" class="edge"><title>windows_boot-&gt;load_kernel</title><path fill="none" stroke="#000" d="M367.18-336.27c-10.45 10.69-23.95 24.51-36.19 37.03"/><polygon fill="#000" stroke="#000" points="333.46,-296.76 323.97,-292.05 328.46,-301.65 333.46,-296.76"/></g><g id="node7" class="node"><title>kernel_init</title><polygon fill="#90ee90" stroke="#000" points="263,-202 123,-202 123,-119 263,-119 263,-202"/><text text-anchor="middle" x="193" y="-186.8" font-family="Microsoft Yahei" font-size="14">5. 内核初始化</text><text text-anchor="middle" x="193" y="-171.8" font-family="Microsoft Yahei" font-size="14">- 检测配置硬件资源</text><text text-anchor="middle" x="193" y="-156.8" font-family="Microsoft Yahei" font-size="14">- 设置中断</text><text text-anchor="middle" x="193" y="-141.8" font-family="Microsoft Yahei" font-size="14">- 初始化设备驱动</text><text text-anchor="middle" x="193" y="-126.8" font-family="Microsoft Yahei" font-size="14">- 建立内存管理结构</text></g><g id="edge7" class="edge"><title>load_kernel-&gt;kernel_init</title><path fill="none" stroke="#000" d="M272.53-238.77c-9.26999999999998 9-20 19.42-30.51 29.64"/><polygon fill="#000" stroke="#000" points="244.4,-206.57 234.79,-202.11 239.53,-211.59 244.4,-206.57"/></g><g id="node10" class="node"><title>storage</title><polygon fill="#d3d3d3" stroke="#000" points="343.5,-53 254.5,-53 254.5,-15 343.5,-15 343.5,-53"/><text text-anchor="middle" x="299" y="-37.8" font-family="Microsoft Yahei" font-size="14">存储设备</text><text text-anchor="middle" x="299" y="-22.8" font-family="Microsoft Yahei" font-size="14">(硬盘/SSD)</text></g><g id="edge10" class="edge"><title>load_kernel-&gt;storage</title><path fill="none" stroke="#000" stroke-dasharray="5,2" d="M299-238.62c0 43.32.0 130.18.0 175.16"/><polygon fill="#000" stroke="#000" points="302.5,-63.24 299,-53.24 295.5,-63.24 302.5,-63.24"/><text text-anchor="middle" x="328" y="-156.8" font-family="Microsoft Yahei" font-size="14">从中加载</text></g><g id="node11" class="node"><title>memory</title><polygon fill="#ffb6c1" stroke="#000" points="436,-53 362,-53 362,-15 436,-15 436,-53"/><text text-anchor="middle" x="399" y="-37.8" font-family="Microsoft Yahei" font-size="14">系统内存</text><text text-anchor="middle" x="399" y="-22.8" font-family="Microsoft Yahei" font-size="14">(RAM)</text></g><g id="edge11" class="edge"><title>load_kernel-&gt;memory</title><path fill="none" stroke="#000" stroke-dasharray="5,2" d="M330.84-238.99C341.9-228.61 353.42-215.8 361-202c24.43 44.44 33.17 103.78 36.29 138.45"/><polygon fill="#000" stroke="#000" points="400.81,-63.46 398.12,-53.21 393.83,-62.9 400.81,-63.46"/><text text-anchor="middle" x="411.5" y="-156.8" font-family="Microsoft Yahei" font-size="14">加载到</text></g><g id="node8" class="node"><title>system_services</title><polygon fill="#e0ffff" stroke="#000" points="140,-60.5 0,-60.5 0,-7.5 140,-7.5 140,-60.5"/><text text-anchor="middle" x="70" y="-45.3" font-family="Microsoft Yahei" font-size="14">6. 启动系统服务</text><text text-anchor="middle" x="70" y="-30.3" font-family="Microsoft Yahei" font-size="14">和守护进程</text><text text-anchor="middle" x="70" y="-15.3" font-family="Microsoft Yahei" font-size="14">- 管理各种系统任务</text></g><g id="edge8" class="edge"><title>kernel_init-&gt;system_services</title><path fill="none" stroke="#000" d="M152.73-118.73c-16.26 16.45-34.77 35.19-50.16 50.76"/><polygon fill="#000" stroke="#000" points="104.81,-65.26 95.29,-60.6 99.83,-70.18 104.81,-65.26"/></g><g id="node12" class="node"><title>hardware</title><polygon fill="#b0c4de" stroke="#000" points="233.5,-68 158.5,-68 158.5,0 233.5,0 233.5,-68"/><text text-anchor="middle" x="196" y="-52.8" font-family="Microsoft Yahei" font-size="14">硬件资源</text><text text-anchor="middle" x="196" y="-37.8" font-family="Microsoft Yahei" font-size="14">- CPU</text><text text-anchor="middle" x="196" y="-22.8" font-family="Microsoft Yahei" font-size="14">- 内存</text><text text-anchor="middle" x="196" y="-7.8" font-family="Microsoft Yahei" font-size="14">- I/O设备</text></g><g id="edge12" class="edge"><title>kernel_init-&gt;hardware</title><path fill="none" stroke="#000" stroke-dasharray="5,2" d="M193.98-118.73C194.29-105.86 194.64-91.6 194.95-78.54"/><polygon fill="#000" stroke="#000" points="198.45,-78.46 195.2,-68.38 191.46,-78.29 198.45,-78.46"/><text text-anchor="middle" x="224" y="-89.8" font-family="Microsoft Yahei" font-size="14">检测配置</text></g><g id="node13" class="node"><title>title</title><polygon fill="lightgrey" stroke="transparent" points="498,-739 218,-739 218,-703 498,-703 498,-739"/><text text-anchor="middle" x="358" y="-716" font-family="Microsoft Yahei" font-size="20">操作系统引导流程与实时系统</text></g></g></svg>