<?xml version="1.0" encoding="UTF-8"?>
<!DOCTYPE svg PUBLIC "-//W3C//DTD SVG 1.1//EN" "http://www.w3.org/Graphics/SVG/1.1/DTD/svg11.dtd">
<svg xmlns="http://www.w3.org/2000/svg" width="545pt" height="466pt" viewBox="0 0 545 466" xmlns:xlink="http://www.w3.org/1999/xlink"><g id="graph0" class="graph" transform="scale(1 1) rotate(0) translate(4 462)"><title>while_loop</title><g id="clust1" class="cluster"><title>cluster_iterations</title><polygon fill="transparent" stroke="purple" stroke-dasharray="5,2" points="341,-8 341,-450 529,-450 529,-8 341,-8"/><text text-anchor="middle" x="435" y="-434.8" font-family="Times,serif" font-size="14">循环执行过程</text></g><g id="node1" class="node"><title>program_start</title><polygon fill="#90ee90" stroke="#000" points="244,-419 170,-419 170,-383 244,-383 244,-419"/><text text-anchor="middle" x="207" y="-397.3" font-family="Times,serif" font-size="14">程序开始</text></g><g id="node2" class="node"><title>loop_start</title><polygon fill="#add8e6" stroke="#000" points="244,-346 170,-346 170,-308 244,-308 244,-346"/><text text-anchor="middle" x="207" y="-330.8" font-family="Times,serif" font-size="14">start:</text><text text-anchor="middle" x="207" y="-315.8" font-family="Times,serif" font-size="14">循环入口</text></g><g id="edge1" class="edge"><title>program_start-&gt;loop_start</title><path fill="none" stroke="#000" d="M207-382.94C207-374.99 207-365.31 207-356.31"/><polygon fill="#000" stroke="#000" points="210.5,-356.2 207,-346.2 203.5,-356.2 210.5,-356.2"/></g><g id="node3" class="node"><title>condition</title><polygon fill="#ff0" stroke="#000" points="140,-271 33,-233 140,-195 247,-233 140,-271"/><text text-anchor="middle" x="140" y="-236.8" font-family="Times,serif" font-size="14">cmp ecx, 10</text><text text-anchor="middle" x="140" y="-221.8" font-family="Times,serif" font-size="14">count &lt; 10 ?</text></g><g id="edge2" class="edge"><title>loop_start-&gt;condition</title><path fill="none" stroke="#000" d="M193.76-307.82C186.33-297.61 176.76-284.47 167.76-272.11"/><polygon fill="#000" stroke="#000" points="170.37,-269.75 161.65,-263.73 164.71,-273.87 170.37,-269.75"/></g><g id="node4" class="node"><title>loop_body</title><polygon fill="#f08080" stroke="#000" points="224,-129 144,-129 144,-91 224,-91 224,-129"/><text text-anchor="middle" x="184" y="-113.8" font-family="Times,serif" font-size="14">inc ecx</text><text text-anchor="middle" x="184" y="-98.8" font-family="Times,serif" font-size="14">count++</text></g><g id="edge3" class="edge"><title>condition-&gt;loop_body</title><path fill="none" stroke="green" d="M147.17-197.4C150.98-181.69 156.27-163.08 163-147 164.22-144.09 165.63-141.13 167.13-138.21"/><polygon fill="green" stroke="green" points="170.34,-139.64 172.13,-129.2 164.22,-136.25 170.34,-139.64"/><text text-anchor="middle" x="208" y="-165.8" font-family="Times,serif" font-size="14" fill="green">jge不跳转</text><text text-anchor="middle" x="208" y="-150.8" font-family="Times,serif" font-size="14" fill="green">(count &lt; 10)</text></g><g id="node6" class="node"><title>loop_end</title><polygon fill="#90ee90" stroke="#000" points="74,-129 0,-129 0,-91 74,-91 74,-129"/><text text-anchor="middle" x="37" y="-113.8" font-family="Times,serif" font-size="14">end:</text><text text-anchor="middle" x="37" y="-98.8" font-family="Times,serif" font-size="14">循环结束</text></g><g id="edge4" class="edge"><title>condition-&gt;loop_end</title><path fill="none" stroke="red" d="M89.69-212.68C73.65-204.11 57.39-192.39 47-177c-7.37 10.92-10.17 25.16-11 37.62"/><polygon fill="red" stroke="red" points="39.49,-138.92 35.71,-129.03 32.49,-139.12 39.49,-138.92"/><text text-anchor="middle" x="98" y="-165.8" font-family="Times,serif" font-size="14" fill="red">jge跳转</text><text text-anchor="middle" x="98" y="-150.8" font-family="Times,serif" font-size="14" fill="red">(count &gt;= 10)</text></g><g id="node5" class="node"><title>jump_back</title><polygon fill="orange" stroke="#000" points="297,-54 195,-54 195,-16 297,-16 297,-54"/><text text-anchor="middle" x="246" y="-38.8" font-family="Times,serif" font-size="14">jmp start</text><text text-anchor="middle" x="246" y="-23.8" font-family="Times,serif" font-size="14">跳回循环开始</text></g><g id="edge5" class="edge"><title>loop_body-&gt;jump_back</title><path fill="none" stroke="#000" d="M199.33-90.96C206.78-82.18 215.87-71.48 224.04-61.85"/><polygon fill="#000" stroke="#000" points="226.83,-63.98 230.64,-54.09 221.49,-59.45 226.83,-63.98"/></g><g id="edge6" class="edge"><title>jump_back-&gt;loop_start</title><path fill="none" stroke="blue" d="M251.48-54.16C262.73-94.68 284.99-194.87 256-271 251.85-281.89 244.45-291.99 236.64-300.49"/><polygon fill="blue" stroke="blue" points="233.94,-298.24 229.43,-307.82 238.93,-303.15 233.94,-298.24"/><text text-anchor="middle" x="300" y="-158.3" font-family="Times,serif" font-size="14" fill="blue">循环回跳</text></g><g id="node7" class="node"><title>program_continue</title><polygon fill="#d3d3d3" stroke="#000" points="74,-53 0,-53 0,-17 74,-17 74,-53"/><text text-anchor="middle" x="37" y="-31.3" font-family="Times,serif" font-size="14">程序继续</text></g><g id="edge7" class="edge"><title>loop_end-&gt;program_continue</title><path fill="none" stroke="#000" d="M37-90.96C37-82.7 37-72.74 37-63.57"/><polygon fill="#000" stroke="#000" points="40.5,-63.33 37,-53.33 33.5,-63.33 40.5,-63.33"/></g><g id="node8" class="node"><title>iter1</title><polygon fill="#ffffe0" stroke="#000" points="501.5,-419 362.5,-419 362.5,-383 507.5,-383 507.5,-413 501.5,-419"/><polyline fill="none" stroke="#000" points="501.5,-419 501.5,-413"/><polyline fill="none" stroke="#000" points="507.5,-413 501.5,-413"/><text text-anchor="middle" x="435" y="-397.3" font-family="Times,serif" font-size="14">第1次: count=0→1</text></g><g id="node9" class="node"><title>iter2</title><polygon fill="#ffffe0" stroke="#000" points="501.5,-345 362.5,-345 362.5,-309 507.5,-309 507.5,-339 501.5,-345"/><polyline fill="none" stroke="#000" points="501.5,-345 501.5,-339"/><polyline fill="none" stroke="#000" points="507.5,-339 501.5,-339"/><text text-anchor="middle" x="435" y="-323.3" font-family="Times,serif" font-size="14">第2次: count=1→2</text></g><g id="edge8" class="edge"><title>iter1-&gt;iter2</title><path fill="none" stroke="#000" d="M435-382.94c0 8.13.0 18.06.0 27.24"/><polygon fill="#000" stroke="#000" points="438.5,-355.44 435,-345.44 431.5,-355.44 438.5,-355.44"/></g><g id="node10" class="node"><title>iter3</title><polygon fill="#ffffe0" stroke="#000" points="456,-251 408,-251 408,-215 462,-215 462,-245 456,-251"/><polyline fill="none" stroke="#000" points="456,-251 456,-245"/><polyline fill="none" stroke="#000" points="462,-245 456,-245"/><text text-anchor="middle" x="435" y="-229.3" font-family="Times,serif" font-size="14">...</text></g><g id="edge9" class="edge"><title>iter2-&gt;iter3</title><path fill="none" stroke="#000" d="M435-308.7c0 13.24.0 31.75.0 47.04"/><polygon fill="#000" stroke="#000" points="438.5,-261.23 435,-251.23 431.5,-261.23 438.5,-261.23"/></g><g id="node11" class="node"><title>iter4</title><polygon fill="#ffffe0" stroke="#000" points="510.5,-128 353.5,-128 353.5,-92 516.5,-92 516.5,-122 510.5,-128"/><polyline fill="none" stroke="#000" points="510.5,-128 510.5,-122"/><polyline fill="none" stroke="#000" points="516.5,-122 510.5,-122"/><text text-anchor="middle" x="435" y="-106.3" font-family="Times,serif" font-size="14">第10次: count=9→10</text></g><g id="edge10" class="edge"><title>iter3-&gt;iter4</title><path fill="none" stroke="#000" d="M435-214.92c0 19.88.0 53 0 76.5"/><polygon fill="#000" stroke="#000" points="438.5,-138.38 435,-128.38 431.5,-138.38 438.5,-138.38"/></g><g id="node12" class="node"><title>iter5</title><polygon fill="#ffb6c1" stroke="#000" points="515,-54 349,-54 349,-16 521,-16 521,-48 515,-54"/><polyline fill="none" stroke="#000" points="515,-54 515,-48"/><polyline fill="none" stroke="#000" points="521,-48 515,-48"/><text text-anchor="middle" x="435" y="-38.8" font-family="Times,serif" font-size="14">第11次: count=10≥10</text><text text-anchor="middle" x="435" y="-23.8" font-family="Times,serif" font-size="14">跳出循环</text></g><g id="edge11" class="edge"><title>iter4-&gt;iter5</title><path fill="none" stroke="#000" d="M435-91.7C435-83.49 435-73.47 435-64.2"/><polygon fill="#000" stroke="#000" points="438.5,-64.19 435,-54.19 431.5,-64.19 438.5,-64.19"/></g></g></svg>