<?xml version="1.0" encoding="UTF-8"?>
<!DOCTYPE svg PUBLIC "-//W3C//DTD SVG 1.1//EN" "http://www.w3.org/Graphics/SVG/1.1/DTD/svg11.dtd">
<svg xmlns="http://www.w3.org/2000/svg" width="726pt" height="112pt" viewBox="0 0 726 112" xmlns:xlink="http://www.w3.org/1999/xlink"><g id="graph0" class="graph" transform="scale(1 1) rotate(0) translate(4 108)"><title>CircuitSwitching</title><g id="node1" class="node"><title>Sender</title><polygon fill="none" stroke="#000" points="9.5,-30.5 9.5,-49.5 88.5,-49.5 88.5,-30.5 9.5,-30.5"/><text text-anchor="start" x="30.5" y="-37.9" font-family="Times,serif" font-weight="bold" font-size="12">发送方</text><polygon fill="none" stroke="#000" points="9.5,-11.5 9.5,-30.5 88.5,-30.5 88.5,-11.5 9.5,-11.5"/><text text-anchor="start" x="12.5" y="-17.9" font-family="Times,serif" font-size="12">发起连接请求</text><polygon fill="none" stroke="#000" points="8,-10.5 8,-50.5 89,-50.5 89,-10.5 8,-10.5"/></g><g id="node2" class="node"><title>Switch1</title><polygon fill="#f8d7da" stroke="transparent" points="199,-47 199,-100 292,-100 292,-47 199,-47"/><polygon fill="none" stroke="#000" points="200.5,-79.5 200.5,-98.5 291.5,-98.5 291.5,-79.5 200.5,-79.5"/><text text-anchor="start" x="215.5" y="-86.9" font-family="Times,serif" font-weight="bold" font-size="12">交换设备 1</text><polygon fill="none" stroke="#000" points="200.5,-47.5 200.5,-79.5 291.5,-79.5 291.5,-47.5 200.5,-47.5"/><text text-anchor="start" x="209.5" y="-66.9" font-family="Times,serif" font-size="12">建立专用路径</text><text text-anchor="start" x="203.5" y="-53.9" font-family="Times,serif" font-size="12">端到端电路分配</text><polygon fill="none" stroke="#000" points="199,-47 199,-100 292,-100 292,-47 199,-47"/></g><g id="edge1" class="edge"><title>Sender-&gt;Switch1</title><path fill="none" stroke="#000" d="M97.2-41.02c25.21-5.56 56.48-12.45 83.72-18.46"/><polygon fill="#000" stroke="#000" points="180.24,-62.91 190.76,-61.65 181.75,-56.08 180.24,-62.91"/><text text-anchor="middle" x="144" y="-60.3" font-family="Times,serif" font-size="14">建立连接</text></g><g id="node4" class="node"><title>Receiver</title><polygon fill="none" stroke="#000" points="594.5,-36.5 594.5,-55.5 709.5,-55.5 709.5,-36.5 594.5,-36.5"/><text text-anchor="start" x="633.5" y="-43.9" font-family="Times,serif" font-weight="bold" font-size="12">接收方</text><polygon fill="none" stroke="#000" points="594.5,-4.5 594.5,-36.5 709.5,-36.5 709.5,-4.5 594.5,-4.5"/><text text-anchor="start" x="627.5" y="-23.9" font-family="Times,serif" font-size="12">接收数据</text><text text-anchor="start" x="597.5" y="-10.9" font-family="Times,serif" font-size="12">通信结束后释放电路</text><polygon fill="none" stroke="#000" points="593,-4 593,-57 710,-57 710,-4 593,-4"/></g><g id="edge4" class="edge"><title>Sender-&gt;Receiver</title><path fill="none" stroke="blue" stroke-dasharray="5,2" d="M97.16-30.5c103.97.0 351.85.0 477.52.0"/><polygon fill="blue" stroke="blue" points="574.98,-34 584.98,-30.5 574.98,-27 574.98,-34"/><text text-anchor="middle" x="347" y="-34.3" font-family="Times,serif" font-size="14">数据传输</text></g><g id="node3" class="node"><title>Switch2</title><polygon fill="#f8d7da" stroke="transparent" points="402,-47 402,-100 483,-100 483,-47 402,-47"/><polygon fill="none" stroke="#000" points="403.5,-79.5 403.5,-98.5 482.5,-98.5 482.5,-79.5 403.5,-79.5"/><text text-anchor="start" x="412.5" y="-86.9" font-family="Times,serif" font-weight="bold" font-size="12">交换设备 2</text><polygon fill="none" stroke="#000" points="403.5,-47.5 403.5,-79.5 482.5,-79.5 482.5,-47.5 403.5,-47.5"/><text text-anchor="start" x="418.5" y="-66.9" font-family="Times,serif" font-size="12">转发信号</text><text text-anchor="start" x="406.5" y="-53.9" font-family="Times,serif" font-size="12">保持专用电路</text><polygon fill="none" stroke="#000" points="402,-47 402,-100 483,-100 483,-47 402,-47"/></g><g id="edge2" class="edge"><title>Switch1-&gt;Switch2</title><path fill="none" stroke="#000" d="M300.04-73.5c25.88.0 56.99.0 83.43.0"/><polygon fill="#000" stroke="#000" points="383.73,-77 393.73,-73.5 383.73,-70 383.73,-77"/><text text-anchor="middle" x="347" y="-77.3" font-family="Times,serif" font-size="14">建立连接</text></g><g id="edge3" class="edge"><title>Switch2-&gt;Receiver</title><path fill="none" stroke="#000" d="M491.25-63.58c24.78 5.15 55.63 11.56 83.56 17.36"/><polygon fill="#000" stroke="#000" points="575.88,-49.58 584.96,-44.12 574.45,-42.72 575.88,-49.58"/><text text-anchor="middle" x="538" y="-63.3" font-family="Times,serif" font-size="14">建立连接</text></g></g></svg>