<?xml version="1.0" encoding="UTF-8"?>
<!DOCTYPE svg PUBLIC "-//W3C//DTD SVG 1.1//EN" "http://www.w3.org/Graphics/SVG/1.1/DTD/svg11.dtd">
<svg xmlns="http://www.w3.org/2000/svg" width="838pt" height="69pt" viewBox="0 0 838 69" xmlns:xlink="http://www.w3.org/1999/xlink"><g id="graph0" class="graph" transform="scale(1 1) rotate(0) translate(4 65)"><title>MessageSwitching</title><g id="node1" class="node"><title>Sender</title><polygon fill="none" stroke="#000" points="9.5,-30.5 9.5,-49.5 88.5,-49.5 88.5,-30.5 9.5,-30.5"/><text text-anchor="start" x="30.5" y="-37.9" font-family="Times,serif" font-weight="bold" font-size="12">发送方</text><polygon fill="none" stroke="#000" points="9.5,-11.5 9.5,-30.5 88.5,-30.5 88.5,-11.5 9.5,-11.5"/><text text-anchor="start" x="12.5" y="-17.9" font-family="Times,serif" font-size="12">产生完整报文</text><polygon fill="none" stroke="#000" points="8,-10.5 8,-50.5 89,-50.5 89,-10.5 8,-10.5"/></g><g id="node2" class="node"><title>NodeA</title><polygon fill="#fff3cd" stroke="transparent" points="227,-4 227,-57 342,-57 342,-4 227,-4"/><polygon fill="none" stroke="#000" points="228.5,-36.5 228.5,-55.5 341.5,-55.5 341.5,-36.5 228.5,-36.5"/><text text-anchor="start" x="266.5" y="-43.9" font-family="Times,serif" font-weight="bold" font-size="12">节点 A</text><polygon fill="none" stroke="#000" points="228.5,-4.5 228.5,-36.5 341.5,-36.5 341.5,-4.5 228.5,-4.5"/><text text-anchor="start" x="262" y="-23.9" font-family="Times,serif" font-size="12">[缓冲区]</text><text text-anchor="start" x="231.5" y="-10.9" font-family="Times,serif" font-size="12">接收 → 存储 → 转发</text><polygon fill="none" stroke="#000" points="227,-4 227,-57 342,-57 342,-4 227,-4"/></g><g id="edge1" class="edge"><title>Sender-&gt;NodeA</title><path fill="none" stroke="#000" d="M97.14-30.5c32 0 74.84.0 111.37.0"/><polygon fill="#000" stroke="#000" points="208.63,-34 218.63,-30.5 208.63,-27 208.63,-34"/><text text-anchor="middle" x="158" y="-34.3" font-family="Times,serif" font-size="14">发送完整报文</text></g><g id="node3" class="node"><title>NodeB</title><polygon fill="#fff3cd" stroke="transparent" points="466,-4 466,-57 581,-57 581,-4 466,-4"/><polygon fill="none" stroke="#000" points="467.5,-36.5 467.5,-55.5 580.5,-55.5 580.5,-36.5 467.5,-36.5"/><text text-anchor="start" x="505" y="-43.9" font-family="Times,serif" font-weight="bold" font-size="12">节点 B</text><polygon fill="none" stroke="#000" points="467.5,-4.5 467.5,-36.5 580.5,-36.5 580.5,-4.5 467.5,-4.5"/><text text-anchor="start" x="501" y="-23.9" font-family="Times,serif" font-size="12">[缓冲区]</text><text text-anchor="start" x="470.5" y="-10.9" font-family="Times,serif" font-size="12">接收 → 存储 → 转发</text><polygon fill="none" stroke="#000" points="466,-4 466,-57 581,-57 581,-4 466,-4"/></g><g id="edge2" class="edge"><title>NodeA-&gt;NodeB</title><path fill="none" stroke="#000" d="M350.26-30.5c30.05.0 65.94.0 97.16.0"/><polygon fill="#000" stroke="#000" points="447.82,-34 457.82,-30.5 447.82,-27 447.82,-34"/><text text-anchor="middle" x="404" y="-34.3" font-family="Times,serif" font-size="14">存储并转发</text></g><g id="node4" class="node"><title>Receiver</title><polygon fill="none" stroke="#000" points="706.5,-30.5 706.5,-49.5 821.5,-49.5 821.5,-30.5 706.5,-30.5"/><text text-anchor="start" x="745.5" y="-37.9" font-family="Times,serif" font-weight="bold" font-size="12">接收方</text><polygon fill="none" stroke="#000" points="706.5,-11.5 706.5,-30.5 821.5,-30.5 821.5,-11.5 706.5,-11.5"/><text text-anchor="start" x="709.5" y="-17.9" font-family="Times,serif" font-size="12">收到完整报文并处理</text><polygon fill="none" stroke="#000" points="705,-10.5 705,-50.5 822,-50.5 822,-10.5 705,-10.5"/></g><g id="edge3" class="edge"><title>NodeB-&gt;Receiver</title><path fill="none" stroke="#000" d="M589.22-30.5c30.18.0 66.29.0 97.72.0"/><polygon fill="#000" stroke="#000" points="686.97,-34 696.97,-30.5 686.97,-27 686.97,-34"/><text text-anchor="middle" x="643" y="-34.3" font-family="Times,serif" font-size="14">存储并转发</text></g></g></svg>