<?xml version="1.0" encoding="UTF-8"?>
<!DOCTYPE svg PUBLIC "-//W3C//DTD SVG 1.1//EN" "http://www.w3.org/Graphics/SVG/1.1/DTD/svg11.dtd">
<svg xmlns="http://www.w3.org/2000/svg" width="652pt" height="715pt" viewBox="0 0 651.5 715" xmlns:xlink="http://www.w3.org/1999/xlink"><g id="graph0" class="graph" transform="scale(1 1) rotate(0) translate(4 711)"><title>ReplacementSelection</title><g id="node1" class="node"><title>start</title><ellipse fill="#90ee90" stroke="#000" cx="302.5" cy="-688" rx="29.5" ry="18"/><text text-anchor="middle" x="302.5" y="-684.3" font-family="Times,serif" font-size="14">开始</text></g><g id="node2" class="node"><title>init</title><polygon fill="#ffffe0" stroke="#000" points="389,-632 216,-632 216,-579 389,-579 389,-632"/><text text-anchor="middle" x="302.5" y="-616.8" font-family="Times,serif" font-size="14">初始化:</text><text text-anchor="middle" x="302.5" y="-601.8" font-family="Times,serif" font-size="14">读取前M个记录到工作区</text><text text-anchor="middle" x="302.5" y="-586.8" font-family="Times,serif" font-size="14">建立最小堆</text></g><g id="edge1" class="edge"><title>start-&gt;init</title><path fill="none" stroke="#000" d="M302.5-669.93c0 8.06999999999994.0 18.02.0 27.63"/><polygon fill="#000" stroke="#000" points="306,-642.12 302.5,-632.12 299,-642.12 306,-642.12"/></g><g id="node3" class="node"><title>check_segment</title><polygon fill="#f08080" stroke="#000" points="302.5,-542 207.5,-504 302.5,-466 397.5,-504 302.5,-542"/><text text-anchor="middle" x="302.5" y="-507.8" font-family="Times,serif" font-size="14">是否存在</text><text text-anchor="middle" x="302.5" y="-492.8" font-family="Times,serif" font-size="14">初始归并段?</text></g><g id="edge2" class="edge"><title>init-&gt;check_segment</title><path fill="none" stroke="#000" d="M302.5-578.88c0 8.12000000000001.0 17.37.0 26.51"/><polygon fill="#000" stroke="#000" points="306,-552.17 302.5,-542.17 299,-552.17 306,-552.17"/></g><g id="node4" class="node"><title>create_new</title><polygon fill="#90ee90" stroke="#000" points="145,-325 0,-325 0,-287 145,-287 145,-325"/><text text-anchor="middle" x="72.5" y="-309.8" font-family="Times,serif" font-size="14">创建新的初始归并段</text><text text-anchor="middle" x="72.5" y="-294.8" font-family="Times,serif" font-size="14">添加工作区最小元素</text></g><g id="edge3" class="edge"><title>check_segment-&gt;create_new</title><path fill="none" stroke="#000" d="M264.83-480.81c-25.67 15.85-59.84 38.44-87.33 61.81-31.42 26.72-63.23 62.06-83.47 85.84"/><polygon fill="#000" stroke="#000" points="96.5,-330.65 87.38,-325.27 91.15,-335.17 96.5,-330.65"/><text text-anchor="middle" x="220.5" y="-440" font-family="Times,serif" font-size="10">否</text></g><g id="node5" class="node"><title>compare_maxv</title><polygon fill="#f08080" stroke="#000" points="302.5,-419 186.5,-381 302.5,-343 418.5,-381 302.5,-419"/><text text-anchor="middle" x="302.5" y="-384.8" font-family="Times,serif" font-size="14">工作区所有元素</text><text text-anchor="middle" x="302.5" y="-369.8" font-family="Times,serif" font-size="14">都 ≤ MAXV?</text></g><g id="edge4" class="edge"><title>check_segment-&gt;compare_maxv</title><path fill="none" stroke="#000" d="M302.5-465.71c0 11.39.0 24.07.0 36.04"/><polygon fill="#000" stroke="#000" points="306,-429.38 302.5,-419.38 299,-429.38 306,-429.38"/><text text-anchor="middle" x="307.5" y="-440" font-family="Times,serif" font-size="10">是</text></g><g id="node8" class="node"><title>read_next</title><polygon fill="#ffffe0" stroke="#000" points="274,-194 129,-194 129,-156 274,-156 274,-194"/><text text-anchor="middle" x="201.5" y="-178.8" font-family="Times,serif" font-size="14">从输入文件读取</text><text text-anchor="middle" x="201.5" y="-163.8" font-family="Times,serif" font-size="14">下一个值加入工作区</text></g><g id="edge7" class="edge"><title>create_new-&gt;read_next</title><path fill="none" stroke="#000" d="M66.94-286.97c-3.79 16.05-6.37 39.48 4.56 55.97 11.34 17.12 29.19 28.92 48.06 37.06"/><polygon fill="#000" stroke="#000" points="120.89,-197.18 128.89,-190.24 118.3,-190.68 120.89,-197.18"/></g><g id="node6" class="node"><title>create_new_segment</title><polygon fill="#90ee90" stroke="#000" points="226,-269 81,-269 81,-231 226,-231 226,-269"/><text text-anchor="middle" x="153.5" y="-253.8" font-family="Times,serif" font-size="14">创建新的初始归并段</text><text text-anchor="middle" x="153.5" y="-238.8" font-family="Times,serif" font-size="14">添加工作区最小元素</text></g><g id="edge5" class="edge"><title>compare_maxv-&gt;create_new_segment</title><path fill="none" stroke="#000" d="M271.26-352.96c-26.18 22.67-63.27 54.78-88.79 76.88"/><polygon fill="#000" stroke="#000" points="184.47,-273.18 174.62,-269.28 179.89,-278.48 184.47,-273.18"/><text text-anchor="middle" x="242.5" y="-303.5" font-family="Times,serif" font-size="10">是</text></g><g id="node7" class="node"><title>find_greater</title><polygon fill="#add8e6" stroke="#000" points="444.5,-269 244.5,-269 244.5,-231 444.5,-231 444.5,-269"/><text text-anchor="middle" x="344.5" y="-253.8" font-family="Times,serif" font-size="14">找到第一个 &gt; MAXV 的元素</text><text text-anchor="middle" x="344.5" y="-238.8" font-family="Times,serif" font-size="14">添加到上一个归并段末尾</text></g><g id="edge6" class="edge"><title>compare_maxv-&gt;find_greater</title><path fill="none" stroke="#000" d="M313.43-346.44C320.26-325.46 328.95-298.76 335.4-278.94"/><polygon fill="#000" stroke="#000" points="338.78,-279.86 338.55,-269.27 332.13,-277.69 338.78,-279.86"/><text text-anchor="middle" x="336.5" y="-303.5" font-family="Times,serif" font-size="10">否</text></g><g id="edge8" class="edge"><title>create_new_segment-&gt;read_next</title><path fill="none" stroke="#000" d="M165.37-230.96C170.96-222.44 177.75-212.12 183.93-202.72"/><polygon fill="#000" stroke="#000" points="187.04,-204.37 189.6,-194.09 181.19,-200.52 187.04,-204.37"/></g><g id="edge9" class="edge"><title>find_greater-&gt;read_next</title><path fill="none" stroke="#000" d="M309.15-230.96C290.07-221.22 266.33-209.1 246.01-198.72"/><polygon fill="#000" stroke="#000" points="247.44,-195.52 236.94,-194.09 244.25,-201.75 247.44,-195.52"/></g><g id="node9" class="node"><title>check_data</title><polygon fill="#f08080" stroke="#000" points="364.5,-119 263.29,-101 364.5,-83 465.71,-101 364.5,-119"/><text text-anchor="middle" x="364.5" y="-97.3" font-family="Times,serif" font-size="14">还有输入数据?</text></g><g id="edge10" class="edge"><title>read_next-&gt;check_data</title><path fill="none" stroke="#000" d="M242.63-155.83c26.09 11.52 59.57 26.31 84.83 37.47"/><polygon fill="#000" stroke="#000" points="328.98,-121.52 336.71,-114.28 326.15,-115.11 328.98,-121.52"/></g><g id="edge11" class="edge"><title>check_data-&gt;check_segment</title><path fill="none" stroke="#000" d="M409.68-111.09c32.57-9.5 70.82-28.07 70.82-62.91V-382c0-55.29-59.46-87.09-109.65-104.08"/><polygon fill="#000" stroke="#000" points="369.71,-482.77 361.28,-489.18 371.87,-489.43 369.71,-482.77"/><text text-anchor="middle" x="485.5" y="-247.5" font-family="Times,serif" font-size="10">是</text></g><g id="node10" class="node"><title>end</title><ellipse fill="#90ee90" stroke="#000" cx="364.5" cy="-18" rx="29.5" ry="18"/><text text-anchor="middle" x="364.5" y="-14.3" font-family="Times,serif" font-size="14">结束</text></g><g id="edge12" class="edge"><title>check_data-&gt;end</title><path fill="none" stroke="#000" d="M364.5-82.82c0 10.63.0 24.51.0 36.62"/><polygon fill="#000" stroke="#000" points="368,-46.15 364.5,-36.15 361,-46.15 368,-46.15"/><text text-anchor="middle" x="369.5" y="-57" font-family="Times,serif" font-size="10">否</text></g><g id="node11" class="node"><title>label_heap</title><polygon fill="#fff" stroke="#000" points="459.5,-707 349.5,-707 349.5,-669 465.5,-669 465.5,-701 459.5,-707"/><polyline fill="none" stroke="#000" points="459.5,-707 459.5,-701"/><polyline fill="none" stroke="#000" points="465.5,-701 459.5,-701"/><text text-anchor="middle" x="407.5" y="-691.8" font-family="Times,serif" font-size="14">工作区：最小堆</text><text text-anchor="middle" x="407.5" y="-676.8" font-family="Times,serif" font-size="14">大小为M</text></g><g id="node12" class="node"><title>label_maxv</title><polygon fill="#fff" stroke="#000" points="637.5,-707 483.5,-707 483.5,-669 643.5,-669 643.5,-701 637.5,-707"/><polyline fill="none" stroke="#000" points="637.5,-707 637.5,-701"/><polyline fill="none" stroke="#000" points="643.5,-701 637.5,-701"/><text text-anchor="middle" x="563.5" y="-691.8" font-family="Times,serif" font-size="14">MAXV：上一个归并段</text><text text-anchor="middle" x="563.5" y="-676.8" font-family="Times,serif" font-size="14">的最大值</text></g></g></svg>