<?xml version="1.0" encoding="UTF-8"?>
<!DOCTYPE svg PUBLIC "-//W3C//DTD SVG 1.1//EN" "http://www.w3.org/Graphics/SVG/1.1/DTD/svg11.dtd">
<svg xmlns="http://www.w3.org/2000/svg" width="360pt" height="359pt" viewBox="0 0 359.54 359" xmlns:xlink="http://www.w3.org/1999/xlink"><g id="graph0" class="graph" transform="scale(1 1) rotate(0) translate(4 355)"><title>BroadcastDomain</title><g id="clust1" class="cluster"><title>cluster_A</title><polygon fill="transparent" stroke="blue" stroke-dasharray="5,2" points="8,-216 8,-343 343.54,-343 343.54,-216 8,-216"/><text text-anchor="middle" x="175.77" y="-329.4" font-family="Times,serif" font-size="12">广播域 1</text></g><g id="clust2" class="cluster"><title>cluster_B</title><polygon fill="transparent" stroke="green" stroke-dasharray="5,2" points="8,-89 8,-162 343.04,-162 343.04,-89 8,-89"/><text text-anchor="middle" x="175.52" y="-148.4" font-family="Times,serif" font-size="12">广播域 2</text></g><g id="clust3" class="cluster"><title>cluster_C</title><polygon fill="transparent" stroke="purple" stroke-dasharray="5,2" points="9,-8 9,-81 343.54,-81 343.54,-8 9,-8"/><text text-anchor="middle" x="176.27" y="-67.4" font-family="Times,serif" font-size="12">广播域 3</text></g><g id="node1" class="node"><title>A</title><path fill="none" stroke="#000" d="M63-260s-35 0-35 0c-6 0-12 6-12 12v12c0 6 6 12 12 12H63c6 0 12-6 12-12v-12c0-6-6-12-12-12"/><text text-anchor="middle" x="45.5" y="-238.3" font-family="Microsoft Yahei" font-size="14">电脑 A</text></g><g id="node4" class="node"><title>SW1</title><ellipse fill="lightgrey" stroke="#000" cx="150.35" cy="-242" rx="38.19" ry="18"/><text text-anchor="middle" x="150.35" y="-238.3" font-family="Microsoft Yahei" font-size="14">交换机</text></g><g id="edge1" class="edge"><title>A-&gt;SW1</title><path fill="none" stroke="#000" d="M75.15-235.88C84.15-235.35 94.31-235.15 104.17-235.29"/><polygon fill="#000" stroke="#000" points="104.17,-238.8 114.26,-235.56 104.36,-231.8 104.17,-238.8"/></g><g id="node2" class="node"><title>B</title><path fill="none" stroke="#000" d="M323.54-260s-35 0-35 0c-6 0-12 6-12 12v12c0 6 6 12 12 12h35c6 0 12-6 12-12v-12c0-6-6-12-12-12"/><text text-anchor="middle" x="306.04" y="-238.3" font-family="Microsoft Yahei" font-size="14">电脑 B</text></g><g id="edge2" class="edge"><title>B-&gt;SW1</title><path fill="none" stroke="#000" d="M276.27-247.4C254.05-248.85 222.89-249.13 197.24-248.24"/><polygon fill="#000" stroke="#000" points="197.13,-244.73 186.99,-247.8 196.84,-251.72 197.13,-244.73"/></g><g id="node3" class="node"><title>C</title><path fill="none" stroke="#000" d="M323.54-314s-35 0-35 0c-6 0-12 6-12 12v12c0 6 6 12 12 12h35c6 0 12-6 12-12v-12c0-6-6-12-12-12"/><text text-anchor="middle" x="306.04" y="-292.3" font-family="Microsoft Yahei" font-size="14">电脑 C</text></g><g id="edge3" class="edge"><title>C-&gt;SW1</title><path fill="none" stroke="#000" d="M276.35-291.32c-25.82 7.38-63.8 20.62-91.11 31.7"/><polygon fill="#000" stroke="#000" points="186.28,-256.26 175.7,-255.65 183.59,-262.72 186.28,-256.26"/></g><g id="edge8" class="edge"><title>SW1-&gt;A</title><path fill="none" stroke="#000" d="M114.26-248.44C104.9-248.81 94.73-248.85 85.19-248.56"/><polygon fill="#000" stroke="#000" points="85.29,-245.06 75.15,-248.12 84.99,-252.06 85.29,-245.06"/></g><g id="edge9" class="edge"><title>SW1-&gt;B</title><path fill="none" stroke="#000" d="M186.99-236.2C210.63-234.99 241.65-234.94 265.96-236.03"/><polygon fill="#000" stroke="#000" points="266.09,-239.55 276.27,-236.6 266.47,-232.56 266.09,-239.55"/></g><g id="edge10" class="edge"><title>SW1-&gt;C</title><path fill="none" stroke="#000" d="M186.22-248.49C210.3-255.69 242.32-266.89 267.05-276.74"/><polygon fill="#000" stroke="#000" points="265.89,-280.04 276.47,-280.57 268.53,-273.56 265.89,-280.04"/></g><g id="node11" class="node"><title>R</title><ellipse fill="orange" stroke="#000" cx="306.04" cy="-188" rx="38.19" ry="18"/><text text-anchor="middle" x="306.04" y="-184.3" font-family="Microsoft Yahei" font-size="14">路由器</text></g><g id="edge15" class="edge"><title>SW1-&gt;R</title><path fill="none" stroke="#000" d="M181.71-231.33C205.6-222.94 239.1-211.17 265.15-202.01"/><polygon fill="#000" stroke="#000" points="266.46,-205.26 274.74,-198.65 264.14,-198.66 266.46,-205.26"/><text text-anchor="middle" x="228.19" y="-224.8" font-family="Times,serif" font-size="14">接口 1</text></g><g id="node5" class="node"><title>D</title><path fill="none" stroke="#000" d="M63-133s-35 0-35 0c-6 0-12 6-12 12v12c0 6 6 12 12 12H63c6 0 12-6 12-12v-12c0-6-6-12-12-12"/><text text-anchor="middle" x="45.5" y="-111.3" font-family="Microsoft Yahei" font-size="14">电脑 D</text></g><g id="node7" class="node"><title>SW2</title><ellipse fill="lightgrey" stroke="#000" cx="150.35" cy="-115" rx="38.19" ry="18"/><text text-anchor="middle" x="150.35" y="-111.3" font-family="Microsoft Yahei" font-size="14">交换机</text></g><g id="edge4" class="edge"><title>D-&gt;SW2</title><path fill="none" stroke="#000" d="M75.15-108.88C84.15-108.35 94.31-108.15 104.17-108.29"/><polygon fill="#000" stroke="#000" points="104.17,-111.8 114.26,-108.56 104.36,-104.8 104.17,-111.8"/></g><g id="node6" class="node"><title>E</title><path fill="none" stroke="#000" d="M323.04-133s-34 0-34 0c-6 0-12 6-12 12v12c0 6 6 12 12 12h34c6 0 12-6 12-12v-12c0-6-6-12-12-12"/><text text-anchor="middle" x="306.04" y="-111.3" font-family="Microsoft Yahei" font-size="14">电脑 E</text></g><g id="edge5" class="edge"><title>E-&gt;SW2</title><path fill="none" stroke="#000" d="M276.76-120.37C254.54-121.85 223.13-122.14 197.31-121.24"/><polygon fill="#000" stroke="#000" points="197.13,-117.73 186.99,-120.8 196.84,-124.72 197.13,-117.73"/></g><g id="edge11" class="edge"><title>SW2-&gt;D</title><path fill="none" stroke="#000" d="M114.26-121.44C104.9-121.81 94.73-121.85 85.19-121.56"/><polygon fill="#000" stroke="#000" points="85.29,-118.06 75.15,-121.12 84.99,-125.06 85.29,-118.06"/></g><g id="edge12" class="edge"><title>SW2-&gt;E</title><path fill="none" stroke="#000" d="M186.99-109.2C210.89-107.98 242.34-107.94 266.76-109.07"/><polygon fill="#000" stroke="#000" points="266.58,-112.57 276.76,-109.63 266.97,-105.58 266.58,-112.57"/></g><g id="edge16" class="edge"><title>SW2-&gt;R</title><path fill="none" stroke="#000" d="M178.12-127.72c25.23-11.98 63.23-30.03 91.07-43.25"/><polygon fill="#000" stroke="#000" points="268.04,-174.3 278.58,-175.43 271.04,-167.98 268.04,-174.3"/><text text-anchor="middle" x="228.19" y="-163.8" font-family="Times,serif" font-size="14">接口 2</text></g><g id="node8" class="node"><title>F</title><path fill="none" stroke="#000" d="M62-52s-33 0-33 0c-6 0-12 6-12 12v12c0 6 6 12 12 12H62c6 0 12-6 12-12V-40c0-6-6-12-12-12"/><text text-anchor="middle" x="45.5" y="-30.3" font-family="Microsoft Yahei" font-size="14">电脑 F</text></g><g id="node10" class="node"><title>SW3</title><ellipse fill="lightgrey" stroke="#000" cx="150.35" cy="-34" rx="38.19" ry="18"/><text text-anchor="middle" x="150.35" y="-30.3" font-family="Microsoft Yahei" font-size="14">交换机</text></g><g id="edge6" class="edge"><title>F-&gt;SW3</title><path fill="none" stroke="#000" d="M74.06-27.94C83.34-27.36 93.96-27.15 104.23-27.3"/><polygon fill="#000" stroke="#000" points="104.24,-30.8 114.33,-27.57 104.43,-23.8 104.24,-30.8"/></g><g id="node9" class="node"><title>G</title><path fill="none" stroke="#000" d="M323.54-52s-35 0-35 0c-6 0-12 6-12 12v12c0 6 6 12 12 12h35c6 0 12-6 12-12V-40c0-6-6-12-12-12"/><text text-anchor="middle" x="306.04" y="-30.3" font-family="Microsoft Yahei" font-size="14">电脑 G</text></g><g id="edge7" class="edge"><title>G-&gt;SW3</title><path fill="none" stroke="#000" d="M276.27-39.4C254.05-40.85 222.89-41.13 197.24-40.24"/><polygon fill="#000" stroke="#000" points="197.13,-36.73 186.99,-39.8 196.84,-43.72 197.13,-36.73"/></g><g id="edge13" class="edge"><title>SW3-&gt;F</title><path fill="none" stroke="#000" d="M114.33-40.43C104.68-40.82 94.16-40.85 84.35-40.54"/><polygon fill="#000" stroke="#000" points="84.21,-37.03 74.06,-40.06 83.89,-44.02 84.21,-37.03"/></g><g id="edge14" class="edge"><title>SW3-&gt;G</title><path fill="none" stroke="#000" d="M186.99-28.2C210.63-26.99 241.65-26.94 265.96-28.03"/><polygon fill="#000" stroke="#000" points="266.09,-31.55 276.27,-28.6 266.47,-24.56 266.09,-31.55"/></g><g id="edge17" class="edge"><title>SW3-&gt;R</title><path fill="none" stroke="#000" d="M187.78-38.37C208.91-42.82 234.3-51.82 249.69-70 277.75-103.13 242.76-130.47 267.69-166 268.34-166.92 269.04-167.82 269.79-168.67"/><polygon fill="#000" stroke="#000" points="267.67,-171.48 277.45,-175.56 272.35,-166.27 267.67,-171.48"/><text text-anchor="middle" x="228.19" y="-73.8" font-family="Times,serif" font-size="14">接口 3</text></g></g></svg>