<?xml version="1.0" encoding="UTF-8"?>
<!DOCTYPE svg PUBLIC "-//W3C//DTD SVG 1.1//EN" "http://www.w3.org/Graphics/SVG/1.1/DTD/svg11.dtd">
<svg xmlns="http://www.w3.org/2000/svg" width="740pt" height="617pt" viewBox="0 0 739.5 617" xmlns:xlink="http://www.w3.org/1999/xlink"><g id="graph0" class="graph" transform="scale(1 1) rotate(0) translate(4 613)"><title>for_loop</title><g id="clust1" class="cluster"><title>cluster_for_elements</title><polygon fill="#d3d3d3" stroke="purple" points="225.5,-524 225.5,-601 537.5,-601 537.5,-524 225.5,-524"/><text text-anchor="middle" x="381.5" y="-585.8" font-family="Times,serif" font-size="14">for循环三要素</text></g><g id="clust2" class="cluster"><title>cluster_execution</title><polygon fill="transparent" stroke="#006400" stroke-dasharray="5,2" points="545.5,-68 545.5,-600 723.5,-600 723.5,-68 545.5,-68"/><text text-anchor="middle" x="634.5" y="-584.8" font-family="Times,serif" font-size="14">执行过程示例</text></g><g id="node1" class="node"><title>program_start</title><polygon fill="#90ee90" stroke="#000" points="215.5,-569 141.5,-569 141.5,-533 215.5,-533 215.5,-569"/><text text-anchor="middle" x="178.5" y="-547.3" font-family="Times,serif" font-size="14">程序开始</text></g><g id="node2" class="node"><title>initialization</title><polygon fill="#e0ffff" stroke="#000" points="255.5,-495 101.5,-495 101.5,-442 255.5,-442 255.5,-495"/><text text-anchor="middle" x="178.5" y="-479.8" font-family="Times,serif" font-size="14">mov ecx, 0</text><text text-anchor="middle" x="178.5" y="-464.8" font-family="Times,serif" font-size="14">mov eax, 0</text><text text-anchor="middle" x="178.5" y="-449.8" font-family="Times,serif" font-size="14">初始化: i=0, sum=0</text></g><g id="edge1" class="edge"><title>program_start-&gt;initialization</title><path fill="none" stroke="#000" d="M178.5-532.93C178.5-524.86 178.5-514.91 178.5-505.3"/><polygon fill="#000" stroke="#000" points="182,-505.12 178.5,-495.12 175,-505.12 182,-505.12"/></g><g id="node3" class="node"><title>loop_start</title><polygon fill="#add8e6" stroke="#000" points="229.5,-405 127.5,-405 127.5,-367 229.5,-367 229.5,-405"/><text text-anchor="middle" x="178.5" y="-389.8" font-family="Times,serif" font-size="14">loop_start:</text><text text-anchor="middle" x="178.5" y="-374.8" font-family="Times,serif" font-size="14">循环判断入口</text></g><g id="edge2" class="edge"><title>initialization-&gt;loop_start</title><path fill="none" stroke="#000" d="M178.5-441.59c0 8.27999999999997.0 17.48.0 25.94"/><polygon fill="#000" stroke="#000" points="182,-415.47 178.5,-405.47 175,-415.47 182,-415.47"/></g><g id="node4" class="node"><title>condition</title><polygon fill="#ff0" stroke="#000" points="113.5,-330 11.5,-292 113.5,-254 215.5,-292 113.5,-330"/><text text-anchor="middle" x="113.5" y="-295.8" font-family="Times,serif" font-size="14">cmp ecx, 10</text><text text-anchor="middle" x="113.5" y="-280.8" font-family="Times,serif" font-size="14">i &lt; 10 ?</text></g><g id="edge3" class="edge"><title>loop_start-&gt;condition</title><path fill="none" stroke="#000" d="M165.66-366.82c-7.28 10.29-16.66 23.57-25.45 36.02"/><polygon fill="#000" stroke="#000" points="142.88,-328.51 134.25,-322.36 137.16,-332.55 142.88,-328.51"/></g><g id="node5" class="node"><title>loop_body</title><polygon fill="#f08080" stroke="#000" points="105,-188 0,-188 0,-150 105,-150 105,-188"/><text text-anchor="middle" x="52.5" y="-172.8" font-family="Times,serif" font-size="14">add eax, ecx</text><text text-anchor="middle" x="52.5" y="-157.8" font-family="Times,serif" font-size="14">sum += i</text></g><g id="edge4" class="edge"><title>condition-&gt;loop_body</title><path fill="none" stroke="green" d="M87.74-263.47C81.01-255.13 74.31-245.63 69.5-236c-5.89 11.79-9.87 25.81-12.49 37.89"/><polygon fill="green" stroke="green" points="60.4,-197.23 55.04,-188.09 53.53,-198.58 60.4,-197.23"/><text text-anchor="middle" x="102" y="-224.8" font-family="Times,serif" font-size="14" fill="green">jge不跳转</text><text text-anchor="middle" x="102" y="-209.8" font-family="Times,serif" font-size="14" fill="green">(i &lt; 10)</text></g><g id="node8" class="node"><title>loop_end</title><polygon fill="#90ee90" stroke="#000" points="207.5,-188 123.5,-188 123.5,-150 207.5,-150 207.5,-188"/><text text-anchor="middle" x="165.5" y="-172.8" font-family="Times,serif" font-size="14">loop_end:</text><text text-anchor="middle" x="165.5" y="-157.8" font-family="Times,serif" font-size="14">循环结束</text></g><g id="edge5" class="edge"><title>condition-&gt;loop_end</title><path fill="none" stroke="red" d="M127.3-258.89C135.51-239.78 145.82-215.78 153.66-197.54"/><polygon fill="red" stroke="red" points="156.89,-198.89 157.62,-188.32 150.46,-196.13 156.89,-198.89"/><text text-anchor="middle" x="183" y="-224.8" font-family="Times,serif" font-size="14" fill="red">jge跳转</text><text text-anchor="middle" x="183" y="-209.8" font-family="Times,serif" font-size="14" fill="red">(i &gt;= 10)</text></g><g id="node6" class="node"><title>increment</title><polygon fill="#ffa07a" stroke="#000" points="104.5,-113 38.5,-113 38.5,-75 104.5,-75 104.5,-113"/><text text-anchor="middle" x="71.5" y="-97.8" font-family="Times,serif" font-size="14">inc ecx</text><text text-anchor="middle" x="71.5" y="-82.8" font-family="Times,serif" font-size="14">i++</text></g><g id="edge6" class="edge"><title>loop_body-&gt;increment</title><path fill="none" stroke="#000" d="M57.2-149.96C59.32-141.8 61.88-131.97 64.24-122.89"/><polygon fill="#000" stroke="#000" points="67.66,-123.65 66.79,-113.09 60.89,-121.89 67.66,-123.65"/></g><g id="node7" class="node"><title>jump_back</title><polygon fill="orange" stroke="#000" points="220,-38 101,-38 101,0 220,0 220,-38"/><text text-anchor="middle" x="160.5" y="-22.8" font-family="Times,serif" font-size="14">jmp loop_start</text><text text-anchor="middle" x="160.5" y="-7.8" font-family="Times,serif" font-size="14">跳回判断</text></g><g id="edge7" class="edge"><title>increment-&gt;jump_back</title><path fill="none" stroke="#000" d="M93.5-74.96c11.13 9.13 24.8 20.34 36.88 30.26"/><polygon fill="#000" stroke="#000" points="132.93,-47.14 138.44,-38.09 128.49,-41.73 132.93,-47.14"/></g><g id="edge8" class="edge"><title>jump_back-&gt;loop_start</title><path fill="none" stroke="blue" d="M202-38.08C222.75-50.19 243.5-68.44 243.5-93V-293c0-25.95-17.46-49.71-34.28-66.59"/><polygon fill="blue" stroke="blue" points="206.43,-357.41 201.6,-366.84 211.26,-362.48 206.43,-357.41"/><text text-anchor="middle" x="272.5" y="-165.3" font-family="Times,serif" font-size="14" fill="blue">循环回跳</text></g><g id="node9" class="node"><title>program_continue</title><polygon fill="#d3d3d3" stroke="#000" points="202.5,-112 128.5,-112 128.5,-76 202.5,-76 202.5,-112"/><text text-anchor="middle" x="165.5" y="-90.3" font-family="Times,serif" font-size="14">程序继续</text></g><g id="edge9" class="edge"><title>loop_end-&gt;program_continue</title><path fill="none" stroke="#000" d="M165.5-149.96c0 8.26000000000002.0 18.22.0 27.39"/><polygon fill="#000" stroke="#000" points="169,-122.33 165.5,-112.33 162,-122.33 169,-122.33"/></g><g id="node10" class="node"><title>init_box</title><polygon fill="#e0ffff" stroke="#000" points="523,-570 452,-570 452,-532 529,-532 529,-564 523,-570"/><polyline fill="none" stroke="#000" points="523,-570 523,-564"/><polyline fill="none" stroke="#000" points="529,-564 523,-564"/><text text-anchor="middle" x="490.5" y="-554.8" font-family="Times,serif" font-size="14">① 初始化</text><text text-anchor="middle" x="490.5" y="-539.8" font-family="Times,serif" font-size="14">int i = 0</text></g><g id="node11" class="node"><title>cond_box</title><polygon fill="#ff0" stroke="#000" points="428,-570 343,-570 343,-532 434,-532 434,-564 428,-570"/><polyline fill="none" stroke="#000" points="428,-570 428,-564"/><polyline fill="none" stroke="#000" points="434,-564 428,-564"/><text text-anchor="middle" x="388.5" y="-554.8" font-family="Times,serif" font-size="14">② 条件判断</text><text text-anchor="middle" x="388.5" y="-539.8" font-family="Times,serif" font-size="14">i &lt; 10</text></g><g id="node12" class="node"><title>update_box</title><polygon fill="#ffa07a" stroke="#000" points="319,-570 234,-570 234,-532 325,-532 325,-564 319,-570"/><polyline fill="none" stroke="#000" points="319,-570 319,-564"/><polyline fill="none" stroke="#000" points="325,-564 319,-564"/><text text-anchor="middle" x="279.5" y="-554.8" font-family="Times,serif" font-size="14">③ 更新操作</text><text text-anchor="middle" x="279.5" y="-539.8" font-family="Times,serif" font-size="14">i++</text></g><g id="node13" class="node"><title>exec1</title><polygon fill="#ffffe0" stroke="transparent" points="706.5,-569 562.5,-569 562.5,-533 706.5,-533 706.5,-569"/><text text-anchor="middle" x="634.5" y="-547.3" font-family="Times,serif" font-size="14">i=0: sum=0+0=0</text></g><g id="node14" class="node"><title>exec2</title><polygon fill="#ffffe0" stroke="transparent" points="706.5,-486.5 562.5,-486.5 562.5,-450.5 706.5,-450.5 706.5,-486.5"/><text text-anchor="middle" x="634.5" y="-464.8" font-family="Times,serif" font-size="14">i=1: sum=0+1=1</text></g><g id="edge10" class="edge"><title>exec1-&gt;exec2</title><path fill="none" stroke="#000" d="M634.5-532.93c0 10.4599999999999.0 24.09.0 36.03"/><polygon fill="#000" stroke="#000" points="638,-496.55 634.5,-486.55 631,-496.55 638,-496.55"/></g><g id="node15" class="node"><title>exec3</title><polygon fill="#ffffe0" stroke="transparent" points="706.5,-404 562.5,-404 562.5,-368 706.5,-368 706.5,-404"/><text text-anchor="middle" x="634.5" y="-382.3" font-family="Times,serif" font-size="14">i=2: sum=1+2=3</text></g><g id="edge11" class="edge"><title>exec2-&gt;exec3</title><path fill="none" stroke="#000" d="M634.5-450.43c0 10.46.0 24.09.0 36.03"/><polygon fill="#000" stroke="#000" points="638,-414.05 634.5,-404.05 631,-414.05 638,-414.05"/></g><g id="node16" class="node"><title>exec4</title><polygon fill="#ffffe0" stroke="transparent" points="661.5,-310 607.5,-310 607.5,-274 661.5,-274 661.5,-310"/><text text-anchor="middle" x="634.5" y="-288.3" font-family="Times,serif" font-size="14">...</text></g><g id="edge12" class="edge"><title>exec3-&gt;exec4</title><path fill="none" stroke="#000" d="M634.5-367.7c0 13.24.0 31.75.0 47.04"/><polygon fill="#000" stroke="#000" points="638,-320.23 634.5,-310.23 631,-320.23 638,-320.23"/></g><g id="node17" class="node"><title>exec5</title><polygon fill="#ffffe0" stroke="transparent" points="715.5,-187 553.5,-187 553.5,-151 715.5,-151 715.5,-187"/><text text-anchor="middle" x="634.5" y="-165.3" font-family="Times,serif" font-size="14">i=9: sum=36+9=45</text></g><g id="edge13" class="edge"><title>exec4-&gt;exec5</title><path fill="none" stroke="#000" d="M634.5-273.92c0 19.88.0 53 0 76.5"/><polygon fill="#000" stroke="#000" points="638,-197.38 634.5,-187.38 631,-197.38 638,-197.38"/></g><g id="node18" class="node"><title>exec6</title><polygon fill="#ffb6c1" stroke="transparent" points="693,-112 576,-112 576,-76 693,-76 693,-112"/><text text-anchor="middle" x="634.5" y="-90.3" font-family="Times,serif" font-size="14">i=10: 跳出循环</text></g><g id="edge14" class="edge"><title>exec5-&gt;exec6</title><path fill="none" stroke="#000" d="M634.5-150.7c0 8.44999999999999.0 18.83.0 28.33"/><polygon fill="#000" stroke="#000" points="638,-122.18 634.5,-112.18 631,-122.18 638,-122.18"/></g></g></svg>