<?xml version="1.0" encoding="UTF-8"?>
<!DOCTYPE svg PUBLIC "-//W3C//DTD SVG 1.1//EN" "http://www.w3.org/Graphics/SVG/1.1/DTD/svg11.dtd">
<svg xmlns="http://www.w3.org/2000/svg" width="949pt" height="454pt" viewBox="0 0 949 453.77" xmlns:xlink="http://www.w3.org/1999/xlink"><g id="graph0" class="graph" transform="scale(1 1) rotate(0) translate(4 449.77)"><title>TypeConversion</title><g id="clust1" class="cluster"><title>cluster_implicit</title><polygon fill="#d3d3d3" stroke="#000" points="8,-11.5 8,-292 371,-292 371,-11.5 8,-11.5"/><text text-anchor="middle" x="189.5" y="-276.8" font-family="Times,serif" font-size="14">隐式转换示例</text></g><g id="clust2" class="cluster"><title>cluster_explicit</title><polygon fill="#d3d3d3" stroke="#000" points="379,-8 379,-292 933,-292 933,-8 379,-8"/><text text-anchor="middle" x="656" y="-276.8" font-family="Times,serif" font-size="14">显式转换示例</text></g><g id="node1" class="node"><title>title</title><ellipse fill="#add8e6" stroke="#000" cx="432" cy="-427.38" rx="165.43" ry="18.27"/><text text-anchor="middle" x="432" y="-423.58" font-family="Times,serif" font-size="16">类型转换 (Type Conversion)</text></g><g id="node2" class="node"><title>implicit</title><polygon fill="#90ee90" stroke="#000" points="424,-372 218,-372 218,-319 424,-319 424,-372"/><text text-anchor="middle" x="321" y="-356.8" font-family="Times,serif" font-size="14">隐式类型转换</text><text text-anchor="middle" x="321" y="-341.8" font-family="Times,serif" font-size="14">(Implicit Type Conversion)</text><text text-anchor="middle" x="321" y="-326.8" font-family="Times,serif" font-size="14">自动进行</text></g><g id="edge10" class="edge"><title>title-&gt;implicit</title><path fill="none" stroke="#000" d="M407.91-409.05C395.44-400.07 379.81-388.83 365.26-378.35"/><polygon fill="#000" stroke="#000" points="367.01,-375.3 356.85,-372.3 362.92,-380.98 367.01,-375.3"/></g><g id="node3" class="node"><title>explicit</title><polygon fill="#f08080" stroke="#000" points="653,-372 447,-372 447,-319 653,-319 653,-372"/><text text-anchor="middle" x="550" y="-356.8" font-family="Times,serif" font-size="14">显式类型转换</text><text text-anchor="middle" x="550" y="-341.8" font-family="Times,serif" font-size="14">(Explicit Type Conversion)</text><text text-anchor="middle" x="550" y="-326.8" font-family="Times,serif" font-size="14">手动指定</text></g><g id="edge11" class="edge"><title>title-&gt;explicit</title><path fill="none" stroke="#000" d="M457.6-409.05c13.39 9.06 30.19 20.43 45.78 30.99"/><polygon fill="#000" stroke="#000" points="505.57,-380.8 511.89,-372.3 501.65,-375.01 505.57,-380.8"/></g><g id="node4" class="node"><title>implicit_entry</title><ellipse fill="#000" stroke="#000" cx="288" cy="-261" rx="0" ry="0"/></g><g id="edge12" class="edge"><title>implicit-&gt;implicit_entry</title><path fill="none" stroke="#000" stroke-dasharray="5,2" d="M310.74-318.85C304.29-302.72 296.34-282.86 291.76-271.39"/><polygon fill="#000" stroke="#000" points="295,-270.08 288.04,-262.09 288.5,-272.68 295,-270.08"/></g><g id="node9" class="node"><title>explicit_entry</title><ellipse fill="#000" stroke="#000" cx="553" cy="-261" rx="0" ry="0"/></g><g id="edge13" class="edge"><title>explicit-&gt;explicit_entry</title><path fill="none" stroke="#000" stroke-dasharray="5,2" d="M550.93-318.85C551.51-303.09 552.21-283.76 552.63-272.19"/><polygon fill="#000" stroke="#000" points="556.13,-272.21 553,-262.09 549.14,-271.96 556.13,-272.21"/></g><g id="node5" class="node"><title>int_var</title><polygon fill="#fff" stroke="#000" points="249.5,-187.5 249.5,-223.5 324.5,-223.5 324.5,-187.5 249.5,-187.5"/><text text-anchor="middle" x="287" y="-201.8" font-family="Times,serif" font-size="14">int i = 5</text></g><g id="edge1" class="edge"><title>implicit_entry-&gt;int_var</title><path fill="none" stroke="#000" d="M288-259.85C287.97-258.35 287.74-246.19 287.51-233.86"/><polygon fill="#000" stroke="#000" points="291.01,-233.62 287.32,-223.69 284.01,-233.75 291.01,-233.62"/></g><g id="node7" class="node"><title>conversion1</title><polygon fill="#ff0" stroke="#000" points="249,-135.5 135.05,-117.5 249,-99.5 362.95,-117.5 249,-135.5"/><text text-anchor="middle" x="249" y="-113.8" font-family="Times,serif" font-size="14">i 自动转换为 5.0</text></g><g id="edge2" class="edge"><title>int_var-&gt;conversion1</title><path fill="none" stroke="#000" d="M279.31-187.1C273.83-174.7 266.38-157.83 260.23-143.92"/><polygon fill="#000" stroke="#000" points="263.28,-142.16 256.04,-134.43 256.88,-144.99 263.28,-142.16"/><text text-anchor="middle" x="319" y="-157.8" font-family="Times,serif" font-size="14">低精度→高精度</text></g><g id="node6" class="node"><title>float_var</title><polygon fill="#fff" stroke="#000" points="16.5,-99.5 16.5,-135.5 117.5,-135.5 117.5,-99.5 16.5,-99.5"/><text text-anchor="middle" x="67" y="-113.8" font-family="Times,serif" font-size="14">float f = 2.5</text></g><g id="node8" class="node"><title>result1</title><polygon fill="#add8e6" stroke="#000" points="96,-20 96,-58 242,-58 242,-20 96,-20"/><text text-anchor="middle" x="169" y="-42.8" font-family="Times,serif" font-size="14">float result = i + f</text><text text-anchor="middle" x="169" y="-27.8" font-family="Times,serif" font-size="14">结果: 7.5</text></g><g id="edge3" class="edge"><title>float_var-&gt;result1</title><path fill="none" stroke="#000" d="M89.89-99.33C103.67-89 121.43-75.68 136.62-64.28"/><polygon fill="#000" stroke="#000" points="138.86,-66.98 144.76,-58.18 134.66,-61.38 138.86,-66.98"/></g><g id="edge4" class="edge"><title>conversion1-&gt;result1</title><path fill="none" stroke="#000" d="M233.58-101.75c-10.76 10.28-25.38 24.27-37.99 36.33"/><polygon fill="#000" stroke="#000" points="197.69,-62.6 188.05,-58.21 192.86,-67.66 197.69,-62.6"/></g><g id="node11" class="node"><title>float_var2</title><polygon fill="#fff" stroke="#000" points="575.5,-187.5 575.5,-223.5 676.5,-223.5 676.5,-187.5 575.5,-187.5"/><text text-anchor="middle" x="626" y="-201.8" font-family="Times,serif" font-size="14">float f = 3.2</text></g><g id="edge5" class="edge"><title>explicit_entry-&gt;float_var2</title><path fill="none" stroke="#000" d="M553.05-259.96C554.24-259.09 575.24-243.7 594.4-229.66"/><polygon fill="#000" stroke="#000" points="596.72,-232.3 602.71,-223.57 592.58,-226.65 596.72,-232.3"/></g><g id="node10" class="node"><title>int_var2</title><polygon fill="#fff" stroke="#000" points="405.5,-99.5 405.5,-135.5 480.5,-135.5 480.5,-99.5 405.5,-99.5"/><text text-anchor="middle" x="443" y="-113.8" font-family="Times,serif" font-size="14">int i = 5</text></g><g id="node13" class="node"><title>result2</title><polygon fill="#add8e6" stroke="#000" points="387,-20 387,-58 551,-58 551,-20 387,-20"/><text text-anchor="middle" x="469" y="-42.8" font-family="Times,serif" font-size="14">int result = (int)f + i</text><text text-anchor="middle" x="469" y="-27.8" font-family="Times,serif" font-size="14">结果: 8</text></g><g id="edge7" class="edge"><title>int_var2-&gt;result2</title><path fill="none" stroke="#000" d="M448.9-99.14C452.06-89.85 456.02-78.2 459.59-67.69"/><polygon fill="#000" stroke="#000" points="462.95,-68.68 462.85,-58.09 456.32,-66.43 462.95,-68.68"/></g><g id="node12" class="node"><title>conversion2</title><polygon fill="orange" stroke="#000" points="628,-135.5 498.3,-117.5 628,-99.5 757.7,-117.5 628,-135.5"/><text text-anchor="middle" x="628" y="-113.8" font-family="Times,serif" font-size="14">(int)f 强制转换为 3</text></g><g id="edge6" class="edge"><title>float_var2-&gt;conversion2</title><path fill="none" stroke="#000" d="M626.4-187.1C626.68-175.25 627.05-159.32 627.37-145.79"/><polygon fill="#000" stroke="#000" points="630.87,-145.66 627.6,-135.58 623.87,-145.5 630.87,-145.66"/><text text-anchor="middle" x="656" y="-157.8" font-family="Times,serif" font-size="14">强制转换</text></g><g id="edge8" class="edge"><title>conversion2-&gt;result2</title><path fill="none" stroke="#000" d="M600.3-103.17C576.96-91.94 543.07-75.64 515.56-62.4"/><polygon fill="#000" stroke="#000" points="517.03,-59.23 506.5,-58.04 514,-65.53 517.03,-59.23"/></g><g id="node14" class="node"><title>warning</title><polygon fill="red" stroke="#000" points="747,-62 568.83,-27.5 925.17,-27.5 747,-62"/><text text-anchor="middle" x="747" y="-35.3" font-family="Times,serif" font-size="14" fill="#fff">可能发生精度缺失!</text></g><g id="edge9" class="edge"><title>conversion2-&gt;warning</title><path fill="none" stroke="red" stroke-dasharray="5,2" d="M649.83-102.47C667.13-91.35 691.65-75.58 711.73-62.68"/><polygon fill="red" stroke="red" points="713.79,-65.51 720.31,-57.16 710.01,-59.62 713.79,-65.51"/></g></g></svg>