<?xml version="1.0" encoding="UTF-8"?>
<!DOCTYPE svg PUBLIC "-//W3C//DTD SVG 1.1//EN" "http://www.w3.org/Graphics/SVG/1.1/DTD/svg11.dtd">
<svg xmlns="http://www.w3.org/2000/svg" width="539pt" height="582pt" viewBox="0 0 539 582.23" xmlns:xlink="http://www.w3.org/1999/xlink"><g id="graph0" class="graph" transform="scale(1 1) rotate(0) translate(4 578.23)"><title>ExpressionTypes</title><g id="node1" class="node"><title>title</title><ellipse fill="#e3f2fd" stroke="#000" cx="257" cy="-543.11" rx="118.17" ry="31.23"/><text text-anchor="middle" x="257" y="-548.31" font-family="Microsoft Yahei" font-size="16">表达式种类</text><text text-anchor="middle" x="257" y="-530.31" font-family="Microsoft Yahei" font-size="16">(Expression Types)</text></g><g id="node2" class="node"><title>tree_title</title><polygon fill="#fff3e0" stroke="#000" points="301.5,-475 212.5,-475 212.5,-439 301.5,-439 301.5,-475"/><text text-anchor="middle" x="257" y="-453.9" font-family="Microsoft Yahei" font-size="12">二叉表达式树</text></g><g id="edge1" class="edge"><title>title-&gt;tree_title</title><path fill="none" stroke="#000" d="M257-511.75C257-503.14 257-493.83 257-485.41"/><polygon fill="#000" stroke="#000" points="260.5,-485.35 257,-475.35 253.5,-485.35 260.5,-485.35"/></g><g id="node3" class="node"><title>tree_example</title><polygon fill="#fff8e1" stroke="transparent" points="285,-402 229,-402 229,-339 285,-339 285,-402"/><text text-anchor="middle" x="257" y="-390" font-family="Microsoft Yahei" font-size="10">&#160;&#160;&#160;&#160;&#160;*</text><text text-anchor="middle" x="257" y="-379" font-family="Microsoft Yahei" font-size="10">&#160;&#160;&#160;/ &#160;&#160;\</text><text text-anchor="middle" x="257" y="-368" font-family="Microsoft Yahei" font-size="10">&#160;&#160;+ &#160;&#160;&#160;&#160;C</text><text text-anchor="middle" x="257" y="-357" font-family="Microsoft Yahei" font-size="10">&#160;/ \</text><text text-anchor="middle" x="257" y="-346" font-family="Microsoft Yahei" font-size="10">A &#160;&#160;B</text></g><g id="edge2" class="edge"><title>tree_title-&gt;tree_example</title><path fill="none" stroke="#000" d="M257-438.9C257-431.18 257-421.7 257-412.31"/><polygon fill="#000" stroke="#000" points="260.5,-412.25 257,-402.25 253.5,-412.25 260.5,-412.25"/></g><g id="node4" class="node"><title>preorder</title><polygon fill="#ffebee" stroke="#000" points="199.5,-293 134.5,-293 134.5,-257 199.5,-257 199.5,-293"/><text text-anchor="middle" x="167" y="-278" font-family="Microsoft Yahei" font-size="10">前序遍历</text><text text-anchor="middle" x="167" y="-267" font-family="Microsoft Yahei" font-size="10">(Preorder)</text></g><g id="edge3" class="edge"><title>tree_example-&gt;preorder</title><path fill="none" stroke="#000" d="M228.77-340.17c-12.18 12.65-26.27 27.29-37.92 39.39"/><polygon fill="#000" stroke="#000" points="193.06,-298.02 183.6,-293.24 188.01,-302.88 193.06,-298.02"/><text text-anchor="middle" x="228.5" y="-313.8" font-family="Times,serif" font-size="9">前序遍历</text></g><g id="node5" class="node"><title>inorder</title><polygon fill="#e8f5e8" stroke="#000" points="286.5,-293 227.5,-293 227.5,-257 286.5,-257 286.5,-293"/><text text-anchor="middle" x="257" y="-278" font-family="Microsoft Yahei" font-size="10">中序遍历</text><text text-anchor="middle" x="257" y="-267" font-family="Microsoft Yahei" font-size="10">(Inorder)</text></g><g id="edge4" class="edge"><title>tree_example-&gt;inorder</title><path fill="none" stroke="#000" d="M257-338.88c0 11.54.0 24.58.0 35.78"/><polygon fill="#000" stroke="#000" points="260.5,-303.04 257,-293.04 253.5,-303.04 260.5,-303.04"/><text text-anchor="middle" x="275.5" y="-313.8" font-family="Times,serif" font-size="9">中序遍历</text></g><g id="node6" class="node"><title>postorder</title><polygon fill="#f3e5f5" stroke="#000" points="409.5,-293 338.5,-293 338.5,-257 409.5,-257 409.5,-293"/><text text-anchor="middle" x="374" y="-278" font-family="Microsoft Yahei" font-size="10">后序遍历</text><text text-anchor="middle" x="374" y="-267" font-family="Microsoft Yahei" font-size="10">(Postorder)</text></g><g id="edge5" class="edge"><title>tree_example-&gt;postorder</title><path fill="none" stroke="#000" d="M285.02-347.1c17.94 14.33 41.19 32.91 59.42 47.48"/><polygon fill="#000" stroke="#000" points="346.8,-302.22 352.43,-293.24 342.43,-296.75 346.8,-302.22"/><text text-anchor="middle" x="348.5" y="-313.8" font-family="Times,serif" font-size="9">后序遍历</text></g><g id="node7" class="node"><title>prefix</title><polygon fill="#ffcdd2" stroke="#000" points="172,-211 68,-211 68,-170 172,-170 172,-211"/><text text-anchor="middle" x="120" y="-199" font-family="Microsoft Yahei" font-size="10">前序表达式</text><text text-anchor="middle" x="120" y="-188" font-family="Microsoft Yahei" font-size="10">(波兰表示法)</text><text text-anchor="middle" x="120" y="-177" font-family="Microsoft Yahei" font-size="10">操作符在操作数之前</text></g><g id="edge6" class="edge"><title>preorder-&gt;prefix</title><path fill="none" stroke="#d32f2f" d="M157.26-256.91C151.22-246.3 143.3-232.4 136.32-220.15"/><polygon fill="#d32f2f" stroke="#d32f2f" points="139.2,-218.14 131.21,-211.18 133.12,-221.6 139.2,-218.14"/><text text-anchor="middle" x="156.5" y="-231.8" font-family="Times,serif" font-size="9">得到</text></g><g id="node8" class="node"><title>infix</title><polygon fill="#c8e6c9" stroke="#000" points="309,-211 205,-211 205,-170 309,-170 309,-211"/><text text-anchor="middle" x="257" y="-199" font-family="Microsoft Yahei" font-size="10">中序表达式</text><text text-anchor="middle" x="257" y="-188" font-family="Microsoft Yahei" font-size="10">(普通表示法)</text><text text-anchor="middle" x="257" y="-177" font-family="Microsoft Yahei" font-size="10">操作符在操作数之间</text></g><g id="edge7" class="edge"><title>inorder-&gt;infix</title><path fill="none" stroke="#388e3c" d="M257-256.91c0 10.3.0 23.69.0 35.67"/><polygon fill="#388e3c" stroke="#388e3c" points="260.5,-221.18 257,-211.18 253.5,-221.18 260.5,-221.18"/><text text-anchor="middle" x="266.5" y="-231.8" font-family="Times,serif" font-size="9">得到</text></g><g id="node9" class="node"><title>postfix</title><polygon fill="#e1bee7" stroke="#000" points="446,-211 342,-211 342,-170 446,-170 446,-211"/><text text-anchor="middle" x="394" y="-199" font-family="Microsoft Yahei" font-size="10">后序表达式</text><text text-anchor="middle" x="394" y="-188" font-family="Microsoft Yahei" font-size="10">(逆波兰表示法)</text><text text-anchor="middle" x="394" y="-177" font-family="Microsoft Yahei" font-size="10">操作符在操作数之后</text></g><g id="edge8" class="edge"><title>postorder-&gt;postfix</title><path fill="none" stroke="#7b1fa2" d="M378.14-256.91C380.64-246.61 383.89-233.22 386.79-221.24"/><polygon fill="#7b1fa2" stroke="#7b1fa2" points="390.27,-221.72 389.23,-211.18 383.47,-220.07 390.27,-221.72"/><text text-anchor="middle" x="394.5" y="-231.8" font-family="Times,serif" font-size="9">得到</text></g><g id="node10" class="node"><title>prefix_example</title><polygon fill="#ef9a9a" stroke="#000" points="62,-127 0,-127 0,-91 62,-91 62,-127"/><text text-anchor="middle" x="31" y="-106.5" font-family="Microsoft Yahei" font-size="10">* + A B C</text></g><g id="edge9" class="edge"><title>prefix-&gt;prefix_example</title><path fill="none" stroke="#000" d="M98-169.85c-12.19 10.89-27.44 24.51-40.31 36.01"/><polygon fill="#000" stroke="#000" points="59.82,-131.05 50.03,-127 55.16,-136.27 59.82,-131.05"/></g><g id="node13" class="node"><title>prefix_features</title><polygon fill="#ffebee" stroke="#000" points="159.5,-133 80.5,-133 80.5,-85 159.5,-85 159.5,-133"/><text text-anchor="middle" x="120" y="-121.8" font-family="Microsoft Yahei" font-size="9">特点:</text><text text-anchor="middle" x="120" y="-111.8" font-family="Microsoft Yahei" font-size="9">• 无需括号</text><text text-anchor="middle" x="120" y="-101.8" font-family="Microsoft Yahei" font-size="9">• 从左到右求值</text><text text-anchor="middle" x="120" y="-91.8" font-family="Microsoft Yahei" font-size="9">• 操作符优先</text></g><g id="edge12" class="edge"><title>prefix-&gt;prefix_features</title><path fill="none" stroke="#000" stroke-dasharray="5,2" d="M120-169.85c0 8 0 17.47.0 26.49"/><polygon fill="#000" stroke="#000" points="123.5,-143.09 120,-133.09 116.5,-143.09 123.5,-143.09"/></g><g id="node11" class="node"><title>infix_example</title><polygon fill="#a5d6a7" stroke="#000" points="248,-127 178,-127 178,-91 248,-91 248,-127"/><text text-anchor="middle" x="213" y="-106.5" font-family="Microsoft Yahei" font-size="10">(A + B) * C</text></g><g id="edge10" class="edge"><title>infix-&gt;infix_example</title><path fill="none" stroke="#000" d="M246.12-169.85C240.44-159.57 233.41-146.87 227.29-135.81"/><polygon fill="#000" stroke="#000" points="230.31,-134.06 222.41,-127 224.19,-137.45 230.31,-134.06"/></g><g id="node14" class="node"><title>infix_features</title><polygon fill="#e8f5e8" stroke="#000" points="345.5,-133 266.5,-133 266.5,-85 345.5,-85 345.5,-133"/><text text-anchor="middle" x="306" y="-121.8" font-family="Microsoft Yahei" font-size="9">特点:</text><text text-anchor="middle" x="306" y="-111.8" font-family="Microsoft Yahei" font-size="9">• 需要括号</text><text text-anchor="middle" x="306" y="-101.8" font-family="Microsoft Yahei" font-size="9">• 符合人类习惯</text><text text-anchor="middle" x="306" y="-91.8" font-family="Microsoft Yahei" font-size="9">• 最常见形式</text></g><g id="edge13" class="edge"><title>infix-&gt;infix_features</title><path fill="none" stroke="#000" stroke-dasharray="5,2" d="M269.11-169.85C274.31-161.42 280.52-151.35 286.34-141.89"/><polygon fill="#000" stroke="#000" points="289.5,-143.44 291.77,-133.09 283.54,-139.77 289.5,-143.44"/></g><g id="node12" class="node"><title>postfix_example</title><polygon fill="#ce93d8" stroke="#000" points="425,-127 363,-127 363,-91 425,-91 425,-127"/><text text-anchor="middle" x="394" y="-106.5" font-family="Microsoft Yahei" font-size="10">A B + C *</text></g><g id="edge11" class="edge"><title>postfix-&gt;postfix_example</title><path fill="none" stroke="#000" d="M394-169.85C394-159.99 394-147.88 394-137.15"/><polygon fill="#000" stroke="#000" points="397.5,-137 394,-127 390.5,-137 397.5,-137"/></g><g id="node15" class="node"><title>postfix_features</title><polygon fill="#f3e5f5" stroke="#000" points="531,-133 443,-133 443,-85 531,-85 531,-133"/><text text-anchor="middle" x="487" y="-121.8" font-family="Microsoft Yahei" font-size="9">特点:</text><text text-anchor="middle" x="487" y="-111.8" font-family="Microsoft Yahei" font-size="9">• 无需括号</text><text text-anchor="middle" x="487" y="-101.8" font-family="Microsoft Yahei" font-size="9">• 便于计算机处理</text><text text-anchor="middle" x="487" y="-91.8" font-family="Microsoft Yahei" font-size="9">• 栈式求值</text></g><g id="edge14" class="edge"><title>postfix-&gt;postfix_features</title><path fill="none" stroke="#000" stroke-dasharray="5,2" d="M416.99-169.85C427.57-160.81 440.34-149.88 452.07-139.86"/><polygon fill="#000" stroke="#000" points="454.66,-142.25 459.99,-133.09 450.11,-136.93 454.66,-142.25"/></g><g id="node16" class="node"><title>prefix_app</title><polygon fill="#ffcdd2" stroke="#000" points="155,-43 85,-43 85,-5 155,-5 155,-43"/><text text-anchor="middle" x="120" y="-31.8" font-family="Microsoft Yahei" font-size="9">应用:</text><text text-anchor="middle" x="120" y="-21.8" font-family="Microsoft Yahei" font-size="9">• 函数式编程</text><text text-anchor="middle" x="120" y="-11.8" font-family="Microsoft Yahei" font-size="9">• LISP语言</text></g><g id="edge15" class="edge"><title>prefix_features-&gt;prefix_app</title><path fill="none" stroke="#000" stroke-dasharray="1,5" d="M120-84.88c0 9.83.0 21.37.0 31.69"/><polygon fill="#000" stroke="#000" points="123.5,-53 120,-43 116.5,-53 123.5,-53"/></g><g id="node17" class="node"><title>infix_app</title><polygon fill="#c8e6c9" stroke="#000" points="336.5,-43 275.5,-43 275.5,-5 336.5,-5 336.5,-43"/><text text-anchor="middle" x="306" y="-31.8" font-family="Microsoft Yahei" font-size="9">应用:</text><text text-anchor="middle" x="306" y="-21.8" font-family="Microsoft Yahei" font-size="9">• 数学公式</text><text text-anchor="middle" x="306" y="-11.8" font-family="Microsoft Yahei" font-size="9">• 编程语言</text></g><g id="edge16" class="edge"><title>infix_features-&gt;infix_app</title><path fill="none" stroke="#000" stroke-dasharray="1,5" d="M306-84.88c0 9.83.0 21.37.0 31.69"/><polygon fill="#000" stroke="#000" points="309.5,-53 306,-43 302.5,-53 309.5,-53"/></g><g id="node18" class="node"><title>postfix_app</title><polygon fill="#e1bee7" stroke="#000" points="514,-48 460,-48 460,0 514,0 514,-48"/><text text-anchor="middle" x="487" y="-36.8" font-family="Microsoft Yahei" font-size="9">应用:</text><text text-anchor="middle" x="487" y="-26.8" font-family="Microsoft Yahei" font-size="9">• 计算器</text><text text-anchor="middle" x="487" y="-16.8" font-family="Microsoft Yahei" font-size="9">• 编译器</text><text text-anchor="middle" x="487" y="-6.8" font-family="Microsoft Yahei" font-size="9">• 虚拟机</text></g><g id="edge17" class="edge"><title>postfix_features-&gt;postfix_app</title><path fill="none" stroke="#000" stroke-dasharray="1,5" d="M487-84.88C487-76.67 487-67.27 487-58.38"/><polygon fill="#000" stroke="#000" points="490.5,-58.28 487,-48.28 483.5,-58.28 490.5,-58.28"/></g><g id="node19" class="node"><title>legend</title><polygon fill="#f5f5f5" stroke="#000" points="461,-567.11 393,-567.11 393,-519.11 467,-519.11 467,-561.11 461,-567.11"/><polyline fill="none" stroke="#000" points="461,-567.11 461,-561.11"/><polyline fill="none" stroke="#000" points="467,-561.11 461,-561.11"/><text text-anchor="middle" x="430" y="-555.91" font-family="Microsoft Yahei" font-size="9">图例说明:</text><text text-anchor="middle" x="430" y="-545.91" font-family="Microsoft Yahei" font-size="9">━━ 遍历关系</text><text text-anchor="middle" x="430" y="-535.91" font-family="Microsoft Yahei" font-size="9">┅┅ 特点说明</text><text text-anchor="middle" x="430" y="-525.91" font-family="Microsoft Yahei" font-size="9">⋯⋯ 应用场景</text></g></g></svg>