<?xml version="1.0" encoding="UTF-8"?>
<!DOCTYPE svg PUBLIC "-//W3C//DTD SVG 1.1//EN" "http://www.w3.org/Graphics/SVG/1.1/DTD/svg11.dtd">
<svg xmlns="http://www.w3.org/2000/svg" width="376pt" height="261pt" viewBox="0 0 376 261" xmlns:xlink="http://www.w3.org/1999/xlink"><g id="graph0" class="graph" transform="scale(1 1) rotate(0) translate(4 257)"><title>SignedUnsignedConversion</title><g id="clust1" class="cluster"><title>cluster_signed</title><polygon fill="#add8e6" stroke="#add8e6" points="0,-8 0,-245 131,-245 131,-8 0,-8"/><text text-anchor="middle" x="65.5" y="-229.8" font-family="Times,serif" font-size="14">有符号整数 (int8)</text></g><g id="clust2" class="cluster"><title>cluster_unsigned</title><polygon fill="#90ee90" stroke="#90ee90" points="228,-8 228,-245 368,-245 368,-8 228,-8"/><text text-anchor="middle" x="298" y="-229.8" font-family="Times,serif" font-size="14">无符号整数 (uint8)</text></g><g id="node1" class="node"><title>s_min</title><path fill="none" stroke="#000" d="M98-214s-65 0-65 0c-6 0-12 6-12 12v12c0 6 6 12 12 12H98c6 0 12-6 12-12v-12c0-6-6-12-12-12"/><text text-anchor="middle" x="65.5" y="-199.4" font-family="Microsoft Yahei" font-size="12">-128</text><text text-anchor="middle" x="65.5" y="-186.4" font-family="Microsoft Yahei" font-size="12">(1000 0000)</text></g><g id="node7" class="node"><title>u_128</title><path fill="none" stroke="#000" d="M330-214s-65 0-65 0c-6 0-12 6-12 12v12c0 6 6 12 12 12h65c6 0 12-6 12-12v-12c0-6-6-12-12-12"/><text text-anchor="middle" x="297.5" y="-199.4" font-family="Microsoft Yahei" font-size="12">128</text><text text-anchor="middle" x="297.5" y="-186.4" font-family="Microsoft Yahei" font-size="12">(1000 0000)</text></g><g id="edge1" class="edge"><title>s_min-&gt;u_128</title><path fill="none" stroke="#000" d="M110.03-196c37.62.0 92.14.0 132.52.0"/><polygon fill="#000" stroke="#000" points="242.76,-199.5 252.76,-196 242.76,-192.5 242.76,-199.5"/><text text-anchor="middle" x="179.5" y="-214.8" font-family="Times,serif" font-size="14">位模式相同</text><text text-anchor="middle" x="179.5" y="-199.8" font-family="Times,serif" font-size="14">1000 0000</text></g><g id="node2" class="node"><title>s_minus1</title><path fill="none" stroke="#000" d="M98-160s-65 0-65 0c-6 0-12 6-12 12v12c0 6 6 12 12 12H98c6 0 12-6 12-12v-12c0-6-6-12-12-12"/><text text-anchor="middle" x="65.5" y="-145.4" font-family="Microsoft Yahei" font-size="12">-1</text><text text-anchor="middle" x="65.5" y="-132.4" font-family="Microsoft Yahei" font-size="12">(1111 1111)</text></g><g id="node8" class="node"><title>u_255</title><path fill="none" stroke="#000" d="M330-160s-65 0-65 0c-6 0-12 6-12 12v12c0 6 6 12 12 12h65c6 0 12-6 12-12v-12c0-6-6-12-12-12"/><text text-anchor="middle" x="297.5" y="-145.4" font-family="Microsoft Yahei" font-size="12">255</text><text text-anchor="middle" x="297.5" y="-132.4" font-family="Microsoft Yahei" font-size="12">(1111 1111)</text></g><g id="edge4" class="edge"><title>s_minus1-&gt;u_255</title><path fill="none" stroke="#000" d="M110.03-142c37.62.0 92.14.0 132.52.0"/><polygon fill="#000" stroke="#000" points="242.76,-145.5 252.76,-142 242.76,-138.5 242.76,-145.5"/><text text-anchor="middle" x="179.5" y="-160.8" font-family="Times,serif" font-size="14">位模式相同</text><text text-anchor="middle" x="179.5" y="-145.8" font-family="Times,serif" font-size="14">1111 1111</text></g><g id="node3" class="node"><title>s_zero</title><path fill="none" stroke="#000" d="M98-106s-65 0-65 0c-6 0-12 6-12 12v12c0 6 6 12 12 12H98c6 0 12-6 12-12V-94c0-6-6-12-12-12"/><text text-anchor="middle" x="65.5" y="-91.4" font-family="Microsoft Yahei" font-size="12">0</text><text text-anchor="middle" x="65.5" y="-78.4" font-family="Microsoft Yahei" font-size="12">(0000 0000)</text></g><g id="node5" class="node"><title>u_min</title><path fill="none" stroke="#000" d="M330-106s-65 0-65 0c-6 0-12 6-12 12v12c0 6 6 12 12 12h65c6 0 12-6 12-12V-94c0-6-6-12-12-12"/><text text-anchor="middle" x="297.5" y="-91.4" font-family="Microsoft Yahei" font-size="12">0</text><text text-anchor="middle" x="297.5" y="-78.4" font-family="Microsoft Yahei" font-size="12">(0000 0000)</text></g><g id="edge2" class="edge"><title>s_zero-&gt;u_min</title><path fill="none" stroke="#000" d="M110.03-88c37.62.0 92.14.0 132.52.0"/><polygon fill="#000" stroke="#000" points="242.76,-91.5 252.76,-88 242.76,-84.5 242.76,-91.5"/><text text-anchor="middle" x="179.5" y="-106.8" font-family="Times,serif" font-size="14">位模式相同</text><text text-anchor="middle" x="179.5" y="-91.8" font-family="Times,serif" font-size="14">0000 0000</text></g><g id="node4" class="node"><title>s_max</title><path fill="none" stroke="#000" d="M98-52s-65 0-65 0c-6 0-12 6-12 12v12c0 6 6 12 12 12H98c6 0 12-6 12-12V-40c0-6-6-12-12-12"/><text text-anchor="middle" x="65.5" y="-37.4" font-family="Microsoft Yahei" font-size="12">127</text><text text-anchor="middle" x="65.5" y="-24.4" font-family="Microsoft Yahei" font-size="12">(0111 1111)</text></g><g id="node6" class="node"><title>u_127</title><path fill="none" stroke="#000" d="M330-52s-65 0-65 0c-6 0-12 6-12 12v12c0 6 6 12 12 12h65c6 0 12-6 12-12V-40c0-6-6-12-12-12"/><text text-anchor="middle" x="297.5" y="-37.4" font-family="Microsoft Yahei" font-size="12">127</text><text text-anchor="middle" x="297.5" y="-24.4" font-family="Microsoft Yahei" font-size="12">(0111 1111)</text></g><g id="edge3" class="edge"><title>s_max-&gt;u_127</title><path fill="none" stroke="#000" d="M110.03-34c37.62.0 92.14.0 132.52.0"/><polygon fill="#000" stroke="#000" points="242.76,-37.5 252.76,-34 242.76,-30.5 242.76,-37.5"/><text text-anchor="middle" x="179.5" y="-52.8" font-family="Times,serif" font-size="14">位模式相同</text><text text-anchor="middle" x="179.5" y="-37.8" font-family="Times,serif" font-size="14">0111 1111</text></g></g></svg>