<svg height="64" width="64" id="Layer_1" xmlns:xlink="http://www.w3.org/1999/xlink" viewBox="0 0 392.571 392.571" fill="#000"><g id="SVGRepo_bgCarrier" stroke-width="0"/><g id="SVGRepo_tracerCarrier" stroke-linecap="round" stroke-linejoin="round"/><g id="SVGRepo_iconCarrier"><path style="fill:#fff" d="M192.232 211.019 85.371 168.675v119.79c8.275-1.681 16.743-2.521 25.471-2.521 33.487.0 63.677 12.735 81.519 33.552 17.842-20.816 47.968-33.552 81.519-33.552 8.727.0 17.325.84 25.471 2.521V171.649l-99.232 39.434h-7.887V211.019z"/><path style="fill:#3f5d78" d="M385.654 117.152 200.248 43.585c-2.521-1.034-5.495-1.034-8.016.0L6.697 117.152c-9.438 4.461-8.404 17.067.0 20.299l56.889 22.562v142.739c.517 7.176 6.4 13.059 14.481 10.279 10.279-3.556 21.333-5.301 32.84-5.301 32 0 60.897 14.545 71.887 36.073 4.202 7.499 14.869 8.404 19.459-.065 10.925-21.527 39.693-36.008 71.693-36.008 11.507.0 22.626 1.745 32.84 5.301 7.046 2.392 14.287-2.909 14.481-10.279V162.987l49.455-19.653v109.64c0 6.012 4.848 10.925 10.925 10.925 6.012.0 10.925-4.848 10.925-10.925V127.366C392.571 122.712 389.856 119.544 385.654 117.152zM299.48 288.465c-8.275-1.681-16.743-2.521-25.471-2.521-33.487.0-63.677 12.735-81.519 33.552-17.907-20.816-48.162-33.552-81.519-33.552-8.727.0-17.325.84-25.471 2.521v-119.79l106.861 42.343h8.016l99.232-39.434V288.4h-.129V288.465zM196.24 189.168 40.313 127.366 196.24 65.564l155.798 61.802L196.24 189.168z"/><rect x="0" y="0" width="392.571" height="392.571" fill="#ffffff" stroke="none" pointer-events="none"/><g><path style="fill:#ffc10d" d="M107.092 200.869h29.543c6.012.0 10.925 4.848 10.925 10.925.0 6.012-4.848 10.925-10.925 10.925h-29.543v18.747h14.222c6.012.0 10.925 4.848 10.925 10.925.0 6.012-4.848 10.925-10.925 10.925h-14.222v.84c1.228.0 52.299-.453 85.204 25.729 21.657-16.291 50.489-25.794 81.519-25.794 1.228.0 2.457.0 3.685.065v-76.154h-19.459l-57.794 22.949h-8.016l-57.859-22.949h-27.281L107.092 200.869z"/><polygon style="fill:#ffc10d" points="196.24,189.168 198.955,188.069 193.525,188.069"/></g><polygon style="fill:#fff" points="40.313,127.366 196.24,189.168 352.038,127.366 196.24,65.435"/></g></svg>