<?xml version="1.0" encoding="UTF-8"?>
<!DOCTYPE svg PUBLIC "-//W3C//DTD SVG 1.1//EN" "http://www.w3.org/Graphics/SVG/1.1/DTD/svg11.dtd">
<svg xmlns="http://www.w3.org/2000/svg" width="610pt" height="667pt" viewBox="0 0 610 666.74" xmlns:xlink="http://www.w3.org/1999/xlink"><g id="graph0" class="graph" transform="scale(1 1) rotate(0) translate(4 662.74)"><title>StopAndWait</title><g id="clust1" class="cluster"><title>cluster_sender</title><polygon fill="transparent" stroke="blue" stroke-dasharray="5,2" points="8,-8 8,-650.74 366,-650.74 366,-8 8,-8"/><text text-anchor="middle" x="187" y="-635.54" font-family="Times,serif" font-size="14">发送方</text></g><g id="clust2" class="cluster"><title>cluster_receiver</title><polygon fill="transparent" stroke="green" stroke-dasharray="5,2" points="374,-236.74 374,-444.74 594,-444.74 594,-236.74 374,-236.74"/><text text-anchor="middle" x="484" y="-429.54" font-family="Times,serif" font-size="14">接收方</text></g><g id="node1" class="node"><title>start</title><ellipse fill="#90ee90" stroke="#000" cx="298" cy="-578.74" rx="29.5" ry="18"/><text text-anchor="middle" x="298" y="-575.04" font-family="Times,serif" font-size="14">开始</text></g><g id="node2" class="node"><title>send_frame</title><polygon fill="#add8e6" stroke="#000" points="296,-523.74 208,-523.74 208,-485.74 296,-485.74 296,-523.74"/><text text-anchor="middle" x="252" y="-508.54" font-family="Times,serif" font-size="14">发送数据帧</text><text text-anchor="middle" x="252" y="-493.54" font-family="Times,serif" font-size="14">启动计时器</text></g><g id="edge1" class="edge"><title>start-&gt;send_frame</title><path fill="none" stroke="#000" d="M287.79-561.76C282.32-553.2 275.43-542.42 269.16-532.6"/><polygon fill="#000" stroke="#000" points="271.97,-530.5 263.64,-523.96 266.07,-534.27 271.97,-530.5"/></g><g id="node3" class="node"><title>wait_ack</title><polygon fill="#ff0" stroke="#000" points="250,-390.74 166,-390.74 166,-352.74 250,-352.74 250,-390.74"/><text text-anchor="middle" x="208" y="-375.54" font-family="Times,serif" font-size="14">等待确认</text><text text-anchor="middle" x="208" y="-360.54" font-family="Times,serif" font-size="14">(等待状态)</text></g><g id="edge2" class="edge"><title>send_frame-&gt;wait_ack</title><path fill="none" stroke="#000" d="M245.88-485.53C238.46-463.43 225.88-425.96 217.26-400.32"/><polygon fill="#000" stroke="#000" points="220.57,-399.17 214.07,-390.8 213.93,-401.39 220.57,-399.17"/></g><g id="node4" class="node"><title>recv_check</title><polygon fill="orange" stroke="#000" points="484,-390.74 382,-390.74 382,-352.74 484,-352.74 484,-390.74"/><text text-anchor="middle" x="433" y="-375.54" font-family="Times,serif" font-size="14">接收方检验</text><text text-anchor="middle" x="433" y="-360.54" font-family="Times,serif" font-size="14">数据帧完整性</text></g><g id="edge3" class="edge"><title>send_frame-&gt;recv_check</title><path fill="none" stroke="blue" d="M296.12-486.58c23.25 10.21 51.5 24.55 73.88 41.84 16.81 12.99 32.55 30.97 44.09 45.71"/><polygon fill="blue" stroke="blue" points="417.1,-400.86 420.38,-390.78 411.53,-396.61 417.1,-400.86"/><text text-anchor="middle" x="394" y="-456.54" font-family="Times,serif" font-size="14">数据帧传输</text></g><g id="node7" class="node"><title>timeout_check</title><polygon fill="cyan" stroke="#000" points="169,-301.74 110,-263.74 169,-225.74 228,-263.74 169,-301.74"/><text text-anchor="middle" x="169" y="-267.54" font-family="Times,serif" font-size="14">计时器</text><text text-anchor="middle" x="169" y="-252.54" font-family="Times,serif" font-size="14">超时?</text></g><g id="edge8" class="edge"><title>wait_ack-&gt;timeout_check</title><path fill="none" stroke="#000" d="M188.58-352.42C184.07-347.15 179.78-341.09 177-334.74 173.86-327.57 171.79-319.61 170.46-311.71"/><polygon fill="#000" stroke="#000" points="173.92,-311.23 169.13,-301.78 166.99,-312.16 173.92,-311.23"/><text text-anchor="middle" x="206" y="-323.54" font-family="Times,serif" font-size="14">等待超时</text></g><g id="node8" class="node"><title>recv_ack</title><polygon fill="#90ee90" stroke="#000" points="312,-152.24 224,-152.24 224,-114.24 312,-114.24 312,-152.24"/><text text-anchor="middle" x="268" y="-137.04" font-family="Times,serif" font-size="14">收到确认帧</text><text text-anchor="middle" x="268" y="-122.04" font-family="Times,serif" font-size="14">(ACK)</text></g><g id="edge9" class="edge"><title>wait_ack-&gt;recv_ack</title><path fill="none" stroke="green" d="M224.04-352.71C228.17-347.25 232.23-341.03 235-334.74c25.41 57.66 31.43 132.47 32.74 172.42"/><polygon fill="green" stroke="green" points="271.24,-162.33 268,-152.24 264.25,-162.15 271.24,-162.33"/><text text-anchor="middle" x="292" y="-260.04" font-family="Times,serif" font-size="14">收到ACK</text></g><g id="node5" class="node"><title>send_ack</title><polygon fill="#90ee90" stroke="#000" points="470,-282.74 382,-282.74 382,-244.74 470,-244.74 470,-282.74"/><text text-anchor="middle" x="426" y="-267.54" font-family="Times,serif" font-size="14">发送确认帧</text><text text-anchor="middle" x="426" y="-252.54" font-family="Times,serif" font-size="14">(ACK)</text></g><g id="edge4" class="edge"><title>recv_check-&gt;send_ack</title><path fill="none" stroke="green" d="M431.78-352.28C430.7-335.94 429.11-311.84 427.87-293.06"/><polygon fill="green" stroke="green" points="431.36,-292.74 427.21,-282.99 424.37,-293.2 431.36,-292.74"/><text text-anchor="middle" x="459" y="-323.54" font-family="Times,serif" font-size="14">数据正确</text></g><g id="node6" class="node"><title>no_ack</title><polygon fill="pink" stroke="#000" points="586,-282.74 488,-282.74 488,-244.74 586,-244.74 586,-282.74"/><text text-anchor="middle" x="537" y="-267.54" font-family="Times,serif" font-size="14">不发送ACK</text><text text-anchor="middle" x="537" y="-252.54" font-family="Times,serif" font-size="14">(检测到错误)</text></g><g id="edge5" class="edge"><title>recv_check-&gt;no_ack</title><path fill="none" stroke="red" d="M468.58-352.6C476.8-347.48 485.13-341.45 492-334.74c12.6 12.3 23.4 28.76 31.26 42.62"/><polygon fill="red" stroke="red" points="526.51,-293.47 528.22,-283.02 520.36,-290.12 526.51,-293.47"/><text text-anchor="middle" x="533" y="-323.54" font-family="Times,serif" font-size="14">数据错误</text></g><g id="edge6" class="edge"><title>send_ack-&gt;recv_ack</title><path fill="none" stroke="green" d="M403.7-244.6c-27.64 22.48-74.86 60.88-105.67 85.94"/><polygon fill="green" stroke="green" points="300.16,-155.88 290.19,-152.29 295.74,-161.31 300.16,-155.88"/><text text-anchor="middle" x="386" y="-189.04" font-family="Times,serif" font-size="14">ACK传输</text></g><g id="edge7" class="edge"><title>no_ack-&gt;timeout_check</title><path fill="none" stroke="red" stroke-dasharray="5,2" d="M513.22-282.87C503.21-289.94 491.09-297.31 479-301.74c-55.86-20.47-207.02-32.05-233-23C228.36-318.6 211.72-306.55 198.46-294.77"/><polygon fill="red" stroke="red" points="200.77,-292.14 191.06,-287.91 196.01,-297.28 200.77,-292.14"/><text text-anchor="middle" x="269" y="-323.54" font-family="Times,serif" font-size="14">无ACK</text></g><g id="edge11" class="edge"><title>timeout_check-&gt;recv_ack</title><path fill="none" stroke="green" d="M170.86-226.85C173.26-210.51 178.37-191.75 189-177.74 195.88-168.67 205.23-161.25 215.08-155.26"/><polygon fill="green" stroke="green" points="216.81,-158.31 223.82,-150.37 213.39,-152.2 216.81,-158.31"/><text text-anchor="middle" x="224" y="-196.54" font-family="Times,serif" font-size="14">否</text><text text-anchor="middle" x="224" y="-181.54" font-family="Times,serif" font-size="14">(收到ACK)</text></g><g id="node9" class="node"><title>retransmit</title><polygon fill="orange" stroke="#000" points="125,-159.74 37,-159.74 37,-106.74 125,-106.74 125,-159.74"/><text text-anchor="middle" x="81" y="-144.54" font-family="Times,serif" font-size="14">重新发送</text><text text-anchor="middle" x="81" y="-129.54" font-family="Times,serif" font-size="14">同一数据帧</text><text text-anchor="middle" x="81" y="-114.54" font-family="Times,serif" font-size="14">重启计时器</text></g><g id="edge10" class="edge"><title>timeout_check-&gt;retransmit</title><path fill="none" stroke="red" d="M144.78-240.92C135.06-231.36 124.23-219.62 116-207.74 107.79-195.89 100.57-181.81 94.85-169.17"/><polygon fill="red" stroke="red" points="97.98,-167.6 90.78,-159.84 91.57,-170.4 97.98,-167.6"/><text text-anchor="middle" x="136" y="-196.54" font-family="Times,serif" font-size="14">是</text><text text-anchor="middle" x="136" y="-181.54" font-family="Times,serif" font-size="14">(超时)</text></g><g id="node10" class="node"><title>success</title><ellipse fill="#90ee90" stroke="#000" cx="280" cy="-42.87" rx="62.45" ry="26.74"/><text text-anchor="middle" x="280" y="-46.67" font-family="Times,serif" font-size="14">传输成功</text><text text-anchor="middle" x="280" y="-31.67" font-family="Times,serif" font-size="14">准备下一帧</text></g><g id="edge13" class="edge"><title>recv_ack-&gt;success</title><path fill="none" stroke="#000" d="M270.49-113.93C271.82-104.08 273.52-91.57 275.11-79.86"/><polygon fill="#000" stroke="#000" points="278.59,-80.25 276.47,-69.87 271.66,-79.3 278.59,-80.25"/></g><g id="edge12" class="edge"><title>retransmit-&gt;wait_ack</title><path fill="none" stroke="#000" d="M63.84-159.99C42.95-194.91 13.83-257.93 43-301.74c24.96-37.49 74.6-54.65 112.94-62.48"/><polygon fill="#000" stroke="#000" points="155.45,-367.69 165.92,-366.1 156.75,-360.81 155.45,-367.69"/><text text-anchor="middle" x="72" y="-260.04" font-family="Times,serif" font-size="14">重新等待</text></g><g id="edge14" class="edge"><title>success-&gt;start</title><path fill="none" stroke="#000" stroke-dasharray="5,2" d="M300.31-68.27C308.29-79.32 316.59-92.97 321-106.74 347.73-190.19 313.67-463.43 301.8-550.69"/><polygon fill="#000" stroke="#000" points="298.33,-550.23 300.44,-560.61 305.27,-551.18 298.33,-550.23"/><text text-anchor="middle" x="347.5" y="-323.54" font-family="Times,serif" font-size="14">下一帧</text></g></g></svg>