<?xml version="1.0" encoding="UTF-8"?>
<!DOCTYPE svg PUBLIC "-//W3C//DTD SVG 1.1//EN" "http://www.w3.org/Graphics/SVG/1.1/DTD/svg11.dtd">
<svg xmlns="http://www.w3.org/2000/svg" width="452pt" height="498pt" viewBox="0 0 452 498" xmlns:xlink="http://www.w3.org/1999/xlink"><g id="graph0" class="graph" transform="scale(1 1) rotate(0) translate(4 494)"><title>SwitchForwarding</title><g id="node1" class="node"><title>start</title><ellipse fill="#e1f5fe" stroke="#000" cx="139" cy="-468.5" rx="65" ry="21.5"/><text text-anchor="middle" x="139" y="-466" font-family="Microsoft Yahei" font-size="10">收到数据帧</text></g><g id="node2" class="node"><title>extract</title><polygon fill="#f3e5f5" stroke="#000" points="204,-410 74,-410 74,-367 204,-367 204,-410"/><text text-anchor="middle" x="139" y="-386" font-family="Microsoft Yahei" font-size="10">提取目标MAC地址</text></g><g id="edge1" class="edge"><title>start-&gt;extract</title><path fill="none" stroke="#000" d="M139-446.6C139-438.58 139-429.24 139-420.48"/><polygon fill="#000" stroke="#000" points="142.5,-420.19 139,-410.19 135.5,-420.19 142.5,-420.19"/></g><g id="node3" class="node"><title>lookup</title><polygon fill="#fff3e0" stroke="#000" points="139,-330 85,-294 139,-258 193,-294 139,-330"/><text text-anchor="middle" x="139" y="-291.5" font-family="Microsoft Yahei" font-size="10">查询转发表</text></g><g id="edge2" class="edge"><title>extract-&gt;lookup</title><path fill="none" stroke="#000" d="M139-366.97C139-359 139-349.53 139-340.12"/><polygon fill="#000" stroke="#000" points="142.5,-340.01 139,-330.01 135.5,-340.01 142.5,-340.01"/></g><g id="node4" class="node"><title>hit</title><polygon fill="#e8f5e8" stroke="#000" points="130,-212 0,-212 0,-169 130,-169 130,-212"/><text text-anchor="middle" x="65" y="-188" font-family="Microsoft Yahei" font-size="10">表中存在MAC</text></g><g id="edge3" class="edge"><title>lookup-&gt;hit</title><path fill="none" stroke="green" d="M121.65-269.2c-10.67 14.63-24.41 33.48-35.69 48.94"/><polygon fill="green" stroke="green" points="88.71,-218.08 79.99,-212.06 83.05,-222.2 88.71,-218.08"/><text text-anchor="middle" x="108.5" y="-232.8" font-family="Microsoft Yahei" font-size="9">命中</text></g><g id="node6" class="node"><title>miss</title><polygon fill="#ffebee" stroke="#000" points="278,-212 148,-212 148,-169 278,-169 278,-212"/><text text-anchor="middle" x="213" y="-188" font-family="Microsoft Yahei" font-size="10">表中无MAC记录</text></g><g id="edge4" class="edge"><title>lookup-&gt;miss</title><path fill="none" stroke="red" d="M156.35-269.2c10.67 14.63 24.41 33.48 35.69 48.94"/><polygon fill="red" stroke="red" points="194.95,-222.2 198.01,-212.06 189.29,-218.08 194.95,-222.2"/><text text-anchor="middle" x="198" y="-232.8" font-family="Microsoft Yahei" font-size="9">未命中</text></g><g id="node5" class="node"><title>unicast</title><polygon fill="#c8e6c9" stroke="#000" points="130,-132 0,-132 0,-89 130,-89 130,-132"/><text text-anchor="middle" x="65" y="-113.5" font-family="Microsoft Yahei" font-size="10">单播转发</text><text text-anchor="middle" x="65" y="-102.5" font-family="Microsoft Yahei" font-size="10">发送到对应端口</text></g><g id="edge5" class="edge"><title>hit-&gt;unicast</title><path fill="none" stroke="#000" d="M65-168.6C65-160.58 65-151.24 65-142.48"/><polygon fill="#000" stroke="#000" points="68.5,-142.19 65,-132.19 61.5,-142.19 68.5,-142.19"/></g><g id="node7" class="node"><title>flood</title><polygon fill="#ffcdd2" stroke="#000" points="278,-132 148,-132 148,-89 278,-89 278,-132"/><text text-anchor="middle" x="213" y="-113.5" font-family="Microsoft Yahei" font-size="10">泛洪转发</text><text text-anchor="middle" x="213" y="-102.5" font-family="Microsoft Yahei" font-size="10">发送到所有端口</text></g><g id="edge6" class="edge"><title>miss-&gt;flood</title><path fill="none" stroke="#000" d="M213-168.6C213-160.58 213-151.24 213-142.48"/><polygon fill="#000" stroke="#000" points="216.5,-142.19 213,-132.19 209.5,-142.19 216.5,-142.19"/></g><g id="node8" class="node"><title>response</title><polygon fill="#f1f8e9" stroke="#000" points="278,-43 148,-43 148,0 278,0 278,-43"/><text text-anchor="middle" x="213" y="-19" font-family="Microsoft Yahei" font-size="10">目标设备应答</text></g><g id="edge7" class="edge"><title>flood-&gt;response</title><path fill="none" stroke="#000" stroke-dasharray="5,2" d="M213-88.88c0 10.54.0 23.59.0 35.32"/><polygon fill="#000" stroke="#000" points="216.5,-53.27 213,-43.27 209.5,-53.27 216.5,-53.27"/><text text-anchor="middle" x="222.5" y="-63.8" font-family="Microsoft Yahei" font-size="9">等待</text></g><g id="node9" class="node"><title>learn</title><polygon fill="#dcedc8" stroke="#000" points="444,-43 314,-43 314,0 444,0 444,-43"/><text text-anchor="middle" x="379" y="-24.5" font-family="Microsoft Yahei" font-size="10">学习源MAC</text><text text-anchor="middle" x="379" y="-13.5" font-family="Microsoft Yahei" font-size="10">更新转发表</text></g><g id="edge8" class="edge"><title>response-&gt;learn</title><path fill="none" stroke="#000" d="M278.17-21.5c8.39999999999998.0 16.8.0 25.2.0"/><polygon fill="#000" stroke="#000" points="303.62,-25 313.62,-21.5 303.62,-18 303.62,-25"/></g></g></svg>