<?xml version="1.0" encoding="UTF-8"?>
<!DOCTYPE svg PUBLIC "-//W3C//DTD SVG 1.1//EN" "http://www.w3.org/Graphics/SVG/1.1/DTD/svg11.dtd">
<svg xmlns="http://www.w3.org/2000/svg" width="853pt" height="917pt" viewBox="0 0 853 916.74" xmlns:xlink="http://www.w3.org/1999/xlink"><g id="graph0" class="graph" transform="scale(1 1) rotate(0) translate(4 912.74)"><title>ProducerConsumer</title><text text-anchor="middle" x="422.5" y="-891.94" font-family="Microsoft Yahei" font-size="16">生产者消费者问题</text><g id="clust1" class="cluster"><title>cluster_semaphores</title><polygon fill="lightgrey" stroke="lightgrey" points="152,-8 152,-103.74 600,-103.74 600,-8 152,-8"/><text text-anchor="middle" x="376" y="-86.94" font-family="Microsoft Yahei" font-size="16">信号量定义</text></g><g id="clust2" class="cluster"><title>cluster_buffer</title><polygon fill="#ffffe0" stroke="#ffffe0" points="279,-403.74 279,-499.74 444,-499.74 444,-403.74 279,-403.74"/><text text-anchor="middle" x="361.5" y="-482.94" font-family="Microsoft Yahei" font-size="16">共享缓冲区 (大小: n)</text></g><g id="clust3" class="cluster"><title>cluster_producer</title><polygon fill="#90ee90" stroke="#90ee90" points="452,-314.74 452,-874.74 621,-874.74 621,-314.74 452,-314.74"/><text text-anchor="middle" x="536.5" y="-857.94" font-family="Microsoft Yahei" font-size="16">生产者 (Producer)</text></g><g id="clust4" class="cluster"><title>cluster_consumer</title><polygon fill="#f08080" stroke="#f08080" points="74,-136.74 74,-686.74 271,-686.74 271,-136.74 74,-136.74"/><text text-anchor="middle" x="172.5" y="-669.94" font-family="Microsoft Yahei" font-size="16">消费者 (Consumer)</text></g><g id="node1" class="node"><title>mutex</title><ellipse fill="#ff0" stroke="#000" cx="366" cy="-42.87" rx="69.09" ry="26.74"/><text text-anchor="middle" x="366" y="-46.67" font-family="Times,serif" font-size="14">mutex = 1</text><text text-anchor="middle" x="366" y="-31.67" font-family="Times,serif" font-size="14">(互斥信号量)</text></g><g id="node2" class="node"><title>empty</title><ellipse fill="#add8e6" stroke="#000" cx="523" cy="-42.87" rx="69.09" ry="26.74"/><text text-anchor="middle" x="523" y="-46.67" font-family="Times,serif" font-size="14">empty = n</text><text text-anchor="middle" x="523" y="-31.67" font-family="Times,serif" font-size="14">(空闲缓冲区)</text></g><g id="node3" class="node"><title>full</title><ellipse fill="orange" stroke="#000" cx="219" cy="-42.87" rx="59.29" ry="26.74"/><text text-anchor="middle" x="219" y="-46.67" font-family="Times,serif" font-size="14">full = 0</text><text text-anchor="middle" x="219" y="-31.67" font-family="Times,serif" font-size="14">(忙缓冲区)</text></g><g id="node4" class="node"><title>buffer</title><polygon fill="#fff" stroke="#000" points="319,-412.24 319,-465.24 403,-465.24 403,-412.24 319,-412.24"/><text text-anchor="middle" x="361" y="-450.04" font-family="Times,serif" font-size="14">缓冲区</text><text text-anchor="middle" x="361" y="-435.04" font-family="Times,serif" font-size="14">[][][]...[]</text><text text-anchor="middle" x="361" y="-420.04" font-family="Times,serif" font-size="14">(固定大小)</text></g><g id="node14" class="node"><title>cons_consume</title><polygon fill="#ffb6c1" stroke="#000" points="198,-360.74 82,-360.74 82,-322.74 198,-322.74 198,-360.74"/><text text-anchor="middle" x="140" y="-345.54" font-family="Times,serif" font-size="14">从缓冲区</text><text text-anchor="middle" x="140" y="-330.54" font-family="Times,serif" font-size="14">取出并消费数据</text></g><g id="edge14" class="edge"><title>buffer-&gt;cons_consume</title><path fill="none" stroke="red" stroke-width="2" d="M318.91-419.65c-36.25 15.59-88.7 38.13-127.44 54.79"/><polygon fill="red" stroke="red" stroke-width="2" points="192.5,-361.5 181.93,-360.77 189.74,-367.93 192.5,-361.5"/><text text-anchor="middle" x="286" y="-382.54" font-family="Times,serif" font-size="14">取出数据</text></g><g id="node5" class="node"><title>prod_start</title><ellipse fill="green" stroke="#000" cx="569" cy="-822.74" rx="29.5" ry="18"/><text text-anchor="middle" x="569" y="-819.04" font-family="Times,serif" font-size="14">开始</text></g><g id="node6" class="node"><title>prod_wait_empty</title><polygon fill="#e0ffff" stroke="#000" points="613,-751.74 525,-751.74 525,-713.74 613,-713.74 613,-751.74"/><text text-anchor="middle" x="569" y="-736.54" font-family="Times,serif" font-size="14">P(empty)</text><text text-anchor="middle" x="569" y="-721.54" font-family="Times,serif" font-size="14">等待空位置</text></g><g id="edge1" class="edge"><title>prod_start-&gt;prod_wait_empty</title><path fill="none" stroke="#000" d="M569-804.35C569-792.3 569-775.98 569-762.06"/><polygon fill="#000" stroke="#000" points="572.5,-762 569,-752 565.5,-762 572.5,-762"/></g><g id="edge15" class="edge"><title>prod_wait_empty-&gt;empty</title><path fill="none" stroke="blue" stroke-dasharray="5,2" d="M613.36-721.04c40.68 12.77 94.64 38.52 94.64 85.3v473C708-105.87 645.35-74.93 592.96-59"/><polygon fill="blue" stroke="blue" points="593.9,-55.63 583.32,-56.2 591.95,-62.35 593.9,-55.63"/><text text-anchor="middle" x="727.5" y="-382.54" font-family="Times,serif" font-size="14">P操作</text></g><g id="node7" class="node"><title>prod_wait_mutex</title><polygon fill="#e0ffff" stroke="#000" points="565,-653.74 477,-653.74 477,-615.74 565,-615.74 565,-653.74"/><text text-anchor="middle" x="521" y="-638.54" font-family="Times,serif" font-size="14">P(mutex)</text><text text-anchor="middle" x="521" y="-623.54" font-family="Times,serif" font-size="14">获取互斥锁</text></g><g id="edge2" class="edge"><title>prod_wait_empty-&gt;prod_wait_mutex</title><path fill="none" stroke="#000" d="M559.97-713.68C552.84-699.43 542.78-679.3 534.67-663.07"/><polygon fill="#000" stroke="#000" points="537.75,-661.42 530.15,-654.04 531.49,-664.55 537.75,-661.42"/></g><g id="edge19" class="edge"><title>prod_wait_mutex-&gt;mutex</title><path fill="none" stroke="purple" stroke-dasharray="5,2" d="M565-625.56C599.25-616.34 641-597.56 641-560.74v398c0 90.97-114.91 17.76-196 59C429.38-95.79 413.68-84.69 400.44-74.21"/><polygon fill="purple" stroke="purple" points="402.5,-71.38 392.54,-67.79 398.09,-76.81 402.5,-71.38"/><text text-anchor="middle" x="660.5" y="-338.04" font-family="Times,serif" font-size="14">P操作</text></g><g id="node8" class="node"><title>prod_produce</title><polygon fill="#ffb6c1" stroke="#000" points="548,-578.74 460,-578.74 460,-540.74 548,-540.74 548,-578.74"/><text text-anchor="middle" x="504" y="-563.54" font-family="Times,serif" font-size="14">生产数据</text><text text-anchor="middle" x="504" y="-548.54" font-family="Times,serif" font-size="14">放入缓冲区</text></g><g id="edge3" class="edge"><title>prod_wait_mutex-&gt;prod_produce</title><path fill="none" stroke="#000" d="M516.8-615.7C514.9-607.54 512.61-597.71 510.49-588.63"/><polygon fill="#000" stroke="#000" points="513.89,-587.78 508.21,-578.83 507.07,-589.36 513.89,-587.78"/></g><g id="edge13" class="edge"><title>prod_produce-&gt;buffer</title><path fill="none" stroke="green" stroke-width="2" d="M469.14-540.71C459.99-535.4 450.35-529.24 442-522.74c-18.84 14.67-37.6 33.57-52.32 49.62"/><polygon fill="green" stroke="green" stroke-width="2" points="392.09,-470.58 382.79,-465.5 386.9,-475.27 392.09,-470.58"/><text text-anchor="middle" x="471" y="-511.54" font-family="Times,serif" font-size="14">放入数据</text></g><g id="node9" class="node"><title>prod_release_mutex</title><polygon fill="#e0ffff" stroke="#000" points="548,-457.74 460,-457.74 460,-419.74 548,-419.74 548,-457.74"/><text text-anchor="middle" x="504" y="-442.54" font-family="Times,serif" font-size="14">V(mutex)</text><text text-anchor="middle" x="504" y="-427.54" font-family="Times,serif" font-size="14">释放互斥锁</text></g><g id="edge4" class="edge"><title>prod_produce-&gt;prod_release_mutex</title><path fill="none" stroke="#000" d="M504-540.67C504-521.45 504-490.77 504-468.28"/><polygon fill="#000" stroke="#000" points="507.5,-467.98 504,-457.98 500.5,-467.98 507.5,-467.98"/></g><g id="edge20" class="edge"><title>prod_release_mutex-&gt;mutex</title><path fill="none" stroke="purple" stroke-dasharray="5,2" d="M474.27-419.73C435.62-395.83 373-355.17 373-342.74v180C373-134.95 371.07-103.57 369.24-80.04"/><polygon fill="purple" stroke="purple" points="372.71,-79.5 368.41,-69.82 365.73,-80.07 372.71,-79.5"/><text text-anchor="middle" x="392.5" y="-249.04" font-family="Times,serif" font-size="14">V操作</text></g><g id="node10" class="node"><title>prod_signal_full</title><polygon fill="#e0ffff" stroke="#000" points="562,-360.74 460,-360.74 460,-322.74 562,-322.74 562,-360.74"/><text text-anchor="middle" x="511" y="-345.54" font-family="Times,serif" font-size="14">V(full)</text><text text-anchor="middle" x="511" y="-330.54" font-family="Times,serif" font-size="14">增加数据计数</text></g><g id="edge5" class="edge"><title>prod_release_mutex-&gt;prod_signal_full</title><path fill="none" stroke="#000" d="M505.35-419.42C506.36-405.76 507.75-386.82 508.9-371.19"/><polygon fill="#000" stroke="#000" points="512.41,-371.23 509.65,-361 505.43,-370.72 512.41,-371.23"/></g><g id="edge16" class="edge"><title>prod_signal_full-&gt;full</title><path fill="none" stroke="blue" stroke-dasharray="5,2" d="M495.87-322.57C473.01-295.39 428.01-242.84 387-200.74c-44.78 45.98-99.61 96.1-134.18 127.01"/><polygon fill="blue" stroke="blue" points="255.13,-71.1 245.34,-67.05 250.47,-76.32 255.13,-71.1"/><text text-anchor="middle" x="419.5" y="-204.54" font-family="Times,serif" font-size="14">V操作</text></g><g id="edge6" class="edge"><title>prod_signal_full-&gt;prod_wait_empty</title><path fill="none" stroke="gray" stroke-dasharray="5,2" d="M536.94-361.05C557.92-378.2 584-405.92 584-437.74v-198C584-658.8 579.72-684.6 575.74-703.64"/><polygon fill="gray" stroke="gray" points="572.31,-702.95 573.58,-713.47 579.14,-704.45 572.31,-702.95"/><text text-anchor="middle" x="598.5" y="-556.04" font-family="Times,serif" font-size="14">循环</text></g><g id="node11" class="node"><title>cons_start</title><ellipse fill="red" stroke="#000" cx="133" cy="-634.74" rx="29.5" ry="18"/><text text-anchor="middle" x="133" y="-631.04" font-family="Times,serif" font-size="14">开始</text></g><g id="node12" class="node"><title>cons_wait_full</title><polygon fill="#e0ffff" stroke="#000" points="177,-578.74 89,-578.74 89,-540.74 177,-540.74 177,-578.74"/><text text-anchor="middle" x="133" y="-563.54" font-family="Times,serif" font-size="14">P(full)</text><text text-anchor="middle" x="133" y="-548.54" font-family="Times,serif" font-size="14">等待数据项</text></g><g id="edge7" class="edge"><title>cons_start-&gt;cons_wait_full</title><path fill="none" stroke="#000" d="M133-616.44C133-608.23 133-598.21 133-588.94"/><polygon fill="#000" stroke="#000" points="136.5,-588.93 133,-578.93 129.5,-588.93 136.5,-588.93"/></g><g id="edge17" class="edge"><title>cons_wait_full-&gt;full</title><path fill="none" stroke="blue" stroke-dasharray="5,2" d="M88.71-540.94C50.02-522.12.0-488.38.0-439.74v277C0-92.83 87.27-63.81 151.63-51.92"/><polygon fill="blue" stroke="blue" points="152.5,-55.32 161.75,-50.16 151.29,-48.43 152.5,-55.32"/><text text-anchor="middle" x="19.5" y="-293.54" font-family="Times,serif" font-size="14">P操作</text></g><g id="node13" class="node"><title>cons_wait_mutex</title><polygon fill="#e0ffff" stroke="#000" points="177,-457.74 89,-457.74 89,-419.74 177,-419.74 177,-457.74"/><text text-anchor="middle" x="133" y="-442.54" font-family="Times,serif" font-size="14">P(mutex)</text><text text-anchor="middle" x="133" y="-427.54" font-family="Times,serif" font-size="14">获取互斥锁</text></g><g id="edge8" class="edge"><title>cons_wait_full-&gt;cons_wait_mutex</title><path fill="none" stroke="#000" d="M133-540.67C133-521.45 133-490.77 133-468.28"/><polygon fill="#000" stroke="#000" points="136.5,-467.98 133,-457.98 129.5,-467.98 136.5,-467.98"/></g><g id="edge21" class="edge"><title>cons_wait_mutex-&gt;mutex</title><path fill="none" stroke="purple" stroke-dasharray="5,2" d="M104.48-419.59C81.85-402.72 54-375.35 54-342.74v180c0 37.07 31.21 38.19 66 51C154.86-98.9 252.08-116.42 287-103.74c17.31 6.28 33.95 17.77 47.46 29.02"/><polygon fill="purple" stroke="purple" points="336.76,-77.36 342.03,-68.17 332.18,-72.07 336.76,-77.36"/><text text-anchor="middle" x="73.5" y="-249.04" font-family="Times,serif" font-size="14">P操作</text></g><g id="edge9" class="edge"><title>cons_wait_mutex-&gt;cons_consume</title><path fill="none" stroke="#000" d="M134.35-419.42C135.36-405.76 136.75-386.82 137.9-371.19"/><polygon fill="#000" stroke="#000" points="141.41,-371.23 138.65,-361 134.43,-370.72 141.41,-371.23"/></g><g id="node15" class="node"><title>cons_release_mutex</title><polygon fill="#e0ffff" stroke="#000" points="199,-271.74 111,-271.74 111,-233.74 199,-233.74 199,-271.74"/><text text-anchor="middle" x="155" y="-256.54" font-family="Times,serif" font-size="14">V(mutex)</text><text text-anchor="middle" x="155" y="-241.54" font-family="Times,serif" font-size="14">释放互斥锁</text></g><g id="edge10" class="edge"><title>cons_consume-&gt;cons_release_mutex</title><path fill="none" stroke="#000" d="M143.11-322.71C145.14-310.93 147.83-295.3 150.15-281.9"/><polygon fill="#000" stroke="#000" points="153.65,-282.19 151.9,-271.74 146.75,-281 153.65,-282.19"/></g><g id="edge22" class="edge"><title>cons_release_mutex-&gt;mutex</title><path fill="none" stroke="purple" stroke-dasharray="5,2" d="M138.27-233.51C117.94-209.1 89.14-165.55 113-136.74 163.21-76.12 215.06-135.69 287-103.74 303.28-96.51 319.31-85.34 332.63-74.59"/><polygon fill="purple" stroke="purple" points="335.11,-77.09 340.56,-68 330.63,-71.71 335.11,-77.09"/><text text-anchor="middle" x="132.5" y="-160.04" font-family="Times,serif" font-size="14">V操作</text></g><g id="node16" class="node"><title>cons_signal_empty</title><polygon fill="#e0ffff" stroke="#000" points="263,-182.74 161,-182.74 161,-144.74 263,-144.74 263,-182.74"/><text text-anchor="middle" x="212" y="-167.54" font-family="Times,serif" font-size="14">V(empty)</text><text text-anchor="middle" x="212" y="-152.54" font-family="Times,serif" font-size="14">增加空位计数</text></g><g id="edge11" class="edge"><title>cons_release_mutex-&gt;cons_signal_empty</title><path fill="none" stroke="#000" d="M166.81-233.71c8.03 12.24 18.78 28.65 27.78 42.39"/><polygon fill="#000" stroke="#000" points="197.65,-193.03 200.2,-182.74 191.8,-189.19 197.65,-193.03"/></g><g id="edge18" class="edge"><title>cons_signal_empty-&gt;empty</title><path fill="none" stroke="blue" stroke-dasharray="5,2" d="M263.34-155.72C311.74-147.73 385.4-131.96 444-103.74c15.92 7.67 31.78 18.82 45.07 29.42"/><polygon fill="blue" stroke="blue" points="491.47,-76.87 496.98,-67.82 487.03,-71.46 491.47,-76.87"/><text text-anchor="middle" x="439.5" y="-115.54" font-family="Times,serif" font-size="14">V操作</text></g><g id="edge12" class="edge"><title>cons_signal_empty-&gt;cons_wait_full</title><path fill="none" stroke="gray" stroke-dasharray="5,2" d="M219.45-183.07C225.83-200.45 234-227.44 234-251.74v-188c0-40.32-34.13-73.98-62.71-95.09"/><polygon fill="gray" stroke="gray" points="169.15,-532.06 163.03,-540.71 173.21,-537.77 169.15,-532.06"/><text text-anchor="middle" x="248.5" y="-338.04" font-family="Times,serif" font-size="14">循环</text></g><g id="node17" class="node"><title>note1</title><polygon fill="#ffffe0" stroke="#000" points="839,-856.74 629,-856.74 629,-788.74 845,-788.74 845,-850.74 839,-856.74"/><polyline fill="none" stroke="#000" points="839,-856.74 839,-850.74"/><polyline fill="none" stroke="#000" points="845,-850.74 839,-850.74"/><text text-anchor="middle" x="737" y="-841.54" font-family="Microsoft Yahei" font-size="14">关键点：</text><text text-anchor="middle" x="737" y="-826.54" font-family="Microsoft Yahei" font-size="14">• empty信号量防止缓冲区溢出</text><text text-anchor="middle" x="737" y="-811.54" font-family="Microsoft Yahei" font-size="14">• full信号量防止空缓冲区消费</text><text text-anchor="middle" x="737" y="-796.54" font-family="Microsoft Yahei" font-size="14">• mutex信号量保证临界区互斥</text></g></g></svg>