<?xml version="1.0" encoding="UTF-8"?>
<!DOCTYPE svg PUBLIC "-//W3C//DTD SVG 1.1//EN" "http://www.w3.org/Graphics/SVG/1.1/DTD/svg11.dtd">
<svg xmlns="http://www.w3.org/2000/svg" width="542pt" height="988pt" viewBox="0 0 541.83 988" xmlns:xlink="http://www.w3.org/1999/xlink"><g id="graph0" class="graph" transform="scale(1 1) rotate(0) translate(4 984)"><title>PrimDemo_Reversed</title><g id="clust1" class="cluster"><title>cluster_final</title><polygon fill="#ffb6c1" stroke="#ffb6c1" points="45.4,-8 45.4,-152 446.83,-152 446.83,-8 45.4,-8"/><text text-anchor="middle" x="199.9" y="-136.8" font-family="Times,serif" font-size="14">步骤5: 最终最小生成树</text><text text-anchor="middle" x="199.9" y="-121.8" font-family="Times,serif" font-size="14">T = {A,B,C,D,E}, 总权重 = 2+1+2+4 = 9</text></g><g id="clust2" class="cluster"><title>cluster_step4</title><polygon fill="#e0ffff" stroke="#e0ffff" points="45.4,-160 45.4,-277 525.83,-277 525.83,-160 45.4,-160"/><text text-anchor="middle" x="167.9" y="-261.8" font-family="Times,serif" font-size="14">步骤4: 选择最小横切边 C-D (权重2)</text><text text-anchor="middle" x="167.9" y="-246.8" font-family="Times,serif" font-size="14">T = {A,B,C,D}, V-T = {E}</text></g><g id="clust3" class="cluster"><title>cluster_step3</title><polygon fill="#ffffe0" stroke="#ffffe0" points="45.4,-285 45.4,-415 525.83,-415 525.83,-285 45.4,-285"/><text text-anchor="middle" x="167.9" y="-399.8" font-family="Times,serif" font-size="14">步骤3: 选择最小横切边 B-C (权重1)</text><text text-anchor="middle" x="167.9" y="-384.8" font-family="Times,serif" font-size="14">T = {A,B,C}, V-T = {D,E}</text></g><g id="clust4" class="cluster"><title>cluster_step2</title><polygon fill="#90ee90" stroke="#90ee90" points="45.4,-423 45.4,-580 525.83,-580 525.83,-423 45.4,-423"/><text text-anchor="middle" x="167.4" y="-564.8" font-family="Times,serif" font-size="14">步骤2: 选择最小横切边 A-B (权重2)</text><text text-anchor="middle" x="167.4" y="-549.8" font-family="Times,serif" font-size="14">T = {A,B}, V-T = {C,D,E}</text></g><g id="clust5" class="cluster"><title>cluster_step1</title><polygon fill="#add8e6" stroke="#add8e6" points="45.4,-588 45.4,-745 525.83,-745 525.83,-588 45.4,-588"/><text text-anchor="middle" x="285.61" y="-729.8" font-family="Times,serif" font-size="14">步骤1: 初始状态 - 从A开始</text><text text-anchor="middle" x="285.61" y="-714.8" font-family="Times,serif" font-size="14">T = {A}, V-T = {B,C,D,E}</text></g><g id="clust6" class="cluster"><title>cluster_legend</title><polygon fill="#d3d3d3" stroke="#d3d3d3" points="8,-753 8,-972 290.83,-972 290.83,-753 8,-753"/></g><g id="clust7" class="cluster"><title>cluster_key</title><polygon fill="#fff" stroke="#fff" points="16,-761 16,-964 282.83,-964 282.83,-761 16,-761"/><text text-anchor="middle" x="84.5" y="-948.8" font-family="Times,serif" font-size="14">Prim算法步骤演示</text></g><g id="node1" class="node"><title>A5</title><ellipse fill="#add8e6" stroke="#000" cx="71.4" cy="-63" rx="18" ry="18"/><text text-anchor="middle" x="71.4" y="-59.9" font-family="Times,serif" font-size="12">A</text></g><g id="node2" class="node"><title>B5</title><ellipse fill="#add8e6" stroke="#000" cx="234.81" cy="-63" rx="18" ry="18"/><text text-anchor="middle" x="234.81" y="-59.9" font-family="Times,serif" font-size="12">B</text></g><g id="edge1" class="edge"><title>A5-&gt;B5</title><path fill="none" stroke="green" stroke-width="2" d="M89.67-63c27.92.0 83.17.0 116.58.0"/><polygon fill="green" stroke="green" stroke-width="2" points="206.66,-66.5 216.66,-63 206.66,-59.5 206.66,-66.5"/><text text-anchor="middle" x="156.8" y="-66" font-family="Times,serif" font-size="10">2</text></g><g id="node3" class="node"><title>C5</title><ellipse fill="#add8e6" stroke="#000" cx="341.83" cy="-34" rx="18" ry="18"/><text text-anchor="middle" x="341.83" y="-30.9" font-family="Times,serif" font-size="12">C</text></g><g id="edge2" class="edge"><title>B5-&gt;C5</title><path fill="none" stroke="green" stroke-width="2" d="M252.69-58.34C269.4-53.73 295.22-46.59 314.61-41.24"/><polygon fill="green" stroke="green" stroke-width="2" points="315.64,-44.59 324.34,-38.55 313.77,-37.84 315.64,-44.59"/><text text-anchor="middle" x="302.33" y="-48" font-family="Times,serif" font-size="10">1</text></g><g id="node5" class="node"><title>E5</title><ellipse fill="orange" stroke="#000" cx="341.83" cy="-88" rx="18" ry="18"/><text text-anchor="middle" x="341.83" y="-84.9" font-family="Times,serif" font-size="12">E</text></g><g id="edge4" class="edge"><title>B5-&gt;E5</title><path fill="none" stroke="green" stroke-width="2" d="M252.69-67.02c16.61-3.95 42.23-10.05 61.57-14.66"/><polygon fill="green" stroke="green" stroke-width="2" points="313.46,-85.08 324,-83.99 315.08,-78.27 313.46,-85.08"/><text text-anchor="middle" x="302.33" y="-82" font-family="Times,serif" font-size="10">4</text></g><g id="node4" class="node"><title>D5</title><ellipse fill="#add8e6" stroke="#000" cx="420.83" cy="-34" rx="18" ry="18"/><text text-anchor="middle" x="420.83" y="-30.9" font-family="Times,serif" font-size="12">D</text></g><g id="edge3" class="edge"><title>C5-&gt;D5</title><path fill="none" stroke="green" stroke-width="2" d="M359.92-34C369.49-34 381.64-34 392.5-34"/><polygon fill="green" stroke="green" stroke-width="2" points="392.79,-37.5 402.79,-34 392.79,-30.5 392.79,-37.5"/><text text-anchor="middle" x="381.33" y="-37" font-family="Times,serif" font-size="10">2</text></g><g id="node6" class="node"><title>A4</title><ellipse fill="#add8e6" stroke="#000" cx="71.4" cy="-204" rx="18" ry="18"/><text text-anchor="middle" x="71.4" y="-200.9" font-family="Times,serif" font-size="12">A</text></g><g id="node7" class="node"><title>B4</title><ellipse fill="#add8e6" stroke="#000" cx="234.81" cy="-204" rx="18" ry="18"/><text text-anchor="middle" x="234.81" y="-200.9" font-family="Times,serif" font-size="12">B</text></g><g id="edge5" class="edge"><title>A4-&gt;B4</title><path fill="none" stroke="green" stroke-width="2" d="M89.67-204c27.92.0 83.17.0 116.58.0"/><polygon fill="green" stroke="green" stroke-width="2" points="206.66,-207.5 216.66,-204 206.66,-200.5 206.66,-207.5"/><text text-anchor="middle" x="156.8" y="-207" font-family="Times,serif" font-size="10">2</text></g><g id="node8" class="node"><title>C4</title><ellipse fill="#add8e6" stroke="#000" cx="341.83" cy="-186" rx="18" ry="18"/><text text-anchor="middle" x="341.83" y="-182.9" font-family="Times,serif" font-size="12">C</text></g><g id="edge6" class="edge"><title>B4-&gt;C4</title><path fill="none" stroke="green" stroke-width="2" d="M252.69-201.11C269.22-198.27 294.68-193.91 313.99-190.6"/><polygon fill="green" stroke="green" stroke-width="2" points="314.73,-194.02 324,-188.88 313.55,-187.12 314.73,-194.02"/><text text-anchor="middle" x="302.33" y="-195" font-family="Times,serif" font-size="10">1</text></g><g id="node10" class="node"><title>E4</title><ellipse fill="#d3d3d3" stroke="#000" cx="499.83" cy="-196" rx="18" ry="18"/><text text-anchor="middle" x="499.83" y="-192.9" font-family="Times,serif" font-size="12">E</text></g><g id="edge8" class="edge"><title>B4-&gt;E4</title><path fill="none" stroke="red" stroke-dasharray="5,2" d="M252.63-206.98C288.55-212.85 375.31-224.39 446.83-213 455.63-211.6 464.97-208.94 473.26-206.13"/><polygon fill="red" stroke="red" points="474.54,-209.39 482.76,-202.71 472.17,-202.81 474.54,-209.39"/><text text-anchor="middle" x="381.33" y="-220" font-family="Times,serif" font-size="10">4</text></g><g id="node9" class="node"><title>D4</title><ellipse fill="orange" stroke="#000" cx="420.83" cy="-186" rx="18" ry="18"/><text text-anchor="middle" x="420.83" y="-182.9" font-family="Times,serif" font-size="12">D</text></g><g id="edge7" class="edge"><title>C4-&gt;D4</title><path fill="none" stroke="green" stroke-width="2" d="M359.92-186C369.49-186 381.64-186 392.5-186"/><polygon fill="green" stroke="green" stroke-width="2" points="392.79,-189.5 402.79,-186 392.79,-182.5 392.79,-189.5"/><text text-anchor="middle" x="381.33" y="-189" font-family="Times,serif" font-size="10">2</text></g><g id="edge9" class="edge"><title>D4-&gt;E4</title><path fill="none" stroke="red" stroke-dasharray="5,2" d="M438.92-188.22C448.59-189.48 460.9-191.07 471.84-192.5"/><polygon fill="red" stroke="red" points="471.42,-195.97 481.79,-193.79 472.32,-189.03 471.42,-195.97"/><text text-anchor="middle" x="460.33" y="-194" font-family="Times,serif" font-size="10">5</text></g><g id="node11" class="node"><title>A3</title><ellipse fill="#add8e6" stroke="#000" cx="71.4" cy="-341" rx="18" ry="18"/><text text-anchor="middle" x="71.4" y="-337.9" font-family="Times,serif" font-size="12">A</text></g><g id="node12" class="node"><title>B3</title><ellipse fill="#add8e6" stroke="#000" cx="234.81" cy="-321" rx="18" ry="18"/><text text-anchor="middle" x="234.81" y="-317.9" font-family="Times,serif" font-size="12">B</text></g><g id="edge10" class="edge"><title>A3-&gt;B3</title><path fill="none" stroke="green" stroke-width="2" d="M89.37-338.9C117.27-335.44 173.07-328.53 206.56-324.38"/><polygon fill="green" stroke="green" stroke-width="2" points="207.09,-327.84 216.59,-323.13 206.23,-320.89 207.09,-327.84"/><text text-anchor="middle" x="156.8" y="-335" font-family="Times,serif" font-size="10">2</text></g><g id="node14" class="node"><title>D3</title><ellipse fill="#d3d3d3" stroke="#000" cx="420.83" cy="-348" rx="18" ry="18"/><text text-anchor="middle" x="420.83" y="-344.9" font-family="Times,serif" font-size="12">D</text></g><g id="edge12" class="edge"><title>A3-&gt;D3</title><path fill="none" stroke="red" stroke-dasharray="5,2" d="M89.25-343.4C133.56-349.39 257.04-364.15 359.83-358 370.78-357.35 382.73-355.57 393.05-353.7"/><polygon fill="red" stroke="red" points="393.97,-357.09 403.12,-351.76 392.64,-350.22 393.97,-357.09"/><text text-anchor="middle" x="302.33" y="-362" font-family="Times,serif" font-size="10">6</text></g><g id="node13" class="node"><title>C3</title><ellipse fill="orange" stroke="#000" cx="341.83" cy="-331" rx="18" ry="18"/><text text-anchor="middle" x="341.83" y="-327.9" font-family="Times,serif" font-size="12">C</text></g><g id="edge11" class="edge"><title>B3-&gt;C3</title><path fill="none" stroke="green" stroke-width="2" d="M252.84-321.44C267.04-321.93 287.8-322.95 305.83-325 308.4-325.29 311.07-325.65 313.74-326.05"/><polygon fill="green" stroke="green" stroke-width="2" points="313.36,-329.53 323.79,-327.68 314.48,-322.62 313.36,-329.53"/><text text-anchor="middle" x="302.33" y="-328" font-family="Times,serif" font-size="10">1</text></g><g id="node15" class="node"><title>E3</title><ellipse fill="#d3d3d3" stroke="#000" cx="499.83" cy="-326" rx="18" ry="18"/><text text-anchor="middle" x="499.83" y="-322.9" font-family="Times,serif" font-size="12">E</text></g><g id="edge13" class="edge"><title>B3-&gt;E3</title><path fill="none" stroke="red" stroke-dasharray="5,2" d="M252.55-316.78C270.15-312.57 298.73-306.4 323.83-304 376.59-298.95 438.01-310.79 472.25-318.98"/><polygon fill="red" stroke="red" points="471.42,-322.38 481.97,-321.39 473.1,-315.59 471.42,-322.38"/><text text-anchor="middle" x="381.33" y="-307" font-family="Times,serif" font-size="10">4</text></g><g id="edge14" class="edge"><title>C3-&gt;D3</title><path fill="none" stroke="red" stroke-dasharray="5,2" d="M359.53-334.69C369.32-336.85 381.91-339.63 393.05-342.09"/><polygon fill="red" stroke="red" points="392.63,-345.58 403.15,-344.32 394.14,-338.74 392.63,-345.58"/><text text-anchor="middle" x="381.33" y="-343" font-family="Times,serif" font-size="10">2</text></g><g id="edge15" class="edge"><title>D3-&gt;E3</title><path fill="none" stroke="#000" d="M438.53-343.23C448.49-340.38 461.35-336.71 472.63-333.49"/><polygon fill="#000" stroke="#000" points="473.76,-336.8 482.42,-330.69 471.84,-330.07 473.76,-336.8"/><text text-anchor="middle" x="460.33" y="-340" font-family="Times,serif" font-size="10">5</text></g><g id="node16" class="node"><title>A2</title><ellipse fill="#add8e6" stroke="#000" cx="71.4" cy="-503" rx="18" ry="18"/><text text-anchor="middle" x="71.4" y="-499.9" font-family="Times,serif" font-size="12">A</text></g><g id="node17" class="node"><title>B2</title><ellipse fill="orange" stroke="#000" cx="234.81" cy="-449" rx="18" ry="18"/><text text-anchor="middle" x="234.81" y="-445.9" font-family="Times,serif" font-size="12">B</text></g><g id="edge16" class="edge"><title>A2-&gt;B2</title><path fill="none" stroke="green" stroke-width="2" d="M88.77-497.53c28.03 9.38 85.47 28.6 119.04 39.83"/><polygon fill="green" stroke="green" stroke-width="2" points="209.03,-460.98 217.4,-454.49 206.81,-454.34 209.03,-460.98"/><text text-anchor="middle" x="156.8" y="-483" font-family="Times,serif" font-size="10">2</text></g><g id="node18" class="node"><title>C2</title><ellipse fill="#d3d3d3" stroke="#000" cx="341.83" cy="-486" rx="18" ry="18"/><text text-anchor="middle" x="341.83" y="-482.9" font-family="Times,serif" font-size="12">C</text></g><g id="edge17" class="edge"><title>A2-&gt;C2</title><path fill="none" stroke="red" stroke-dasharray="5,2" d="M89.6-501.91C135.05-499.03 258.64-491.21 313.71-487.72"/><polygon fill="red" stroke="red" points="314.01,-491.21 323.77,-487.08 313.57,-484.22 314.01,-491.21"/><text text-anchor="middle" x="234.81" y="-498" font-family="Times,serif" font-size="10">3</text></g><g id="node19" class="node"><title>D2</title><ellipse fill="#d3d3d3" stroke="#000" cx="420.83" cy="-486" rx="18" ry="18"/><text text-anchor="middle" x="420.83" y="-482.9" font-family="Times,serif" font-size="12">D</text></g><g id="edge18" class="edge"><title>A2-&gt;D2</title><path fill="none" stroke="red" stroke-dasharray="5,2" d="M89.18-506.4C133.82-514.86 259.02-534.64 359.83-513 372.14-510.36 384.98-504.98 395.6-499.72"/><polygon fill="red" stroke="red" points="397.41,-502.73 404.66,-495 394.17,-496.52 397.41,-502.73"/><text text-anchor="middle" x="302.33" y="-524" font-family="Times,serif" font-size="10">6</text></g><g id="edge19" class="edge"><title>B2-&gt;C2</title><path fill="none" stroke="red" stroke-dasharray="5,2" d="M252.22-454.78C269.02-460.7 295.38-469.99 314.98-476.89"/><polygon fill="red" stroke="red" points="313.94,-480.24 324.53,-480.26 316.27,-473.64 313.94,-480.24"/><text text-anchor="middle" x="302.33" y="-475" font-family="Times,serif" font-size="10">1</text></g><g id="node20" class="node"><title>E2</title><ellipse fill="#d3d3d3" stroke="#000" cx="499.83" cy="-461" rx="18" ry="18"/><text text-anchor="middle" x="499.83" y="-457.9" font-family="Times,serif" font-size="12">E</text></g><g id="edge20" class="edge"><title>B2-&gt;E2</title><path fill="none" stroke="red" stroke-dasharray="5,2" d="M253.07-449.79C297.66-451.82 416.98-457.27 471.26-459.74"/><polygon fill="red" stroke="red" points="471.36,-463.25 481.51,-460.21 471.68,-456.26 471.36,-463.25"/><text text-anchor="middle" x="381.33" y="-458" font-family="Times,serif" font-size="10">4</text></g><g id="edge21" class="edge"><title>C2-&gt;D2</title><path fill="none" stroke="#000" d="M359.92-486C369.49-486 381.64-486 392.5-486"/><polygon fill="#000" stroke="#000" points="392.79,-489.5 402.79,-486 392.79,-482.5 392.79,-489.5"/><text text-anchor="middle" x="381.33" y="-489" font-family="Times,serif" font-size="10">2</text></g><g id="edge22" class="edge"><title>D2-&gt;E2</title><path fill="none" stroke="#000" d="M438.16-480.7C448.26-477.42 461.46-473.13 472.97-469.4"/><polygon fill="#000" stroke="#000" points="474.09,-472.71 482.52,-466.29 471.93,-466.05 474.09,-472.71"/><text text-anchor="middle" x="460.33" y="-477" font-family="Times,serif" font-size="10">5</text></g><g id="node21" class="node"><title>A1</title><ellipse fill="#add8e6" stroke="#000" cx="71.4" cy="-668" rx="18" ry="18"/><text text-anchor="middle" x="71.4" y="-664.9" font-family="Times,serif" font-size="12">A</text></g><g id="node22" class="node"><title>B1</title><ellipse fill="#d3d3d3" stroke="#000" cx="234.81" cy="-614" rx="18" ry="18"/><text text-anchor="middle" x="234.81" y="-610.9" font-family="Times,serif" font-size="12">B</text></g><g id="edge23" class="edge"><title>A1-&gt;B1</title><path fill="none" stroke="red" stroke-dasharray="5,2" d="M88.77-662.53C116.8-653.15 174.24-633.93 207.81-622.7"/><polygon fill="red" stroke="red" points="209.03,-625.98 217.4,-619.49 206.81,-619.34 209.03,-625.98"/><text text-anchor="middle" x="156.8" y="-648" font-family="Times,serif" font-size="10">2</text></g><g id="node23" class="node"><title>C1</title><ellipse fill="#d3d3d3" stroke="#000" cx="341.83" cy="-651" rx="18" ry="18"/><text text-anchor="middle" x="341.83" y="-647.9" font-family="Times,serif" font-size="12">C</text></g><g id="edge24" class="edge"><title>A1-&gt;C1</title><path fill="none" stroke="red" stroke-dasharray="5,2" d="M89.6-666.91C135.05-664.03 258.64-656.21 313.71-652.72"/><polygon fill="red" stroke="red" points="314.01,-656.21 323.77,-652.08 313.57,-649.22 314.01,-656.21"/><text text-anchor="middle" x="234.81" y="-663" font-family="Times,serif" font-size="10">3</text></g><g id="node24" class="node"><title>D1</title><ellipse fill="#d3d3d3" stroke="#000" cx="420.83" cy="-651" rx="18" ry="18"/><text text-anchor="middle" x="420.83" y="-647.9" font-family="Times,serif" font-size="12">D</text></g><g id="edge25" class="edge"><title>A1-&gt;D1</title><path fill="none" stroke="red" stroke-dasharray="5,2" d="M89.18-671.4C133.82-679.86 259.02-699.64 359.83-678 372.14-675.36 384.98-669.98 395.6-664.72"/><polygon fill="red" stroke="red" points="397.41,-667.73 404.66,-660 394.17,-661.52 397.41,-667.73"/><text text-anchor="middle" x="302.33" y="-689" font-family="Times,serif" font-size="10">6</text></g><g id="edge26" class="edge"><title>B1-&gt;C1</title><path fill="none" stroke="#000" d="M252.22-619.78C269.02-625.7 295.38-634.99 314.98-641.89"/><polygon fill="#000" stroke="#000" points="313.94,-645.24 324.53,-645.26 316.27,-638.64 313.94,-645.24"/><text text-anchor="middle" x="302.33" y="-640" font-family="Times,serif" font-size="10">1</text></g><g id="node25" class="node"><title>E1</title><ellipse fill="#d3d3d3" stroke="#000" cx="499.83" cy="-626" rx="18" ry="18"/><text text-anchor="middle" x="499.83" y="-622.9" font-family="Times,serif" font-size="12">E</text></g><g id="edge27" class="edge"><title>B1-&gt;E1</title><path fill="none" stroke="#000" d="M253.07-614.79C297.66-616.82 416.98-622.27 471.26-624.74"/><polygon fill="#000" stroke="#000" points="471.36,-628.25 481.51,-625.21 471.68,-621.26 471.36,-628.25"/><text text-anchor="middle" x="381.33" y="-623" font-family="Times,serif" font-size="10">4</text></g><g id="edge28" class="edge"><title>C1-&gt;D1</title><path fill="none" stroke="#000" d="M359.92-651C369.49-651 381.64-651 392.5-651"/><polygon fill="#000" stroke="#000" points="392.79,-654.5 402.79,-651 392.79,-647.5 392.79,-654.5"/><text text-anchor="middle" x="381.33" y="-654" font-family="Times,serif" font-size="10">2</text></g><g id="edge29" class="edge"><title>D1-&gt;E1</title><path fill="none" stroke="#000" d="M438.16-645.7C448.26-642.42 461.46-638.13 472.97-634.4"/><polygon fill="#000" stroke="#000" points="474.09,-637.71 482.52,-631.29 471.93,-631.05 474.09,-637.71"/><text text-anchor="middle" x="460.33" y="-642" font-family="Times,serif" font-size="10">5</text></g><g id="node26" class="node"><title>legend_tree</title><ellipse fill="#add8e6" stroke="#000" cx="71.4" cy="-826" rx="47.3" ry="47.3"/><text text-anchor="middle" x="71.4" y="-822.9" font-family="Times,serif" font-size="12">已在生成树</text></g><g id="node27" class="node"><title>legend_not</title><ellipse fill="#d3d3d3" stroke="#000" cx="234.81" cy="-802" rx="32.75" ry="32.75"/><text text-anchor="middle" x="234.81" y="-798.9" font-family="Times,serif" font-size="12">未加入</text></g><g id="edge30" class="edge"><title>legend_tree-&gt;legend_not</title><path fill="none" stroke="red" stroke-dasharray="5,2" d="M118.65-819.12C141.92-815.66 169.89-811.5 192.44-808.15"/><polygon fill="red" stroke="red" points="193,-811.61 202.38,-806.67 191.97,-804.68 193,-811.61"/><text text-anchor="middle" x="156.8" y="-819" font-family="Times,serif" font-size="10">横切边</text></g><g id="node28" class="node"><title>legend_selected</title><ellipse fill="orange" stroke="#000" cx="234.81" cy="-893" rx="40.03" ry="40.03"/><text text-anchor="middle" x="234.81" y="-889.9" font-family="Times,serif" font-size="12">当前选择</text></g><g id="edge31" class="edge"><title>legend_tree-&gt;legend_selected</title><path fill="none" stroke="green" stroke-width="2" d="M115.66-843.95C138.04-853.25 165.37-864.59 188.11-874.03"/><polygon fill="green" stroke="green" stroke-width="2" points="186.96,-877.34 197.54,-877.94 189.65,-870.88 186.96,-877.34"/><text text-anchor="middle" x="156.8" y="-870" font-family="Times,serif" font-size="10">生成树边</text></g></g></svg>