<?xml version="1.0" encoding="UTF-8"?>
<!DOCTYPE svg PUBLIC "-//W3C//DTD SVG 1.1//EN" "http://www.w3.org/Graphics/SVG/1.1/DTD/svg11.dtd">
<svg xmlns="http://www.w3.org/2000/svg" width="758pt" height="663pt" viewBox="0 0 758.12 663" xmlns:xlink="http://www.w3.org/1999/xlink"><g id="graph0" class="graph" transform="scale(1 1) rotate(0) translate(4 659)"><title>ProgrammingLanguageLevels</title><polygon fill="#fff" stroke="transparent" points="-4,4 -4,-659 754.12,-659 754.12,4 -4,4"/><g id="clust1" class="cluster"><title>cluster_high</title><polygon fill="#e0ffff" stroke="#add8e6" points="489,-375 489,-647 724,-647 724,-375 489,-375"/><text text-anchor="middle" x="606.5" y="-631.8" font-family="Microsoft Yahei" font-size="14">高级语言 (High-Level Language)</text></g><g id="clust2" class="cluster"><title>cluster_assembly</title><polygon fill="#ffe4b5" stroke="orange" points="177,-375 177,-647 406,-647 406,-375 177,-375"/><text text-anchor="middle" x="291.5" y="-631.8" font-family="Microsoft Yahei" font-size="14">汇编语言 (Assembly Language)</text></g><g id="clust3" class="cluster"><title>cluster_machine</title><polygon fill="#ffe4e1" stroke="red" points="8,-81 8,-342 254,-342 254,-81 8,-81"/><text text-anchor="middle" x="131" y="-326.8" font-family="Microsoft Yahei" font-size="14">机器语言 (Machine Language)</text></g><g id="node1" class="node"><title>HighLevel</title><polygon fill="#90ee90" stroke="#000" points="678,-491 498,-491 498,-383 678,-383 678,-491"/><text text-anchor="middle" x="588" y="-463.3" font-family="Microsoft Yahei" font-size="14">高级语言</text><text text-anchor="middle" x="588" y="-448.3" font-family="Microsoft Yahei" font-size="14">• Python, Java, C++</text><text text-anchor="middle" x="588" y="-433.3" font-family="Microsoft Yahei" font-size="14">• 接近自然语言</text><text text-anchor="middle" x="588" y="-418.3" font-family="Microsoft Yahei" font-size="14">• 硬件独立</text><text text-anchor="middle" x="588" y="-403.3" font-family="Microsoft Yahei" font-size="14">• 抽象度高</text></g><g id="node8" class="node"><title>Compiler</title><ellipse fill="#ffb6c1" stroke="#000" cx="525" cy="-279.5" rx="62.87" ry="26.74"/><text text-anchor="middle" x="525" y="-283.3" font-family="Microsoft Yahei" font-size="14">编译器</text><text text-anchor="middle" x="525" y="-268.3" font-family="Microsoft Yahei" font-size="14">(Compiler)</text></g><g id="edge1" class="edge"><title>HighLevel-&gt;Compiler</title><path fill="none" stroke="blue" d="M550.62-382.89C547.4-377.01 544.44-370.99 542-365 535.76-349.69 531.74-331.85 529.19-316.52"/><polygon fill="blue" stroke="blue" points="532.61,-315.73 527.64,-306.37 525.69,-316.78 532.61,-315.73"/><text text-anchor="middle" x="556.5" y="-353.8" font-family="Microsoft Yahei" font-size="14">编译</text></g><g id="node9" class="node"><title>Interpreter</title><ellipse fill="#ffb6c1" stroke="#000" cx="678" cy="-279.5" rx="72.25" ry="26.74"/><text text-anchor="middle" x="678" y="-283.3" font-family="Microsoft Yahei" font-size="14">解释器</text><text text-anchor="middle" x="678" y="-268.3" font-family="Microsoft Yahei" font-size="14">(Interpreter)</text></g><g id="edge2" class="edge"><title>HighLevel-&gt;Interpreter</title><path fill="none" stroke="blue" d="M618.72-382.92C631.79-360.34 646.66-334.65 658.23-314.66"/><polygon fill="blue" stroke="blue" points="661.32,-316.31 663.3,-305.9 655.26,-312.8 661.32,-316.31"/><text text-anchor="middle" x="649.5" y="-353.8" font-family="Microsoft Yahei" font-size="14">解释</text></g><g id="node2" class="node"><title>Examples</title><path fill="#d3d3d3" stroke="#000" d="M688-616s-178 0-178 0c-6 0-12 6-12 12v50c0 6 6 12 12 12H688c6 0 12-6 12-12v-50c0-6-6-12-12-12"/><text text-anchor="middle" x="599" y="-604" font-family="Microsoft Yahei" font-size="10">💻 代码示例:</text><text text-anchor="middle" x="599" y="-593" font-family="Microsoft Yahei" font-size="10">━━━━━━━━━━━━━</text><text text-anchor="middle" x="599" y="-582" font-family="Microsoft Yahei" font-size="10">print('Hello World')</text><text text-anchor="middle" x="599" y="-571" font-family="Microsoft Yahei" font-size="10">for i in range(10):</text><text text-anchor="middle" x="599" y="-560" font-family="Microsoft Yahei" font-size="10">&#160;&#160;&#160;print(i)</text><text text-anchor="middle" x="599" y="-549" font-family="Microsoft Yahei" font-size="10">━━━━━━━━━━━━━</text></g><g id="edge8" class="edge"><title>Examples-&gt;HighLevel</title><path fill="none" stroke="gray" stroke-dasharray="1,5" d="M596.17-541.95C595.19-529.49 594.06-515.15 592.96-501.17"/><polygon fill="gray" stroke="gray" points="596.44,-500.79 592.17,-491.09 589.47,-501.34 596.44,-500.79"/></g><g id="node3" class="node"><title>Assembly</title><polygon fill="wheat" stroke="#000" points="398,-491 218,-491 218,-383 398,-383 398,-491"/><text text-anchor="middle" x="308" y="-455.8" font-family="Microsoft Yahei" font-size="14">汇编语言</text><text text-anchor="middle" x="308" y="-440.8" font-family="Microsoft Yahei" font-size="14">• 符号和助记符</text><text text-anchor="middle" x="308" y="-425.8" font-family="Microsoft Yahei" font-size="14">• 架构相关</text><text text-anchor="middle" x="308" y="-410.8" font-family="Microsoft Yahei" font-size="14">• 比机器语言易读</text></g><g id="node10" class="node"><title>Assembler</title><ellipse fill="#ffb6c1" stroke="#000" cx="335" cy="-279.5" rx="71.34" ry="26.74"/><text text-anchor="middle" x="335" y="-283.3" font-family="Microsoft Yahei" font-size="14">汇编器</text><text text-anchor="middle" x="335" y="-268.3" font-family="Microsoft Yahei" font-size="14">(Assembler)</text></g><g id="edge5" class="edge"><title>Assembly-&gt;Assembler</title><path fill="none" stroke="green" d="M317.22-382.92C321.02-360.99 325.34-336.15 328.76-316.42"/><polygon fill="green" stroke="green" points="332.25,-316.77 330.52,-306.32 325.36,-315.58 332.25,-316.77"/><text text-anchor="middle" x="336.5" y="-353.8" font-family="Microsoft Yahei" font-size="14">汇编</text></g><g id="node4" class="node"><title>AsmExamples</title><path fill="#d3d3d3" stroke="#000" d="M384-616s-178 0-178 0c-6 0-12 6-12 12v50c0 6 6 12 12 12H384c6 0 12-6 12-12v-50c0-6-6-12-12-12"/><text text-anchor="middle" x="295" y="-604" font-family="Microsoft Yahei" font-size="10">💾 代码示例:</text><text text-anchor="middle" x="295" y="-593" font-family="Microsoft Yahei" font-size="10">━━━━━━━━━━━━━</text><text text-anchor="middle" x="295" y="-582" font-family="Microsoft Yahei" font-size="10">MOV AX, 5</text><text text-anchor="middle" x="295" y="-571" font-family="Microsoft Yahei" font-size="10">ADD AX, 3</text><text text-anchor="middle" x="295" y="-560" font-family="Microsoft Yahei" font-size="10">INT 21h</text><text text-anchor="middle" x="295" y="-549" font-family="Microsoft Yahei" font-size="10">━━━━━━━━━━━━━</text></g><g id="edge9" class="edge"><title>AsmExamples-&gt;Assembly</title><path fill="none" stroke="gray" stroke-dasharray="1,5" d="M298.35-541.95C299.5-529.49 300.84-515.15 302.13-501.17"/><polygon fill="gray" stroke="gray" points="305.63,-501.38 303.07,-491.09 298.66,-500.73 305.63,-501.38"/></g><g id="node5" class="node"><title>Machine</title><polygon fill="#f08080" stroke="#000" points="246,-197 66,-197 66,-89 246,-89 246,-197"/><text text-anchor="middle" x="156" y="-161.8" font-family="Microsoft Yahei" font-size="14">机器语言</text><text text-anchor="middle" x="156" y="-146.8" font-family="Microsoft Yahei" font-size="14">• 二进制代码 (0,1)</text><text text-anchor="middle" x="156" y="-131.8" font-family="Microsoft Yahei" font-size="14">• CPU直接执行</text><text text-anchor="middle" x="156" y="-116.8" font-family="Microsoft Yahei" font-size="14">• 硬件相关</text></g><g id="node7" class="node"><title>Hardware</title><polygon fill="gray" stroke="#000" points="246,-38 66,-38 66,0 246,0 246,-38"/><text text-anchor="middle" x="156" y="-22.8" font-family="Microsoft Yahei" font-size="14" fill="#fff">计算机硬件</text><text text-anchor="middle" x="156" y="-7.8" font-family="Microsoft Yahei" font-size="14" fill="#fff">CPU, 内存, 存储</text></g><g id="edge7" class="edge"><title>Machine-&gt;Hardware</title><path fill="none" stroke="red" stroke-width="2" d="M156-88.84c0 13.86.0 28.27.0 40.31"/><polygon fill="red" stroke="red" stroke-width="2" points="159.5,-48.23 156,-38.23 152.5,-48.23 159.5,-48.23"/><text text-anchor="middle" x="185" y="-59.8" font-family="Microsoft Yahei" font-size="14">直接执行</text></g><g id="node6" class="node"><title>BinaryExamples</title><path fill="#d3d3d3" stroke="#000" d="M234-311s-206 0-206 0c-6 0-12 6-12 12v39c0 6 6 12 12 12H234c6 0 12-6 12-12v-39c0-6-6-12-12-12"/><text text-anchor="middle" x="131" y="-299" font-family="Microsoft Yahei" font-size="10">⚙️ 代码示例:</text><text text-anchor="middle" x="131" y="-288" font-family="Microsoft Yahei" font-size="10">━━━━━━━━━━━━━━━━━━</text><text text-anchor="middle" x="131" y="-277" font-family="Microsoft Yahei" font-size="10">10110000 01100001</text><text text-anchor="middle" x="131" y="-266" font-family="Microsoft Yahei" font-size="10">01001000 11000111</text><text text-anchor="middle" x="131" y="-255" font-family="Microsoft Yahei" font-size="10">━━━━━━━━━━━━━━━━━━</text></g><g id="edge10" class="edge"><title>BinaryExamples-&gt;Machine</title><path fill="none" stroke="gray" stroke-dasharray="1,5" d="M136.67-247.98C138.92-235.88 141.6-221.49 144.23-207.34"/><polygon fill="gray" stroke="gray" points="147.74,-207.58 146.13,-197.11 140.86,-206.3 147.74,-207.58"/></g><g id="edge3" class="edge"><title>Compiler-&gt;Machine</title><path fill="none" stroke="blue" d="M501.71-254.51C487.38-241.05 467.99-225 448-215c-60.09 30.08-133.63 47.86-191.87 58.11"/><polygon fill="blue" stroke="blue" points="256.62,-153.43 246.18,-155.19 255.44,-160.33 256.62,-153.43"/><text text-anchor="middle" x="485.5" y="-218.8" font-family="Microsoft Yahei" font-size="14">生成</text></g><g id="edge4" class="edge"><title>Interpreter-&gt;Machine</title><path fill="none" stroke="blue" stroke-dasharray="5,2" d="M628.8-259.8C618.32-255.87 607.3-251.77 597-248 555.81-232.94 546.26-226.75 504-215c-82.39 22.9-177.64 41.83-247.64 54.36"/><polygon fill="blue" stroke="blue" points="256.68,-157.14 246.22,-158.84 255.46,-164.03 256.68,-157.14"/><text text-anchor="middle" x="578" y="-218.8" font-family="Microsoft Yahei" font-size="14">逐行转换</text></g><g id="edge6" class="edge"><title>Assembler-&gt;Machine</title><path fill="none" stroke="green" d="M303.82-255.07c-19.08 14.33-44.42 33.37-68.72 51.64"/><polygon fill="green" stroke="green" points="237,-200.49 226.91,-197.28 232.8,-206.08 237,-200.49"/><text text-anchor="middle" x="280.5" y="-218.8" font-family="Microsoft Yahei" font-size="14">转换</text></g><g id="node11" class="node"><title>Abstract</title><polygon fill="lightgrey" stroke="transparent" points="479.5,-597 414.5,-597 414.5,-561 479.5,-561 479.5,-597"/><text text-anchor="middle" x="447" y="-575.9" font-family="Microsoft Yahei" font-size="12">抽象程度</text></g><g id="edge11" class="edge"><title>Abstract-&gt;HighLevel</title><path fill="none" stroke="purple" stroke-dasharray="5,2" d="M464.29-560.83c15.73 15.61 39.9 39.61 62.72 62.27"/><polygon fill="purple" stroke="purple" points="529.72,-500.79 534.35,-491.26 524.79,-495.83 529.72,-500.79"/><text text-anchor="middle" x="520.5" y="-512.8" font-family="Microsoft Yahei" font-size="14">高</text></g><g id="edge12" class="edge"><title>Abstract-&gt;Assembly</title><path fill="none" stroke="purple" stroke-dasharray="5,2" d="M429.96-560.83c-15.51 15.61-39.34 39.61-61.83 62.27"/><polygon fill="purple" stroke="purple" points="370.41,-495.9 360.88,-491.26 365.45,-500.83 370.41,-495.9"/><text text-anchor="middle" x="396.5" y="-512.8" font-family="Microsoft Yahei" font-size="14">中</text></g><g id="edge13" class="edge"><title>Abstract-&gt;Machine</title><path fill="none" stroke="purple" stroke-dasharray="5,2" d="M447.6-560.84C449.4-500.34 452.44-297.99 415-248c-37.54 50.12-103.19 76.15-158.99 89.62"/><polygon fill="purple" stroke="purple" points="256.6,-154.92 246.07,-156.08 255.02,-161.74 256.6,-154.92"/><text text-anchor="middle" x="450.5" y="-353.8" font-family="Microsoft Yahei" font-size="14">低</text></g></g></svg>