<?xml version="1.0" encoding="UTF-8"?>
<!DOCTYPE svg PUBLIC "-//W3C//DTD SVG 1.1//EN" "http://www.w3.org/Graphics/SVG/1.1/DTD/svg11.dtd">
<svg xmlns="http://www.w3.org/2000/svg" width="380pt" height="627pt" viewBox="0 0 380 627" xmlns:xlink="http://www.w3.org/1999/xlink"><g id="graph0" class="graph" transform="scale(1 1) rotate(0) translate(4 623)"><title>cpu_control_hierarchy</title><g id="clust1" class="cluster"><title>cluster_program</title><polygon fill="#f0f8ff" stroke="#add8e6" points="49,-454 49,-611 149,-611 149,-454 49,-454"/><text text-anchor="middle" x="99" y="-595.8" font-family="Times,serif" font-size="14">程序层</text></g><g id="clust2" class="cluster"><title>cluster_instruction</title><polygon fill="#f0fff0" stroke="#90ee90" points="53,-351 53,-426 145,-426 145,-351 53,-351"/><text text-anchor="middle" x="99" y="-410.8" font-family="Times,serif" font-size="14">指令层</text></g><g id="clust3" class="cluster"><title>cluster_microprogram</title><polygon fill="#ffffe0" stroke="#ffffe0" points="45,-248 45,-323 153,-323 153,-248 45,-248"/><text text-anchor="middle" x="99" y="-307.8" font-family="Times,serif" font-size="14">微程序层</text></g><g id="clust4" class="cluster"><title>cluster_microcommand</title><polygon fill="#ffe4e1" stroke="#f08080" points="54,-8 54,-83 144,-83 144,-8 54,-8"/><text text-anchor="middle" x="99" y="-67.8" font-family="Times,serif" font-size="14">微命令层</text></g><g id="clust7" class="cluster"><title>cluster_legend</title><polygon fill="#f5f5f5" stroke="gray" points="157,-536 157,-611 364,-611 364,-536 157,-536"/><text text-anchor="middle" x="260.5" y="-595.8" font-family="Times,serif" font-size="14">说明</text></g><g id="node1" class="node"><title>task</title><polygon fill="#e0ffff" stroke="#000" points="127,-580 71,-580 71,-544 127,-544 127,-580"/><text text-anchor="middle" x="99" y="-559.5" font-family="Microsoft Yahei" font-size="10">复杂任务</text></g><g id="node2" class="node"><title>program</title><polygon fill="#e0ffff" stroke="#000" points="140.5,-498 57.5,-498 57.5,-462 140.5,-462 140.5,-498"/><text text-anchor="middle" x="99" y="-483" font-family="Microsoft Yahei" font-size="10">程序</text><text text-anchor="middle" x="99" y="-472" font-family="Microsoft Yahei" font-size="10">(多条机器指令)</text></g><g id="edge1" class="edge"><title>task-&gt;program</title><path fill="none" stroke="#000" d="M99-543.64C99-533.3 99-519.94 99-508.22"/><polygon fill="#000" stroke="#000" points="102.5,-508.05 99,-498.05 95.5,-508.05 102.5,-508.05"/><text text-anchor="middle" x="108.5" y="-518.8" font-family="Microsoft Yahei" font-size="9">分解</text></g><g id="node3" class="node"><title>inst</title><polygon fill="#90ee90" stroke="#000" points="137,-395 61,-395 61,-359 137,-359 137,-395"/><text text-anchor="middle" x="99" y="-380" font-family="Microsoft Yahei" font-size="10">机器指令</text><text text-anchor="middle" x="99" y="-369" font-family="Microsoft Yahei" font-size="10">(Instruction)</text></g><g id="edge2" class="edge"><title>program-&gt;inst</title><path fill="none" stroke="#000" d="M99-461.87c0 15.46.0 38.45.0 56.46"/><polygon fill="#000" stroke="#000" points="102.5,-405.22 99,-395.22 95.5,-405.22 102.5,-405.22"/><text text-anchor="middle" x="117.5" y="-436.8" font-family="Microsoft Yahei" font-size="9">编译汇编</text></g><g id="node4" class="node"><title>microprog</title><polygon fill="khaki" stroke="#000" points="145,-292 53,-292 53,-256 145,-256 145,-292"/><text text-anchor="middle" x="99" y="-277" font-family="Microsoft Yahei" font-size="10">微程序</text><text text-anchor="middle" x="99" y="-266" font-family="Microsoft Yahei" font-size="10">(Microprogram)</text></g><g id="edge3" class="edge"><title>inst-&gt;microprog</title><path fill="none" stroke="#000" d="M99-358.87c0 15.46.0 38.45.0 56.46"/><polygon fill="#000" stroke="#000" points="102.5,-302.22 99,-292.22 95.5,-302.22 102.5,-302.22"/><text text-anchor="middle" x="113" y="-333.8" font-family="Microsoft Yahei" font-size="9">一对一</text></g><g id="node5" class="node"><title>micro1</title><polygon fill="wheat" stroke="#000" points="54,-219 0,-219 0,-183 54,-183 54,-219"/><text text-anchor="middle" x="27" y="-198.5" font-family="Microsoft Yahei" font-size="10">微指令1</text></g><g id="edge4" class="edge"><title>microprog-&gt;micro1</title><path fill="none" stroke="#000" d="M81.57-255.81C72.55-246.92 61.39-235.91 51.51-226.17"/><polygon fill="#000" stroke="#000" points="53.85,-223.56 44.27,-219.03 48.93,-228.54 53.85,-223.56"/></g><g id="node6" class="node"><title>micro2</title><polygon fill="wheat" stroke="#000" points="126,-219 72,-219 72,-183 126,-183 126,-219"/><text text-anchor="middle" x="99" y="-198.5" font-family="Microsoft Yahei" font-size="10">微指令2</text></g><g id="edge5" class="edge"><title>microprog-&gt;micro2</title><path fill="none" stroke="#000" d="M99-255.81C99-247.79 99-238.05 99-229.07"/><polygon fill="#000" stroke="#000" points="102.5,-229.03 99,-219.03 95.5,-229.03 102.5,-229.03"/></g><g id="node7" class="node"><title>micro3</title><polygon fill="wheat" stroke="#000" points="198,-219 144,-219 144,-183 198,-183 198,-219"/><text text-anchor="middle" x="171" y="-198.5" font-family="Microsoft Yahei" font-size="10">微指令n</text></g><g id="edge6" class="edge"><title>microprog-&gt;micro3</title><path fill="none" stroke="#000" d="M116.43-255.81C125.45-246.92 136.61-235.91 146.49-226.17"/><polygon fill="#000" stroke="#000" points="149.07,-228.54 153.73,-219.03 144.15,-223.56 149.07,-228.54"/></g><g id="node8" class="node"><title>cmd1</title><polygon fill="#ffb6c1" stroke="#000" points="126,-146 72,-146 72,-110 126,-110 126,-146"/><text text-anchor="middle" x="99" y="-125.5" font-family="Microsoft Yahei" font-size="10">微命令A</text></g><g id="edge7" class="edge"><title>micro1-&gt;cmd1</title><path fill="none" stroke="#000" stroke-dasharray="5,2" d="M44.43-182.81C53.45-173.92 64.61-162.91 74.49-153.17"/><polygon fill="#000" stroke="#000" points="77.07,-155.54 81.73,-146.03 72.15,-150.56 77.07,-155.54"/></g><g id="node9" class="node"><title>cmd2</title><polygon fill="#ffb6c1" stroke="#000" points="54,-146 0,-146 0,-110 54,-110 54,-146"/><text text-anchor="middle" x="27" y="-125.5" font-family="Microsoft Yahei" font-size="10">微命令B</text></g><g id="edge8" class="edge"><title>micro1-&gt;cmd2</title><path fill="none" stroke="#000" stroke-dasharray="5,2" d="M27-182.81C27-174.79 27-165.05 27-156.07"/><polygon fill="#000" stroke="#000" points="30.5,-156.03 27,-146.03 23.5,-156.03 30.5,-156.03"/></g><g id="edge9" class="edge"><title>micro2-&gt;cmd2</title><path fill="none" stroke="#000" stroke-dasharray="5,2" d="M81.57-182.81C72.55-173.92 61.39-162.91 51.51-153.17"/><polygon fill="#000" stroke="#000" points="53.85,-150.56 44.27,-146.03 48.93,-155.54 53.85,-150.56"/></g><g id="node10" class="node"><title>cmd3</title><polygon fill="#ffb6c1" stroke="#000" points="198,-146 144,-146 144,-110 198,-110 198,-146"/><text text-anchor="middle" x="171" y="-125.5" font-family="Microsoft Yahei" font-size="10">微命令C</text></g><g id="edge10" class="edge"><title>micro2-&gt;cmd3</title><path fill="none" stroke="#000" stroke-dasharray="5,2" d="M116.43-182.81C125.45-173.92 136.61-162.91 146.49-153.17"/><polygon fill="#000" stroke="#000" points="149.07,-155.54 153.73,-146.03 144.15,-150.56 149.07,-155.54"/></g><g id="edge11" class="edge"><title>micro3-&gt;cmd1</title><path fill="none" stroke="#000" stroke-dasharray="5,2" d="M153.57-182.81C144.55-173.92 133.39-162.91 123.51-153.17"/><polygon fill="#000" stroke="#000" points="125.85,-150.56 116.27,-146.03 120.93,-155.54 125.85,-150.56"/></g><g id="edge12" class="edge"><title>micro3-&gt;cmd3</title><path fill="none" stroke="#000" stroke-dasharray="5,2" d="M171-182.81C171-174.79 171-165.05 171-156.07"/><polygon fill="#000" stroke="#000" points="174.5,-156.03 171,-146.03 167.5,-156.03 174.5,-156.03"/></g><g id="node11" class="node"><title>hardware</title><polygon fill="#f08080" stroke="#000" points="136.5,-52 61.5,-52 61.5,-16 136.5,-16 136.5,-52"/><text text-anchor="middle" x="99" y="-31.5" font-family="Microsoft Yahei" font-size="10">硬件电路操作</text></g><g id="edge13" class="edge"><title>cmd1-&gt;hardware</title><path fill="none" stroke="#000" d="M99-109.7c0 13.24.0 31.75.0 47.04"/><polygon fill="#000" stroke="#000" points="102.5,-62.23 99,-52.23 95.5,-62.23 102.5,-62.23"/></g><g id="edge14" class="edge"><title>cmd2-&gt;hardware</title><path fill="none" stroke="#000" d="M40.54-109.7C51.4-95.82 66.81-76.14 79.07-60.46"/><polygon fill="#000" stroke="#000" points="82.11,-62.26 85.52,-52.23 76.6,-57.94 82.11,-62.26"/></g><g id="edge15" class="edge"><title>cmd3-&gt;hardware</title><path fill="none" stroke="#000" d="M157.46-109.7c-10.86 13.88-26.27 33.56-38.53 49.24"/><polygon fill="#000" stroke="#000" points="121.4,-57.94 112.48,-52.23 115.89,-62.26 121.4,-57.94"/></g><g id="node12" class="node"><title>legend1</title><polygon fill="lightgrey" stroke="transparent" points="355.5,-580 274.5,-580 274.5,-544 355.5,-544 355.5,-580"/><text text-anchor="middle" x="315" y="-559.5" font-family="Microsoft Yahei" font-size="10">实线: 层次分解</text></g><g id="node13" class="node"><title>legend2</title><polygon fill="lightgrey" stroke="transparent" points="256.5,-580 165.5,-580 165.5,-544 256.5,-544 256.5,-580"/><text text-anchor="middle" x="211" y="-559.5" font-family="Microsoft Yahei" font-size="10">虚线: 并行微命令</text></g></g></svg>