<?xml version="1.0" encoding="UTF-8"?>
<!DOCTYPE svg PUBLIC "-//W3C//DTD SVG 1.1//EN" "http://www.w3.org/Graphics/SVG/1.1/DTD/svg11.dtd">
<svg xmlns="http://www.w3.org/2000/svg" width="926pt" height="200pt" viewBox="0 0 925.5 200" xmlns:xlink="http://www.w3.org/1999/xlink"><g id="graph0" class="graph" transform="scale(1 1) rotate(0) translate(4 196)"><title>HashCollisionStrategies</title><g id="node1" class="node"><title>root</title><ellipse fill="#e8f4fd" stroke="#000" cx="530" cy="-174" rx="94.48" ry="18"/><text text-anchor="middle" x="530" y="-170.3" font-family="Microsoft Yahei" font-size="14">散列表冲突处理策略</text></g><g id="node2" class="node"><title>open_addressing</title><polygon fill="#b8e6b8" stroke="#000" points="533.5,-120 406.5,-120 406.5,-84 533.5,-84 533.5,-120"/><text text-anchor="middle" x="470" y="-105.4" font-family="Microsoft Yahei" font-size="12">开放定址法</text><text text-anchor="middle" x="470" y="-92.4" font-family="Microsoft Yahei" font-size="12">(Open Addressing)</text></g><g id="edge1" class="edge"><title>root-&gt;open_addressing</title><path fill="none" stroke="#000" d="M515.48-156.05C508.29-147.67 499.47-137.38 491.51-128.1"/><polygon fill="#000" stroke="#000" points="493.97,-125.59 484.81,-120.28 488.66,-130.15 493.97,-125.59"/></g><g id="node3" class="node"><title>chaining</title><polygon fill="#ffe4b5" stroke="#000" points="751.5,-120 674.5,-120 674.5,-84 751.5,-84 751.5,-120"/><text text-anchor="middle" x="713" y="-105.4" font-family="Microsoft Yahei" font-size="12">拉链法</text><text text-anchor="middle" x="713" y="-92.4" font-family="Microsoft Yahei" font-size="12">(Chaining)</text></g><g id="edge2" class="edge"><title>root-&gt;chaining</title><path fill="none" stroke="#000" d="M570.16-157.64C597.95-147.01 635.08-132.8 664.52-121.54"/><polygon fill="#000" stroke="#000" points="666.1,-124.69 674.19,-117.85 663.6,-118.15 666.1,-124.69"/></g><g id="node4" class="node"><title>linear_probing</title><polygon fill="#e0f2e0" stroke="#000" points="210,-48 0,-48 0,0 210,0 210,-48"/><text text-anchor="middle" x="105" y="-34.4" font-family="Microsoft Yahei" font-size="12">线性探测法</text><text text-anchor="middle" x="105" y="-7.4" font-family="Microsoft Yahei" font-size="12">探测序列: h(k), h(k)+1, h(k)+2, ...</text></g><g id="edge3" class="edge"><title>open_addressing-&gt;linear_probing</title><path fill="none" stroke="#000" d="M406.42-87.76C355.25-77.11 281.98-61.85 220.49-49.05"/><polygon fill="#000" stroke="#000" points="220.84,-45.54 210.34,-46.93 219.41,-52.4 220.84,-45.54"/></g><g id="node5" class="node"><title>quadratic_probing</title><polygon fill="#e0f2e0" stroke="#000" points="447.5,-48 228.5,-48 228.5,0 447.5,0 447.5,-48"/><text text-anchor="middle" x="338" y="-34.4" font-family="Microsoft Yahei" font-size="12">平方探测法</text><text text-anchor="middle" x="338" y="-7.4" font-family="Microsoft Yahei" font-size="12">探测序列: h(k), h(k)±1², h(k)±2², ...</text></g><g id="edge4" class="edge"><title>open_addressing-&gt;quadratic_probing</title><path fill="none" stroke="#000" d="M440.38-83.94C424.71-74.93 405.07-63.62 387.19-53.32"/><polygon fill="#000" stroke="#000" points="388.45,-50.01 378.04,-48.05 384.96,-56.07 388.45,-50.01"/></g><g id="node6" class="node"><title>double_hashing</title><polygon fill="#e0f2e0" stroke="#000" points="738,-48 466,-48 466,0 738,0 738,-48"/><text text-anchor="middle" x="602" y="-34.4" font-family="Microsoft Yahei" font-size="12">双散列法</text><text text-anchor="middle" x="602" y="-7.4" font-family="Microsoft Yahei" font-size="12">探测序列: h₁(k), h₁(k)+h₂(k), h₁(k)+2h₂(k), ...</text></g><g id="edge5" class="edge"><title>open_addressing-&gt;double_hashing</title><path fill="none" stroke="#000" d="M499.62-83.94C515.29-74.93 534.93-63.62 552.81-53.32"/><polygon fill="#000" stroke="#000" points="555.04,-56.07 561.96,-48.05 551.55,-50.01 555.04,-56.07"/></g><g id="node7" class="node"><title>chaining_desc</title><polygon fill="#fff8dc" stroke="#000" points="911.5,-42 756.5,-42 756.5,-6 917.5,-6 917.5,-36 911.5,-42"/><polyline fill="none" stroke="#000" points="911.5,-42 911.5,-36"/><polyline fill="none" stroke="#000" points="917.5,-36 911.5,-36"/><text text-anchor="middle" x="837" y="-27.4" font-family="Microsoft Yahei" font-size="12">使用链表或其他数据结构</text><text text-anchor="middle" x="837" y="-14.4" font-family="Microsoft Yahei" font-size="12">存储哈希到同一位置的元素</text></g><g id="edge6" class="edge"><title>chaining-&gt;chaining_desc</title><path fill="none" stroke="gray" stroke-dasharray="5,2" d="M740.83-83.94c17.5 10.73 40.3 24.7 59.3 36.34"/><polygon fill="gray" stroke="gray" points="802.14,-50.47 808.84,-42.26 798.48,-44.5 802.14,-50.47"/></g></g></svg>