<?xml version="1.0" encoding="UTF-8"?>
<!DOCTYPE svg PUBLIC "-//W3C//DTD SVG 1.1//EN" "http://www.w3.org/Graphics/SVG/1.1/DTD/svg11.dtd">
<svg xmlns="http://www.w3.org/2000/svg" xmlns:xlink="http://www.w3.org/1999/xlink" width="720pt" height="576pt" viewBox="0 0 720 576"><defs><style>*{stroke-linejoin:round;stroke-linecap:butt}</style></defs><g id="figure_1"><g id="patch_1"><path d="M0 576H720V0H0z" style="fill:#fff"/></g><g id="axes_1"><g id="patch_2"><path d="M90 512.64H648V69.12H90z" style="fill:#fff"/></g><g id="matplotlib.axis_1"><g id="xtick_1"><g id="line2d_1"><path d="M171.727273 512.64V69.12" clip-path="url(#p4b297619ea)" style="fill:none;stroke:#ccc;stroke-width:.8;stroke-linecap:round"/></g><g id="line2d_2"/><g id="text_1"><g style="fill:#262626" transform="translate(168.946804 523.297812) scale(0.1 -0.1)"><defs><path id="ArialMT-32" d="M3222 541V0H194q-6 203 65 391Q375 7e2 629 1e3q255 3e2 737 694 747 612 1009 970 263 358 263 677 0 334-240 563-239 230-623 230-406 0-650-244-244-243-247-674l-578 59q59 647 446 986 388 339 1042 339 659 0 1043-366 385-365 385-906 0-275-113-541-112-265-373-559t-867-806q-507-425-651-577-143-151-237-304H3222z" transform="scale(0.015625)"/></defs><use xlink:href="#ArialMT-32"/></g></g></g><g id="xtick_2"><g id="line2d_3"><path d="M284.454545 512.64V69.12" clip-path="url(#p4b297619ea)" style="fill:none;stroke:#ccc;stroke-width:.8;stroke-linecap:round"/></g><g id="line2d_4"/><g id="text_2"><g style="fill:#262626" transform="translate(281.674077 523.297812) scale(0.1 -0.1)"><defs><path id="ArialMT-34" d="M2069 0V1097H81v516L2172 4581h459V1613h619V1097H2631V0H2069zm0 1613V3678L634 1613H2069z" transform="scale(0.015625)"/></defs><use xlink:href="#ArialMT-34"/></g></g></g><g id="xtick_3"><g id="line2d_5"><path d="M397.181818 512.64V69.12" clip-path="url(#p4b297619ea)" style="fill:none;stroke:#ccc;stroke-width:.8;stroke-linecap:round"/></g><g id="line2d_6"/><g id="text_3"><g style="fill:#262626" transform="translate(394.401349 523.297812) scale(0.1 -0.1)"><defs><path id="ArialMT-36" d="M3184 3459l-559-43q-75 331-212 481-229 241-563 241-269 0-472-150-265-194-419-566-153-372-159-1059 203 309 497 459t616 150q562 0 957-414 396-414 396-1070 0-432-186-802T2569 119 1831-78Q1128-78 684 439 241 956 241 2144q0 1328 490 1931 428 525 1153 525 541 0 886-303 346-303 414-838zM888 1484q0-290 123-556 123-265 345-405 222-139 466-139 356 0 612 287 257 288 257 782 0 475-254 748-253 274-637 274-381 0-647-274-265-273-265-717z" transform="scale(0.015625)"/></defs><use xlink:href="#ArialMT-36"/></g></g></g><g id="xtick_4"><g id="line2d_7"><path d="M509.909091 512.64V69.12" clip-path="url(#p4b297619ea)" style="fill:none;stroke:#ccc;stroke-width:.8;stroke-linecap:round"/></g><g id="line2d_8"/><g id="text_4"><g style="fill:#262626" transform="translate(507.128622 523.297812) scale(0.1 -0.1)"><defs><path id="ArialMT-38" d="M1131 2484q-350 129-519 366-168 238-168 569 0 5e2 359 840 360 341 956 341 6e2.0 966-349 366-348 366-848 0-319-168-555-167-235-507-364 422-137 642-444 220-306 220-731 0-587-416-987Q2447-78 1769-78T675 323Q259 725 259 1325q0 447 227 748 227 302 645 411zm-112 954q0-325 209-532 210-206 544-206 325 0 533 204 208 205 208 502 0 310-215 521-214 211-532 211-322 0-535-207-212-206-212-493zM838 1322q0-241 114-466t339-349q225-123 484-123 403 0 665 259 263 260 263 660 0 406-270 672t-677 266q-397 0-658-263-260-262-260-656z" transform="scale(0.015625)"/></defs><use xlink:href="#ArialMT-38"/></g></g></g><g id="xtick_5"><g id="line2d_9"><path d="M622.636364 512.64V69.12" clip-path="url(#p4b297619ea)" style="fill:none;stroke:#ccc;stroke-width:.8;stroke-linecap:round"/></g><g id="line2d_10"/><g id="text_5"><g style="fill:#262626" transform="translate(617.075426 523.297812) scale(0.1 -0.1)"><defs><path id="ArialMT-31" d="M2384 0H1822V3584q-203-193-533-387T697 2906v544q472 222 825 537 353 316 5e2 613h362V0z" transform="scale(0.015625)"/><path id="ArialMT-30" d="M266 2259q0 813 167 1308 167 496 496 764 330 269 830 269 369 0 647-149 278-148 459-428 182-279 285-681 103-401 103-1083 0-806-166-1301-165-495-495-766Q2263-78 1759-78 1097-78 719 397 266 969 266 2259zm578 0q0-1128 264-1502 264-373 651-373 388 0 652 375t264 15e2q0 1132-264 1503-264 372-658 372-387 0-619-328-290-418-290-1547z" transform="scale(0.015625)"/></defs><use xlink:href="#ArialMT-31"/><use xlink:href="#ArialMT-30" transform="translate(55.615234 0)"/></g></g></g><g id="text_6"><g style="fill:#262626" transform="translate(327.371875 539.476875) scale(0.14 -0.14)"><defs><path id="ArialMT-49" d="M597 0V4581h606V0H597z" transform="scale(0.015625)"/><path id="ArialMT-6e" d="M422 0V3319H928V2847q366 547 1056 547 3e2.0 552-108t377-283 175-415q31-157 31-547V0H2556V2019q0 344-66 514-65 170-232 271-167 102-392 102-360 0-621-228T984 1813V0H422z" transform="scale(0.015625)"/><path id="ArialMT-70" d="M422-1272V3319H934V2888q182 253 410 379 228 127 553 127 425 0 750-219t490-618q166-398 166-873 0-509-183-917-182-408-531-625Q2241-75 1856-75q-281 0-505 119-223 119-367 3e2V-1272H422zM931 1641q0-641 259-947 260-306 629-306 375 0 642 317t267 983q0 634-261 949-261 316-623 316-360 0-637-336-276-336-276-976z" transform="scale(0.015625)"/><path id="ArialMT-75" d="M2597 0V488Q2209-75 1544-75 1250-75 995 37 741 150 617 320 494 491 444 738q-35 165-35 525V3319H972V1478q0-440 34-594 53-221 225-348t425-127 475 130 314 353q93 224 93 649V3319h562V0H2597z" transform="scale(0.015625)"/><path id="ArialMT-74" d="M1650 503 1731 6q-237-50-425-50-306 0-475 97-168 97-237 255T525 972V2881H113v438H525v822l559 337V3319h566V2881H1084V941q0-241 30-310 30-68 97-109t192-41q94 0 247 22z" transform="scale(0.015625)"/><path id="ArialMT-20" transform="scale(0.015625)"/><path id="ArialMT-53" d="M288 1472l571 50q41-344 189-564 149-220 461-356 313-136 704-136 346 0 612 103t395 282q130 180 130 393 0 215-125 376t-412 271q-185 72-816 223-631 152-884 286-329 172-490 426-160 255-160 571 0 347 196 648 197 302 575 458 379 156 841 156 509 0 898-164 390-164 599-483 209-318 225-721l-581-44q-47 434-318 656-270 222-798 222-550 0-802-202-251-201-251-485 0-247 178-407 175-159 914-326t1014-292q4e2-185 590-468 191-282 191-651 0-366-209-690-209-323-602-503Q2731-78 2241-78q-622 0-1043 181Q778 284 539 648q-239 365-251 824z" transform="scale(0.015625)"/><path id="ArialMT-69" d="M425 3934v647H988V3934H425zM425 0V3319H988V0H425z" transform="scale(0.015625)"/><path id="ArialMT-7a" d="M125 0V456L2238 2881q-360-18-635-18H250v456H2963V2947L1166 841 819 456q378 28 709 28H3063V0H125z" transform="scale(0.015625)"/><path id="ArialMT-65" d="M2694 1069l581-72q-137-509-509-791Q2394-75 1816-75 1088-75 661 373 234 822 234 1631q0 838 431 13e2 432 463 1119 463 666 0 1088-453t422-1275q0-50-3-150H816q31-547 309-838 278-290 694-290 309 0 528 162 219 163 347 519zM847 1978H27e2q-37 419-212 628-269 325-697 325-388 0-652-259T847 1978z" transform="scale(0.015625)"/><path id="ArialMT-28" d="M1497-1347Q1031-759 709 28 388 816 388 1659q0 744 240 1425 281 791 869 1575h403q-378-650-5e2-928-191-431-3e2-9e2-134-584-134-1175 0-1503 934-3003H1497z" transform="scale(0.015625)"/><path id="ArialMT-29" d="M791-1347H388q934 15e2 934 3003 0 588-134 1166-107 469-297 9e2-122 281-503 937H791q587-784 868-1575 241-681 241-1425 0-843-324-1631-323-787-785-1375z" transform="scale(0.015625)"/></defs><use xlink:href="#ArialMT-49"/><use xlink:href="#ArialMT-6e" transform="translate(27.783203 0)"/><use xlink:href="#ArialMT-70" transform="translate(83.398438 0)"/><use xlink:href="#ArialMT-75" transform="translate(139.013672 0)"/><use xlink:href="#ArialMT-74" transform="translate(194.628906 0)"/><use xlink:href="#ArialMT-20" transform="translate(222.412109 0)"/><use xlink:href="#ArialMT-53" transform="translate(250.195312 0)"/><use xlink:href="#ArialMT-69" transform="translate(316.894531 0)"/><use xlink:href="#ArialMT-7a" transform="translate(339.111328 0)"/><use xlink:href="#ArialMT-65" transform="translate(389.111328 0)"/><use xlink:href="#ArialMT-20" transform="translate(444.726562 0)"/><use xlink:href="#ArialMT-28" transform="translate(472.509766 0)"/><use xlink:href="#ArialMT-6e" transform="translate(505.810547 0)"/><use xlink:href="#ArialMT-29" transform="translate(561.425781 0)"/></g></g></g><g id="matplotlib.axis_2"><g id="ytick_1"><g id="line2d_11"><path d="M90 512.64H648" clip-path="url(#p4b297619ea)" style="fill:none;stroke:#ccc;stroke-width:.8;stroke-linecap:round"/></g><g id="line2d_12"/><g id="text_7"><g style="fill:#262626" transform="translate(80.939063 516.218906) scale(0.1 -0.1)"><use xlink:href="#ArialMT-30"/></g></g></g><g id="ytick_2"><g id="line2d_13"><path d="M90 423.936H648" clip-path="url(#p4b297619ea)" style="fill:none;stroke:#ccc;stroke-width:.8;stroke-linecap:round"/></g><g id="line2d_14"/><g id="text_8"><g style="fill:#262626" transform="translate(75.378125 427.514906) scale(0.1 -0.1)"><use xlink:href="#ArialMT-32"/><use xlink:href="#ArialMT-30" transform="translate(55.615234 0)"/></g></g></g><g id="ytick_3"><g id="line2d_15"><path d="M90 335.232H648" clip-path="url(#p4b297619ea)" style="fill:none;stroke:#ccc;stroke-width:.8;stroke-linecap:round"/></g><g id="line2d_16"/><g id="text_9"><g style="fill:#262626" transform="translate(75.378125 338.810906) scale(0.1 -0.1)"><use xlink:href="#ArialMT-34"/><use xlink:href="#ArialMT-30" transform="translate(55.615234 0)"/></g></g></g><g id="ytick_4"><g id="line2d_17"><path d="M90 246.528H648" clip-path="url(#p4b297619ea)" style="fill:none;stroke:#ccc;stroke-width:.8;stroke-linecap:round"/></g><g id="line2d_18"/><g id="text_10"><g style="fill:#262626" transform="translate(75.378125 250.106906) scale(0.1 -0.1)"><use xlink:href="#ArialMT-36"/><use xlink:href="#ArialMT-30" transform="translate(55.615234 0)"/></g></g></g><g id="ytick_5"><g id="line2d_19"><path d="M90 157.824H648" clip-path="url(#p4b297619ea)" style="fill:none;stroke:#ccc;stroke-width:.8;stroke-linecap:round"/></g><g id="line2d_20"/><g id="text_11"><g style="fill:#262626" transform="translate(75.378125 161.402906) scale(0.1 -0.1)"><use xlink:href="#ArialMT-38"/><use xlink:href="#ArialMT-30" transform="translate(55.615234 0)"/></g></g></g><g id="ytick_6"><g id="line2d_21"><path d="M90 69.12H648" clip-path="url(#p4b297619ea)" style="fill:none;stroke:#ccc;stroke-width:.8;stroke-linecap:round"/></g><g id="line2d_22"/><g id="text_12"><g style="fill:#262626" transform="translate(69.817188 72.698906) scale(0.1 -0.1)"><use xlink:href="#ArialMT-31"/><use xlink:href="#ArialMT-30" transform="translate(55.615234 0)"/><use xlink:href="#ArialMT-30" transform="translate(111.230469 0)"/></g></g></g><g id="text_13"><g style="fill:#262626" transform="translate(63.034688 325.11875) rotate(-90) scale(0.14 -0.14)"><defs><path id="ArialMT-4f" d="M309 2231q0 1141 612 1786 613 646 1582 646 635 0 1144-304 509-303 776-845 268-542 268-1230 0-696-282-1246-281-550-797-833Q3097-78 25e2-78q-647 0-1157 312-509 313-772 853-262 541-262 1144zm625-9q0-828 445-1305 446-476 1118-476 684 0 1126 481 443 481 443 1366 0 559-189 976t-554 647q-364 230-817 230-643 0-1108-443-464-442-464-1476z" transform="scale(0.015625)"/><path id="ArialMT-72" d="M416 0V3319H922V2816q194 353 358 465 164 113 361 113 284 0 578-181l-194-522q-206 122-412 122-185 0-332-111t-209-308q-94-3e2-94-656V0H416z" transform="scale(0.015625)"/><path id="ArialMT-61" d="M2588 409Q2275 144 1986 34 1697-75 1366-75 819-75 525 192T231 875q0 244 111 445 111 202 291 324t405 184q165 44 5e2 85 681 81 1003 193 3 116 3 147 0 344-160 485-215 190-640 190-397 0-586-139T878 2297l-550 75q75 353 247 570t497 334q325 118 753 118 425 0 690-1e2 266-1e2 391-252 125-151 175-383 28-143 28-518V1391q0-785 36-993 36-207 143-398H27e2q-87 175-112 409zm-47 1257q-307-125-919-213-347-50-491-113-143-62-222-182-78-120-78-267 0-225 170-375 171-150 499-150 325 0 578 142t372 389q91 191 91 562v207z" transform="scale(0.015625)"/><path id="ArialMT-6f" d="M213 1659q0 922 512 1366 428 369 1044 369 684 0 1118-449 435-448 435-1239 0-640-192-1008-192-367-560-570Q2203-75 1769-75 1072-75 642 372 213 819 213 1659zm578 0q0-637 278-954t7e2-317q419 0 697 318 278 319 278 972 0 616-280 933t-695 317q-422 0-7e2-316-278-315-278-953z" transform="scale(0.015625)"/><path id="ArialMT-73" d="M197 991l556 87q47-334 261-512t599-178q387 0 574 157 188 158 188 371 0 190-166 3e2-115 75-575 190-618 157-857 271T414 1992q-123 202-123 446 0 221 101 410 102 190 277 315 131 96 357 163 227 68 487 68 390 0 685-113 296-112 436-305 141-192 194-513l-550-75q-37 256-217 399-180 144-508 144-387 0-553-128T834 2503q0-109 69-197 69-90 216-150 84-31 497-143 597-160 832-262 236-101 370-295 135-193 135-481 0-281-164-530-164-248-474-384Q2006-75 1616-75 969-75 630 194T197 991z" transform="scale(0.015625)"/></defs><use xlink:href="#ArialMT-4f"/><use xlink:href="#ArialMT-70" transform="translate(77.783203 0)"/><use xlink:href="#ArialMT-65" transform="translate(133.398438 0)"/><use xlink:href="#ArialMT-72" transform="translate(189.013672 0)"/><use xlink:href="#ArialMT-61" transform="translate(222.314453 0)"/><use xlink:href="#ArialMT-74" transform="translate(277.929688 0)"/><use xlink:href="#ArialMT-69" transform="translate(305.712891 0)"/><use xlink:href="#ArialMT-6f" transform="translate(327.929688 0)"/><use xlink:href="#ArialMT-6e" transform="translate(383.544922 0)"/><use xlink:href="#ArialMT-73" transform="translate(439.160156 0)"/></g></g></g><g id="line2d_23"><path d="M115.363636 508.2048H120.487603 125.61157 130.735537 135.859504 140.983471 146.107438 151.231405 156.355372 161.479339 166.603306 171.727273 176.85124 181.975207 187.099174h5.123966H197.347107 202.471074 207.595041 212.719008 217.842975 222.966942 228.090909 233.214876 238.338843 243.46281 248.586777 253.710744 258.834711 263.958678 269.082645 274.206612 279.330579h5.123966H289.578512 294.702479 299.826446 304.950413 310.07438 315.198347 320.322314 325.446281 330.570248 335.694215 340.818182 345.942149 351.066116 356.190083 361.31405 366.438017h5.123966H376.68595 381.809917 386.933884 392.057851 397.181818 402.305785 407.429752 412.553719 417.677686 422.801653 427.92562 433.049587 438.173554 443.297521 448.421488 453.545455h5.123966H463.793388 468.917355 474.041322 479.165289 484.289256 489.413223 494.53719 499.661157 504.785124 509.909091 515.033058 520.157025 525.280992 530.404959 535.528926 540.652893 545.77686h5.123966H556.024793 561.14876 566.272727 571.396694 576.520661 581.644628 586.768595 591.892562 597.016529 602.140496 607.264463 612.38843 617.512397 622.636364" clip-path="url(#p4b297619ea)" style="fill:none;stroke-dasharray:5.55,2.4;stroke-dashoffset:0;stroke:#1f77b4;stroke-width:1.5"/></g><g id="line2d_24"><path d="M115.363636 512.64 120.487603 512.083245 125.61157 511.571081 130.735537 511.096891 135.859504 510.65543 140.983471 510.242471 146.107438 509.854556 151.231405 509.48882 156.355372 509.142863 161.479339 508.814656 166.603306 508.502465 171.727273 508.2048 176.85124 507.920369 181.975207 507.648045 187.099174 507.38684 192.22314 507.135881 197.347107 506.894394 202.471074 506.661691 207.595041 506.437154 212.719008 506.22023 217.842975 506.01042 222.966942 505.807271 228.090909 505.610374 233.214876 505.419356 238.338843 505.233875 243.46281 505.05362 248.586777 504.878304 253.710744 504.707663 258.834711 504.541455 263.958678 504.379456 269.082645 504.221456 274.206612 504.067265 279.330579 503.916702 284.454545 503.7696 289.578512 503.625804 294.702479 503.485169 299.826446 503.347559 304.950413 503.212845 310.07438 503.08091 315.198347 502.95164 320.322314 502.82493 325.446281 502.700681 330.570248 502.578798 335.694215 502.459194 340.818182 502.341785 345.942149 502.226491 351.066116 502.113237 356.190083 502.001954 361.31405 501.892573 366.438017 501.78503 371.561983 501.679265 376.68595 501.57522 381.809917 501.472839 386.933884 501.372071 392.057851 501.272865 397.181818 501.175174 402.305785 501.078952 407.429752 500.984156 412.553719 500.890743 417.677686 500.798675 422.801653 500.707913 427.92562 500.61842 433.049587 500.530161 438.173554 500.443104 443.297521 500.357214 448.421488 500.272463 453.545455 500.188819 458.669421 500.106255 463.793388 500.024743 468.917355 499.944256 474.041322 499.864768 479.165289 499.786256 484.289256 499.708696 489.413223 499.632065 494.53719 499.55634 499.661157 499.481502 504.785124 499.407528 509.909091 499.3344 515.033058 499.262098 520.157025 499.190604 525.280992 499.1199 530.404959 499.049969 535.528926 498.980794 540.652893 498.912359 545.77686 498.844648 550.900826 498.777645 556.024793 498.711338 561.14876 498.64571 566.272727 498.580749 571.396694 498.51644 576.520661 498.452772 581.644628 498.38973 586.768595 498.327304 591.892562 498.265481 597.016529 498.204249 602.140496 498.143598 607.264463 498.083517 612.38843 498.023994 617.512397 497.96502 622.636364 497.906585" clip-path="url(#p4b297619ea)" style="fill:none;stroke:#ff7f0e;stroke-width:1.5;stroke-linecap:round"/></g><g id="line2d_25"><path d="M115.363636 508.2048 120.487603 507.8016 125.61157 507.3984 130.735537 506.9952 135.859504 506.592 140.983471 506.1888 146.107438 505.7856 151.231405 505.3824 156.355372 504.9792 161.479339 504.576 166.603306 504.1728 171.727273 503.7696 176.85124 503.3664 181.975207 502.9632 187.099174 502.56 192.22314 502.1568 197.347107 501.7536 202.471074 501.3504 207.595041 500.9472 212.719008 500.544 217.842975 500.1408 222.966942 499.7376 228.090909 499.3344 233.214876 498.9312 238.338843 498.528 243.46281 498.1248 248.586777 497.7216 253.710744 497.3184 258.834711 496.9152 263.958678 496.512 269.082645 496.1088 274.206612 495.7056 279.330579 495.3024 284.454545 494.8992 289.578512 494.496 294.702479 494.0928 299.826446 493.6896 304.950413 493.2864 310.07438 492.8832 315.198347 492.48 320.322314 492.0768 325.446281 491.6736 330.570248 491.2704 335.694215 490.8672 340.818182 490.464 345.942149 490.0608 351.066116 489.6576 356.190083 489.2544 361.31405 488.8512 366.438017 488.448 371.561983 488.0448 376.68595 487.6416 381.809917 487.2384 386.933884 486.8352 392.057851 486.432 397.181818 486.0288 402.305785 485.6256 407.429752 485.2224 412.553719 484.8192 417.677686 484.416 422.801653 484.0128 427.92562 483.6096 433.049587 483.2064 438.173554 482.8032 443.297521 482.4 448.421488 481.9968 453.545455 481.5936 458.669421 481.1904 463.793388 480.7872 468.917355 480.384 474.041322 479.9808 479.165289 479.5776 484.289256 479.1744 489.413223 478.7712 494.53719 478.368 499.661157 477.9648 504.785124 477.5616 509.909091 477.1584 515.033058 476.7552 520.157025 476.352 525.280992 475.9488 530.404959 475.5456 535.528926 475.1424 540.652893 474.7392 545.77686 474.336 550.900826 473.9328 556.024793 473.5296 561.14876 473.1264 566.272727 472.7232 571.396694 472.32 576.520661 471.9168 581.644628 471.5136 586.768595 471.1104 591.892562 470.7072 597.016529 470.304 602.140496 469.9008 607.264463 469.4976 612.38843 469.0944 617.512397 468.6912 622.636364 468.288" clip-path="url(#p4b297619ea)" style="fill:none;stroke:#2ca02c;stroke-width:1.5;stroke-linecap:round"/></g><g id="line2d_26"><path d="M115.363636 512.64 120.487603 512.032631 125.61157 511.376732 130.735537 510.676043 135.859504 509.933768 140.983471 509.152685 146.107438 508.335223 151.231405 507.483523 156.355372 506.599491 161.479339 505.684828 166.603306 504.741069 171.727273 503.7696 176.85124 502.771681 181.975207 501.748463 187.099174 500.701 192.22314 499.630264 197.347107 498.537149 202.471074 497.422485 207.595041 496.287042 212.719008 495.131536 217.842975 493.956637 222.966942 492.762971 228.090909 491.551123 233.214876 490.321646 238.338843 489.075057 243.46281 487.811846 248.586777 486.532476 253.710744 485.237381 258.834711 483.926978 263.958678 482.601657 269.082645 481.261792 274.206612 479.907739 279.330579 478.539834 284.454545 477.1584 289.578512 475.763745 294.702479 474.356162 299.826446 472.935932 304.950413 471.503326 310.07438 470.058599 315.198347 468.602001 320.322314 467.133767 325.446281 465.654128 330.570248 464.163301 335.694215 462.661498 340.818182 461.148923 345.942149 459.62577 351.066116 458.09223 356.190083 456.548484 361.31405 454.994708 366.438017 453.431072l5.123966-1.57333L376.68595 450.274874 381.809917 448.682624 386.933884 447.081141 392.057851 445.470568 397.181818 443.851046 402.305785 442.22271 407.429752 440.585691 412.553719 438.940118 417.677686 437.286114 422.801653 435.6238 427.92562 433.953293 433.049587 432.274706 438.173554 430.588151 443.297521 428.893735 448.421488 427.191563 453.545455 425.481736 458.669421 423.764355 463.793388 422.039516 468.917355 420.307314 474.041322 418.56784 479.165289 416.821185 484.289256 415.067435 489.413223 413.306677 494.53719 411.538994 499.661157 409.764468 504.785124 407.983177 509.909091 406.1952 515.033058 404.400613 520.157025 402.599489 525.280992 400.791903 530.404959 398.977924 535.528926 397.157622 540.652893 395.331065 545.77686 393.498319 550.900826 391.659451 556.024793 389.814523 561.14876 387.963598 566.272727 386.106738 571.396694 384.244001 576.520661 382.375448 581.644628 380.501135 586.768595 378.621119 591.892562 376.735456 597.016529 374.844199 602.140496 372.947402 607.264463 371.045117 612.38843 369.137396 617.512397 367.224289 622.636364 365.305845" clip-path="url(#p4b297619ea)" style="fill:none;stroke:#d62728;stroke-width:1.5;stroke-linecap:round"/></g><g id="line2d_27"><path d="M115.363636 508.2048 120.487603 507.361745 125.61157 506.445382 130.735537 505.455709 135.859504 504.392727 140.983471 503.256436 146.107438 502.046836 151.231405 500.763927 156.355372 499.407709 161.479339 497.978182 166.603306 496.475345 171.727273 494.8992 176.85124 493.249745 181.975207 491.526982 187.099174 489.730909 192.22314 487.861527 197.347107 485.918836 202.471074 483.902836 207.595041 481.813527 212.719008 479.650909 217.842975 477.414982 222.966942 475.105745 228.090909 472.7232 233.214876 470.267345 238.338843 467.738182 243.46281 465.135709 248.586777 462.459927 253.710744 459.710836 258.834711 456.888436 263.958678 453.992727 269.082645 451.023709 274.206612 447.981382 279.330579 444.865745 284.454545 441.6768 289.578512 438.414545 294.702479 435.078982 299.826446 431.670109 304.950413 428.187927 310.07438 424.632436 315.198347 421.003636 320.322314 417.301527 325.446281 413.526109 330.570248 409.677382 335.694215 405.755345 340.818182 401.76 345.942149 397.691345 351.066116 393.549382 356.190083 389.334109 361.31405 385.045527 366.438017 380.683636 371.561983 376.248436 376.68595 371.739927 381.809917 367.158109 386.933884 362.502982 392.057851 357.774545 397.181818 352.9728 402.305785 348.097745 407.429752 343.149382 412.553719 338.127709 417.677686 333.032727 422.801653 327.864436 427.92562 322.622836 433.049587 317.307927 438.173554 311.919709 443.297521 306.458182 448.421488 300.923345 453.545455 295.3152 458.669421 289.633745 463.793388 283.878982 468.917355 278.050909 474.041322 272.149527 479.165289 266.174836 484.289256 260.126836 489.413223 254.005527 494.53719 247.810909 499.661157 241.542982 504.785124 235.201745 509.909091 228.7872 515.033058 222.299345 520.157025 215.738182 525.280992 209.103709 530.404959 202.395927 535.528926 195.614836 540.652893 188.760436 545.77686 181.832727 550.900826 174.831709 556.024793 167.757382 561.14876 160.609745 566.272727 153.3888 571.396694 146.094545 576.520661 138.726982 581.644628 131.286109 586.768595 123.771927 591.892562 116.184436 597.016529 108.523636 602.140496 100.789527 607.264463 92.982109 612.38843 85.101382 617.512397 77.147345 622.636364 69.12" clip-path="url(#p4b297619ea)" style="fill:none;stroke:#9467bd;stroke-width:1.5;stroke-linecap:round"/></g><g id="line2d_28"><path d="M115.363636 503.7696 171.727273 494.8992l56.363636-17.7408 56.363636-35.4816 56.363637-70.9632 56.363636-141.9264" clip-path="url(#p4b297619ea)" style="fill:none;stroke:#8c564b;stroke-width:1.5;stroke-linecap:round"/></g><g id="line2d_29"><path d="M115.363636 508.2048 171.727273 503.7696l56.363636-17.7408 56.363636-79.8336L338.358076-1" clip-path="url(#p4b297619ea)" style="fill:none;stroke:#e377c2;stroke-width:1.5;stroke-linecap:round"/></g><g id="patch_3"><path d="M90 512.64V69.12" style="fill:none;stroke:#ccc;stroke-linejoin:miter;stroke-linecap:square"/></g><g id="patch_4"><path d="M648 512.64V69.12" style="fill:none;stroke:#ccc;stroke-linejoin:miter;stroke-linecap:square"/></g><g id="patch_5"><path d="M90 512.64H648" style="fill:none;stroke:#ccc;stroke-linejoin:miter;stroke-linecap:square"/></g><g id="patch_6"><path d="M90 69.12H648" style="fill:none;stroke:#ccc;stroke-linejoin:miter;stroke-linecap:square"/></g><g id="text_14"><g style="fill:#262626" transform="translate(289.159375 63.12) scale(0.2 -0.2)"><defs><path id="Arial-BoldMT-54" d="M1497 0V3806H138v775H3778V3806H2422V0H1497z" transform="scale(0.015625)"/><path id="Arial-BoldMT-69" d="M459 3769v812h879V3769H459zM459 0V3319h879V0H459z" transform="scale(0.015625)"/><path id="Arial-BoldMT-6d" d="M394 3319h809V2866q435 528 1035 528 318 0 552-132 235-131 385-396 219 265 472 396 253 132 541 132 365 0 618-149 253-148 378-436 91-212 91-687V0H4397V1897q0 494-91 637-122 188-375 188-184 0-347-113-162-112-234-329t-72-686V0H24e2V1819q0 484-47 624-47 141-146 210-98 69-266 69-203 0-366-110-162-109-233-315-70-206-70-684V0H394V3319z" transform="scale(0.015625)"/><path id="Arial-BoldMT-65" d="M2381 1056l875-147q-168-481-533-733Q2359-75 1813-75 947-75 531 491 203 944 203 1634q0 825 431 1292 432 468 1091 468 741 0 1169-489t409-1499H1103q10-390 213-608 203-217 506-217 206 0 346 112 141 113 213 363zm50 888q-9 381-197 579-187 199-456 199-287 0-475-209-187-210-184-569H2431z" transform="scale(0.015625)"/><path id="Arial-BoldMT-20" transform="scale(0.015625)"/><path id="Arial-BoldMT-43" d="M3397 1684l897-284Q4088 650 3608 286T2391-78Q1478-78 890 545 303 1169 303 2250q0 1144 590 1776 591 633 1554 633 841 0 1366-496 312-294 468-844l-915-219q-82 356-340 562-257 207-626 207-509 0-827-366-317-365-317-1184 0-869 312-1238 313-368 813-368 369 0 634 234 266 234 382 737z" transform="scale(0.015625)"/><path id="Arial-BoldMT-6f" d="M256 1706q0 438 216 847 216 410 611 625 395 216 883 216 753 0 1234-489t481-1236q0-753-486-1249Q2709-75 1972-75q-456 0-870 206Q688 338 472 736T256 1706zm9e2-47q0-493 234-756 235-262 579-262t576 262q233 263 233 763 0 487-233 749-232 263-576 263t-579-263q-234-262-234-756z" transform="scale(0.015625)"/><path id="Arial-BoldMT-70" d="M434 3319h819V2831q160 250 431 406 272 157 604 157 578 0 981-453t403-1263q0-831-407-1292Q2859-75 2281-75q-275 0-499 109-223 110-469 375V-1263H434V3319zm869-1603q0-560 222-827t541-267q306 0 509 245 203 246 203 805 0 522-210 775-209 253-518 253-322 0-535-249-212-248-212-735z" transform="scale(0.015625)"/><path id="Arial-BoldMT-6c" d="M459 0V4581h879V0H459z" transform="scale(0.015625)"/><path id="Arial-BoldMT-78" d="M38 0 1234 1709 88 3319H1159l588-913 619 913H3397L2272 1747 35e2.0H2422L1747 1028 1066 0H38z" transform="scale(0.015625)"/><path id="Arial-BoldMT-74" d="M1981 3319V2619H1381V1281q0-406 17-473 18-67 79-111t148-44q122 0 353 85l75-682Q1747-75 1359-75 1122-75 931 4 741 84 652 211T528 553q-28 153-28 619V2619H97v7e2H5e2v659l881 513V3319h6e2z" transform="scale(0.015625)"/><path id="Arial-BoldMT-79" d="M44 3319H978L1772 963l775 2356h909L2284 125 2075-453q-116-291-221-444-104-153-240-248-136-96-335-149-198-53-448-53-253 0-497 53L256-606q207-41 372-41 306 0 453 180Q1228-288 1306-9L44 3319z" transform="scale(0.015625)"/></defs><use xlink:href="#Arial-BoldMT-54"/><use xlink:href="#Arial-BoldMT-69" transform="translate(59.333984 0)"/><use xlink:href="#Arial-BoldMT-6d" transform="translate(87.117188 0)"/><use xlink:href="#Arial-BoldMT-65" transform="translate(176.033203 0)"/><use xlink:href="#Arial-BoldMT-20" transform="translate(231.648438 0)"/><use xlink:href="#Arial-BoldMT-43" transform="translate(259.431641 0)"/><use xlink:href="#Arial-BoldMT-6f" transform="translate(331.648438 0)"/><use xlink:href="#Arial-BoldMT-6d" transform="translate(392.732422 0)"/><use xlink:href="#Arial-BoldMT-70" transform="translate(481.648438 0)"/><use xlink:href="#Arial-BoldMT-6c" transform="translate(542.732422 0)"/><use xlink:href="#Arial-BoldMT-65" transform="translate(570.515625 0)"/><use xlink:href="#Arial-BoldMT-78" transform="translate(626.130859 0)"/><use xlink:href="#Arial-BoldMT-69" transform="translate(681.746094 0)"/><use xlink:href="#Arial-BoldMT-74" transform="translate(709.529297 0)"/><use xlink:href="#Arial-BoldMT-79" transform="translate(742.830078 0)"/></g></g><g id="legend_1"><g id="line2d_30"><path d="M100.8 84.309375h12 12" style="fill:none;stroke-dasharray:5.55,2.4;stroke-dashoffset:0;stroke:#1f77b4;stroke-width:1.5"/></g><g id="text_15"><g style="fill:#262626" transform="translate(134.4 88.509375) scale(0.12 -0.12)"><defs><path id="DejaVuSans-Oblique-4f" d="M2919 4238q-519 0-916-252t-690-767q-188-328-287-697-98-369-98-744 0-650 311-1003t880-353q512 0 913 254 402 255 687 758 190 338 290 708 1e2 371 1e2 739 0 647-313 1002-312 355-877 355zM21e2-91Q1241-91 748 418 256 928 256 1813q0 506 192 1034 193 528 530 941 397 484 884 723 488 239 1076 239 856 0 1349-505 494-504 494-1376 0-538-188-1057-187-518-537-940-4e2-488-883-726Q2691-91 21e2-91z" transform="scale(0.015625)"/><path id="DejaVuSans-28" d="M1984 4856q-418-718-622-1422-203-703-203-1425 0-721 205-1429T1984-844H1484Q1016-109 783 6e2T550 2009q0 697 231 1403 232 707 703 1444h5e2z" transform="scale(0.015625)"/><path id="DejaVuSans-31" d="M794 531H1825V4091L703 3866v575l1116 225h631V531H3481V0H794V531z" transform="scale(0.015625)"/><path id="DejaVuSans-29" d="M513 4856h5e2q468-737 701-1444 233-706 233-1403 0-7e2-233-1409T1013-844H513Q928-128 1133 580t205 1429q0 722-205 1425-205 704-620 1422z" transform="scale(0.015625)"/></defs><use xlink:href="#DejaVuSans-Oblique-4f" transform="translate(0 0.125)"/><use xlink:href="#DejaVuSans-28" transform="translate(78.710938 0.125)"/><use xlink:href="#DejaVuSans-31" transform="translate(117.724609 0.125)"/><use xlink:href="#DejaVuSans-29" transform="translate(181.347656 0.125)"/></g></g><g id="line2d_31"><path d="M100.8 101.814375h12 12" style="fill:none;stroke:#ff7f0e;stroke-width:1.5;stroke-linecap:round"/></g><g id="text_16"><g style="fill:#262626" transform="translate(134.4 106.014375) scale(0.12 -0.12)"><defs><path id="DejaVuSans-6c" d="M603 4863h575V0H603V4863z" transform="scale(0.015625)"/><path id="DejaVuSans-6f" d="M1959 3097q-462 0-731-361T959 1747t267-989q268-361 733-361 460 0 728 362 269 363 269 988 0 622-269 986-268 364-728 364zm0 487q750 0 1178-488 429-487 429-1349 0-859-429-1349Q2709-91 1959-91 1206-91 779 398 353 888 353 1747q0 862 426 1349 427 488 1180 488z" transform="scale(0.015625)"/><path id="DejaVuSans-67" d="M2906 1791q0 625-258 968-257 344-723 344-462 0-720-344-258-343-258-968 0-622 258-966t720-344q466 0 723 344 258 344 258 966zM3481 434q0-893-397-1329-396-436-1215-436-303 0-572 45T775-1147v559q253-137 5e2-202 247-66 503-66 566 0 847 295t281 892V616q-178-310-456-463T1784 0Q1141 0 747 490 353 981 353 1791q0 812 394 1302 394 491 1037 491 388 0 666-153t456-462v531h575V434z" transform="scale(0.015625)"/><path id="DejaVuSans-Oblique-6e" d="M3566 2113 3156 0H2578l410 2091q28 147 43 259 16 113 16 178 0 263-166 409-165 147-462 147-463 0-797-308-334-307-438-835L8e2.0H225L903 35e2h575l-115-550q240 303 577 468 338 166 710 166 463 0 717-250 255-250 255-703 0-112-14-240t-42-278z" transform="scale(0.015625)"/></defs><use xlink:href="#DejaVuSans-Oblique-4f" transform="translate(0 0.015625)"/><use xlink:href="#DejaVuSans-28" transform="translate(78.710938 0.015625)"/><use xlink:href="#DejaVuSans-6c" transform="translate(117.724609 0.015625)"/><use xlink:href="#DejaVuSans-6f" transform="translate(145.507812 0.015625)"/><use xlink:href="#DejaVuSans-67" transform="translate(206.689453 0.015625)"/><use xlink:href="#DejaVuSans-Oblique-6e" transform="translate(286.401692 0.015625)"/><use xlink:href="#DejaVuSans-29" transform="translate(349.780598 0.015625)"/></g></g><g id="line2d_32"><path d="M100.8 118.92375h12 12" style="fill:none;stroke:#2ca02c;stroke-width:1.5;stroke-linecap:round"/></g><g id="text_17"><g style="fill:#262626" transform="translate(134.4 123.12375) scale(0.12 -0.12)"><use xlink:href="#DejaVuSans-Oblique-4f" transform="translate(0 0.125)"/><use xlink:href="#DejaVuSans-28" transform="translate(78.710938 0.125)"/><use xlink:href="#DejaVuSans-Oblique-6e" transform="translate(117.724609 0.125)"/><use xlink:href="#DejaVuSans-29" transform="translate(181.103516 0.125)"/></g></g><g id="line2d_33"><path d="M100.8 136.42875h12 12" style="fill:none;stroke:#d62728;stroke-width:1.5;stroke-linecap:round"/></g><g id="text_18"><g style="fill:#262626" transform="translate(134.4 140.62875) scale(0.12 -0.12)"><use xlink:href="#DejaVuSans-Oblique-4f" transform="translate(0 0.015625)"/><use xlink:href="#DejaVuSans-28" transform="translate(78.710938 0.015625)"/><use xlink:href="#DejaVuSans-Oblique-6e" transform="translate(117.724609 0.015625)"/><use xlink:href="#DejaVuSans-6c" transform="translate(181.103516 0.015625)"/><use xlink:href="#DejaVuSans-6f" transform="translate(208.886719 0.015625)"/><use xlink:href="#DejaVuSans-67" transform="translate(270.068359 0.015625)"/><use xlink:href="#DejaVuSans-Oblique-6e" transform="translate(349.780598 0.015625)"/><use xlink:href="#DejaVuSans-29" transform="translate(413.159504 0.015625)"/></g></g><g id="line2d_34"><path d="M100.8 155.16375h12 12" style="fill:none;stroke:#9467bd;stroke-width:1.5;stroke-linecap:round"/></g><g id="text_19"><g style="fill:#262626" transform="translate(134.4 159.36375) scale(0.12 -0.12)"><defs><path id="DejaVuSans-32" d="M1228 531H3431V0H469V531q359 372 979 998 621 627 780 809 303 340 423 576 121 236 121 464 0 372-261 606-261 235-680 235-297 0-627-103-329-103-704-313v638q381 153 712 231 332 78 607 78 725 0 1156-363 431-362 431-968 0-288-108-546-107-257-392-607-78-91-497-524-418-433-1181-1211z" transform="scale(0.015625)"/></defs><use xlink:href="#DejaVuSans-Oblique-4f" transform="translate(0 0.765625)"/><use xlink:href="#DejaVuSans-28" transform="translate(78.710938 0.765625)"/><use xlink:href="#DejaVuSans-Oblique-6e" transform="translate(117.724609 0.765625)"/><use xlink:href="#DejaVuSans-32" transform="translate(185.753411 39.046875) scale(0.7)"/><use xlink:href="#DejaVuSans-29" transform="translate(233.023919 0.765625)"/></g></g><g id="line2d_35"><path d="M100.8 172.20375h12 12" style="fill:none;stroke:#8c564b;stroke-width:1.5;stroke-linecap:round"/></g><g id="text_20"><g style="fill:#262626" transform="translate(134.4 176.40375) scale(0.12 -0.12)"><use xlink:href="#DejaVuSans-Oblique-4f" transform="translate(0 0.51875)"/><use xlink:href="#DejaVuSans-28" transform="translate(78.710938 0.51875)"/><use xlink:href="#DejaVuSans-32" transform="translate(117.724609 0.51875)"/><use xlink:href="#DejaVuSans-Oblique-6e" transform="translate(182.304688 38.8) scale(0.7)"/><use xlink:href="#DejaVuSans-29" transform="translate(229.404297 0.51875)"/></g></g><g id="line2d_36"><path d="M100.8 189.178125h12 12" style="fill:none;stroke:#e377c2;stroke-width:1.5;stroke-linecap:round"/></g><g id="text_21"><g style="fill:#262626" transform="translate(134.4 193.378125) scale(0.12 -0.12)"><defs><path id="DejaVuSans-21" d="M966 794h634V0H966V794zm0 3872h634V2619l-62-1116H1031L966 2619V4666z" transform="scale(0.015625)"/></defs><use xlink:href="#DejaVuSans-Oblique-4f" transform="translate(0 0.125)"/><use xlink:href="#DejaVuSans-28" transform="translate(78.710938 0.125)"/><use xlink:href="#DejaVuSans-Oblique-6e" transform="translate(117.724609 0.125)"/><use xlink:href="#DejaVuSans-21" transform="translate(181.103516 0.125)"/><use xlink:href="#DejaVuSans-29" transform="translate(240.673828 0.125)"/></g></g></g></g></g><defs><clipPath id="p4b297619ea"><rect x="90" y="69.12" width="558" height="443.52"/></clipPath></defs></svg>