<svg class="d-none"><symbol id="check2" viewBox="0 0 16 16"><path d="M13.854 3.646a.5.5.0 010 .708l-7 7a.5.5.0 01-.708.0l-3.5-3.5a.5.5.0 11.708-.708L6.5 10.293l6.646-6.647a.5.5.0 01.708.0z"/></symbol><symbol id="circle-half" viewBox="0 0 16 16"><path d="M8 15A7 7 0 108 1v14zm0 1A8 8 0 118 0a8 8 0 010 16z"/></symbol><symbol id="moon-stars-fill" viewBox="0 0 16 16"><path d="M6 .278a.768.768.0 01.08.858 7.208 7.208.0 00-.878 3.46c0 4.021 3.278 7.277 7.318 7.277.527.0 1.04-.055 1.533-.16a.787.787.0 01.81.316.733.733.0 01-.031.893A8.349 8.349.0 018.344 16C3.734 16 0 12.286.0 7.71.0 4.266 2.114 1.312 5.124.06A.752.752.0 016 .278z"/><path d="M10.794 3.148a.217.217.0 01.412.0l.387 1.162c.173.518.579.924 1.097 1.097l1.162.387a.217.217.0 010 .412l-1.162.387A1.734 1.734.0 0011.593 7.69l-.387 1.162a.217.217.0 01-.412.0l-.387-1.162A1.734 1.734.0 009.31 6.593l-1.162-.387a.217.217.0 010-.412l1.162-.387a1.734 1.734.0 001.097-1.097l.387-1.162zM13.863.099a.145.145.0 01.274.0l.258.774c.115.346.386.617.732.732l.774.258a.145.145.0 010 .274l-.774.258a1.156 1.156.0 00-.732.732l-.258.774a.145.145.0 01-.274.0l-.258-.774a1.156 1.156.0 00-.732-.732l-.774-.258a.145.145.0 010-.274l.774-.258c.346-.115.617-.386.732-.732L13.863.1z"/></symbol><symbol id="sun-fill" viewBox="0 0 16 16"><path d="M8 12a4 4 0 100-8 4 4 0 000 8zM8 0a.5.5.0 01.5.5v2a.5.5.0 01-1 0v-2A.5.5.0 018 0zm0 13a.5.5.0 01.5.5v2a.5.5.0 01-1 0v-2A.5.5.0 018 13zm8-5a.5.5.0 01-.5.5h-2a.5.5.0 010-1h2a.5.5.0 01.5.5zM3 8a.5.5.0 01-.5.5h-2a.5.5.0 010-1h2A.5.5.0 013 8zm10.657-5.657a.5.5.0 010 .707l-1.414 1.415a.5.5.0 11-.707-.708l1.414-1.414a.5.5.0 01.707.0zm-9.193 9.193a.5.5.0 010 .707L3.05 13.657a.5.5.0 01-.707-.707l1.414-1.414a.5.5.0 01.707.0zm9.193 2.121a.5.5.0 01-.707.0l-1.414-1.414a.5.5.0 01.707-.707l1.414 1.414a.5.5.0 010 .707zM4.464 4.465a.5.5.0 01-.707.0L2.343 3.05a.5.5.0 11.707-.707l1.414 1.414a.5.5.0 010 .708z"/></symbol><symbol id="eye-fill" viewBox="0 0 16 16"><path d="M10.5 8a2.5 2.5.0 11-5 0 2.5 2.5.0 015 0z"/><path d="M0 8s3-5.5 8-5.5S16 8 16 8s-3 5.5-8 5.5S0 8 0 8zm8 3.5a3.5 3.5.0 100-7 3.5 3.5.0 000 7z"/></symbol></svg>