<svg xmlns="http://www.w3.org/2000/svg" style="background:#fff" xmlns:xlink="http://www.w3.org/1999/xlink" width="852" height="401" viewBox="-.5 -.5 852 401"><defs/><g><g data-cell-id="0"><g data-cell-id="1"><g data-cell-id="Xo_b-KNdU__wuB_f66U1-1"><g/><g data-cell-id="Xo_b-KNdU__wuB_f66U1-2"><g><ellipse cx="251" cy="161" rx="39.99999999999995" ry="39.99999999999995" fill="none" stroke="#000" stroke-width="2" pointer-events="all" style="stroke:#000"/></g></g><g data-cell-id="Xo_b-KNdU__wuB_f66U1-3"><g><path d="M259.28 158.2 255.29 154.21l10.62-10.63L262.74 140.42 274.35 139.13 273.07 150.74 269.9 147.58z" fill="#4d4d4d" stroke="none" pointer-events="all" style="fill:#4d4d4d"/></g></g><g data-cell-id="Xo_b-KNdU__wuB_f66U1-4"><g><path d="M276.35 180.87 272.36 184.86l-10.63-10.62L258.57 177.41 257.28 165.8l11.61 1.28L265.73 170.25z" fill="#4d4d4d" stroke="none" pointer-events="all" style="fill:#4d4d4d"/></g></g><g data-cell-id="Xo_b-KNdU__wuB_f66U1-5"><g><path d="M240.8 163.8 244.79 167.79l-10.62 10.63L237.34 181.58 225.73 182.87l1.28-11.61L230.18 174.42z" fill="#4d4d4d" stroke="none" pointer-events="all" style="fill:#4d4d4d"/></g></g><g data-cell-id="Xo_b-KNdU__wuB_f66U1-6"><g><path d="M244.79 154.21 240.8 158.2l-10.62-10.62L227.01 150.74l-1.28-11.61L237.34 140.42 234.17 143.58z" fill="#4d4d4d" stroke="none" pointer-events="all" style="fill:#4d4d4d"/></g></g></g><g data-cell-id="Xo_b-KNdU__wuB_f66U1-7"><g/><g data-cell-id="Xo_b-KNdU__wuB_f66U1-8"><g><ellipse cx="531" cy="161" rx="39.99999999999995" ry="39.99999999999995" fill="none" stroke="#000" stroke-width="2" pointer-events="all" style="stroke:#000"/></g></g><g data-cell-id="Xo_b-KNdU__wuB_f66U1-9"><g><path d="M539.28 158.2 535.29 154.21l10.62-10.63L542.74 140.42 554.35 139.13 553.07 150.74 549.9 147.58z" fill="#4d4d4d" stroke="none" pointer-events="all" style="fill:#4d4d4d"/></g></g><g data-cell-id="Xo_b-KNdU__wuB_f66U1-10"><g><path d="M556.35 180.87 552.36 184.86l-10.63-10.62L538.57 177.41 537.28 165.8l11.61 1.28L545.73 170.25z" fill="#4d4d4d" stroke="none" pointer-events="all" style="fill:#4d4d4d"/></g></g><g data-cell-id="Xo_b-KNdU__wuB_f66U1-11"><g><path d="M520.8 163.8 524.79 167.79l-10.62 10.63L517.34 181.58 505.73 182.87 507.01 171.26 510.18 174.42z" fill="#4d4d4d" stroke="none" pointer-events="all" style="fill:#4d4d4d"/></g></g><g data-cell-id="Xo_b-KNdU__wuB_f66U1-12"><g><path d="M524.79 154.21 520.8 158.2 510.18 147.58 507.01 150.74 505.73 139.13 517.34 140.42 514.17 143.58z" fill="#4d4d4d" stroke="none" pointer-events="all" style="fill:#4d4d4d"/></g></g></g><g data-cell-id="Xo_b-KNdU__wuB_f66U1-13"><g><g><svg viewBox="0 0 71 89.6" x="60.5" y="300.5" width="71" height="90" style="font-family:initial"><g stroke-linejoin="round" stroke-width="3" stroke="#626366" fill="none"><path d="M24.3 39.242l45.2-24v48.9l-45.1 24z"/><path d="M1.5 25.442l45.2-23.9 22.8 13.7-45.2 24z"/><path d="M24.3 39.242l.1 48.9-22.9-13.7v-49z"/></g><path fill="#898b8e" d="M24.3 39.2l45.2-24v49L24.4 88.1z"/><path fill="#bbbdbf" d="M1.5 25.5l45.2-24 22.8 13.7-45.2 24z"/><path fill="#b3b5b7" d="M24.3 39.2l.1 48.9L1.5 74.4V25.5z"/><path stroke-linejoin="round" stroke-linecap="round" stroke-width=".75" stroke="#dfe0df" fill="none" d="M2.2 25.5l22.3 13.4v49"/><path fill="#fefefe" d="M21.3 49.3 4 38.9v-6.5l17.3 10.4zm0 6.2L4 45.1v-3.7l17.3 10.4zm0 19.2L4 64.3v-1.7L21.3 73zm0 3.8L4 68.1v-1.7l17.3 10.4zm0 4L4 72.1v-1.7l17.3 10.4z"/></svg>