<svg xmlns="http://www.w3.org/2000/svg" xmlns:xlink="http://www.w3.org/1999/xlink" style="background:#fff" width="852" height="401" viewBox="-.5 -.5 852 401"><defs/><g><g data-cell-id="0"><g data-cell-id="1"><g data-cell-id="Xo_b-KNdU__wuB_f66U1-1"><g data-cell-id="Xo_b-KNdU__wuB_f66U1-2"><g><ellipse cx="251" cy="161" rx="39.99999999999995" ry="39.99999999999995" fill="none" stroke="#000" stroke-width="2" pointer-events="all" style="stroke:#000"/></g></g><g data-cell-id="Xo_b-KNdU__wuB_f66U1-3"><g><path d="M259.28 158.2 255.29 154.21l10.62-10.63L262.74 140.42 274.35 139.13 273.07 150.74 269.9 147.58z" fill="#4d4d4d" stroke="none" pointer-events="all" style="fill:#4d4d4d"/></g></g><g data-cell-id="Xo_b-KNdU__wuB_f66U1-4"><g><path d="M276.35 180.87 272.36 184.86l-10.63-10.62L258.57 177.41 257.28 165.8l11.61 1.28L265.73 170.25z" fill="#4d4d4d" stroke="none" pointer-events="all" style="fill:#4d4d4d"/></g></g><g data-cell-id="Xo_b-KNdU__wuB_f66U1-5"><g><path d="M240.8 163.8 244.79 167.79l-10.62 10.63L237.34 181.58 225.73 182.87l1.28-11.61L230.18 174.42z" fill="#4d4d4d" stroke="none" pointer-events="all" style="fill:#4d4d4d"/></g></g><g data-cell-id="Xo_b-KNdU__wuB_f66U1-6"><g><path d="M244.79 154.21 240.8 158.2l-10.62-10.62L227.01 150.74l-1.28-11.61L237.34 140.42 234.17 143.58z" fill="#4d4d4d" stroke="none" pointer-events="all" style="fill:#4d4d4d"/></g></g></g><g data-cell-id="Xo_b-KNdU__wuB_f66U1-7"><g data-cell-id="Xo_b-KNdU__wuB_f66U1-8"><g><ellipse cx="531" cy="161" rx="39.99999999999995" ry="39.99999999999995" fill="none" stroke="#000" stroke-width="2" pointer-events="all" style="stroke:#000"/></g></g><g data-cell-id="Xo_b-KNdU__wuB_f66U1-9"><g><path d="M539.28 158.2 535.29 154.21l10.62-10.63L542.74 140.42 554.35 139.13 553.07 150.74 549.9 147.58z" fill="#4d4d4d" stroke="none" pointer-events="all" style="fill:#4d4d4d"/></g></g><g data-cell-id="Xo_b-KNdU__wuB_f66U1-10"><g><path d="M556.35 180.87 552.36 184.86l-10.63-10.62L538.57 177.41 537.28 165.8l11.61 1.28L545.73 170.25z" fill="#4d4d4d" stroke="none" pointer-events="all" style="fill:#4d4d4d"/></g></g><g data-cell-id="Xo_b-KNdU__wuB_f66U1-11"><g><path d="M520.8 163.8 524.79 167.79l-10.62 10.63L517.34 181.58 505.73 182.87 507.01 171.26 510.18 174.42z" fill="#4d4d4d" stroke="none" pointer-events="all" style="fill:#4d4d4d"/></g></g><g data-cell-id="Xo_b-KNdU__wuB_f66U1-12"><g><path d="M524.79 154.21 520.8 158.2 510.18 147.58 507.01 150.74 505.73 139.13 517.34 140.42 514.17 143.58z" fill="#4d4d4d" stroke="none" pointer-events="all" style="fill:#4d4d4d"/></g></g></g><g data-cell-id="Xo_b-KNdU__wuB_f66U1-13"><g><g><svg viewBox="0 0 71 89.6" x="60.5" y="300.5" width="71" height="90" style="font-family:initial"><g stroke-linejoin="round" stroke-width="3" stroke="#626366" fill="none"><path d="M24.3 39.242l45.2-24v48.9l-45.1 24z"/><path d="M1.5 25.442l45.2-23.9 22.8 13.7-45.2 24z"/><path d="M24.3 39.242l.1 48.9-22.9-13.7v-49z"/></g><path fill="#898b8e" d="M24.3 39.2l45.2-24v49L24.4 88.1z"/><path fill="#bbbdbf" d="M1.5 25.5l45.2-24 22.8 13.7-45.2 24z"/><path fill="#b3b5b7" d="M24.3 39.2l.1 48.9L1.5 74.4V25.5z"/><path stroke-linejoin="round" stroke-linecap="round" stroke-width=".75" stroke="#dfe0df" fill="none" d="M2.2 25.5l22.3 13.4v49"/><path fill="#fefefe" d="M21.3 49.3 4 38.9v-6.5l17.3 10.4zm0 6.2L4 45.1v-3.7l17.3 10.4zm0 19.2L4 64.3v-1.7L21.3 73zm0 3.8L4 68.1v-1.7l17.3 10.4zm0 4L4 72.1v-1.7l17.3 10.4z"/></svg></g></g></g><g data-cell-id="Xo_b-KNdU__wuB_f66U1-14"><g><path d="M 31 21 C 7 21 1 41 20.2 45 C 1 53.8 22.6 73 38.2 65 C 49 81 85 81 97 65 C 121 65 121 49 106 41 C 121 25 97 9 76 17 C 61 5 37 5 31 21 Z" fill="none" stroke="#000000" stroke-width="2" stroke-miterlimit="10" pointer-events="all" style="stroke: rgb(0, 0, 0);"/></g><g><g transform="translate(-0.5 -0.5)"><text x="25" y="37.5" font-size="16" font-family="Helvetica,sans-serif" fill="#000">互联网</text></g></g></g><g data-cell-id="Xo_b-KNdU__wuB_f66U1-15"><g><ellipse cx="791" cy="81" rx="60" ry="40" fill="none" stroke="#000000" stroke-width="2" pointer-events="all" style="stroke: rgb(0, 0, 0);"/></g><g><g transform="translate(-0.5 -0.5)"><text x="754" y="77.5" font-size="16" font-family="Helvetica,sans-serif" fill="#000">局域网1</text></g></g></g><g data-cell-id="Xo_b-KNdU__wuB_f66U1-16"><g><ellipse cx="791" cy="241" rx="60" ry="40" fill="none" stroke="#000000" stroke-width="2" pointer-events="all" style="stroke: rgb(0, 0, 0);"/></g><g><g transform="translate(-0.5 -0.5)"><text x="755" y="240.5" font-size="16" font-family="Helvetica,sans-serif" fill="#000">局域网2</text></g></g></g><g data-cell-id="Xo_b-KNdU__wuB_f66U1-17"><g><path d="M 291 161 L 491 161" fill="none" stroke="#000000" stroke-width="2" stroke-miterlimit="10" pointer-events="stroke" style="stroke: rgb(0, 0, 0);"/></g></g><g data-cell-id="Xo_b-KNdU__wuB_f66U1-18"><g><path d="M 561.32 133.88 L 561.3 81 L 731 81" fill="none" stroke="#000000" stroke-width="2" stroke-miterlimit="10" pointer-events="stroke" style="stroke: rgb(0, 0, 0);"/></g></g><g data-cell-id="Xo_b-KNdU__wuB_f66U1-19"><g><path d="M 561.08 187.48 L 561.1 191 L 561 241 L 731 241" fill="none" stroke="#000000" stroke-width="2" stroke-miterlimit="10" pointer-events="stroke" style="stroke: rgb(0, 0, 0);"/></g></g><g data-cell-id="Xo_b-KNdU__wuB_f66U1-20"><g><rect x="511" y="81" width="40" height="40" fill="none" stroke="none" pointer-events="all"/></g><g><g transform="translate(-0.5 -0.5)"><text x="512" y="110.5" font-size="16" font-family="Helvetica,sans-serif" fill="#000">R1</text></g></g></g><g data-cell-id="Xo_b-KNdU__wuB_f66U1-21"><g><rect x="231" y="81" width="40" height="40" fill="none" stroke="none" pointer-events="all"/></g><g><g transform="translate(-0.5 -0.5)"><text x="232" y="110.5" font-size="16" font-family="Helvetica,sans-serif" fill="#000">R2</text></g></g></g><g data-cell-id="Xo_b-KNdU__wuB_f66U1-22"><g><rect x="291" y="121" width="110" height="40" fill="none" stroke="none" pointer-events="all"/></g><g><g transform="translate(-0.5 -0.5)"><text x="292" y="150.5" font-size="16" font-family="Helvetica,sans-serif" fill="#000">202.118.2.2</text></g></g></g><g data-cell-id="Xo_b-KNdU__wuB_f66U1-23"><g><rect x="381" y="161" width="110" height="40" fill="none" stroke="none" pointer-events="all"/></g><g><g transform="translate(-0.5 -0.5)"><text x="382" y="190.5" font-size="16" font-family="Helvetica,sans-serif" fill="#000">202.118.2.1</text></g></g></g><g data-cell-id="Xo_b-KNdU__wuB_f66U1-24"><g><rect x="321" y="91" width="40" height="40" fill="none" stroke="none" pointer-events="all"/></g><g><g transform="translate(-0.5 -0.5)"><text x="322" y="120.5" font-size="16" font-family="Helvetica,sans-serif" fill="#000">L0</text></g></g></g><g data-cell-id="Xo_b-KNdU__wuB_f66U1-25"><g><rect x="421" y="191" width="40" height="40" fill="none" stroke="none" pointer-events="all"/></g><g><g transform="translate(-0.5 -0.5)"><text x="422" y="220.5" font-size="16" font-family="Helvetica,sans-serif" fill="#000">L0</text></g></g></g><g data-cell-id="Xo_b-KNdU__wuB_f66U1-26"><g><rect x="591" y="41" width="40" height="40" fill="none" stroke="none" pointer-events="all"/></g><g><g transform="translate(-0.5 -0.5)"><text x="592" y="70.5" font-size="16" font-family="Helvetica,sans-serif" fill="#000">E1</text></g></g></g><g data-cell-id="Xo_b-KNdU__wuB_f66U1-27"><g><rect x="591" y="241" width="40" height="40" fill="none" stroke="none" pointer-events="all"/></g><g><g transform="translate(-0.5 -0.5)"><text x="592" y="270.5" font-size="16" font-family="Helvetica,sans-serif" fill="#000">E2</text></g></g></g><g data-cell-id="Xo_b-KNdU__wuB_f66U1-28"><g><path d="M 251 201 L 251 350 L 132.99 349.96" fill="none" stroke="#000000" stroke-width="2" stroke-miterlimit="10" pointer-events="stroke" style="stroke: rgb(0, 0, 0);"/></g></g><g data-cell-id="Xo_b-KNdU__wuB_f66U1-29"><g><rect x="141" y="231" width="110" height="40" fill="none" stroke="none" pointer-events="all"/></g><g><g transform="translate(-0.5 -0.5)"><text x="142" y="260.5" font-size="16" font-family="Helvetica,sans-serif" fill="#000">202.118.3.1</text></g></g></g><g data-cell-id="Xo_b-KNdU__wuB_f66U1-30"><g><rect x="200" y="201" width="40" height="40" fill="none" stroke="none" pointer-events="all"/></g><g><g transform="translate(-0.5 -0.5)"><text x="201" y="230.5" font-size="16" font-family="Helvetica,sans-serif" fill="#000">E0</text></g></g></g><g data-cell-id="Xo_b-KNdU__wuB_f66U1-31"><g><path d="M 211 161 L 67 161 L 67 77" fill="none" stroke="#000000" stroke-width="2" stroke-miterlimit="10" pointer-events="stroke" style="stroke: rgb(0, 0, 0);"/></g></g><g data-cell-id="Xo_b-KNdU__wuB_f66U1-32"><g><rect x="160" y="121" width="40" height="40" fill="none" stroke="none" pointer-events="all"/></g><g><g transform="translate(-0.5 -0.5)"><text x="161" y="150.5" font-size="16" font-family="Helvetica,sans-serif" fill="#000">L1</text></g></g></g><g data-cell-id="Xo_b-KNdU__wuB_f66U1-33"><g><rect x="90" y="161" width="110" height="40" fill="none" stroke="none" pointer-events="all"/></g><g><g transform="translate(-0.5 -0.5)"><text x="91" y="190.5" font-size="16" font-family="Helvetica,sans-serif" fill="#000">130.11.120.1</text></g></g></g><g data-cell-id="Xo_b-KNdU__wuB_f66U1-34"><g><rect x="130" y="361" width="110" height="40" fill="none" stroke="none" pointer-events="all"/></g><g><g transform="translate(-0.5 -0.5)"><text x="131" y="390.5" font-size="16" font-family="Helvetica,sans-serif" fill="#000">202.118.3.2</text></g></g></g><g data-cell-id="Xo_b-KNdU__wuB_f66U1-35"><g><rect x="31" y="261" width="120" height="40" fill="none" stroke="none" pointer-events="all"/></g><g><g transform="translate(-0.5 -0.5)"><text x="32" y="290.5" font-size="16" font-family="Helvetica,sans-serif" fill="#000">域名服务器</text></g></g></g></g></g></g></svg>