<svg xmlns="http://www.w3.org/2000/svg" xmlns:xlink="http://www.w3.org/1999/xlink" width="280" height="202" viewBox="-.5 -.5 280 202"><defs/><g><g data-cell-id="0"><g data-cell-id="1"><g data-cell-id="JuslJlzzL3SflJHKE-Zb-2"><g><ellipse cx="140" cy="100" rx="100" ry="100" fill="none" stroke="rgb(0, 0, 0)" pointer-events="all"/></g></g><g data-cell-id="JuslJlzzL3SflJHKE-Zb-1"><g><ellipse cx="140" cy="100" rx="60" ry="60" fill="none" stroke="rgb(0, 0, 0)" pointer-events="all"/></g></g><g data-cell-id="JuslJlzzL3SflJHKE-Zb-3"><g><path d="M140 40V0" fill="none" stroke="rgb(0, 0, 0)" stroke-miterlimit="10" pointer-events="stroke"/></g></g><g data-cell-id="JuslJlzzL3SflJHKE-Zb-4"><g><path d="M2e2 1e2h40" fill="none" stroke="rgb(0, 0, 0)" stroke-miterlimit="10" pointer-events="stroke"/></g></g><g data-cell-id="JuslJlzzL3SflJHKE-Zb-5"><g><path d="M140 160v40" fill="none" stroke="rgb(0, 0, 0)" stroke-miterlimit="10" pointer-events="stroke"/></g></g><g data-cell-id="JuslJlzzL3SflJHKE-Zb-6"><g><path d="M40 1e2H80" fill="none" stroke="rgb(0, 0, 0)" stroke-miterlimit="10" pointer-events="stroke"/></g></g><g data-cell-id="JuslJlzzL3SflJHKE-Zb-7"><g><rect x="160" y="20" width="50" height="30" fill="none" stroke="none" pointer-events="all"/></g><g><g transform="translate(-0.5 -0.5)"><text x="161" y="48.5" font-size="16" font-family="Helvetica,sans-serif" fill="#000">2号页</text></g></g></g><g data-cell-id="JuslJlzzL3SflJHKE-Zb-8"><g><rect x="70" y="20" width="50" height="30" fill="none" stroke="none" pointer-events="all"/></g><g><g transform="translate(-0.5 -0.5)"><text x="71" y="48.5" font-size="16" font-family="Helvetica,sans-serif" fill="#000">3号页</text></g></g></g><g data-cell-id="JuslJlzzL3SflJHKE-Zb-9"><g><rect x="70" y="150" width="50" height="30" fill="none" stroke="none" pointer-events="all"/></g><g><g transform="translate(-0.5 -0.5)"><text x="71" y="178.5" font-size="16" font-family="Helvetica,sans-serif" fill="#000">0号页</text></g></g></g><g data-cell-id="JuslJlzzL3SflJHKE-Zb-10"><g><rect x="160" y="150" width="50" height="30" fill="none" stroke="none" pointer-events="all"/></g><g><g transform="translate(-0.5 -0.5)"><text x="161" y="178.5" font-size="16" font-family="Helvetica,sans-serif" fill="#000">1号页</text></g></g></g><g data-cell-id="JuslJlzzL3SflJHKE-Zb-11"><g><rect x="210" y="10" width="70" height="30" fill="none" stroke="none" pointer-events="all"/></g><g><g transform="translate(-0.5 -0.5)"><text x="211" y="38.5" font-size="16" font-family="Helvetica,sans-serif" fill="#000">2号页框</text></g></g></g><g data-cell-id="JuslJlzzL3SflJHKE-Zb-13"><g><rect x="210" y="160" width="70" height="30" fill="none" stroke="none" pointer-events="all"/></g><g><g transform="translate(-0.5 -0.5)"><text x="211" y="188.5" font-size="16" font-family="Helvetica,sans-serif" fill="#000">4号页框</text></g></g></g><g data-cell-id="JuslJlzzL3SflJHKE-Zb-14"><g><rect x="0" y="160" width="70" height="30" fill="none" stroke="none" pointer-events="all"/></g><g><g transform="translate(-0.5 -0.5)"><text x="1" y="188.5" font-size="16" font-family="Helvetica,sans-serif" fill="#000">7号页框</text></g></g></g><g data-cell-id="JuslJlzzL3SflJHKE-Zb-15"><g><rect x="0" y="10" width="70" height="30" fill="none" stroke="none" pointer-events="all"/></g><g><g transform="translate(-0.5 -0.5)"><text x="1" y="38.5" font-size="16" font-family="Helvetica,sans-serif" fill="#000">9号页框</text></g></g></g><g data-cell-id="JuslJlzzL3SflJHKE-Zb-16"><g><path d="M140 80l17-31.88" fill="none" stroke="rgb(0, 0, 0)" stroke-miterlimit="10" pointer-events="stroke"/><path d="M159.47 43.49 159.27 51.31 157 48.12 153.09 48.02z" fill="rgb(0, 0, 0)" stroke="rgb(0, 0, 0)" stroke-miterlimit="10" pointer-events="all"/></g></g></g></g></g></svg>