<svg xmlns="http://www.w3.org/2000/svg" xmlns:xlink="http://www.w3.org/1999/xlink" width="630" height="228" viewBox="-.5 -.5 630 228"><defs/><g><g data-cell-id="0"><g data-cell-id="1"><g data-cell-id="D7WDZmanfSiTXSl6VD-A-2"><g/><g data-cell-id="D7WDZmanfSiTXSl6VD-A-3"><g><rect x="5" y="17" width="70" height="46.67" fill="none" stroke="#666" stroke-width="2" pointer-events="all"/></g></g><g data-cell-id="D7WDZmanfSiTXSl6VD-A-4"><g><rect x="26" y="63.67" width="28" height="6.67" fill="none" stroke="#666" stroke-width="2" pointer-events="all"/></g></g><g data-cell-id="D7WDZmanfSiTXSl6VD-A-5"><g><path d="M8.5 77l15-6.67h33L71.5 77z" fill="rgb(255, 255, 255)" stroke="#666" stroke-width="2" stroke-miterlimit="10" pointer-events="all"/></g></g><g data-cell-id="D7WDZmanfSiTXSl6VD-A-6"><g><path d="M16 73.67H64" fill="none" stroke="#666" stroke-width="2" stroke-miterlimit="10" pointer-events="stroke"/></g></g></g><g data-cell-id="D7WDZmanfSiTXSl6VD-A-7"><g><path d="M195 15.33c0-8.28 13.43-15 30-15C232.96.33 240.59 1.91 246.21 4.72 251.84 7.54 255 11.35 255 15.33v50c0 8.28-13.43 15-30 15s-30-6.72-30-15z" fill="none" stroke="rgb(0, 0, 0)" stroke-miterlimit="10" pointer-events="all"/><path d="M255 15.33c0 8.28-13.43 15-30 15s-30-6.72-30-15" fill="none" stroke="rgb(0, 0, 0)" stroke-miterlimit="10" pointer-events="all"/></g></g><g data-cell-id="D7WDZmanfSiTXSl6VD-A-8"><g><path d="M375 15.33c0-8.28 13.43-15 30-15C412.96.33 420.59 1.91 426.21 4.72 431.84 7.54 435 11.35 435 15.33v50c0 8.28-13.43 15-30 15s-30-6.72-30-15z" fill="none" stroke="rgb(0, 0, 0)" stroke-miterlimit="10" pointer-events="all"/><path d="M435 15.33c0 8.28-13.43 15-30 15s-30-6.72-30-15" fill="none" stroke="rgb(0, 0, 0)" stroke-miterlimit="10" pointer-events="all"/></g></g><g data-cell-id="D7WDZmanfSiTXSl6VD-A-9"><g><path d="M285 162c0-8.28 13.43-15 30-15C322.96 147 330.59 148.58 336.21 151.39 341.84 154.21 345 158.02 345 162v50c0 8.28-13.43 15-30 15s-30-6.72-30-15z" fill="none" stroke="rgb(0, 0, 0)" stroke-miterlimit="10" pointer-events="all"/><path d="M345 162c0 8.28-13.43 15-30 15s-30-6.72-30-15" fill="none" stroke="rgb(0, 0, 0)" stroke-miterlimit="10" pointer-events="all"/></g></g><g data-cell-id="D7WDZmanfSiTXSl6VD-A-10"><g/><g data-cell-id="D7WDZmanfSiTXSl6VD-A-11"><g><rect x="555" y="17" width="70" height="46.67" fill="none" stroke="#666" stroke-width="2" pointer-events="all"/></g></g><g data-cell-id="D7WDZmanfSiTXSl6VD-A-12"><g><rect x="576" y="63.67" width="28" height="6.67" fill="none" stroke="#666" stroke-width="2" pointer-events="all"/></g></g><g data-cell-id="D7WDZmanfSiTXSl6VD-A-13"><g><path d="M558.5 77l15-6.67h33l15 6.67z" fill="rgb(255, 255, 255)" stroke="#666" stroke-width="2" stroke-miterlimit="10" pointer-events="all"/></g></g><g data-cell-id="D7WDZmanfSiTXSl6VD-A-14"><g><path d="M566 73.67h48" fill="none" stroke="#666" stroke-width="2" stroke-miterlimit="10" pointer-events="stroke"/></g></g></g><g data-cell-id="D7WDZmanfSiTXSl6VD-A-15"><g><path d="M75 40.33H195" fill="none" stroke="rgb(0, 0, 0)" stroke-miterlimit="10" pointer-events="stroke"/></g></g><g data-cell-id="D7WDZmanfSiTXSl6VD-A-16"><g><path d="M255 40.33H375" fill="none" stroke="rgb(0, 0, 0)" stroke-miterlimit="10" pointer-events="stroke"/></g></g><g data-cell-id="D7WDZmanfSiTXSl6VD-A-17"><g><path d="M435 40.33H555" fill="none" stroke="rgb(0, 0, 0)" stroke-miterlimit="10" pointer-events="stroke"/></g></g><g data-cell-id="D7WDZmanfSiTXSl6VD-A-18"><g><path d="M225 80.33 285 187" fill="none" stroke="rgb(0, 0, 0)" stroke-miterlimit="10" pointer-events="stroke"/></g></g><g data-cell-id="D7WDZmanfSiTXSl6VD-A-19"><g><path d="M405 80.33 345 187" fill="none" stroke="rgb(0, 0, 0)" stroke-miterlimit="10" pointer-events="stroke"/></g></g><g data-cell-id="D7WDZmanfSiTXSl6VD-A-20"><g><rect x="0" y="87" width="80" height="40" fill="none" stroke="none" pointer-events="all"/></g><g><g transform="translate(-0.5 -0.5)"><text x="1" y="116.5" font-size="16" font-family="Helvetica,sans-serif" fill="#000">H1</text></g></g></g><g data-cell-id="D7WDZmanfSiTXSl6VD-A-21"><g><rect x="550" y="87" width="80" height="40" fill="none" stroke="none" pointer-events="all"/></g><g><g transform="translate(-0.5 -0.5)"><text x="551" y="116.5" font-size="16" font-family="Helvetica,sans-serif" fill="#000">H2</text></g></g></g></g></g></g></svg>