<svg xmlns="http://www.w3.org/2000/svg" xmlns:xlink="http://www.w3.org/1999/xlink" width="710" height="632" viewBox="-.5 -.5 710 632"><defs/><g><g data-cell-id="0"><g data-cell-id="1"><g data-cell-id="H8w2xEFiicBI_iHvvn9q-1"><g><path d="M65 20C41 20 35 40 54.2 44c-19.2 8.8 2.4 28 18 20C83 80 119 80 131 64c24 0 24-16 9-24 15-16-9-32-30-24C95 4 71 4 65 20z" fill="none" stroke="rgb(0, 0, 0)" stroke-miterlimit="10" pointer-events="all"/></g><g><g transform="translate(-0.5 -0.5)"><text x="36" y="49.5" font-size="16" font-family="Helvetica,sans-serif" fill="#000">Internet</text></g></g></g><g data-cell-id="H8w2xEFiicBI_iHvvn9q-2"><g/><g data-cell-id="H8w2xEFiicBI_iHvvn9q-3"><g><ellipse cx="355" cy="40" rx="39.99999999999995" ry="39.99999999999995" fill="none" stroke="rgb(0, 0, 0)" pointer-events="all"/></g></g><g data-cell-id="H8w2xEFiicBI_iHvvn9q-4"><g><path d="M363.28 37.2 359.29 33.21l10.62-10.63L366.74 19.42l11.61-1.29L377.07 29.74 373.9 26.58z" fill="#4d4d4d" stroke="none" pointer-events="all"/></g></g><g data-cell-id="H8w2xEFiicBI_iHvvn9q-5"><g><path d="M380.35 59.87 376.36 63.86 365.73 53.24 362.57 56.41 361.28 44.8l11.61 1.28L369.73 49.25z" fill="#4d4d4d" stroke="none" pointer-events="all"/></g></g><g data-cell-id="H8w2xEFiicBI_iHvvn9q-6"><g><path d="M344.8 42.8 348.79 46.79 338.17 57.42 341.34 60.58l-11.61 1.29L331.01 50.26 334.18 53.42z" fill="#4d4d4d" stroke="none" pointer-events="all"/></g></g><g data-cell-id="H8w2xEFiicBI_iHvvn9q-7"><g><path d="M348.79 33.21 344.8 37.2 334.18 26.58 331.01 29.74 329.73 18.13l11.61 1.29L338.17 22.58z" fill="#4d4d4d" stroke="none" pointer-events="all"/></g></g></g><g data-cell-id="H8w2xEFiicBI_iHvvn9q-40"><g><path d="M315 2e2H155v80" fill="none" stroke="rgb(0, 0, 0)" stroke-miterlimit="10" pointer-events="stroke"/></g></g><g data-cell-id="H8w2xEFiicBI_iHvvn9q-41"><g><path d="M395 2e2H555v80" fill="none" stroke="rgb(0, 0, 0)" stroke-miterlimit="10" pointer-events="stroke"/></g></g><g data-cell-id="H8w2xEFiicBI_iHvvn9q-8"><g><rect x="315" y="160" width="80" height="80" fill="none" stroke="rgb(0, 0, 0)" pointer-events="all"/></g><g><g transform="translate(-0.5 -0.5)"><text x="316" y="209.5" font-size="16" font-family="Helvetica,sans-serif" fill="#000">设备 1</text></g></g></g><g data-cell-id="H8w2xEFiicBI_iHvvn9q-36"><g><path d="M155 360v40H80v40" fill="none" stroke="rgb(0, 0, 0)" stroke-miterlimit="10" pointer-events="stroke"/></g></g><g data-cell-id="H8w2xEFiicBI_iHvvn9q-37"><g><path d="M155 360v40h75v40" fill="none" stroke="rgb(0, 0, 0)" stroke-miterlimit="10" pointer-events="stroke"/></g></g><g data-cell-id="H8w2xEFiicBI_iHvvn9q-9"><g><rect x="115" y="280" width="80" height="80" fill="none" stroke="rgb(0, 0, 0)" pointer-events="all"/></g><g><g transform="translate(-0.5 -0.5)"><text x="116" y="329.5" font-size="16" font-family="Helvetica,sans-serif" fill="#000">设备 2</text></g></g></g><g data-cell-id="H8w2xEFiicBI_iHvvn9q-38"><g><path d="M555 360v40H480v40" fill="none" stroke="rgb(0, 0, 0)" stroke-miterlimit="10" pointer-events="stroke"/></g></g><g data-cell-id="H8w2xEFiicBI_iHvvn9q-39"><g><path d="M555 360v40h75v40" fill="none" stroke="rgb(0, 0, 0)" stroke-miterlimit="10" pointer-events="stroke"/></g></g><g data-cell-id="H8w2xEFiicBI_iHvvn9q-10"><g><rect x="515" y="280" width="80" height="80" fill="none" stroke="rgb(0, 0, 0)" pointer-events="all"/></g><g><g transform="translate(-0.5 -0.5)"><text x="516" y="329.5" font-size="16" font-family="Helvetica,sans-serif" fill="#000">设备 3</text></g></g></g><g data-cell-id="H8w2xEFiicBI_iHvvn9q-11"><g/><g data-cell-id="H8w2xEFiicBI_iHvvn9q-12"><g><rect x="45" y="440" width="70" height="46.67" fill="none" stroke="#666" stroke-width="2" pointer-events="all"/></g></g><g data-cell-id="H8w2xEFiicBI_iHvvn9q-13"><g><rect x="66" y="486.67" width="28" height="6.67" fill="none" stroke="#666" stroke-width="2" pointer-events="all"/></g></g><g data-cell-id="H8w2xEFiicBI_iHvvn9q-14"><g><path d="M48.5 5e2 63.5 493.33h33L111.5 5e2z" fill="rgb(255, 255, 255)" stroke="#666" stroke-width="2" stroke-miterlimit="10" pointer-events="all"/></g></g><g data-cell-id="H8w2xEFiicBI_iHvvn9q-15"><g><path d="M56 496.67h48" fill="none" stroke="#666" stroke-width="2" stroke-miterlimit="10" pointer-events="stroke"/></g></g></g><g data-cell-id="H8w2xEFiicBI_iHvvn9q-16"><g/><g data-cell-id="H8w2xEFiicBI_iHvvn9q-17"><g><rect x="195" y="440" width="70" height="46.67" fill="none" stroke="#666" stroke-width="2" pointer-events="all"/></g></g><g data-cell-id="H8w2xEFiicBI_iHvvn9q-18"><g><rect x="216" y="486.67" width="28" height="6.67" fill="none" stroke="#666" stroke-width="2" pointer-events="all"/></g></g><g data-cell-id="H8w2xEFiicBI_iHvvn9q-19"><g><path d="M198.5 5e2 213.5 493.33h33L261.5 5e2z" fill="rgb(255, 255, 255)" stroke="#666" stroke-width="2" stroke-miterlimit="10" pointer-events="all"/></g></g><g data-cell-id="H8w2xEFiicBI_iHvvn9q-20"><g><path d="M206 496.67h48" fill="none" stroke="#666" stroke-width="2" stroke-miterlimit="10" pointer-events="stroke"/></g></g></g><g data-cell-id="H8w2xEFiicBI_iHvvn9q-26"><g/><g data-cell-id="H8w2xEFiicBI_iHvvn9q-27"><g><rect x="445" y="440" width="70" height="46.67" fill="none" stroke="#666" stroke-width="2" pointer-events="all"/></g></g><g data-cell-id="H8w2xEFiicBI_iHvvn9q-28"><g><rect x="466" y="486.67" width="28" height="6.67" fill="none" stroke="#666" stroke-width="2" pointer-events="all"/></g></g><g data-cell-id="H8w2xEFiicBI_iHvvn9q-29"><g><path d="M448.5 5e2 463.5 493.33h33L511.5 5e2z" fill="rgb(255, 255, 255)" stroke="#666" stroke-width="2" stroke-miterlimit="10" pointer-events="all"/></g></g><g data-cell-id="H8w2xEFiicBI_iHvvn9q-30"><g><path d="M456 496.67h48" fill="none" stroke="#666" stroke-width="2" stroke-miterlimit="10" pointer-events="stroke"/></g></g></g><g data-cell-id="H8w2xEFiicBI_iHvvn9q-31"><g/><g data-cell-id="H8w2xEFiicBI_iHvvn9q-32"><g><rect x="595" y="440" width="70" height="46.67" fill="none" stroke="#666" stroke-width="2" pointer-events="all"/></g></g><g data-cell-id="H8w2xEFiicBI_iHvvn9q-33"><g><rect x="616" y="486.67" width="28" height="6.67" fill="none" stroke="#666" stroke-width="2" pointer-events="all"/></g></g><g data-cell-id="H8w2xEFiicBI_iHvvn9q-34"><g><path d="M598.5 5e2 613.5 493.33h33L661.5 5e2z" fill="rgb(255, 255, 255)" stroke="#666" stroke-width="2" stroke-miterlimit="10" pointer-events="all"/></g></g><g data-cell-id="H8w2xEFiicBI_iHvvn9q-35"><g><path d="M606 496.67h48" fill="none" stroke="#666" stroke-width="2" stroke-miterlimit="10" pointer-events="stroke"/></g></g></g><g data-cell-id="H8w2xEFiicBI_iHvvn9q-42"><g><path d="M355 80v80" fill="none" stroke="rgb(0, 0, 0)" stroke-miterlimit="10" pointer-events="stroke"/></g></g><g data-cell-id="H8w2xEFiicBI_iHvvn9q-43"><g><path d="M315 40H140" fill="none" stroke="rgb(0, 0, 0)" stroke-miterlimit="10" pointer-events="stroke"/></g></g><g data-cell-id="H8w2xEFiicBI_iHvvn9q-44"><g><rect x="205" y="0" width="100" height="40" fill="none" stroke="none" pointer-events="all"/></g><g><g transform="translate(-0.5 -0.5)"><text x="206" y="29.5" font-size="16" font-family="Helvetica,sans-serif" fill="#000">101.1.2.10</text></g></g></g><g data-cell-id="H8w2xEFiicBI_iHvvn9q-45"><g><rect x="355" y="80" width="160" height="40" fill="none" stroke="none" pointer-events="all"/></g><g><g transform="translate(-0.5 -0.5)"><text x="356" y="109.5" font-size="16" font-family="Helvetica,sans-serif" fill="#000">192.168.1.253/30</text></g></g></g><g data-cell-id="H8w2xEFiicBI_iHvvn9q-46"><g><rect x="355" y="120" width="40" height="40" fill="none" stroke="none" pointer-events="all"/></g><g><g transform="translate(-0.5 -0.5)"><text x="356" y="149.5" font-size="16" font-family="Helvetica,sans-serif" fill="#000">IF1</text></g></g></g><g data-cell-id="H8w2xEFiicBI_iHvvn9q-47"><g><rect x="275" y="160" width="40" height="40" fill="none" stroke="none" pointer-events="all"/></g><g><g transform="translate(-0.5 -0.5)"><text x="276" y="189.5" font-size="16" font-family="Helvetica,sans-serif" fill="#000">IF2</text></g></g></g><g data-cell-id="H8w2xEFiicBI_iHvvn9q-48"><g><rect x="395" y="160" width="40" height="40" fill="none" stroke="none" pointer-events="all"/></g><g><g transform="translate(-0.5 -0.5)"><text x="396" y="189.5" font-size="16" font-family="Helvetica,sans-serif" fill="#000">IF3</text></g></g></g><g data-cell-id="H8w2xEFiicBI_iHvvn9q-49"><g><rect x="155" y="240" width="40" height="40" fill="none" stroke="none" pointer-events="all"/></g><g><g transform="translate(-0.5 -0.5)"><text x="156" y="269.5" font-size="16" font-family="Helvetica,sans-serif" fill="#000">IF1</text></g></g></g><g data-cell-id="H8w2xEFiicBI_iHvvn9q-50"><g><rect x="75" y="280" width="40" height="40" fill="none" stroke="none" pointer-events="all"/></g><g><g transform="translate(-0.5 -0.5)"><text x="76" y="309.5" font-size="16" font-family="Helvetica,sans-serif" fill="#000">IF2</text></g></g></g><g data-cell-id="H8w2xEFiicBI_iHvvn9q-51"><g><rect x="195" y="280" width="40" height="40" fill="none" stroke="none" pointer-events="all"/></g><g><g transform="translate(-0.5 -0.5)"><text x="196" y="309.5" font-size="16" font-family="Helvetica,sans-serif" fill="#000">IF3</text></g></g></g><g data-cell-id="H8w2xEFiicBI_iHvvn9q-52"><g><rect x="555" y="240" width="40" height="40" fill="none" stroke="none" pointer-events="all"/></g><g><g transform="translate(-0.5 -0.5)"><text x="556" y="269.5" font-size="16" font-family="Helvetica,sans-serif" fill="#000">IF1</text></g></g></g><g data-cell-id="H8w2xEFiicBI_iHvvn9q-53"><g><rect x="475" y="280" width="40" height="40" fill="none" stroke="none" pointer-events="all"/></g><g><g transform="translate(-0.5 -0.5)"><text x="476" y="309.5" font-size="16" font-family="Helvetica,sans-serif" fill="#000">IF2</text></g></g></g><g data-cell-id="H8w2xEFiicBI_iHvvn9q-54"><g><rect x="595" y="280" width="40" height="40" fill="none" stroke="none" pointer-events="all"/></g><g><g transform="translate(-0.5 -0.5)"><text x="596" y="309.5" font-size="16" font-family="Helvetica,sans-serif" fill="#000">IF3</text></g></g></g><g data-cell-id="H8w2xEFiicBI_iHvvn9q-55"><g><rect x="115" y="440" width="40" height="40" fill="none" stroke="none" pointer-events="all"/></g><g><g transform="translate(-0.5 -0.5)"><text x="116" y="469.5" font-size="16" font-family="Helvetica,sans-serif" fill="#000">H1</text></g></g></g><g data-cell-id="H8w2xEFiicBI_iHvvn9q-56"><g><rect x="265" y="440" width="40" height="40" fill="none" stroke="none" pointer-events="all"/></g><g><g transform="translate(-0.5 -0.5)"><text x="266" y="469.5" font-size="16" font-family="Helvetica,sans-serif" fill="#000">H2</text></g></g></g><g data-cell-id="H8w2xEFiicBI_iHvvn9q-57"><g><rect x="515" y="440" width="40" height="40" fill="none" stroke="none" pointer-events="all"/></g><g><g transform="translate(-0.5 -0.5)"><text x="516" y="469.5" font-size="16" font-family="Helvetica,sans-serif" fill="#000">H3</text></g></g></g><g data-cell-id="H8w2xEFiicBI_iHvvn9q-58"><g><rect x="665" y="440" width="40" height="40" fill="none" stroke="none" pointer-events="all"/></g><g><g transform="translate(-0.5 -0.5)"><text x="666" y="469.5" font-size="16" font-family="Helvetica,sans-serif" fill="#000">H4</text></g></g></g><g data-cell-id="H8w2xEFiicBI_iHvvn9q-59"><g><rect x="0" y="530" width="160" height="40" fill="none" stroke="none" pointer-events="all"/></g><g><g transform="translate(-0.5 -0.5)"><text x="1" y="549" font-size="16" font-family="Helvetica,sans-serif" fill="#000">IP 地址：</text></g></g></g><g data-cell-id="H8w2xEFiicBI_iHvvn9q-60"><g><rect x="0" y="590" width="160" height="40" fill="none" stroke="none" pointer-events="all"/></g><g><g transform="translate(-0.5 -0.5)"><text x="1" y="609" font-size="16" font-family="Helvetica,sans-serif" fill="#000">默认网关：</text></g></g></g><g data-cell-id="H8w2xEFiicBI_iHvvn9q-61"><g><rect x="155" y="530" width="160" height="40" fill="none" stroke="none" pointer-events="all"/></g><g><g transform="translate(-0.5 -0.5)"><text x="156" y="549" font-size="16" font-family="Helvetica,sans-serif" fill="#000">IP 地址：</text></g></g></g><g data-cell-id="H8w2xEFiicBI_iHvvn9q-62"><g><rect x="155" y="590" width="160" height="40" fill="none" stroke="none" pointer-events="all"/></g><g><g transform="translate(-0.5 -0.5)"><text x="156" y="609" font-size="16" font-family="Helvetica,sans-serif" fill="#000">默认网关：</text></g></g></g><g data-cell-id="H8w2xEFiicBI_iHvvn9q-69"><g><rect x="395" y="530" width="160" height="40" fill="none" stroke="none" pointer-events="all"/></g><g><g transform="translate(-0.5 -0.5)"><text x="396" y="549" font-size="16" font-family="Helvetica,sans-serif" fill="#000">IP 地址：</text></g></g></g><g data-cell-id="H8w2xEFiicBI_iHvvn9q-70"><g><rect x="395" y="590" width="160" height="40" fill="none" stroke="none" pointer-events="all"/></g><g><g transform="translate(-0.5 -0.5)"><text x="396" y="609" font-size="16" font-family="Helvetica,sans-serif" fill="#000">默认网关：</text></g></g></g><g data-cell-id="H8w2xEFiicBI_iHvvn9q-71"><g><rect x="550" y="530" width="160" height="40" fill="none" stroke="none" pointer-events="all"/></g><g><g transform="translate(-0.5 -0.5)"><text x="551" y="549" font-size="16" font-family="Helvetica,sans-serif" fill="#000">IP 地址：</text></g></g></g><g data-cell-id="H8w2xEFiicBI_iHvvn9q-72"><g><rect x="550" y="590" width="160" height="40" fill="none" stroke="none" pointer-events="all"/></g><g><g transform="translate(-0.5 -0.5)"><text x="551" y="609" font-size="16" font-family="Helvetica,sans-serif" fill="#000">默认网关：</text></g></g></g></g></g></g></svg>