<svg xmlns="http://www.w3.org/2000/svg" xmlns:xlink="http://www.w3.org/1999/xlink" width="320" height="329" viewBox="-.5 -.5 320 329" style="background:#fff"><defs/><g><g data-cell-id="0"><g data-cell-id="1"><g data-cell-id="V4HyaeFOHq3hmeAPUDn0-1"><g><path d="M80 40V313.63" fill="none" stroke="rgb(0, 0, 0)" stroke-miterlimit="10" pointer-events="stroke"/><path d="M80 318.88l-3.5-7 3.5 1.75 3.5-1.75z" fill="rgb(0, 0, 0)" stroke="rgb(0, 0, 0)" stroke-miterlimit="10" pointer-events="all"/></g></g><g data-cell-id="V4HyaeFOHq3hmeAPUDn0-2"><g><path d="M280 40V313.63" fill="none" stroke="rgb(0, 0, 0)" stroke-miterlimit="10" pointer-events="stroke"/><path d="M280 318.88l-3.5-7 3.5 1.75 3.5-1.75z" fill="rgb(0, 0, 0)" stroke="rgb(0, 0, 0)" stroke-miterlimit="10" pointer-events="all"/></g></g><g data-cell-id="V4HyaeFOHq3hmeAPUDn0-3"><g><path d="M80 80l193.9 58.17" fill="none" stroke="rgb(0, 0, 0)" stroke-miterlimit="10" pointer-events="stroke"/><path d="M278.93 139.68 271.22 141.02 273.9 138.17 273.23 134.31z" fill="rgb(0, 0, 0)" stroke="rgb(0, 0, 0)" stroke-miterlimit="10" pointer-events="all"/></g></g><g data-cell-id="V4HyaeFOHq3hmeAPUDn0-4"><g><path d="M280 140 86.1 198.17" fill="none" stroke="rgb(0, 0, 0)" stroke-miterlimit="10" pointer-events="stroke"/><path d="M81.07 199.68l5.7-5.37L86.1 198.17 88.78 201.02z" fill="rgb(0, 0, 0)" stroke="rgb(0, 0, 0)" stroke-miterlimit="10" pointer-events="all"/></g></g><g data-cell-id="V4HyaeFOHq3hmeAPUDn0-6"><g><path d="M80 2e2l123.91 38.13" fill="none" stroke="rgb(0, 0, 0)" stroke-miterlimit="10" pointer-events="stroke"/><path d="M208.93 239.67 201.21 240.96 203.91 238.13 203.27 234.27z" fill="rgb(0, 0, 0)" stroke="rgb(0, 0, 0)" stroke-miterlimit="10" pointer-events="all"/></g></g><g data-cell-id="V4HyaeFOHq3hmeAPUDn0-7"><g><rect x="40" y="0" width="80" height="40" fill="none" stroke="none" pointer-events="all"/></g><g><g transform="translate(-0.5 -0.5)"><text x="41" y="31" font-size="16" font-family="Helvetica,sans-serif" fill="#000">发送方</text></g></g></g><g data-cell-id="V4HyaeFOHq3hmeAPUDn0-8"><g><rect x="240" y="0" width="80" height="40" fill="none" stroke="none" pointer-events="all"/></g><g><g transform="translate(-0.5 -0.5)"><text x="241" y="31" font-size="16" font-family="Helvetica,sans-serif" fill="#000">接收方</text></g></g></g><g data-cell-id="V4HyaeFOHq3hmeAPUDn0-9"><g><rect x="0" y="280" width="80" height="40" fill="none" stroke="none" pointer-events="all"/></g><g><g transform="translate(-0.5 -0.5)"><text x="1" y="311" font-size="16" font-family="Helvetica,sans-serif" fill="#000">时间</text></g></g></g></g></g></g></svg>