<svg xmlns="http://www.w3.org/2000/svg" xmlns:xlink="http://www.w3.org/1999/xlink" width="366" height="591" viewBox="-.5 -.5 366 591" style="background:#fff"><defs/><g><g data-cell-id="0"><g data-cell-id="1"><g data-cell-id="BuzahP5U8cKWDUxokT9M-4"><g><path d="M152.08 247.81l20-218h31.91l-20 218z" fill="#ccc" stroke="none" transform="rotate(90,178.03,138.81)" pointer-events="all"/></g><g><g transform="translate(-0.5 -0.5)"><text x="70" y="150" font-size="16" font-family="Helvetica,sans-serif" fill="#000">RTS</text></g></g></g><g data-cell-id="BuzahP5U8cKWDUxokT9M-5"><g><path d="M152.08 334.32l20-218h31.91l-20 218z" fill="#ccc" stroke="none" transform="translate(178.03,0)scale(-1,1)translate(-178.03,0)rotate(-90,178.03,225.32)" pointer-events="all"/></g><g><g transform="translate(-0.5 -0.5)"><text x="70" y="236" font-size="16" font-family="Helvetica,sans-serif" fill="#000">CTS</text></g></g></g><g data-cell-id="BuzahP5U8cKWDUxokT9M-6"><g><path d="M117.48 449.56l20-218H238.59l-20 218z" fill="#ccc" stroke="none" transform="rotate(90,178.03,340.56)" pointer-events="all"/></g><g><g transform="translate(-0.5 -0.5)"><text x="70" y="352" font-size="16" font-family="Helvetica,sans-serif" fill="#000">DATA</text></g></g></g><g data-cell-id="BuzahP5U8cKWDUxokT9M-7"><g><path d="M152.08 574.95l20-218h31.91l-20 218z" fill="#ccc" stroke="none" transform="translate(178.03,0)scale(-1,1)translate(-178.03,0)rotate(-90,178.03,465.95)" pointer-events="all"/></g><g><g transform="translate(-0.5 -0.5)"><text x="70" y="477" font-size="16" font-family="Helvetica,sans-serif" fill="#000">ACK</text></g></g></g><g data-cell-id="BuzahP5U8cKWDUxokT9M-1"><g><rect x="5" y="88" width="60" height="30" fill="none" stroke="none" pointer-events="all"/></g><g><g transform="translate(-0.5 -0.5)"><text x="18" y="114" font-size="16" font-family="Helvetica,sans-serif" fill="#000">IFS1</text></g></g></g><g data-cell-id="BuzahP5U8cKWDUxokT9M-2"><g><path d="M69 254.86H66.5Q64 254.86 64 261.15V264.29Q64 267.43 61.5 267.43H60.25q-1.25.0 1.25.0h1.25Q64 267.43 64 273.72V276.86Q64 280 66.5 280H69" fill="none" stroke="rgb(0, 0, 0)" stroke-miterlimit="10" pointer-events="all"/></g></g><g data-cell-id="BuzahP5U8cKWDUxokT9M-3"><g><rect x="9" y="252.43" width="60" height="30" fill="none" stroke="none" pointer-events="all"/></g><g><g transform="translate(-0.5 -0.5)"><text x="22" y="278" font-size="16" font-family="Helvetica,sans-serif" fill="#000">IFS3</text></g></g></g><g data-cell-id="BuzahP5U8cKWDUxokT9M-8"><g><path d="M68.88 87.48 69.03 573.63" fill="none" stroke="rgb(0, 0, 0)" stroke-miterlimit="10" stroke-dasharray="3 3" pointer-events="stroke"/><path d="M69.03 578.88l-3.5-7 3.5 1.75 3.5-1.75z" fill="rgb(0, 0, 0)" stroke="rgb(0, 0, 0)" stroke-miterlimit="10" pointer-events="all"/></g></g><g data-cell-id="BuzahP5U8cKWDUxokT9M-9"><g><path d="M287 87 285.33 573.63" fill="none" stroke="rgb(0, 0, 0)" stroke-miterlimit="10" stroke-dasharray="3 3" pointer-events="stroke"/><path d="M285.31 578.88 281.83 571.87 285.33 573.63 288.83 571.89z" fill="rgb(0, 0, 0)" stroke="rgb(0, 0, 0)" stroke-miterlimit="10" pointer-events="all"/></g></g><g data-cell-id="BuzahP5U8cKWDUxokT9M-10"><g><path d="M69.03 92.86h-2.5q-2.5.0-2.5 5v2.5q0 2.5-2.5 2.5H60.28q-1.25.0 1.25.0h1.25q1.25.0 1.25 5v2.5q0 2.5 2.5 2.5h2.5" fill="none" stroke="rgb(0, 0, 0)" stroke-miterlimit="10" pointer-events="all"/></g></g><g data-cell-id="BuzahP5U8cKWDUxokT9M-11"><g><path d="M297.03 165h-2.5q-2.5.0-2.5 8.59V177.89Q292.03 182.19 289.53 182.19h-1.25q-1.25.0 1.25.0h1.25q1.25.0 1.25 8.59V195.07Q292.03 199.37 294.53 199.37h2.5" fill="none" stroke="rgb(0, 0, 0)" stroke-miterlimit="10" transform="translate(292.03,0)scale(-1,1)translate(-292.03,0)" pointer-events="all"/></g></g><g data-cell-id="BuzahP5U8cKWDUxokT9M-12"><g><path d="M297.03 403h-2.5Q292.03 403 292.03 411.59V415.89Q292.03 420.19 289.53 420.19h-1.25q-1.25.0 1.25.0h1.25Q292.03 420.19 292.03 428.78V433.07Q292.03 437.37 294.53 437.37h2.5" fill="none" stroke="rgb(0, 0, 0)" stroke-miterlimit="10" transform="translate(292.03,0)scale(-1,1)translate(-292.03,0)" pointer-events="all"/></g></g><g data-cell-id="BuzahP5U8cKWDUxokT9M-13"><g/><g data-cell-id="BuzahP5U8cKWDUxokT9M-14"><g><rect x="45" y="30" width="50" height="31.11" fill="none" stroke="#666" stroke-width="2" pointer-events="all"/></g></g><g data-cell-id="BuzahP5U8cKWDUxokT9M-15"><g><rect x="60" y="61.11" width="20" height="4.44" fill="none" stroke="#666" stroke-width="2" pointer-events="all"/></g></g><g data-cell-id="BuzahP5U8cKWDUxokT9M-16"><g><path d="M47.5 70l15-4.44h15L92.5 70z" fill="rgb(255, 255, 255)" stroke="#666" stroke-width="2" stroke-miterlimit="10" pointer-events="all"/></g></g><g data-cell-id="BuzahP5U8cKWDUxokT9M-17"><g><path d="M55 67.78H85" fill="none" stroke="#666" stroke-width="2" stroke-miterlimit="10" pointer-events="stroke"/></g></g></g><g data-cell-id="BuzahP5U8cKWDUxokT9M-24"><g/><g data-cell-id="BuzahP5U8cKWDUxokT9M-25"><g><ellipse cx="283.29" cy="12.71" rx="3.2941176470588243" ry="3.2941176470588243" fill="none" stroke="rgb(0, 0, 0)" stroke-width="2" pointer-events="all"/></g></g><g data-cell-id="BuzahP5U8cKWDUxokT9M-26"><g><path d="M285 32.94V18.82" fill="none" stroke="rgb(0, 0, 0)" stroke-miterlimit="10" pointer-events="stroke"/></g></g><g data-cell-id="BuzahP5U8cKWDUxokT9M-27"><g><path d="M265 70.59l10-32" fill="none" stroke="rgb(0, 0, 0)" stroke-width="2" stroke-miterlimit="10" pointer-events="stroke"/></g></g><g data-cell-id="BuzahP5U8cKWDUxokT9M-28"><g><path d="M305 70.59 295.08 37.27" fill="none" stroke="rgb(0, 0, 0)" stroke-width="2" stroke-miterlimit="10" pointer-events="stroke"/></g></g><g data-cell-id="BuzahP5U8cKWDUxokT9M-29"><g><path d="M265 70.59Q270 80 285 80t20-9.41" fill="none" stroke="rgb(0, 0, 0)" stroke-width="2" stroke-miterlimit="10" pointer-events="stroke"/></g></g><g data-cell-id="BuzahP5U8cKWDUxokT9M-30"><g/></g><g data-cell-id="BuzahP5U8cKWDUxokT9M-31"><g><ellipse cx="285" cy="38.59" rx="9.999999999999998" ry="5.647058823529412" fill="none" stroke="rgb(0, 0, 0)" stroke-width="2" pointer-events="all"/></g></g><g data-cell-id="BuzahP5U8cKWDUxokT9M-32"><g><path d="M275 23.53q-10-9.41.0-18.82" fill="none" stroke="rgb(0, 0, 0)" stroke-width="2" stroke-miterlimit="10" pointer-events="stroke"/></g></g><g data-cell-id="BuzahP5U8cKWDUxokT9M-33"><g><path d="M270 28.24Q255 14.12 270 0" fill="none" stroke="rgb(0, 0, 0)" stroke-width="2" stroke-miterlimit="10" pointer-events="stroke"/></g></g><g data-cell-id="BuzahP5U8cKWDUxokT9M-34"><g><path d="M295 23.53q10-9.41.0-18.82" fill="none" stroke="rgb(0, 0, 0)" stroke-width="2" stroke-miterlimit="10" pointer-events="stroke"/></g></g><g data-cell-id="BuzahP5U8cKWDUxokT9M-35"><g><path d="M3e2 28.24Q315 14.12 3e2.0" fill="none" stroke="rgb(0, 0, 0)" stroke-width="2" stroke-miterlimit="10" pointer-events="stroke"/></g></g></g><g data-cell-id="BuzahP5U8cKWDUxokT9M-36"><g><rect x="305" y="164.76" width="60" height="30" fill="none" stroke="none" pointer-events="all"/></g><g><g transform="translate(-0.5 -0.5)"><text x="318" y="191" font-size="16" font-family="Helvetica,sans-serif" fill="#000">IFS2</text></g></g></g><g data-cell-id="BuzahP5U8cKWDUxokT9M-37"><g><rect x="305" y="407.37" width="60" height="30" fill="none" stroke="none" pointer-events="all"/></g><g><g transform="translate(-0.5 -0.5)"><text x="318" y="433" font-size="16" font-family="Helvetica,sans-serif" fill="#000">IFS4</text></g></g></g><g data-cell-id="BuzahP5U8cKWDUxokT9M-38"><g><rect x="-.97" y="560" width="60" height="30" fill="none" stroke="none" pointer-events="all"/></g><g><g transform="translate(-0.5 -0.5)"><text x="13" y="586" font-size="16" font-family="Helvetica,sans-serif" fill="#000">时间</text></g></g></g></g></g></g></svg>