<svg xmlns="http://www.w3.org/2000/svg" xmlns:xlink="http://www.w3.org/1999/xlink" width="481" height="311" viewBox="-.5 -.5 481 311"><defs/><g><g data-cell-id="0"><g data-cell-id="1"><g data-cell-id="l3SIMhUgQELPPaggQhjI-1"><g><ellipse cx="80" cy="20" rx="20" ry="20" fill="none" stroke="rgb(0, 0, 0)" pointer-events="all"/></g><g><g transform="translate(-0.5 -0.5)"><text x="61" y="31" font-size="16" font-family="Helvetica,sans-serif" fill="#000">40</text></g></g></g><g data-cell-id="l3SIMhUgQELPPaggQhjI-3"><g><ellipse cx="20" cy="100" rx="20" ry="20" fill="none" stroke="rgb(0, 0, 0)" pointer-events="all"/></g><g><g transform="translate(-0.5 -0.5)"><text x="1" y="111" font-size="16" font-family="Helvetica,sans-serif" fill="#000">25</text></g></g></g><g data-cell-id="l3SIMhUgQELPPaggQhjI-13"><g><ellipse cx="200" cy="170" rx="20" ry="20" fill="none" stroke="rgb(0, 0, 0)" pointer-events="all"/></g><g><g transform="translate(-0.5 -0.5)"><text x="181" y="181" font-size="16" font-family="Helvetica,sans-serif" fill="#000">80</text></g></g></g><g data-cell-id="l3SIMhUgQELPPaggQhjI-14"><g><ellipse cx="80" cy="170" rx="20" ry="20" fill="none" stroke="rgb(0, 0, 0)" pointer-events="all"/></g><g><g transform="translate(-0.5 -0.5)"><text x="61" y="181" font-size="16" font-family="Helvetica,sans-serif" fill="#000">30</text></g></g></g><g data-cell-id="l3SIMhUgQELPPaggQhjI-15"><g><ellipse cx="20" cy="240" rx="20" ry="20" fill="none" stroke="rgb(0, 0, 0)" pointer-events="all"/></g><g><g transform="translate(-0.5 -0.5)"><text x="1" y="251" font-size="16" font-family="Helvetica,sans-serif" fill="#000">27</text></g></g></g><g data-cell-id="l3SIMhUgQELPPaggQhjI-16"><g><path d="M20 80 65.86 34.14" fill="none" stroke="rgb(0, 0, 0)" stroke-miterlimit="10" pointer-events="stroke"/></g></g><g data-cell-id="l3SIMhUgQELPPaggQhjI-17"><g><path d="M127.34 74.52 94.14 34.14" fill="none" stroke="rgb(0, 0, 0)" stroke-miterlimit="10" pointer-events="stroke"/></g></g><g data-cell-id="l3SIMhUgQELPPaggQhjI-18"><g><path d="M65.86 155.86 34.14 114.14" fill="none" stroke="rgb(0, 0, 0)" stroke-miterlimit="10" pointer-events="stroke"/></g></g><g data-cell-id="l3SIMhUgQELPPaggQhjI-19"><g><path d="M34.14 225.86l31.72-41.72" fill="none" stroke="rgb(0, 0, 0)" stroke-miterlimit="10" pointer-events="stroke"/></g></g><g data-cell-id="l3SIMhUgQELPPaggQhjI-21"><g><ellipse cx="380" cy="20" rx="20" ry="20" fill="none" stroke="rgb(0, 0, 0)" pointer-events="all"/></g><g><g transform="translate(-0.5 -0.5)"><text x="361" y="31" font-size="16" font-family="Helvetica,sans-serif" fill="#000">40</text></g></g></g><g data-cell-id="l3SIMhUgQELPPaggQhjI-22"><g><ellipse cx="320" cy="100" rx="20" ry="20" fill="none" stroke="rgb(0, 0, 0)" pointer-events="all"/></g><g><g transform="translate(-0.5 -0.5)"><text x="301" y="111" font-size="16" font-family="Helvetica,sans-serif" fill="#000">50</text></g></g></g><g data-cell-id="l3SIMhUgQELPPaggQhjI-23"><g><ellipse cx="440" cy="100" rx="20" ry="20" fill="none" stroke="rgb(0, 0, 0)" pointer-events="all"/></g><g><g transform="translate(-0.5 -0.5)"><text x="421" y="111" font-size="16" font-family="Helvetica,sans-serif" fill="#000">60</text></g></g></g><g data-cell-id="l3SIMhUgQELPPaggQhjI-26"><g><ellipse cx="460" cy="240" rx="20" ry="20" fill="none" stroke="rgb(0, 0, 0)" pointer-events="all"/></g><g><g transform="translate(-0.5 -0.5)"><text x="441" y="251" font-size="16" font-family="Helvetica,sans-serif" fill="#000">35</text></g></g></g><g data-cell-id="l3SIMhUgQELPPaggQhjI-27"><g><path d="M320 80l45.86-45.86" fill="none" stroke="rgb(0, 0, 0)" stroke-miterlimit="10" pointer-events="stroke"/></g></g><g data-cell-id="l3SIMhUgQELPPaggQhjI-28"><g><path d="M440 80 394.14 34.14" fill="none" stroke="rgb(0, 0, 0)" stroke-miterlimit="10" pointer-events="stroke"/></g></g><g data-cell-id="l3SIMhUgQELPPaggQhjI-29"><g><path d="M375.86 155.86l-41.72-41.72" fill="none" stroke="rgb(0, 0, 0)" stroke-miterlimit="10" pointer-events="stroke"/></g></g><g data-cell-id="l3SIMhUgQELPPaggQhjI-32"><g><path d="M445.86 225.86l-41.72-41.72" fill="none" stroke="rgb(0, 0, 0)" stroke-miterlimit="10" pointer-events="stroke"/></g></g><g data-cell-id="l3SIMhUgQELPPaggQhjI-25"><g><ellipse cx="390" cy="170" rx="20" ry="20" fill="none" stroke="rgb(0, 0, 0)" pointer-events="all"/></g><g><g transform="translate(-0.5 -0.5)"><text x="371" y="181" font-size="16" font-family="Helvetica,sans-serif" fill="#000">30</text></g></g></g><g data-cell-id="l3SIMhUgQELPPaggQhjI-35"><g><path d="M188.62 153.56l-34.48-49.42" fill="none" stroke="rgb(0, 0, 0)" stroke-miterlimit="10" pointer-events="stroke"/></g></g><g data-cell-id="l3SIMhUgQELPPaggQhjI-12"><g><ellipse cx="140" cy="90" rx="20" ry="20" fill="none" stroke="rgb(0, 0, 0)" pointer-events="all"/></g><g><g transform="translate(-0.5 -0.5)"><text x="121" y="101" font-size="16" font-family="Helvetica,sans-serif" fill="#000">60</text></g></g></g><g data-cell-id="l3SIMhUgQELPPaggQhjI-36"><g><rect x="40" y="280" width="110" height="30" fill="none" stroke="none" pointer-events="all"/></g><g><g transform="translate(-0.5 -0.5)"><text x="41" y="304.5" font-size="16" font-family="Helvetica,sans-serif" fill="#000">二叉树 T1</text></g></g></g><g data-cell-id="l3SIMhUgQELPPaggQhjI-38"><g><rect x="330" y="280" width="110" height="30" fill="none" stroke="none" pointer-events="all"/></g><g><g transform="translate(-0.5 -0.5)"><text x="331" y="304.5" font-size="16" font-family="Helvetica,sans-serif" fill="#000">二叉树 T2</text></g></g></g></g></g></g></svg>