<svg xmlns="http://www.w3.org/2000/svg" width="400em" height="1.08em" viewBox="0 0 4e5 1080" preserveAspectRatio="xMinYMin slice" style="background:#fff"><path d="M95 702c-2.7.0-7.17-2.7-13.5-8-5.8-5.3-9.5-10-9.5-14 0-2 .3-3.3 1-4 1.3-2.7 23.83-20.7 67.5-54 44.2-33.3 65.8-50.3 66.5-51 1.3-1.3 3-2 5-2 4.7.0 8.7 3.3 12 10s173 378 173 378c.7.0 35.3-71 104-213s137.5-285 206.5-429S812 97.3 814 94c5.3-9.3 12-14 20-14H4e5v40H845.2724s-225.272 467-225.272 467-235 486-235 486c-2.7 4.7-9 7-19 7-6 0-10-1-12-3s-194-422-194-422-65 47-65 47zM834 80h4e5v40H834z"/></svg>