<?xml version="1.0" encoding="UTF-8"?>
<!DOCTYPE svg PUBLIC "-//W3C//DTD SVG 1.1//EN" "http://www.w3.org/Graphics/SVG/1.1/DTD/svg11.dtd">
<svg xmlns="http://www.w3.org/2000/svg" width="716pt" height="807pt" viewBox="0 0 715.69 807" xmlns:xlink="http://www.w3.org/1999/xlink"><g id="graph0" class="graph" transform="scale(1 1) rotate(0) translate(4 803)"><title>InstructionSet</title><g id="clust6" class="cluster"><title>cluster_basic</title><polygon fill="transparent" stroke="blue" stroke-dasharray="5,2" points="198.69,-563 198.69,-692 327.69,-692 327.69,-563 198.69,-563"/><text text-anchor="middle" x="263.19" y="-676.8" font-family="Times,serif" font-size="14">基础指令</text></g><g id="clust8" class="cluster"><title>cluster_control</title><polygon fill="transparent" stroke="red" stroke-dasharray="5,2" points="203.19,-247 203.19,-376 323.19,-376 323.19,-247 203.19,-247"/><text text-anchor="middle" x="263.19" y="-360.8" font-family="Times,serif" font-size="14">程序控制</text></g><g id="clust10" class="cluster"><title>cluster_advanced</title><polygon fill="transparent" stroke="green" stroke-dasharray="5,2" points="183.69,-52 183.69,-235 342.69,-235 342.69,-52 183.69,-52"/><text text-anchor="middle" x="263.19" y="-219.8" font-family="Times,serif" font-size="14">高级功能</text></g><g id="node1" class="node"><title>title</title><ellipse fill="#add8e6" stroke="#000" cx="77.34" cy="-273" rx="77.19" ry="18"/><text text-anchor="middle" x="77.34" y="-269.3" font-family="Times,serif" font-size="14">CPU指令集分类</text></g><g id="node2" class="node"><title>data_transfer</title><polygon fill="#90ee90" stroke="#000" points="306.69,-661 219.69,-661 219.69,-625 306.69,-625 306.69,-661"/><text text-anchor="middle" x="263.19" y="-646" font-family="Times,serif" font-size="10">数据传输指令</text><text text-anchor="middle" x="263.19" y="-635" font-family="Times,serif" font-size="10">Data Transfer</text></g><g id="edge1" class="edge"><title>title-&gt;data_transfer</title><path fill="none" stroke="#000" d="M78.46-291.1C79.83-347.33 91.65-520.85 183.69-616 190.83-623.38 200.07-628.74 209.7-632.64"/><polygon fill="#000" stroke="#000" points="208.79,-636.04 219.39,-636.07 211.13,-629.44 208.79,-636.04"/></g><g id="node3" class="node"><title>arithmetic_logic</title><polygon fill="#ffffe0" stroke="#000" points="319.69,-607 206.69,-607 206.69,-571 319.69,-571 319.69,-607"/><text text-anchor="middle" x="263.19" y="-592" font-family="Times,serif" font-size="10">算术和逻辑运算指令</text><text text-anchor="middle" x="263.19" y="-581" font-family="Times,serif" font-size="10">Arithmetic &amp; Logic</text></g><g id="edge2" class="edge"><title>title-&gt;arithmetic_logic</title><path fill="none" stroke="#000" d="M88.75-290.89c30.71-52.78 121.04-208.05 157.71-271.07"/><polygon fill="#000" stroke="#000" points="243.61,-564.03 251.66,-570.91 249.66,-560.51 243.61,-564.03"/></g><g id="node4" class="node"><title>control_transfer</title><polygon fill="#f08080" stroke="#000" points="313.69,-345 212.69,-345 212.69,-309 313.69,-309 313.69,-345"/><text text-anchor="middle" x="263.19" y="-330" font-family="Times,serif" font-size="10">控制转移指令</text><text text-anchor="middle" x="263.19" y="-319" font-family="Times,serif" font-size="10">Control Transfer</text></g><g id="edge3" class="edge"><title>title-&gt;control_transfer</title><path fill="none" stroke="#000" d="M126.17-287.05C149.65-293.94 178.16-302.32 203-309.62"/><polygon fill="#000" stroke="#000" points="202.1,-313 212.68,-312.46 204.07,-306.28 202.1,-313"/></g><g id="node5" class="node"><title>io_instructions</title><polygon fill="#ffb6c1" stroke="#000" points="310.69,-204 215.69,-204 215.69,-168 310.69,-168 310.69,-204"/><text text-anchor="middle" x="263.19" y="-189" font-family="Times,serif" font-size="10">输入/输出指令</text><text text-anchor="middle" x="263.19" y="-178" font-family="Times,serif" font-size="10">I/O Instructions</text></g><g id="edge4" class="edge"><title>title-&gt;io_instructions</title><path fill="none" stroke="#000" d="M112.49-256.84c28.83 13.64 70.4 33.31 102.42 48.47"/><polygon fill="#000" stroke="#000" points="216.55,-211.47 224.1,-204.03 213.56,-205.14 216.55,-211.47"/></g><g id="node6" class="node"><title>string_ops</title><polygon fill="#e0ffff" stroke="#000" points="316.69,-150 209.69,-150 209.69,-114 316.69,-114 316.69,-150"/><text text-anchor="middle" x="263.19" y="-135" font-family="Times,serif" font-size="10">字符串操作指令</text><text text-anchor="middle" x="263.19" y="-124" font-family="Times,serif" font-size="10">String Operations</text></g><g id="edge5" class="edge"><title>title-&gt;string_ops</title><path fill="none" stroke="#000" d="M90.53-255c17.75 24.91 52.98 69.79 93.16 96C188.71-155.72 194.18-152.79 199.81-150.19"/><polygon fill="#000" stroke="#000" points="201.57,-153.25 209.4,-146.11 198.83,-146.81 201.57,-153.25"/></g><g id="node7" class="node"><title>trap_instr</title><polygon fill="#e6e6fa" stroke="#000" points="315.19,-291 211.19,-291 211.19,-255 315.19,-255 315.19,-291"/><text text-anchor="middle" x="263.19" y="-276" font-family="Times,serif" font-size="10">陷阱指令</text><text text-anchor="middle" x="263.19" y="-265" font-family="Times,serif" font-size="10">Trap Instructions</text></g><g id="edge6" class="edge"><title>title-&gt;trap_instr</title><path fill="none" stroke="#000" d="M154.71-273c15.39.0 31.38.0 46.18.0"/><polygon fill="#000" stroke="#000" points="200.91,-276.5 210.91,-273 200.91,-269.5 200.91,-276.5"/></g><g id="node8" class="node"><title>coprocessor</title><polygon fill="wheat" stroke="#000" points="334.69,-96 191.69,-96 191.69,-60 334.69,-60 334.69,-96"/><text text-anchor="middle" x="263.19" y="-81" font-family="Times,serif" font-size="10">协处理器指令</text><text text-anchor="middle" x="263.19" y="-70" font-family="Times,serif" font-size="10">Coprocessor Instructions</text></g><g id="edge7" class="edge"><title>title-&gt;coprocessor</title><path fill="none" stroke="#000" d="M84.89-254.99C98.2-220.82 131.65-146.31 183.69-105 185.25-103.76 186.88-102.57 188.56-101.43"/><polygon fill="#000" stroke="#000" points="190.52,-104.34 197.3,-96.19 186.92,-98.33 190.52,-104.34"/></g><g id="node9" class="node"><title>mov</title><polygon fill="#98fb98" stroke="#000" points="442.69,-799 386.69,-799 386.69,-763 442.69,-763 442.69,-799"/><text text-anchor="middle" x="414.69" y="-784" font-family="Times,serif" font-size="10">MOV</text><text text-anchor="middle" x="414.69" y="-773" font-family="Times,serif" font-size="10">数据移动</text></g><g id="edge8" class="edge"><title>data_transfer-&gt;mov</title><path fill="none" stroke="#000" d="M276.16-661.38c15.52-22.77 44.44-61.72 76.53-87.62C360.14-755.01 368.89-760.39 377.41-764.95"/><polygon fill="#000" stroke="#000" points="375.98,-768.15 386.48,-769.56 379.15,-761.91 375.98,-768.15"/></g><g id="node10" class="node"><title>push</title><polygon fill="#98fb98" stroke="#000" points="582.69,-761 528.69,-761 528.69,-725 582.69,-725 582.69,-761"/><text text-anchor="middle" x="555.69" y="-746" font-family="Times,serif" font-size="10">PUSH</text><text text-anchor="middle" x="555.69" y="-735" font-family="Times,serif" font-size="10">入栈</text></g><g id="edge9" class="edge"><title>data_transfer-&gt;push</title><path fill="none" stroke="#000" d="M282.08-661.17C298.82-677 325.27-699.21 352.69-711c54.46-23.42 123.81-29.9 165.45-31.58"/><polygon fill="#000" stroke="#000" points="518.25,-746.08 528.36,-742.92 518.48,-739.09 518.25,-746.08"/></g><g id="node11" class="node"><title>pop</title><polygon fill="#98fb98" stroke="#000" points="707.69,-731 653.69,-731 653.69,-695 707.69,-695 707.69,-731"/><text text-anchor="middle" x="680.69" y="-716" font-family="Times,serif" font-size="10">POP</text><text text-anchor="middle" x="680.69" y="-705" font-family="Times,serif" font-size="10">出栈</text></g><g id="edge10" class="edge"><title>data_transfer-&gt;pop</title><path fill="none" stroke="#000" d="M306.8-659.06C326.32-665.85 349.92-673.27 371.69-678c96.78-21.03 213.6-29.91 271.62-33.24"/><polygon fill="#000" stroke="#000" points="643.26,-714.75 653.44,-711.8 643.65,-707.76 643.26,-714.75"/></g><g id="node12" class="node"><title>arithmetic</title><polygon fill="khaki" stroke="#000" points="448.69,-668.5 380.69,-668.5 380.69,-627.5 448.69,-627.5 448.69,-668.5"/><text text-anchor="middle" x="414.69" y="-656.5" font-family="Times,serif" font-size="10">ADD, SUB</text><text text-anchor="middle" x="414.69" y="-645.5" font-family="Times,serif" font-size="10">MUL, DIV</text><text text-anchor="middle" x="414.69" y="-634.5" font-family="Times,serif" font-size="10">算术运算</text></g><g id="edge11" class="edge"><title>arithmetic_logic-&gt;arithmetic</title><path fill="none" stroke="#000" d="M318.9-607.09C326.92-609.96 335.05-612.97 342.69-616 352.02-619.7 361.91-623.94 371.25-628.11"/><polygon fill="#000" stroke="#000" points="369.81,-631.3 380.37,-632.22 372.69,-624.92 369.81,-631.3"/></g><g id="node13" class="node"><title>logical</title><polygon fill="khaki" stroke="#000" points="449.19,-609.5 380.19,-609.5 380.19,-568.5 449.19,-568.5 449.19,-609.5"/><text text-anchor="middle" x="414.69" y="-597.5" font-family="Times,serif" font-size="10">AND, OR</text><text text-anchor="middle" x="414.69" y="-586.5" font-family="Times,serif" font-size="10">XOR, NOT</text><text text-anchor="middle" x="414.69" y="-575.5" font-family="Times,serif" font-size="10">逻辑运算</text></g><g id="edge12" class="edge"><title>arithmetic_logic-&gt;logical</title><path fill="none" stroke="#000" d="M319.85-589c16.46.0 34.24.0 49.86.0"/><polygon fill="#000" stroke="#000" points="370.12,-592.5 380.12,-589 370.12,-585.5 370.12,-592.5"/></g><g id="node14" class="node"><title>inc_dec</title><polygon fill="khaki" stroke="#000" points="447.69,-550 381.69,-550 381.69,-514 447.69,-514 447.69,-550"/><text text-anchor="middle" x="414.69" y="-535" font-family="Times,serif" font-size="10">INC, DEC</text><text text-anchor="middle" x="414.69" y="-524" font-family="Times,serif" font-size="10">递增递减</text></g><g id="edge13" class="edge"><title>arithmetic_logic-&gt;inc_dec</title><path fill="none" stroke="#000" d="M311.49-570.96c19.38 7.38 41.61 15.86 60.38 23.02"/><polygon fill="#000" stroke="#000" points="373.24,-551.17 381.34,-544.33 370.75,-544.63 373.24,-551.17"/></g><g id="node15" class="node"><title>cmp</title><polygon fill="khaki" stroke="#000" points="441.69,-496 387.69,-496 387.69,-460 441.69,-460 441.69,-496"/><text text-anchor="middle" x="414.69" y="-481" font-family="Times,serif" font-size="10">CMP</text><text text-anchor="middle" x="414.69" y="-470" font-family="Times,serif" font-size="10">比较</text></g><g id="edge14" class="edge"><title>arithmetic_logic-&gt;cmp</title><path fill="none" stroke="#000" d="M286.38-570.69C307.8-553.24 341.36-526.52 371.69-505 374.15-503.25 376.72-501.48 379.33-499.72"/><polygon fill="#000" stroke="#000" points="381.26,-502.63 387.67,-494.2 377.4,-496.8 381.26,-502.63"/></g><g id="node16" class="node"><title>jmp</title><polygon fill="#ffe4e1" stroke="#000" points="447.19,-442 382.19,-442 382.19,-406 447.19,-406 447.19,-442"/><text text-anchor="middle" x="414.69" y="-427" font-family="Times,serif" font-size="10">JMP</text><text text-anchor="middle" x="414.69" y="-416" font-family="Times,serif" font-size="10">无条件跳转</text></g><g id="edge15" class="edge"><title>control_transfer-&gt;jmp</title><path fill="none" stroke="#000" d="M286.81-345.09c17.5-13.62 42.59-32.37 65.88-46.91C359.1-396.01 366.07-399.99 372.93-403.71"/><polygon fill="#000" stroke="#000" points="371.67,-407.01 382.15,-408.6 374.96,-400.82 371.67,-407.01"/></g><g id="node17" class="node"><title>conditional_jmp</title><polygon fill="#ffe4e1" stroke="#000" points="583.69,-429 527.69,-429 527.69,-393 583.69,-393 583.69,-429"/><text text-anchor="middle" x="555.69" y="-414" font-family="Times,serif" font-size="10">Jxx</text><text text-anchor="middle" x="555.69" y="-403" font-family="Times,serif" font-size="10">条件跳转</text></g><g id="edge16" class="edge"><title>control_transfer-&gt;conditional_jmp</title><path fill="none" stroke="#000" d="M313.92-341.95C332.09-347.37 352.8-353.51 371.69-359c50.58-14.72 109.17-31.28 146.16-41.68"/><polygon fill="#000" stroke="#000" points="517.11,-404.1 527.68,-403.44 519,-397.37 517.11,-404.1"/></g><g id="node18" class="node"><title>call</title><polygon fill="#ffe4e1" stroke="#000" points="447.19,-350 382.19,-350 382.19,-314 447.19,-314 447.19,-350"/><text text-anchor="middle" x="414.69" y="-335" font-family="Times,serif" font-size="10">CALL</text><text text-anchor="middle" x="414.69" y="-324" font-family="Times,serif" font-size="10">调用子程序</text></g><g id="edge17" class="edge"><title>control_transfer-&gt;call</title><path fill="none" stroke="#000" d="M313.97-328.66C332.71-329.29 353.83-330 371.78-330.6"/><polygon fill="#000" stroke="#000" points="371.84,-334.1 381.95,-330.94 372.07,-327.11 371.84,-334.1"/></g><g id="node19" class="node"><title>ret</title><polygon fill="#ffe4e1" stroke="#000" points="582.69,-322 528.69,-322 528.69,-286 582.69,-286 582.69,-322"/><text text-anchor="middle" x="555.69" y="-307" font-family="Times,serif" font-size="10">RET</text><text text-anchor="middle" x="555.69" y="-296" font-family="Times,serif" font-size="10">返回</text></g><g id="edge18" class="edge"><title>control_transfer-&gt;ret</title><path fill="none" stroke="#000" d="M313.91-314.7C331.98-310.8 352.64-306.98 371.69-305 422.31-299.73 481.23-300.67 518.24-302.1"/><polygon fill="#000" stroke="#000" points="518.4,-305.61 528.54,-302.54 518.69,-298.62 518.4,-305.61"/></g><g id="node20" class="node"><title>in_instr</title><polygon fill="plum" stroke="#000" points="442.69,-204 386.69,-204 386.69,-168 442.69,-168 442.69,-204"/><text text-anchor="middle" x="414.69" y="-189" font-family="Times,serif" font-size="10">IN</text><text text-anchor="middle" x="414.69" y="-178" font-family="Times,serif" font-size="10">输入数据</text></g><g id="edge19" class="edge"><title>io_instructions-&gt;in_instr</title><path fill="none" stroke="#000" d="M311.08-186c21.05.0 45.54.0 65.31.0"/><polygon fill="#000" stroke="#000" points="376.55,-189.5 386.55,-186 376.55,-182.5 376.55,-189.5"/></g><g id="node21" class="node"><title>out_instr</title><polygon fill="plum" stroke="#000" points="442.69,-150 386.69,-150 386.69,-114 442.69,-114 442.69,-150"/><text text-anchor="middle" x="414.69" y="-135" font-family="Times,serif" font-size="10">OUT</text><text text-anchor="middle" x="414.69" y="-124" font-family="Times,serif" font-size="10">输出数据</text></g><g id="edge20" class="edge"><title>io_instructions-&gt;out_instr</title><path fill="none" stroke="#000" d="M310.76-170.26C321.28-166.62 332.39-162.73 342.69-159c11.22 4.06 23.38 8.63 34.41 12.83"/><polygon fill="#000" stroke="#000" points="378.36,-149.43 386.45,-142.59 375.86,-142.9 378.36,-149.43"/></g><g id="node22" class="node"><title>string_detailed</title><polygon fill="#afeeee" stroke="#000" points="457.69,-95.5 371.69,-95.5 371.69,-54.5 457.69,-54.5 457.69,-95.5"/><text text-anchor="middle" x="414.69" y="-83.5" font-family="Times,serif" font-size="10">MOVS, LODS</text><text text-anchor="middle" x="414.69" y="-72.5" font-family="Times,serif" font-size="10">STOS, CMPS</text><text text-anchor="middle" x="414.69" y="-61.5" font-family="Times,serif" font-size="10">字符串处理</text></g><g id="edge21" class="edge"><title>string_ops-&gt;string_detailed</title><path fill="none" stroke="#000" d="M316.73-114.49C325.43-111.42 334.34-108.19 342.69-105 348.98-102.59 355.55-99.97 362.04-97.31"/><polygon fill="#000" stroke="#000" points="363.56,-100.47 371.45,-93.4 360.88,-94 363.56,-100.47"/></g><g id="node23" class="node"><title>int_instr</title><polygon fill="thistle" stroke="#000" points="441.69,-258 387.69,-258 387.69,-222 441.69,-222 441.69,-258"/><text text-anchor="middle" x="414.69" y="-243" font-family="Times,serif" font-size="10">INT</text><text text-anchor="middle" x="414.69" y="-232" font-family="Times,serif" font-size="10">中断</text></g><g id="edge22" class="edge"><title>trap_instr-&gt;int_instr</title><path fill="none" stroke="#000" d="M315.22-261.74C335.77-257.2 359-252.07 377.73-247.94"/><polygon fill="#000" stroke="#000" points="378.61,-251.33 387.62,-245.75 377.1,-244.49 378.61,-251.33"/></g><g id="node24" class="node"><title>interrupt_flags</title><polygon fill="#ffe4b5" stroke="#000" points="452.19,-36 377.19,-36 377.19,0 452.19,0 452.19,-36"/><text text-anchor="middle" x="414.69" y="-21" font-family="Times,serif" font-size="10">CLI, STI</text><text text-anchor="middle" x="414.69" y="-10" font-family="Times,serif" font-size="10">中断标志控制</text></g><g id="edge23" class="edge"><title>coprocessor-&gt;interrupt_flags</title><path fill="none" stroke="#000" d="M309.04-60c18.46 7.41 39.83 15.99 58.42 23.45"/><polygon fill="#000" stroke="#000" points="368.93,-39.73 376.91,-32.76 366.32,-33.24 368.93,-39.73"/></g><g id="edge24" class="edge"><title>mov-&gt;push</title><path fill="none" stroke="gray" stroke-dasharray="5,2" d="M442.82-773.58C464.52-767.65 495.15-759.28 518.87-752.79"/><polygon fill="gray" stroke="gray" points="519.84,-756.15 528.57,-750.14 518,-749.4 519.84,-756.15"/><text text-anchor="middle" x="492.69" y="-766.6" font-family="Times,serif" font-size="8">堆栈操作</text></g><g id="edge25" class="edge"><title>push-&gt;pop</title><path fill="none" stroke="gray" stroke-dasharray="5,2" d="M582.77-736.64C600.55-732.3 624.31-726.51 643.86-721.74"/><polygon fill="gray" stroke="gray" points="644.75,-725.12 653.64,-719.35 643.09,-718.32 644.75,-725.12"/><text text-anchor="middle" x="618.69" y="-733.6" font-family="Times,serif" font-size="8">配对使用</text></g><g id="edge27" class="edge"><title>cmp-&gt;conditional_jmp</title><path fill="none" stroke="blue" stroke-dasharray="5,2" d="M441.83-465.4C463.35-455.02 494.11-440.2 518.08-428.64"/><polygon fill="blue" stroke="blue" points="519.74,-431.73 527.23,-424.23 516.7,-425.42 519.74,-431.73"/><text text-anchor="middle" x="492.69" y="-450.6" font-family="Times,serif" font-size="8">设置标志</text></g><g id="edge26" class="edge"><title>call-&gt;ret</title><path fill="none" stroke="gray" stroke-dasharray="5,2" d="M447.23-325.65C468.39-321.38 496.32-315.76 518.4-311.31"/><polygon fill="gray" stroke="gray" points="519.29,-314.7 528.4,-309.29 517.91,-307.84 519.29,-314.7"/><text text-anchor="middle" x="492.69" y="-321.6" font-family="Times,serif" font-size="8">配对使用</text></g></g></svg>