<?xml version="1.0" encoding="UTF-8"?>
<!DOCTYPE svg PUBLIC "-//W3C//DTD SVG 1.1//EN" "http://www.w3.org/Graphics/SVG/1.1/DTD/svg11.dtd">
<svg xmlns="http://www.w3.org/2000/svg" width="732pt" height="204pt" viewBox="0 0 731.5 204" xmlns:xlink="http://www.w3.org/1999/xlink"><g id="graph0" class="graph" transform="scale(1 1) rotate(0) translate(4 200)"><title>MemoryManagement</title><g id="node1" class="node"><title>root</title><polygon fill="#add8e6" stroke="#000" stroke-width="2" points="436.5,-196 334.5,-196 334.5,-160 436.5,-160 436.5,-196"/><text text-anchor="middle" x="385.5" y="-174.3" font-family="Microsoft Yahei" font-size="14">内存管理方式</text></g><g id="node2" class="node"><title>continuous</title><polygon fill="#90ee90" stroke="#000" points="291,-124 226,-124 226,-88 291,-88 291,-124"/><text text-anchor="middle" x="258.5" y="-102.9" font-family="Microsoft Yahei" font-size="12">连续分配</text></g><g id="edge1" class="edge"><title>root-&gt;continuous</title><path fill="none" stroke="#000" d="M354.43-159.88C337.67-150.64 316.79-139.13 298.8-129.21"/><polygon fill="#000" stroke="#000" points="300.13,-125.95 289.69,-124.19 296.76,-132.08 300.13,-125.95"/></g><g id="node3" class="node"><title>discrete</title><polygon fill="#ffffe0" stroke="#000" points="545,-124 480,-124 480,-88 545,-88 545,-124"/><text text-anchor="middle" x="512.5" y="-102.9" font-family="Microsoft Yahei" font-size="12">离散分配</text></g><g id="edge2" class="edge"><title>root-&gt;discrete</title><path fill="none" stroke="#000" d="M416.57-159.88C433.33-150.64 454.21-139.13 472.2-129.21"/><polygon fill="#000" stroke="#000" points="474.24,-132.08 481.31,-124.19 470.87,-125.95 474.24,-132.08"/></g><g id="node4" class="node"><title>single</title><polygon fill="#e0ffff" stroke="#000" points="89,-44 0,-44 0,-8 89,-8 89,-44"/><text text-anchor="middle" x="44.5" y="-22.9" font-family="Microsoft Yahei" font-size="12">单一连续分配</text></g><g id="edge3" class="edge"><title>continuous-&gt;single</title><path fill="none" stroke="#000" d="M225.7-95.49C192.87-85.68 141.1-69.38 97.5-52c-3.02 1.21-6.12 2.5-9.22 3.84"/><polygon fill="#000" stroke="#000" points="89.57,-44.9 79.01,-44.02 86.72,-51.29 89.57,-44.9"/></g><g id="node5" class="node"><title>fixed</title><polygon fill="#e0ffff" stroke="#000" points="196,-44 107,-44 107,-8 196,-8 196,-44"/><text text-anchor="middle" x="151.5" y="-22.9" font-family="Microsoft Yahei" font-size="12">固定分区分配</text></g><g id="edge4" class="edge"><title>continuous-&gt;fixed</title><path fill="none" stroke="#000" d="M235.02-87.88c-15.19 11.07-35.16 25.63-51.76 37.73"/><polygon fill="#000" stroke="#000" points="185.07,-47.14 174.93,-44.08 180.95,-52.8 185.07,-47.14"/></g><g id="node6" class="node"><title>dynamic</title><polygon fill="#e0ffff" stroke="#000" points="303,-44 214,-44 214,-8 303,-8 303,-44"/><text text-anchor="middle" x="258.5" y="-22.9" font-family="Microsoft Yahei" font-size="12">动态分区分配</text></g><g id="edge5" class="edge"><title>continuous-&gt;dynamic</title><path fill="none" stroke="#000" d="M258.5-87.69c0 9.8.0 22.27.0 33.36"/><polygon fill="#000" stroke="#000" points="262,-54.26 258.5,-44.26 255,-54.26 262,-54.26"/></g><g id="node10" class="node"><title>cont_features</title><polygon fill="#98fb98" stroke="#000" points="389.5,-52 321.5,-52 321.5,0 395.5,0 395.5,-46 389.5,-52"/><polyline fill="none" stroke="#000" points="389.5,-52 389.5,-46"/><polyline fill="none" stroke="#000" points="395.5,-46 389.5,-46"/><text text-anchor="middle" x="358.5" y="-40" font-family="Microsoft Yahei" font-size="10">特点：</text><text text-anchor="middle" x="358.5" y="-29" font-family="Microsoft Yahei" font-size="10">• 实现简单</text><text text-anchor="middle" x="358.5" y="-18" font-family="Microsoft Yahei" font-size="10">• 开销较小</text><text text-anchor="middle" x="358.5" y="-7" font-family="Microsoft Yahei" font-size="10">• 灵活性不足</text></g><g id="edge9" class="edge"><title>continuous-&gt;cont_features</title><path fill="none" stroke="gray" stroke-dasharray="5,2" d="M280.69-87.69C291.64-79.15 305.2-68.57 317.92-58.65"/><polygon fill="gray" stroke="gray" points="320.39,-61.17 326.12,-52.26 316.08,-55.65 320.39,-61.17"/></g><g id="node7" class="node"><title>paging</title><polygon fill="#ffe4e1" stroke="#000" points="467.5,-44 413.5,-44 413.5,-8 467.5,-8 467.5,-44"/><text text-anchor="middle" x="440.5" y="-22.9" font-family="Microsoft Yahei" font-size="12">页式</text></g><g id="edge6" class="edge"><title>discrete-&gt;paging</title><path fill="none" stroke="#000" d="M496.52-87.69C486.73-77.09 474.05-63.35 463.23-51.62"/><polygon fill="#000" stroke="#000" points="465.79,-49.24 456.43,-44.26 460.65,-53.98 465.79,-49.24"/></g><g id="node8" class="node"><title>segmentation</title><polygon fill="#ffe4e1" stroke="#000" points="539.5,-44 485.5,-44 485.5,-8 539.5,-8 539.5,-44"/><text text-anchor="middle" x="512.5" y="-22.9" font-family="Microsoft Yahei" font-size="12">段式</text></g><g id="edge7" class="edge"><title>discrete-&gt;segmentation</title><path fill="none" stroke="#000" d="M512.5-87.69c0 9.8.0 22.27.0 33.36"/><polygon fill="#000" stroke="#000" points="516,-54.26 512.5,-44.26 509,-54.26 516,-54.26"/></g><g id="node9" class="node"><title>seg_page</title><polygon fill="#ffe4e1" stroke="#000" points="611.5,-44 557.5,-44 557.5,-8 611.5,-8 611.5,-44"/><text text-anchor="middle" x="584.5" y="-22.9" font-family="Microsoft Yahei" font-size="12">段页式</text></g><g id="edge8" class="edge"><title>discrete-&gt;seg_page</title><path fill="none" stroke="#000" d="M528.48-87.69C538.27-77.09 550.95-63.35 561.77-51.62"/><polygon fill="#000" stroke="#000" points="564.35,-53.98 568.57,-44.26 559.21,-49.24 564.35,-53.98"/></g><g id="node11" class="node"><title>disc_features</title><polygon fill="wheat" stroke="#000" points="717.5,-52 629.5,-52 629.5,0 723.5,0 723.5,-46 717.5,-52"/><polyline fill="none" stroke="#000" points="717.5,-52 717.5,-46"/><polyline fill="none" stroke="#000" points="723.5,-46 717.5,-46"/><text text-anchor="middle" x="676.5" y="-40" font-family="Microsoft Yahei" font-size="10">特点：</text><text text-anchor="middle" x="676.5" y="-29" font-family="Microsoft Yahei" font-size="10">• 内存空间不连续</text><text text-anchor="middle" x="676.5" y="-18" font-family="Microsoft Yahei" font-size="10">• 内存利用率高</text><text text-anchor="middle" x="676.5" y="-7" font-family="Microsoft Yahei" font-size="10">• 管理灵活性强</text></g><g id="edge10" class="edge"><title>discrete-&gt;disc_features</title><path fill="none" stroke="gray" stroke-dasharray="5,2" d="M545.29-89.4c21.48 10.21 50.11 23.83 75.14 35.73"/><polygon fill="gray" stroke="gray" points="621.94,-56.82 629.47,-49.37 618.94,-50.5 621.94,-56.82"/></g></g></svg>