<?xml version="1.0" encoding="UTF-8"?>
<!DOCTYPE svg PUBLIC "-//W3C//DTD SVG 1.1//EN" "http://www.w3.org/Graphics/SVG/1.1/DTD/svg11.dtd">
<svg xmlns="http://www.w3.org/2000/svg" width="632pt" height="1062pt" viewBox="0 0 632 1062" xmlns:xlink="http://www.w3.org/1999/xlink"><g id="graph0" class="graph" transform="scale(1 1) rotate(0) translate(4 1058)"><title>MultiWayMerge</title><g id="clust1" class="cluster"><title>cluster_init</title><polygon fill="#add8e6" stroke="#add8e6" points="76,-718 76,-1032 238,-1032 238,-718 76,-718"/><text text-anchor="middle" x="157" y="-1016.8" font-family="Microsoft Yahei" font-size="14">1. 初始化阶段</text></g><g id="clust2" class="cluster"><title>cluster_merge</title><polygon fill="#ffffe0" stroke="#ffffe0" points="8,-8 8,-699 272,-699 272,-8 8,-8"/><text text-anchor="middle" x="140" y="-683.8" font-family="Microsoft Yahei" font-size="14">2. 归并阶段</text></g><g id="clust3" class="cluster"><title>cluster_end</title><polygon fill="#f08080" stroke="#f08080" points="280,-321 280,-576 398,-576 398,-321 280,-321"/><text text-anchor="middle" x="339" y="-560.8" font-family="Microsoft Yahei" font-size="14">3. 结束阶段</text></g><g id="clust4" class="cluster"><title>cluster_example</title><polygon fill="#d3d3d3" stroke="#d3d3d3" points="246,-941 246,-1046 616,-1046 616,-941 246,-941"/><text text-anchor="middle" x="431" y="-1032.4" font-family="Microsoft Yahei" font-size="12">示例数据结构</text></g><g id="node1" class="node"><title>start</title><ellipse fill="#90ee90" stroke="#90ee90" cx="157" cy="-983" rx="29.5" ry="18"/><text text-anchor="middle" x="157" y="-979.3" font-family="Microsoft Yahei" font-size="14">开始</text></g><g id="node2" class="node"><title>open_files</title><path fill="none" stroke="#000" d="M217.5-912s-121 0-121 0c-6 0-12 6-12 12v12c0 6 6 12 12 12h121c6 0 12-6 12-12v-12c0-6-6-12-12-12"/><text text-anchor="middle" x="157" y="-890.3" font-family="Microsoft Yahei" font-size="14">打开所有初始归并段</text></g><g id="edge1" class="edge"><title>start-&gt;open_files</title><path fill="none" stroke="#000" d="M157-964.81C157-952.66 157-936.11 157-922.18"/><polygon fill="#000" stroke="#000" points="160.5,-922.15 157,-912.15 153.5,-922.15 160.5,-922.15"/></g><g id="node3" class="node"><title>read_first</title><path fill="none" stroke="#000" d="M203-839s-92 0-92 0c-6 0-12 6-12 12v14c0 6 6 12 12 12h92c6 0 12-6 12-12v-14c0-6-6-12-12-12"/><text text-anchor="middle" x="157" y="-823.8" font-family="Microsoft Yahei" font-size="14">读取每个归并段</text><text text-anchor="middle" x="157" y="-808.8" font-family="Microsoft Yahei" font-size="14">的第一个元素</text></g><g id="edge2" class="edge"><title>open_files-&gt;read_first</title><path fill="none" stroke="#000" d="M157-875.94C157-867.99 157-858.31 157-849.31"/><polygon fill="#000" stroke="#000" points="160.5,-849.2 157,-839.2 153.5,-849.2 160.5,-849.2"/></g><g id="node4" class="node"><title>create_heap</title><path fill="none" stroke="#000" d="M189-764s-64 0-64 0c-6 0-12 6-12 12v14c0 6 6 12 12 12h64c6 0 12-6 12-12v-14c0-6-6-12-12-12"/><text text-anchor="middle" x="157" y="-748.8" font-family="Microsoft Yahei" font-size="14">创建最小堆</text><text text-anchor="middle" x="157" y="-733.8" font-family="Microsoft Yahei" font-size="14">存储首元素</text></g><g id="edge3" class="edge"><title>read_first-&gt;create_heap</title><path fill="none" stroke="#000" d="M157-800.96C157-792.88 157-783.18 157-774.18"/><polygon fill="#000" stroke="#000" points="160.5,-774.09 157,-764.09 153.5,-774.09 160.5,-774.09"/></g><g id="node5" class="node"><title>check_heap</title><polygon fill="orange" stroke="orange" points="157,-668 50.26,-650 157,-632 263.74,-650 157,-668"/><text text-anchor="middle" x="157" y="-646.3" font-family="Microsoft Yahei" font-size="14">检查堆是否为空</text></g><g id="edge15" class="edge"><title>create_heap-&gt;check_heap</title><path fill="none" stroke="#000" d="M157-725.63c0 13.46.0 31.96.0 47.17"/><polygon fill="#000" stroke="#000" points="160.5,-678.08 157,-668.08 153.5,-678.08 160.5,-678.08"/></g><g id="node6" class="node"><title>extract_min</title><path fill="none" stroke="#000" d="M137-545s-64 0-64 0c-6 0-12 6-12 12v14c0 6 6 12 12 12h64c6 0 12-6 12-12v-14c0-6-6-12-12-12"/><text text-anchor="middle" x="105" y="-529.8" font-family="Microsoft Yahei" font-size="14">从堆中取出</text><text text-anchor="middle" x="105" y="-514.8" font-family="Microsoft Yahei" font-size="14">最小元素</text></g><g id="edge4" class="edge"><title>check_heap-&gt;extract_min</title><path fill="none" stroke="#000" d="M150.2-633.05C141.73-613.18 127.12-578.91 116.81-554.71"/><polygon fill="#000" stroke="#000" points="119.96,-553.17 112.82,-545.34 113.52,-555.91 119.96,-553.17"/><text text-anchor="middle" x="149.5" y="-595.3" font-family="Microsoft Yahei" font-size="14">否</text></g><g id="node13" class="node"><title>all_empty</title><path fill="none" stroke="#000" d="M378-545s-78 0-78 0c-6 0-12 6-12 12v14c0 6 6 12 12 12h78c6 0 12-6 12-12v-14c0-6-6-12-12-12"/><text text-anchor="middle" x="339" y="-529.8" font-family="Microsoft Yahei" font-size="14">所有归并段</text><text text-anchor="middle" x="339" y="-514.8" font-family="Microsoft Yahei" font-size="14">都已处理完毕</text></g><g id="edge16" class="edge"><title>check_heap-&gt;all_empty</title><path fill="none" stroke="#000" d="M205.63-640.15C226.1-634.84 249.44-626.59 268-614c22.98 15.59 42.37 40.76 55.05 60.03"/><polygon fill="#000" stroke="#000" points="326.14,-555.64 328.56,-545.32 320.23,-551.88 326.14,-555.64"/><text text-anchor="middle" x="326" y="-602.8" font-family="Microsoft Yahei" font-size="14">是</text><text text-anchor="middle" x="326" y="-587.8" font-family="Microsoft Yahei" font-size="14">(堆为空)</text></g><g id="node7" class="node"><title>output_min</title><path fill="none" stroke="#000" d="M137-470s-78 0-78 0c-6 0-12 6-12 12v14c0 6 6 12 12 12h78c6 0 12-6 12-12v-14c0-6-6-12-12-12"/><text text-anchor="middle" x="98" y="-454.8" font-family="Microsoft Yahei" font-size="14">输出最小元素</text><text text-anchor="middle" x="98" y="-439.8" font-family="Microsoft Yahei" font-size="14">到结果文件</text></g><g id="edge5" class="edge"><title>extract_min-&gt;output_min</title><path fill="none" stroke="#000" d="M103.27-506.96C102.5-498.88 101.56-489.18 100.7-480.18"/><polygon fill="#000" stroke="#000" points="104.17,-479.71 99.73,-470.09 97.21,-480.38 104.17,-479.71"/></g><g id="node8" class="node"><title>find_segment</title><path fill="none" stroke="#000" d="M134-366s-78 0-78 0c-6 0-12 6-12 12v14c0 6 6 12 12 12h78c6 0 12-6 12-12v-14c0-6-6-12-12-12"/><text text-anchor="middle" x="95" y="-350.8" font-family="Microsoft Yahei" font-size="14">找到该元素</text><text text-anchor="middle" x="95" y="-335.8" font-family="Microsoft Yahei" font-size="14">所属的归并段</text></g><g id="edge6" class="edge"><title>output_min-&gt;find_segment</title><path fill="none" stroke="#000" d="M97.46-431.76C97.01-416.32 96.35-393.91 95.83-376.16"/><polygon fill="#000" stroke="#000" points="99.32,-375.97 95.53,-366.08 92.33,-376.18 99.32,-375.97"/></g><g id="node9" class="node"><title>read_next</title><path fill="none" stroke="#000" d="M138-291s-92 0-92 0c-6 0-12 6-12 12v14c0 6 6 12 12 12h92c6 0 12-6 12-12v-14c0-6-6-12-12-12"/><text text-anchor="middle" x="92" y="-275.8" font-family="Microsoft Yahei" font-size="14">从该归并段</text><text text-anchor="middle" x="92" y="-260.8" font-family="Microsoft Yahei" font-size="14">读取下一个元素</text></g><g id="edge7" class="edge"><title>find_segment-&gt;read_next</title><path fill="none" stroke="#000" d="M94.26-327.96C93.93-319.88 93.53-310.18 93.16-301.18"/><polygon fill="#000" stroke="#000" points="96.65,-300.94 92.74,-291.09 89.66,-301.23 96.65,-300.94"/></g><g id="node10" class="node"><title>check_segment</title><polygon fill="orange" stroke="orange" points="130,-216 16.05,-198 130,-180 243.95,-198 130,-216"/><text text-anchor="middle" x="130" y="-194.3" font-family="Microsoft Yahei" font-size="14">归并段是否为空?</text></g><g id="edge8" class="edge"><title>read_next-&gt;check_segment</title><path fill="none" stroke="#000" d="M101.59-252.83C106.21-244.08 111.82-233.46 116.83-223.96"/><polygon fill="#000" stroke="#000" points="120.01,-225.43 121.58,-214.96 113.82,-222.17 120.01,-225.43"/></g><g id="edge12" class="edge"><title>check_segment-&gt;check_heap</title><path fill="none" stroke="#000" d="M143.86-214.02C155.07-227.78 169-249.25 169-271V-527C169-559.81 164.65-597.36 161.18-622.03"/><polygon fill="#000" stroke="#000" points="157.7,-621.68 159.72,-632.08 164.63,-622.69 157.7,-621.68"/><text text-anchor="middle" x="203" y="-402.8" font-family="Microsoft Yahei" font-size="14">是</text><text text-anchor="middle" x="203" y="-387.8" font-family="Microsoft Yahei" font-size="14">(该段已空)</text></g><g id="node11" class="node"><title>add_to_heap</title><path fill="none" stroke="#000" d="M165-129s-50 0-50 0c-6 0-12 6-12 12v14c0 6 6 12 12 12h50c6 0 12-6 12-12v-14c0-6-6-12-12-12"/><text text-anchor="middle" x="140" y="-113.8" font-family="Microsoft Yahei" font-size="14">将新元素</text><text text-anchor="middle" x="140" y="-98.8" font-family="Microsoft Yahei" font-size="14">加入堆中</text></g><g id="edge9" class="edge"><title>check_segment-&gt;add_to_heap</title><path fill="none" stroke="#000" d="M131.98-180.01c1.34 11.59 3.16 27.21 4.72 40.66"/><polygon fill="#000" stroke="#000" points="140.21,-139.48 137.89,-129.14 133.26,-138.67 140.21,-139.48"/><text text-anchor="middle" x="143.5" y="-150.8" font-family="Microsoft Yahei" font-size="14">否</text></g><g id="node12" class="node"><title>adjust_heap</title><path fill="none" stroke="#000" d="M214-54s-92 0-92 0c-6 0-12 6-12 12v14c0 6 6 12 12 12h92c6 0 12-6 12-12V-42c0-6-6-12-12-12"/><text text-anchor="middle" x="168" y="-38.8" font-family="Microsoft Yahei" font-size="14">调整堆</text><text text-anchor="middle" x="168" y="-23.8" font-family="Microsoft Yahei" font-size="14">保持最小堆性质</text></g><g id="edge10" class="edge"><title>add_to_heap-&gt;adjust_heap</title><path fill="none" stroke="#000" d="M146.92-90.96C150.08-82.71 153.9-72.75 157.42-63.6"/><polygon fill="#000" stroke="#000" points="160.75,-64.68 161.06,-54.09 154.21,-62.17 160.75,-64.68"/></g><g id="edge11" class="edge"><title>adjust_heap-&gt;check_heap</title><path fill="none" stroke="#000" d="M218.56-54.06C241.25-65.71 263-83.52 263-109V-527c0-45.65-42.82-82.56-74.03-103.39"/><polygon fill="#000" stroke="#000" points="187.04,-627.48 180.52,-635.83 190.83,-633.36 187.04,-627.48"/></g><g id="node14" class="node"><title>complete</title><path fill="none" stroke="#000" d="M378-470s-78 0-78 0c-6 0-12 6-12 12v14c0 6 6 12 12 12h78c6 0 12-6 12-12v-14c0-6-6-12-12-12"/><text text-anchor="middle" x="339" y="-454.8" font-family="Microsoft Yahei" font-size="14">归并完成</text><text text-anchor="middle" x="339" y="-439.8" font-family="Microsoft Yahei" font-size="14">结果文件有序</text></g><g id="edge13" class="edge"><title>all_empty-&gt;complete</title><path fill="none" stroke="#000" d="M339-506.96C339-498.88 339-489.18 339-480.18"/><polygon fill="#000" stroke="#000" points="342.5,-480.09 339,-470.09 335.5,-480.09 342.5,-480.09"/></g><g id="node15" class="node"><title>end_node</title><ellipse fill="#f08080" stroke="#f08080" cx="339" cy="-347" rx="29.5" ry="18"/><text text-anchor="middle" x="339" y="-343.3" font-family="Microsoft Yahei" font-size="14">结束</text></g><g id="edge14" class="edge"><title>complete-&gt;end_node</title><path fill="none" stroke="#000" d="M339-431.76c0 15.73.0 38.68.0 56.58"/><polygon fill="#000" stroke="#000" points="342.5,-375.06 339,-365.06 335.5,-375.06 342.5,-375.06"/></g><g id="node16" class="node"><title>heap_example</title><text text-anchor="middle" x="562" y="-1001.8" font-family="Microsoft Yahei" font-size="14">最小堆示例:</text><text text-anchor="middle" x="562" y="-986.8" font-family="Microsoft Yahei" font-size="14">&#160;&#160;2</text><text text-anchor="middle" x="562" y="-971.8" font-family="Microsoft Yahei" font-size="14">&#160;/ \</text><text text-anchor="middle" x="562" y="-956.8" font-family="Microsoft Yahei" font-size="14">5 &#160;&#160;3</text></g><g id="node17" class="node"><title>segments</title><text text-anchor="middle" x="441" y="-1001.8" font-family="Microsoft Yahei" font-size="14">归并段:</text><text text-anchor="middle" x="441" y="-986.8" font-family="Microsoft Yahei" font-size="14">S1: [2,8,15...]</text><text text-anchor="middle" x="441" y="-971.8" font-family="Microsoft Yahei" font-size="14">S2: [3,9,12...]</text><text text-anchor="middle" x="441" y="-956.8" font-family="Microsoft Yahei" font-size="14">S3: [5,7,11...]</text></g><g id="node18" class="node"><title>result</title><text text-anchor="middle" x="310" y="-986.8" font-family="Microsoft Yahei" font-size="14">结果文件:</text><text text-anchor="middle" x="310" y="-971.8" font-family="Microsoft Yahei" font-size="14">[已输出元素...]</text></g></g></svg>