<?xml version="1.0" encoding="UTF-8"?>
<!DOCTYPE svg PUBLIC "-//W3C//DTD SVG 1.1//EN" "http://www.w3.org/Graphics/SVG/1.1/DTD/svg11.dtd">
<svg xmlns="http://www.w3.org/2000/svg" width="566pt" height="1449pt" viewBox="0 0 566 1449" xmlns:xlink="http://www.w3.org/1999/xlink"><g id="graph0" class="graph" transform="scale(1 1) rotate(0) translate(4 1445)"><title>PageFaultHandling</title><g id="node1" class="node"><title>A</title><polygon fill="#90ee90" stroke="#000" points="228.25,-1441 69.75,-1441 69.75,-1405 228.25,-1405 228.25,-1441"/><text text-anchor="middle" x="149" y="-1419.83" font-family="SimHei" font-size="14">CPU访问虚拟内存页面</text></g><g id="node2" class="node"><title>B</title><polygon fill="#ffffe0" stroke="#000" points="149,-1368 33.25,-1319.5 149,-1271 264.75,-1319.5 149,-1368"/><text text-anchor="middle" x="149" y="-1326.45" font-family="SimHei" font-size="14">MMU检查页面</text><text text-anchor="middle" x="149" y="-1306.2" font-family="SimHei" font-size="14">是否在物理内存</text></g><g id="edge1" class="edge"><title>A-&gt;B</title><path fill="none" stroke="#000" d="M149-1404.78C149-1397.62 149-1388.86 149-1379.71"/><polygon fill="#000" stroke="#000" points="152.5,-1379.97 149,-1369.97 145.5,-1379.97 152.5,-1379.97"/></g><g id="node3" class="node"><title>C</title><polygon fill="#90ee90" stroke="#000" points="183.88,-1166 50.12,-1166 50.12,-1130 183.88,-1130 183.88,-1166"/><text text-anchor="middle" x="117" y="-1144.83" font-family="SimHei" font-size="14">正常访问,继续执行</text></g><g id="edge2" class="edge"><title>B-&gt;C</title><path fill="none" stroke="#000" d="M139.35-1274.51C137.85-1267.33 136.35-1259.96 135-1253 130.09-1227.58 125.11-1198.55 121.64-1177.63"/><polygon fill="#000" stroke="#000" points="125.11,-1177.13 120.03,-1167.83 118.2,-1178.26 125.11,-1177.13"/><text text-anchor="middle" x="154.5" y="-1243.5" font-family="SimHei" font-size="10">页面存在</text></g><g id="node4" class="node"><title>D</title><polygon fill="#fcc" stroke="#000" points="248.75,-1220 147.25,-1220 147.25,-1184 248.75,-1184 248.75,-1220"/><text text-anchor="middle" x="198" y="-1198.83" font-family="SimHei" font-size="14">触发缺页中断</text></g><g id="edge3" class="edge"><title>B-&gt;D</title><path fill="none" stroke="#000" d="M166.28-1277.78C172.88-1262.2 180.26-1244.8 186.24-1230.71"/><polygon fill="#000" stroke="#000" points="189.42,-1232.19 190.1,-1221.61 182.98,-1229.45 189.42,-1232.19"/><text text-anchor="middle" x="206.53" y="-1243.5" font-family="SimHei" font-size="10">页面不存在</text></g><g id="node19" class="node"><title>S</title><polygon fill="#9f9" stroke="#000" points="130,-48.5 0,-48.5 0,0 130,0 130,-48.5"/><text text-anchor="middle" x="65" y="-31.2" font-family="SimHei" font-size="14">页面现已可用</text><text text-anchor="middle" x="65" y="-10.95" font-family="SimHei" font-size="14">程序继续正常运行</text></g><g id="edge23" class="edge"><title>C-&gt;S</title><path fill="none" stroke="#000" d="M101.18-1129.65C82.23-1106.99 53-1065.28 53-1023.5v914.75c0 16.06 2.2 33.69 4.72 48.59"/><polygon fill="#000" stroke="#000" points="61.16,-60.83 59.5,-50.36 54.27,-59.58 61.16,-60.83"/></g><g id="node5" class="node"><title>E</title><polygon fill="#ffffe0" stroke="#000" points="285,-1112 183.5,-1083.75 285,-1055.5 386.5,-1083.75 285,-1112"/><text text-anchor="middle" x="285" y="-1080.58" font-family="SimHei" font-size="14">判断缺页原因</text></g><g id="edge4" class="edge"><title>D-&gt;E</title><path fill="none" stroke="#000" d="M211.02-1183.6C224.24-1165.94 244.99-1138.21 261.16-1116.61"/><polygon fill="#000" stroke="#000" points="263.9,-1118.79 267.09,-1108.69 258.29,-1114.6 263.9,-1118.79"/></g><g id="node6" class="node"><title>F</title><polygon fill="#f66" stroke="#000" points="262.5,-989.5 81.5,-989.5 81.5,-941 262.5,-941 262.5,-989.5"/><text text-anchor="middle" x="172" y="-972.2" font-family="SimHei" font-size="14">操作系统终止程序</text><text text-anchor="middle" x="172" y="-951.95" font-family="SimHei" font-size="14">段错误 Segmentation Fault</text></g><g id="edge5" class="edge"><title>E-&gt;F</title><path fill="none" stroke="#000" d="M260.7-1061.89C252.29-1054.4 242.92-1045.76 234.75-1037.5c-12.13 12.26-24.82 26.4-35.59 38.83"/><polygon fill="#000" stroke="#000" points="201.84,-996.42 192.67,-991.12 196.53,-1000.98 201.84,-996.42"/><text text-anchor="middle" x="268.88" y="-1028" font-family="SimHei" font-size="10">非法访问</text><text text-anchor="middle" x="268.88" y="-1013" font-family="SimHei" font-size="10">越界或权限不足</text></g><g id="node7" class="node"><title>G</title><polygon fill="#add8e6" stroke="#000" points="395.88,-983.25 280.12,-983.25 280.12,-947.25 395.88,-947.25 395.88,-983.25"/><text text-anchor="middle" x="338" y="-962.08" font-family="SimHei" font-size="14">分配新页面流程</text></g><g id="edge6" class="edge"><title>E-&gt;G</title><path fill="none" stroke="#000" d="M296.11-1058.33C304.68-1039.5 316.52-1013.46 325.43-993.87"/><polygon fill="#000" stroke="#000" points="328.59,-995.39 329.54,-984.84 322.22,-992.49 328.59,-995.39"/><text text-anchor="middle" x="342.18" y="-1020.5" font-family="SimHei" font-size="10">页面未分配</text></g><g id="node8" class="node"><title>H</title><polygon fill="#add8e6" stroke="#000" points="558.12,-983.25 413.88,-983.25 413.88,-947.25 558.12,-947.25 558.12,-983.25"/><text text-anchor="middle" x="486" y="-962.08" font-family="SimHei" font-size="14">从磁盘加载页面流程</text></g><g id="edge7" class="edge"><title>E-&gt;H</title><path fill="none" stroke="#000" d="M320.03-1065.03C335.76-1056.89 354.45-1046.96 371-1037.5c26.82 15.34 56.44 33.72 78.9 47.98"/><polygon fill="#000" stroke="#000" points="451.54,-992.63 458.09,-984.3 447.78,-986.72 451.54,-992.63"/><text text-anchor="middle" x="443.23" y="-1028" font-family="SimHei" font-size="10">页面在磁盘</text><text text-anchor="middle" x="443.23" y="-1013" font-family="SimHei" font-size="10">被换出</text></g><g id="node20" class="node"><title>T</title><polygon fill="#f66" stroke="#000" points="208.5,-873.5 135.5,-873.5 135.5,-837.5 208.5,-837.5 208.5,-873.5"/><text text-anchor="middle" x="172" y="-852.33" font-family="SimHei" font-size="14">程序结束</text></g><g id="edge22" class="edge"><title>F-&gt;T</title><path fill="none" stroke="#000" d="M172-940.6c0 16.33.0 38.13.0 55.45"/><polygon fill="#000" stroke="#000" points="175.5,-885.25 172,-875.25 168.5,-885.25 175.5,-885.25"/></g><g id="node9" class="node"><title>I</title><polygon fill="#ffffe0" stroke="#000" points="362,-904 260.5,-855.5 362,-807 463.5,-855.5 362,-904"/><text text-anchor="middle" x="362" y="-862.45" font-family="SimHei" font-size="14">物理内存是否</text><text text-anchor="middle" x="362" y="-842.2" font-family="SimHei" font-size="14">有空闲页面</text></g><g id="edge8" class="edge"><title>G-&gt;I</title><path fill="none" stroke="#000" d="M341.86-946.94C344.07-936.99 346.99-923.9 349.91-910.77"/><polygon fill="#000" stroke="#000" points="353.27,-911.81 352.02,-901.29 346.43,-910.29 353.27,-911.81"/></g><g id="edge9" class="edge"><title>H-&gt;I</title><path fill="none" stroke="#000" d="M466.08-946.94C449.9-932.88 426.5-912.54 405.97-894.71"/><polygon fill="#000" stroke="#000" points="408.37,-892.16 398.53,-888.24 403.78,-897.44 408.37,-892.16"/></g><g id="node10" class="node"><title>J</title><polygon fill="#add8e6" stroke="#000" points="359,-571 229,-571 229,-535 359,-535 359,-571"/><text text-anchor="middle" x="294" y="-549.83" font-family="SimHei" font-size="14">分配空闲物理页面</text></g><g id="edge10" class="edge"><title>I-&gt;J</title><path fill="none" stroke="#000" d="M334.08-820.28C321.13-802.29 307.07-779.19 3e2-756 281.84-696.39 285.99-622.25 290.24-582.44"/><polygon fill="#000" stroke="#000" points="293.68,-583.09 291.36,-572.75 286.73,-582.28 293.68,-583.09"/><text text-anchor="middle" x="312.48" y="-680" font-family="SimHei" font-size="10">有空闲页面</text></g><g id="node11" class="node"><title>K</title><polygon fill="#ffeb99" stroke="#000" points="451.38,-756 308.62,-756 308.62,-707.5 451.38,-707.5 451.38,-756"/><text text-anchor="middle" x="380" y="-738.7" font-family="SimHei" font-size="14">使用页面置换算法</text><text text-anchor="middle" x="380" y="-718.45" font-family="SimHei" font-size="14">如LRU选择页面换出</text></g><g id="edge11" class="edge"><title>I-&gt;K</title><path fill="none" stroke="#000" d="M368.6-809.86C370.68-795.79 372.94-780.47 374.9-767.23"/><polygon fill="#000" stroke="#000" points="378.31,-768.1 376.31,-757.7 371.39,-767.08 378.31,-768.1"/><text text-anchor="middle" x="393.16" y="-779.5" font-family="SimHei" font-size="10">内存不足</text></g><g id="node13" class="node"><title>M</title><polygon fill="#ffffe0" stroke="#000" points="294,-498 221,-469.75 294,-441.5 367,-469.75 294,-498"/><text text-anchor="middle" x="294" y="-466.57" font-family="SimHei" font-size="14">页面类型</text></g><g id="edge14" class="edge"><title>J-&gt;M</title><path fill="none" stroke="#000" d="M294-534.77C294-527.45 294-518.59 294-509.83"/><polygon fill="#000" stroke="#000" points="297.5,-510.02 294,-500.02 290.5,-510.02 297.5,-510.02"/></g><g id="node12" class="node"><title>L</title><polygon fill="#ffeb99" stroke="#000" points="452.12,-656.5 307.88,-656.5 307.88,-608 452.12,-608 452.12,-656.5"/><text text-anchor="middle" x="380" y="-639.2" font-family="SimHei" font-size="14">将选中页面写回磁盘</text><text text-anchor="middle" x="380" y="-618.95" font-family="SimHei" font-size="14">释放物理页面</text></g><g id="edge12" class="edge"><title>K-&gt;L</title><path fill="none" stroke="#000" d="M380-707.15C380-695.5 380-681.21 380-668.31"/><polygon fill="#000" stroke="#000" points="383.5,-668.49 380,-658.49 376.5,-668.49 383.5,-668.49"/></g><g id="edge13" class="edge"><title>L-&gt;J</title><path fill="none" stroke="#000" d="M353.73-607.65C343.54-598.5 331.87-588.02 321.56-578.76"/><polygon fill="#000" stroke="#000" points="324.19,-576.41 314.41,-572.34 319.51,-581.62 324.19,-576.41"/></g><g id="node14" class="node"><title>N</title><polygon fill="#add8e6" stroke="#000" points="224.88,-390.5 109.12,-390.5 109.12,-342 224.88,-342 224.88,-390.5"/><text text-anchor="middle" x="167" y="-373.2" font-family="SimHei" font-size="14">初始化页面内容</text><text text-anchor="middle" x="167" y="-352.95" font-family="SimHei" font-size="14">通常清零</text></g><g id="edge15" class="edge"><title>M-&gt;N</title><path fill="none" stroke="#000" d="M270.71-450.13c-18.3 14.62-44.16 35.29-65.48 52.33"/><polygon fill="#000" stroke="#000" points="207.58,-395.21 197.59,-391.7 203.21,-400.67 207.58,-395.21"/><text text-anchor="middle" x="258.68" y="-414" font-family="SimHei" font-size="10">新分配页面</text></g><g id="node15" class="node"><title>O</title><polygon fill="#add8e6" stroke="#000" points="387.12,-390.5 242.88,-390.5 242.88,-342 387.12,-342 387.12,-390.5"/><text text-anchor="middle" x="315" y="-373.2" font-family="SimHei" font-size="14">从磁盘读取页面内容</text><text text-anchor="middle" x="315" y="-352.95" font-family="SimHei" font-size="14">加载到物理页面</text></g><g id="edge16" class="edge"><title>M-&gt;O</title><path fill="none" stroke="#000" d="M299.3-443.14C301.9-430.57 305.07-415.24 307.88-401.66"/><polygon fill="#000" stroke="#000" points="311.23,-402.75 309.83,-392.25 304.37,-401.33 311.23,-402.75"/><text text-anchor="middle" x="330.76" y="-414" font-family="SimHei" font-size="10">从磁盘加载</text></g><g id="node16" class="node"><title>P</title><polygon fill="#cfc" stroke="#000" points="282.62,-305 81.38,-305 81.38,-256.5 282.62,-256.5 282.62,-305"/><text text-anchor="middle" x="182" y="-287.7" font-family="SimHei" font-size="14">更新页表</text><text text-anchor="middle" x="182" y="-267.45" font-family="SimHei" font-size="14">添加虚拟地址到物理地址映射</text></g><g id="edge17" class="edge"><title>N-&gt;P</title><path fill="none" stroke="#000" d="M171.26-341.55C172.66-333.72 174.26-324.85 175.78-316.39"/><polygon fill="#000" stroke="#000" points="179.19,-317.18 177.52,-306.71 172.3,-315.94 179.19,-317.18"/></g><g id="edge18" class="edge"><title>O-&gt;P</title><path fill="none" stroke="#000" d="M277.24-341.55C262.23-332.12 244.81-321.18 228.99-311.25"/><polygon fill="#000" stroke="#000" points="231,-308.38 220.67,-306.03 227.28,-314.31 231,-308.38"/></g><g id="node17" class="node"><title>Q</title><polygon fill="#add8e6" stroke="#000" points="217.88,-219.5 102.12,-219.5 102.12,-171 217.88,-171 217.88,-219.5"/><text text-anchor="middle" x="160" y="-202.2" font-family="SimHei" font-size="14">恢复程序上下文</text><text text-anchor="middle" x="160" y="-181.95" font-family="SimHei" font-size="14">返回中断前状态</text></g><g id="edge19" class="edge"><title>P-&gt;Q</title><path fill="none" stroke="#000" d="M175.75-256.05C173.67-248.13 171.3-239.15 169.05-230.6"/><polygon fill="#000" stroke="#000" points="172.5,-229.97 166.57,-221.19 165.73,-231.75 172.5,-229.97"/></g><g id="node18" class="node"><title>R</title><polygon fill="#add8e6" stroke="#000" points="206.88,-134 91.12,-134 91.12,-85.5 206.88,-85.5 206.88,-134"/><text text-anchor="middle" x="149" y="-116.7" font-family="SimHei" font-size="14">CPU重新执行</text><text text-anchor="middle" x="149" y="-96.45" font-family="SimHei" font-size="14">引发缺页的指令</text></g><g id="edge20" class="edge"><title>Q-&gt;R</title><path fill="none" stroke="#000" d="M156.88-170.55C155.85-162.72 154.68-153.85 153.56-145.39"/><polygon fill="#000" stroke="#000" points="157.07,-145.18 152.29,-135.73 150.13,-146.1 157.07,-145.18"/></g><g id="edge21" class="edge"><title>R-&gt;S</title><path fill="none" stroke="#000" d="M125.15-85.05C116.3-76.24 106.11-66.12 96.67-56.73"/><polygon fill="#000" stroke="#000" points="99.25,-54.36 89.69,-49.79 94.31,-59.32 99.25,-54.36"/></g></g></svg>