<?xml version="1.0" encoding="UTF-8"?>
<!DOCTYPE svg PUBLIC "-//W3C//DTD SVG 1.1//EN" "http://www.w3.org/Graphics/SVG/1.1/DTD/svg11.dtd">
<svg xmlns="http://www.w3.org/2000/svg" width="783pt" height="411pt" viewBox="0 0 783 411" xmlns:xlink="http://www.w3.org/1999/xlink"><g id="graph0" class="graph" transform="scale(1 1) rotate(0) translate(4 407)"><title>interrupt_classification</title><g id="clust1" class="cluster"><title>cluster_source</title><polygon fill="lightgrey" stroke="lightgrey" points="304,-251 304,-323 606,-323 606,-251 304,-251"/><text text-anchor="middle" x="455" y="-310.2" font-family="Microsoft Yahei" font-size="11">按来源分类</text></g><g id="clust2" class="cluster"><title>cluster_maskable</title><polygon fill="lightgrey" stroke="lightgrey" points="8,-147.5 8,-219.5 232,-219.5 232,-147.5 8,-147.5"/><text text-anchor="middle" x="120" y="-206.7" font-family="Microsoft Yahei" font-size="11">按是否可屏蔽分类</text></g><g id="clust3" class="cluster"><title>cluster_external_details</title><polygon fill="#98fb98" stroke="#98fb98" points="515,-134 515,-232 767,-232 767,-134 515,-134"/><text text-anchor="middle" x="641" y="-220" font-family="Microsoft Yahei" font-size="10">外部中断具体类型</text></g><g id="clust4" class="cluster"><title>cluster_internal_details</title><polygon fill="#ffe4e1" stroke="#ffe4e1" points="240,-139.5 240,-226.5 507,-226.5 507,-139.5 240,-139.5"/><text text-anchor="middle" x="373.5" y="-214.5" font-family="Microsoft Yahei" font-size="10">内部中断/异常具体类型</text></g><g id="clust5" class="cluster"><title>cluster_maskable_details</title><polygon fill="#ffffe0" stroke="#ffffe0" points="597,-8 597,-106 682,-106 682,-8 597,-8"/><text text-anchor="middle" x="639.5" y="-94" font-family="Microsoft Yahei" font-size="10">可屏蔽中断示例</text></g><g id="clust6" class="cluster"><title>cluster_nmi_details</title><polygon fill="#ffdab9" stroke="#ffdab9" points="245,-8 245,-106 345,-106 345,-8 245,-8"/><text text-anchor="middle" x="295" y="-94" font-family="Microsoft Yahei" font-size="10">不可屏蔽中断示例</text></g><g id="node1" class="node"><title>interrupt</title><polygon fill="#add8e6" stroke="#000" stroke-width="2" points="259,-399 193,-399 193,-363 259,-363 259,-399"/><text text-anchor="middle" x="226" y="-384" font-family="Microsoft Yahei" font-size="10">中断</text><text text-anchor="middle" x="226" y="-373" font-family="Microsoft Yahei" font-size="10">(Interrupt)</text></g><g id="node2" class="node"><title>external_int</title><polygon fill="#90ee90" stroke="#000" points="598,-295 488,-295 488,-259 598,-259 598,-295"/><text text-anchor="middle" x="543" y="-280" font-family="Microsoft Yahei" font-size="10">外部中断</text><text text-anchor="middle" x="543" y="-269" font-family="Microsoft Yahei" font-size="10">(External Interrupt)</text></g><g id="edge1" class="edge"><title>interrupt-&gt;external_int</title><path fill="none" stroke="#000" d="M257.69-362.94C261.11-361.47 264.59-360.12 268-359c90.41 29.59 123.04-.25 211 36 12.88 5.31 25.72 13.59 36.47 21.61"/><polygon fill="#000" stroke="#000" points="517.86,-303.98 523.61,-295.08 513.57,-298.44 517.86,-303.98"/><text text-anchor="middle" x="468" y="-333.8" font-family="Microsoft Yahei" font-size="9">按来源</text></g><g id="node3" class="node"><title>internal_int</title><polygon fill="#f08080" stroke="#000" points="470,-295 312,-295 312,-259 470,-259 470,-295"/><text text-anchor="middle" x="391" y="-280" font-family="Microsoft Yahei" font-size="10">内部中断/异常</text><text text-anchor="middle" x="391" y="-269" font-family="Microsoft Yahei" font-size="10">(Internal Interrupt/Exception)</text></g><g id="edge2" class="edge"><title>interrupt-&gt;internal_int</title><path fill="none" stroke="#000" d="M253.62-362.93c27.72 17.14 70.57 43.63 101.04 62.46"/><polygon fill="#000" stroke="#000" points="356.63,-303.36 363.29,-295.13 352.95,-297.41 356.63,-303.36"/><text text-anchor="middle" x="317" y="-333.8" font-family="Microsoft Yahei" font-size="9">按来源</text></g><g id="node4" class="node"><title>maskable</title><polygon fill="#ffffe0" stroke="#000" points="224,-191.5 108,-191.5 108,-155.5 224,-155.5 224,-191.5"/><text text-anchor="middle" x="166" y="-176.5" font-family="Microsoft Yahei" font-size="10">可屏蔽中断</text><text text-anchor="middle" x="166" y="-165.5" font-family="Microsoft Yahei" font-size="10">(Maskable Interrupt)</text></g><g id="edge3" class="edge"><title>interrupt-&gt;maskable</title><path fill="none" stroke="#000" d="M220.99-362.83c-10.44 35.73-34.56 118.35-47.1 161.3"/><polygon fill="#000" stroke="#000" points="177.2,-200.38 171.04,-191.76 170.48,-202.34 177.2,-200.38"/><text text-anchor="middle" x="226.5" y="-274.8" font-family="Microsoft Yahei" font-size="9">按屏蔽性</text></g><g id="node5" class="node"><title>non_maskable</title><polygon fill="orange" stroke="#000" points="90.5,-191.5 15.5,-191.5 15.5,-155.5 90.5,-155.5 90.5,-191.5"/><text text-anchor="middle" x="53" y="-176.5" font-family="Microsoft Yahei" font-size="10">不可屏蔽中断</text><text text-anchor="middle" x="53" y="-165.5" font-family="Microsoft Yahei" font-size="10">(NMI)</text></g><g id="edge4" class="edge"><title>interrupt-&gt;non_maskable</title><path fill="none" stroke="#000" d="M197.66-362.99C181.9-352.67 162.59-338.52 148-323c-35.52 37.79-65.65 90.63-81.95 122.02"/><polygon fill="#000" stroke="#000" points="69.11,-199.27 61.44,-191.96 62.88,-202.46 69.11,-199.27"/><text text-anchor="middle" x="166.5" y="-274.8" font-family="Microsoft Yahei" font-size="9">按屏蔽性</text></g><g id="node6" class="node"><title>io_int</title><polygon fill="#fff" stroke="#000" points="758.5,-205 689.5,-205 689.5,-142 758.5,-142 758.5,-205"/><text text-anchor="middle" x="724" y="-193" font-family="Microsoft Yahei" font-size="10">I/O设备中断</text><text text-anchor="middle" x="724" y="-182" font-family="Microsoft Yahei" font-size="10">• 键盘</text><text text-anchor="middle" x="724" y="-171" font-family="Microsoft Yahei" font-size="10">• 鼠标</text><text text-anchor="middle" x="724" y="-160" font-family="Microsoft Yahei" font-size="10">• 网卡</text><text text-anchor="middle" x="724" y="-149" font-family="Microsoft Yahei" font-size="10">• 硬盘</text></g><g id="edge5" class="edge"><title>external_int-&gt;io_int</title><path fill="none" stroke="#000" d="M598.32-266.59C625.09-260.08 656.62-249.35 681-232 688.15-226.91 694.62-220.26 700.25-213.31"/><polygon fill="#000" stroke="#000" points="703.23,-215.17 706.45,-205.08 697.64,-210.96 703.23,-215.17"/></g><g id="node7" class="node"><title>timer_int</title><polygon fill="#fff" stroke="#000" points="671.5,-194 606.5,-194 606.5,-153 671.5,-153 671.5,-194"/><text text-anchor="middle" x="639" y="-182" font-family="Microsoft Yahei" font-size="10">时钟中断</text><text text-anchor="middle" x="639" y="-171" font-family="Microsoft Yahei" font-size="10">• 定时器</text><text text-anchor="middle" x="639" y="-160" font-family="Microsoft Yahei" font-size="10">• 系统时钟</text></g><g id="edge6" class="edge"><title>external_int-&gt;timer_int</title><path fill="none" stroke="#000" d="M567.24-258.92C577.3-251.27 588.76-241.77 598-232 606.39-223.14 614.45-212.47 621.17-202.75"/><polygon fill="#000" stroke="#000" points="624.27,-204.41 626.94,-194.16 618.46,-200.51 624.27,-204.41"/></g><g id="node8" class="node"><title>power_int</title><polygon fill="#fff" stroke="#000" points="588.5,-194 523.5,-194 523.5,-153 588.5,-153 588.5,-194"/><text text-anchor="middle" x="556" y="-182" font-family="Microsoft Yahei" font-size="10">电源中断</text><text text-anchor="middle" x="556" y="-171" font-family="Microsoft Yahei" font-size="10">• 电源故障</text><text text-anchor="middle" x="556" y="-160" font-family="Microsoft Yahei" font-size="10">• 电压异常</text></g><g id="edge7" class="edge"><title>external_int-&gt;power_int</title><path fill="none" stroke="#000" d="M545.21-258.78C547.1-243.98 549.88-222.29 552.14-204.62"/><polygon fill="#000" stroke="#000" points="555.67,-204.6 553.47,-194.24 548.73,-203.71 555.67,-204.6"/></g><g id="node9" class="node"><title>program_exception</title><polygon fill="#fff" stroke="#000" points="415.5,-199.5 350.5,-199.5 350.5,-147.5 415.5,-147.5 415.5,-199.5"/><text text-anchor="middle" x="383" y="-187.5" font-family="Microsoft Yahei" font-size="10">程序异常</text><text text-anchor="middle" x="383" y="-176.5" font-family="Microsoft Yahei" font-size="10">• 除零错误</text><text text-anchor="middle" x="383" y="-165.5" font-family="Microsoft Yahei" font-size="10">• 非法指令</text><text text-anchor="middle" x="383" y="-154.5" font-family="Microsoft Yahei" font-size="10">• 访问违规</text></g><g id="edge8" class="edge"><title>internal_int-&gt;program_exception</title><path fill="none" stroke="#000" d="M389.64-258.78C388.6-245.51 387.11-226.71 385.82-210.23"/><polygon fill="#000" stroke="#000" points="389.27,-209.51 385,-199.81 382.29,-210.06 389.27,-209.51"/></g><g id="node10" class="node"><title>system_call</title><polygon fill="#fff" stroke="#000" points="498.5,-194 433.5,-194 433.5,-153 498.5,-153 498.5,-194"/><text text-anchor="middle" x="466" y="-182" font-family="Microsoft Yahei" font-size="10">系统调用</text><text text-anchor="middle" x="466" y="-171" font-family="Microsoft Yahei" font-size="10">• 软件中断</text><text text-anchor="middle" x="466" y="-160" font-family="Microsoft Yahei" font-size="10">• 陷阱指令</text></g><g id="edge9" class="edge"><title>internal_int-&gt;system_call</title><path fill="none" stroke="#000" d="M404.39-258.98C410.72-250.87 418.32-240.99 425-232 432.11-222.43 439.73-211.83 446.45-202.37"/><polygon fill="#000" stroke="#000" points="449.41,-204.25 452.33,-194.06 443.7,-200.2 449.41,-204.25"/></g><g id="node11" class="node"><title>memory_exception</title><polygon fill="#fff" stroke="#000" points="332,-194 248,-194 248,-153 332,-153 332,-194"/><text text-anchor="middle" x="290" y="-182" font-family="Microsoft Yahei" font-size="10">存储器异常</text><text text-anchor="middle" x="290" y="-171" font-family="Microsoft Yahei" font-size="10">• 页面错误</text><text text-anchor="middle" x="290" y="-160" font-family="Microsoft Yahei" font-size="10">• 内存保护违规</text></g><g id="edge10" class="edge"><title>internal_int-&gt;memory_exception</title><path fill="none" stroke="#000" d="M371.02-258.9C361.96-250.93 351.23-241.2 342-232 332.37-222.4 322.25-211.43 313.51-201.66"/><polygon fill="#000" stroke="#000" points="316.1,-199.3 306.85,-194.13 310.86,-203.94 316.1,-199.3"/></g><g id="node12" class="node"><title>normal_devices</title><polygon fill="#fff" stroke="#000" points="671.5,-79 606.5,-79 606.5,-16 671.5,-16 671.5,-79"/><text text-anchor="middle" x="639" y="-67" font-family="Microsoft Yahei" font-size="10">普通外设</text><text text-anchor="middle" x="639" y="-56" font-family="Microsoft Yahei" font-size="10">• 键盘中断</text><text text-anchor="middle" x="639" y="-45" font-family="Microsoft Yahei" font-size="10">• 鼠标中断</text><text text-anchor="middle" x="639" y="-34" font-family="Microsoft Yahei" font-size="10">• 网络中断</text><text text-anchor="middle" x="639" y="-23" font-family="Microsoft Yahei" font-size="10">• 串口中断</text></g><g id="edge11" class="edge"><title>maskable-&gt;normal_devices</title><path fill="none" stroke="#000" d="M190.77-155.45c12.89 7.97 29.27 16.72 45.23 21.45C294.11-116.78 312.31-134.52 372-124c80.89 14.26 172.48 43.02 224.62 60.64"/><polygon fill="#000" stroke="#000" points="597.86,-66.64 606.2,-60.1 595.61,-60.01 597.86,-66.64"/></g><g id="node13" class="node"><title>critical_events</title><polygon fill="#fff" stroke="#000" points="337,-79 253,-79 253,-16 337,-16 337,-79"/><text text-anchor="middle" x="295" y="-67" font-family="Microsoft Yahei" font-size="10">紧急事件</text><text text-anchor="middle" x="295" y="-56" font-family="Microsoft Yahei" font-size="10">• 电源故障</text><text text-anchor="middle" x="295" y="-45" font-family="Microsoft Yahei" font-size="10">• 内存校验错误</text><text text-anchor="middle" x="295" y="-34" font-family="Microsoft Yahei" font-size="10">• 硬件故障</text><text text-anchor="middle" x="295" y="-23" font-family="Microsoft Yahei" font-size="10">• 看门狗超时</text></g><g id="edge12" class="edge"><title>non_maskable-&gt;critical_events</title><path fill="none" stroke="#000" d="M70.88-155.49C79.04-148.27 89.08-140.14 99-134c46.18 28.57 103.57 52.41 144.29 67.59"/><polygon fill="#000" stroke="#000" points="244.58,-69.67 252.75,-62.93 242.16,-63.1 244.58,-69.67"/></g><g id="edge13" class="edge"><title>io_int-&gt;normal_devices</title><path fill="none" stroke="gray" stroke-dasharray="5,2" d="M706.47-141.73C701.08-132.67 694.98-122.82 689-114 683.04-105.2 676.33-96 669.81-87.36"/><polygon fill="gray" stroke="gray" points="672.49,-85.11 663.64,-79.29 666.93,-89.36 672.49,-85.11"/><text text-anchor="middle" x="718" y="-116.8" font-family="Microsoft Yahei" font-size="9">通常可屏蔽</text></g><g id="edge14" class="edge"><title>timer_int-&gt;normal_devices</title><path fill="none" stroke="gray" stroke-dasharray="5,2" d="M639-152.85c0 17.02.0 42.19.0 63.55"/><polygon fill="gray" stroke="gray" points="642.5,-89.17 639,-79.17 635.5,-89.17 642.5,-89.17"/><text text-anchor="middle" x="662" y="-116.8" font-family="Microsoft Yahei" font-size="9">通常可屏蔽</text></g><g id="edge15" class="edge"><title>power_int-&gt;critical_events</title><path fill="none" stroke="gray" stroke-dasharray="5,2" d="M536.05-152.95C528.6-146.34 519.81-139.31 511-134c-52.62 31.71-119.09 55.95-164.3 70.39"/><polygon fill="gray" stroke="gray" points="347.69,-60.25 337.1,-60.59 345.59,-66.93 347.69,-60.25"/><text text-anchor="middle" x="516.5" y="-116.8" font-family="Microsoft Yahei" font-size="9">通常不可屏蔽</text></g><g id="node14" class="node"><title>note1</title><polygon fill="wheat" stroke="#000" points="385,-403 277,-403 277,-359 391,-359 391,-397 385,-403"/><polyline fill="none" stroke="#000" points="385,-403 385,-397"/><polyline fill="none" stroke="#000" points="391,-397 385,-397"/><text text-anchor="middle" x="334" y="-392.6" font-family="Microsoft Yahei" font-size="8">注意：</text><text text-anchor="middle" x="334" y="-383.6" font-family="Microsoft Yahei" font-size="8">• 异常是内部中断的一种</text><text text-anchor="middle" x="334" y="-374.6" font-family="Microsoft Yahei" font-size="8">• 有些书将中断和异常区分</text><text text-anchor="middle" x="334" y="-365.6" font-family="Microsoft Yahei" font-size="8">• 分类方法可能因教材而异</text></g></g></svg>