<?xml version="1.0" encoding="UTF-8"?>
<!DOCTYPE svg PUBLIC "-//W3C//DTD SVG 1.1//EN" "http://www.w3.org/Graphics/SVG/1.1/DTD/svg11.dtd">
<svg xmlns="http://www.w3.org/2000/svg" width="350pt" height="189pt" viewBox="0 0 350 189" xmlns:xlink="http://www.w3.org/1999/xlink"><g id="graph0" class="graph" transform="scale(1 1) rotate(0) translate(4 185)"><title>CacheAddressStructure</title><g id="node1" class="node"><title>PhysicalAddress</title><polygon fill="none" stroke="#000" points="0,-56 0,-125 128,-125 128,-56 0,-56"/><text text-anchor="middle" x="64" y="-109.8" font-family="Microsoft Yahei" font-size="14">标记</text><polyline fill="none" stroke="#000" points="0,-102 128,-102"/><text text-anchor="middle" x="64" y="-86.8" font-family="Microsoft Yahei" font-size="14">cache块匹配字段</text><polyline fill="none" stroke="#000" points="0,-79 128,-79"/><text text-anchor="middle" x="64" y="-63.8" font-family="Microsoft Yahei" font-size="14">块内地址</text></g><g id="node2" class="node"><title>DirectMapping</title><polygon fill="none" stroke="blue" points="336,-181 164,-181 164,-128 342,-128 342,-175 336,-181"/><polyline fill="none" stroke="blue" points="336,-181 336,-175"/><polyline fill="none" stroke="blue" points="342,-175 336,-175"/><text text-anchor="middle" x="253" y="-165.8" font-family="Microsoft Yahei" font-size="14" fill="blue">直接映射</text><text text-anchor="middle" x="253" y="-150.8" font-family="Microsoft Yahei" font-size="14" fill="blue">cache块匹配字段 = 块号</text><text text-anchor="middle" x="253" y="-135.8" font-family="Microsoft Yahei" font-size="14" fill="blue">位数 = log2(缓存块数量)</text></g><g id="edge1" class="edge"><title>PhysicalAddress:index-&gt;DirectMapping</title><path fill="none" stroke="#000" stroke-dasharray="5,2" d="M128-90.5c20.27.0 18.46-17.85 36-28C166.86-120.15 169.81-121.77 172.81-123.34"/><polygon fill="#000" stroke="#000" points="171.47,-126.58 181.98,-127.93 174.6,-120.32 171.47,-126.58"/></g><g id="node3" class="node"><title>FullyAssociative</title><polygon fill="none" stroke="green" points="329,-109.5 171,-109.5 171,-71.5 335,-71.5 335,-103.5 329,-109.5"/><polyline fill="none" stroke="green" points="329,-109.5 329,-103.5"/><polyline fill="none" stroke="green" points="335,-103.5 329,-103.5"/><text text-anchor="middle" x="253" y="-94.3" font-family="Microsoft Yahei" font-size="14" fill="green">全相联映射</text><text text-anchor="middle" x="253" y="-79.3" font-family="Microsoft Yahei" font-size="14" fill="green">cache块匹配字段 = 空</text></g><g id="edge2" class="edge"><title>PhysicalAddress:index-&gt;FullyAssociative</title><path fill="none" stroke="#000" stroke-dasharray="5,2" d="M128-90.5c10.63.0 21.77.0 32.84.0"/><polygon fill="#000" stroke="#000" points="160.96,-94 170.96,-90.5 160.96,-87 160.96,-94"/></g><g id="node4" class="node"><title>SetAssociative</title><polygon fill="none" stroke="orange" points="336,-53 164,-53 164,0 342,0 342,-47 336,-53"/><polyline fill="none" stroke="orange" points="336,-53 336,-47"/><polyline fill="none" stroke="orange" points="342,-47 336,-47"/><text text-anchor="middle" x="253" y="-37.8" font-family="Microsoft Yahei" font-size="14" fill="orange">组相联映射</text><text text-anchor="middle" x="253" y="-22.8" font-family="Microsoft Yahei" font-size="14" fill="orange">cache块匹配字段 = 组号</text><text text-anchor="middle" x="253" y="-7.8" font-family="Microsoft Yahei" font-size="14" fill="orange">位数 = log2(组数)</text></g><g id="edge3" class="edge"><title>PhysicalAddress:index-&gt;SetAssociative</title><path fill="none" stroke="#000" stroke-dasharray="5,2" d="M128-90.5c20.27.0 18.46 17.85 36 28C166.86-60.85 169.81-59.23 172.81-57.66"/><polygon fill="#000" stroke="#000" points="174.6,-60.68 181.98,-53.07 171.47,-54.42 174.6,-60.68"/></g></g></svg>