<?xml version="1.0" encoding="UTF-8"?>
<!DOCTYPE svg PUBLIC "-//W3C//DTD SVG 1.1//EN" "http://www.w3.org/Graphics/SVG/1.1/DTD/svg11.dtd">
<svg xmlns="http://www.w3.org/2000/svg" width="653pt" height="500pt" viewBox="0 0 652.5 500" xmlns:xlink="http://www.w3.org/1999/xlink"><g id="graph0" class="graph" transform="scale(1 1) rotate(0) translate(4 496)"><title>IPChecksumFlow</title><g id="node1" class="node"><title>start</title><polygon fill="#add8e6" stroke="#000" points="143,-492 0,-492 0,-456 143,-456 143,-492"/><text text-anchor="middle" x="71.5" y="-470.3" font-family="Microsoft Yahei" font-size="14">发送端创建IP数据报</text></g><g id="node2" class="node"><title>calc_checksum</title><polygon fill="#90ee90" stroke="#000" points="136,-419 7,-419 7,-383 136,-383 136,-419"/><text text-anchor="middle" x="71.5" y="-397.3" font-family="Microsoft Yahei" font-size="14">计算IP首部校验和</text></g><g id="edge1" class="edge"><title>start-&gt;calc_checksum</title><path fill="none" stroke="#000" d="M71.5-455.81c0 8.01999999999998.0 17.76.0 26.74"/><polygon fill="#000" stroke="#000" points="75,-429.03 71.5,-419.03 68,-429.03 75,-429.03"/></g><g id="node3" class="node"><title>fill_checksum</title><polygon fill="#90ee90" stroke="#000" points="155.5,-273 11.5,-273 11.5,-237 155.5,-237 155.5,-273"/><text text-anchor="middle" x="83.5" y="-251.3" font-family="Microsoft Yahei" font-size="14">填充checksum字段</text></g><g id="edge2" class="edge"><title>calc_checksum-&gt;fill_checksum</title><path fill="none" stroke="#000" d="M72.92-382.92c2.06 24.69 5.88 70.57 8.33 99.88"/><polygon fill="#000" stroke="#000" points="84.74,-283.32 82.08,-273.06 77.76,-282.74 84.74,-283.32"/></g><g id="node4" class="node"><title>router</title><polygon fill="#ffffe0" stroke="#000" points="310,-492 179,-492 179,-456 310,-456 310,-492"/><text text-anchor="middle" x="244.5" y="-470.3" font-family="Microsoft Yahei" font-size="14">路由器接收数据报</text></g><g id="edge3" class="edge"><title>fill_checksum-&gt;router</title><path fill="none" stroke="#000" d="M92.25-273.2c16.14-30.88 52.66-97.06 93.25-145.8C194.33-429.61 205.21-440.12 215.2-449.01"/><polygon fill="#000" stroke="#000" points="213.13,-451.85 222.97,-455.77 217.72,-446.57 213.13,-451.85"/></g><g id="node5" class="node"><title>router_calc</title><polygon fill="#ffffe0" stroke="#000" points="340,-419 195,-419 195,-383 340,-383 340,-419"/><text text-anchor="middle" x="267.5" y="-397.3" font-family="Microsoft Yahei" font-size="14">重新计算首部校验和</text></g><g id="edge4" class="edge"><title>router-&gt;router_calc</title><path fill="none" stroke="#000" d="M250.07-455.81C252.7-447.7 255.89-437.84 258.83-428.78"/><polygon fill="#000" stroke="#000" points="262.23,-429.62 261.98,-419.03 255.57,-427.46 262.23,-429.62"/></g><g id="node6" class="node"><title>router_compare</title><polygon fill="#ffffe0" stroke="#000" points="350.5,-346 192.5,-346 192.5,-310 350.5,-310 350.5,-346"/><text text-anchor="middle" x="271.5" y="-324.3" font-family="Microsoft Yahei" font-size="14">与checksum字段比较</text></g><g id="edge5" class="edge"><title>router_calc-&gt;router_compare</title><path fill="none" stroke="#000" d="M268.47-382.81C268.92-374.79 269.47-365.05 269.97-356.07"/><polygon fill="#000" stroke="#000" points="273.47,-356.21 270.54,-346.03 266.48,-355.82 273.47,-356.21"/></g><g id="node7" class="node"><title>router_decision</title><polygon fill="orange" stroke="#000" points="271.5,-273 177.99,-255 271.5,-237 365.01,-255 271.5,-273"/><text text-anchor="middle" x="271.5" y="-251.3" font-family="Microsoft Yahei" font-size="14">校验和一致？</text></g><g id="edge6" class="edge"><title>router_compare-&gt;router_decision</title><path fill="none" stroke="#000" d="M271.5-309.81c0 8.01999999999998.0 17.76.0 26.74"/><polygon fill="#000" stroke="#000" points="275,-283.03 271.5,-273.03 268,-283.03 275,-283.03"/></g><g id="node8" class="node"><title>router_discard</title><polygon fill="red" stroke="#000" points="236.5,-186 148.5,-186 148.5,-148 236.5,-148 236.5,-186"/><text text-anchor="middle" x="192.5" y="-170.8" font-family="Microsoft Yahei" font-size="14">丢弃数据报</text><text text-anchor="middle" x="192.5" y="-155.8" font-family="Microsoft Yahei" font-size="14">(传输出错)</text></g><g id="edge7" class="edge"><title>router_decision-&gt;router_discard</title><path fill="none" stroke="red" d="M258.1-239.41c-11.47 12.49-28.26 30.76-41.98 45.7"/><polygon fill="red" stroke="red" points="218.61,-191.25 209.27,-186.26 213.46,-195.99 218.61,-191.25"/><text text-anchor="middle" x="247" y="-207.8" font-family="Microsoft Yahei" font-size="14">否</text></g><g id="node9" class="node"><title>router_modify</title><polygon fill="#ffffe0" stroke="#000" points="369,-186 254,-186 254,-148 369,-148 369,-186"/><text text-anchor="middle" x="311.5" y="-170.8" font-family="Microsoft Yahei" font-size="14">修改IP头部字段</text><text text-anchor="middle" x="311.5" y="-155.8" font-family="Microsoft Yahei" font-size="14">(如TTL减1)</text></g><g id="edge8" class="edge"><title>router_decision-&gt;router_modify</title><path fill="none" stroke="green" d="M278.84-238.23C284.41-226.25 292.21-209.48 298.78-195.34"/><polygon fill="green" stroke="green" points="302.06,-196.6 303.1,-186.05 295.71,-193.65 302.06,-196.6"/><text text-anchor="middle" x="302" y="-207.8" font-family="Microsoft Yahei" font-size="14">是</text></g><g id="node10" class="node"><title>router_recalc</title><polygon fill="#ffffe0" stroke="#000" points="369.5,-111 253.5,-111 253.5,-73 369.5,-73 369.5,-111"/><text text-anchor="middle" x="311.5" y="-95.8" font-family="Microsoft Yahei" font-size="14">重新计算并填充</text><text text-anchor="middle" x="311.5" y="-80.8" font-family="Microsoft Yahei" font-size="14">checksum字段</text></g><g id="edge9" class="edge"><title>router_modify-&gt;router_recalc</title><path fill="none" stroke="#000" d="M311.5-147.96c0 8.08000000000001.0 17.78.0 26.78"/><polygon fill="#000" stroke="#000" points="315,-121.09 311.5,-111.09 308,-121.09 315,-121.09"/></g><g id="node11" class="node"><title>router_forward</title><polygon fill="#90ee90" stroke="#000" points="398.5,-36 310.5,-36 310.5,0 398.5,0 398.5,-36"/><text text-anchor="middle" x="354.5" y="-14.3" font-family="Microsoft Yahei" font-size="14">转发数据报</text></g><g id="edge10" class="edge"><title>router_recalc-&gt;router_forward</title><path fill="none" stroke="#000" d="M322.35-72.83C327.35-64.46 333.38-54.36 338.86-45.19"/><polygon fill="#000" stroke="#000" points="341.98,-46.8 344.1,-36.42 335.97,-43.21 341.98,-46.8"/></g><g id="node12" class="node"><title>dest</title><polygon fill="#e0ffff" stroke="#000" points="478,-492 333,-492 333,-456 478,-456 478,-492"/><text text-anchor="middle" x="405.5" y="-470.3" font-family="Microsoft Yahei" font-size="14">目标机器接收数据报</text></g><g id="edge11" class="edge"><title>router_forward-&gt;dest</title><path fill="none" stroke="#000" d="M371.99-36.25C383.89-49.87 397.5-70.03 397.5-91V-402C397.5-416.44 399.15-432.43 400.96-445.57"/><polygon fill="#000" stroke="#000" points="397.55,-446.46 402.48,-455.84 404.48,-445.44 397.55,-446.46"/></g><g id="node13" class="node"><title>dest_calc</title><polygon fill="#e0ffff" stroke="#000" points="574,-419 429,-419 429,-383 574,-383 574,-419"/><text text-anchor="middle" x="501.5" y="-397.3" font-family="Microsoft Yahei" font-size="14">重新计算首部校验和</text></g><g id="edge12" class="edge"><title>dest-&gt;dest_calc</title><path fill="none" stroke="#000" d="M428.74-455.81C441.24-446.57 456.82-435.04 470.36-425.03"/><polygon fill="#000" stroke="#000" points="472.52,-427.79 478.48,-419.03 468.35,-422.16 472.52,-427.79"/></g><g id="node14" class="node"><title>dest_compare</title><polygon fill="#e0ffff" stroke="#000" points="590.5,-346 432.5,-346 432.5,-310 590.5,-310 590.5,-346"/><text text-anchor="middle" x="511.5" y="-324.3" font-family="Microsoft Yahei" font-size="14">与checksum字段比较</text></g><g id="edge13" class="edge"><title>dest_calc-&gt;dest_compare</title><path fill="none" stroke="#000" d="M503.92-382.81C505.05-374.79 506.42-365.05 507.69-356.07"/><polygon fill="#000" stroke="#000" points="511.17,-356.42 509.1,-346.03 504.24,-355.44 511.17,-356.42"/></g><g id="node15" class="node"><title>dest_decision</title><polygon fill="orange" stroke="#000" points="519.5,-273 425.99,-255 519.5,-237 613.01,-255 519.5,-273"/><text text-anchor="middle" x="519.5" y="-251.3" font-family="Microsoft Yahei" font-size="14">校验和一致？</text></g><g id="edge14" class="edge"><title>dest_compare-&gt;dest_decision</title><path fill="none" stroke="#000" d="M513.44-309.81C514.34-301.79 515.44-292.05 516.45-283.07"/><polygon fill="#000" stroke="#000" points="519.94,-283.36 517.58,-273.03 512.98,-282.57 519.94,-283.36"/></g><g id="node16" class="node"><title>dest_discard</title><polygon fill="red" stroke="#000" points="538.5,-186 450.5,-186 450.5,-148 538.5,-148 538.5,-186"/><text text-anchor="middle" x="494.5" y="-170.8" font-family="Microsoft Yahei" font-size="14">丢弃数据报</text><text text-anchor="middle" x="494.5" y="-155.8" font-family="Microsoft Yahei" font-size="14">(传输出错)</text></g><g id="edge15" class="edge"><title>dest_decision-&gt;dest_discard</title><path fill="none" stroke="red" d="M514.8-237.82C511.39-226.11 506.71-209.99 502.69-196.18"/><polygon fill="red" stroke="red" points="505.94,-194.81 499.79,-186.19 499.22,-196.77 505.94,-194.81"/><text text-anchor="middle" x="517" y="-207.8" font-family="Microsoft Yahei" font-size="14">否</text></g><g id="node17" class="node"><title>dest_accept</title><polygon fill="#90ee90" stroke="#000" points="644.5,-185 556.5,-185 556.5,-149 644.5,-149 644.5,-185"/><text text-anchor="middle" x="600.5" y="-163.3" font-family="Microsoft Yahei" font-size="14">接受数据报</text></g><g id="edge16" class="edge"><title>dest_decision-&gt;dest_accept</title><path fill="none" stroke="green" d="M533.24-239.41C545.31-226.6 563.12-207.69 577.38-192.55"/><polygon fill="green" stroke="green" points="580.15,-194.71 584.46,-185.03 575.06,-189.91 580.15,-194.71"/><text text-anchor="middle" x="572" y="-207.8" font-family="Microsoft Yahei" font-size="14">是</text></g></g></svg>