<?xml version="1.0" encoding="UTF-8"?>
<!DOCTYPE svg PUBLIC "-//W3C//DTD SVG 1.1//EN" "http://www.w3.org/Graphics/SVG/1.1/DTD/svg11.dtd">
<svg xmlns="http://www.w3.org/2000/svg" viewBox="0 0 800 500"><rect width="800" height="500" fill="none"/><text x="400" y="30" text-anchor="middle" font-family="Arial, sans-serif" font-size="24" font-weight="bold" fill="#1e293b">I/O 设备类型分类</text><g><rect x="50" y="70" width="220" height="380" rx="10" fill="#e0f2fe" stroke="#0284c7" stroke-width="2"/><rect x="60" y="80" width="200" height="40" rx="5" fill="#0284c7"/><text x="160" y="105" text-anchor="middle" font-family="Arial, sans-serif" font-size="16" font-weight="bold" fill="#fff">块设备 (Block)</text><rect x="70" y="140" width="180" height="25" rx="12" fill="#bae6fd" stroke="#0284c7"/><text x="160" y="157" text-anchor="middle" font-family="Arial, sans-serif" font-size="12" fill="#0c4a6e">固定大小数据块</text><rect x="70" y="175" width="180" height="25" rx="12" fill="#bae6fd" stroke="#0284c7"/><text x="160" y="192" text-anchor="middle" font-family="Arial, sans-serif" font-size="12" fill="#0c4a6e">支持随机访问</text><rect x="70" y="210" width="180" height="25" rx="12" fill="#bae6fd" stroke="#0284c7"/><text x="160" y="227" text-anchor="middle" font-family="Arial, sans-serif" font-size="12" fill="#0c4a6e">高数据传输速率</text><g transform="translate(80, 260)"><rect x="0" y="0" width="45" height="30" rx="3" fill="#374151" stroke="#1f2937"/><circle cx="22.5" cy="15" r="10" fill="#6b7280"/><circle cx="22.5" cy="15" r="6" fill="#374151"/><text x="50" y="20" font-family="Arial, sans-serif" font-size="11" fill="#374151">机械硬盘</text></g><g transform="translate(80, 300)"><rect x="0" y="0" width="45" height="30" rx="3" fill="#059669" stroke="#047857"/><rect x="5" y="5" width="35" height="20" rx="2" fill="#10b981"/><text x="50" y="20" font-family="Arial, sans-serif" font-size="11" fill="#374151">固态硬盘</text></g><g transform="translate(80, 340)"><rect x="0" y="10" width="30" height="10" rx="2" fill="#7c3aed" stroke="#6d28d9"/><rect x="30" y="5" width="15" height="20" rx="3" fill="#8b5cf6" stroke="#7c3aed"/><text x="50" y="20" font-family="Arial, sans-serif" font-size="11" fill="#374151">USB 闪存盘</text></g></g><g><rect x="290" y="70" width="220" height="380" rx="10" fill="#f0fdf4" stroke="#16a34a" stroke-width="2"/><rect x="300" y="80" width="200" height="40" rx="5" fill="#16a34a"/><text x="400" y="105" text-anchor="middle" font-family="Arial, sans-serif" font-size="16" font-weight="bold" fill="#fff">字符设备 (Character)</text><rect x="310" y="140" width="180" height="25" rx="12" fill="#bbf7d0" stroke="#16a34a"/><text x="400" y="157" text-anchor="middle" font-family="Arial, sans-serif" font-size="12" fill="#14532d">连续字符流</text><rect x="310" y="175" width="180" height="25" rx="12" fill="#bbf7d0" stroke="#16a34a"/><text x="400" y="192" text-anchor="middle" font-family="Arial, sans-serif" font-size="12" fill="#14532d">顺序访问</text><rect x="310" y="210" width="180" height="25" rx="12" fill="#bbf7d0" stroke="#16a34a"/><text x="400" y="227" text-anchor="middle" font-family="Arial, sans-serif" font-size="12" fill="#14532d">实时传输</text><g transform="translate(320, 260)"><rect x="0" y="0" width="50" height="30" rx="3" fill="#374151" stroke="#1f2937"/><rect x="3" y="3" width="6" height="6" rx="1" fill="#6b7280"/><rect x="12" y="3" width="6" height="6" rx="1" fill="#6b7280"/><rect x="21" y="3" width="6" height="6" rx="1" fill="#6b7280"/><rect x="30" y="3" width="6" height="6" rx="1" fill="#6b7280"/><rect x="39" y="3" width="8" height="6" rx="1" fill="#6b7280"/><rect x="3" y="12" width="8" height="6" rx="1" fill="#6b7280"/><rect x="14" y="12" width="6" height="6" rx="1" fill="#6b7280"/><rect x="23" y="12" width="6" height="6" rx="1" fill="#6b7280"/><rect x="32" y="12" width="6" height="6" rx="1" fill="#6b7280"/><rect x="41" y="12" width="6" height="6" rx="1" fill="#6b7280"/><rect x="6" y="21" width="38" height="6" rx="1" fill="#6b7280"/><text x="55" y="20" font-family="Arial, sans-serif" font-size="11" fill="#374151">键盘</text></g><g transform="translate(320, 300)"><ellipse cx="25" cy="15" rx="20" ry="12" fill="#374151" stroke="#1f2937"/><circle cx="20" cy="8" r="3" fill="#6b7280"/><circle cx="30" cy="8" r="3" fill="#6b7280"/><circle cx="25" cy="15" r="2" fill="#6b7280"/><text x="50" y="20" font-family="Arial, sans-serif" font-size="11" fill="#374151">鼠标</text></g><g transform="translate(320, 340)"><rect x="0" y="5" width="40" height="20" rx="2" fill="#6366f1" stroke="#4f46e5"/><circle cx="8" cy="15" r="2" fill="#e5e7eb"/><circle cx="16" cy="15" r="2" fill="#e5e7eb"/><circle cx="24" cy="15" r="2" fill="#e5e7eb"/><circle cx="32" cy="15" r="2" fill="#e5e7eb"/><text x="45" y="20" font-family="Arial, sans-serif" font-size="11" fill="#374151">串口终端</text></g></g><g><rect x="530" y="70" width="220" height="380" rx="10" fill="#fef3e2" stroke="#d97706" stroke-width="2"/><rect x="540" y="80" width="200" height="40" rx="5" fill="#d97706"/><text x="640" y="105" text-anchor="middle" font-family="Arial, sans-serif" font-size="16" font-weight="bold" fill="#fff">网络设备 (Network)</text><rect x="550" y="140" width="180" height="25" rx="12" fill="#fed7aa" stroke="#d97706"/><text x="640" y="157" text-anchor="middle" font-family="Arial, sans-serif" font-size="12" fill="#9a3412">数据包传输</text><rect x="550" y="175" width="180" height="25" rx="12" fill="#fed7aa" stroke="#d97706"/><text x="640" y="192" text-anchor="middle" font-family="Arial, sans-serif" font-size="12" fill="#9a3412">高速实时传输</text><rect x="550" y="210" width="180" height="25" rx="12" fill="#fed7aa" stroke="#d97706"/><text x="640" y="227" text-anchor="middle" font-family="Arial, sans-serif" font-size="12" fill="#9a3412">DMA和中断机制</text><g transform="translate(560, 260)"><rect x="0" y="5" width="50" height="20" rx="2" fill="#0ea5e9" stroke="#0284c7"/><rect x="5" y="0" width="5" height="30" rx="1" fill="#38bdf8"/><rect x="15" y="0" width="5" height="30" rx="1" fill="#38bdf8"/><rect x="25" y="0" width="5" height="30" rx="1" fill="#38bdf8"/><rect x="35" y="0" width="5" height="30" rx="1" fill="#38bdf8"/><rect x="45" y="0" width="5" height="30" rx="1" fill="#38bdf8"/><text x="55" y="20" font-family="Arial, sans-serif" font-size="11" fill="#374151">网络适配器</text></g><g transform="translate(560, 300)"><rect x="0" y="5" width="45" height="20" rx="2" fill="#8b5cf6" stroke="#7c3aed"/><circle cx="8" cy="15" r="2" fill="#a78bfa"/><circle cx="16" cy="15" r="2" fill="#a78bfa"/><circle cx="24" cy="15" r="2" fill="#a78bfa"/><circle cx="32" cy="15" r="2" fill="#a78bfa"/><circle cx="37" cy="15" r="2" fill="#22c55e"/><text x="50" y="20" font-family="Arial, sans-serif" font-size="11" fill="#374151">调制解调器</text></g><g transform="translate(560, 340)"><rect x="0" y="8" width="40" height="15" rx="2" fill="#ef4444" stroke="#dc2626"/><rect x="5" y="5" width="2" height="8" fill="#374151"/><rect x="15" y="5" width="2" height="8" fill="#374151"/><rect x="25" y="5" width="2" height="8" fill="#374151"/><rect x="35" y="5" width="2" height="8" fill="#374151"/><text x="45" y="20" font-family="Arial, sans-serif" font-size="11" fill="#374151">路由器</text></g></g><g opacity=".3"><g transform="translate(160, 380)"><rect x="0" y="0" width="15" height="8" fill="#0284c7"/><rect x="18" y="0" width="15" height="8" fill="#0284c7"/><rect x="36" y="0" width="15" height="8" fill="#0284c7"/><text x="26" y="20" text-anchor="middle" font-family="Arial, sans-serif" font-size="10" fill="#64748b">数据块</text></g><g transform="translate(350, 380)"><text x="0" y="8" font-family="monospace" font-size="12" fill="#16a34a">A B C D E F...</text><text x="26" y="20" text-anchor="middle" font-family="Arial, sans-serif" font-size="10" fill="#64748b">字符流</text></g><g transform="translate(590, 380)"><rect x="0" y="2" width="12" height="6" rx="1" fill="#d97706"/><rect x="15" y="2" width="12" height="6" rx="1" fill="#d97706"/><rect x="30" y="2" width="12" height="6" rx="1" fill="#d97706"/><text x="21" y="20" text-anchor="middle" font-family="Arial, sans-serif" font-size="10" fill="#64748b">数据包</text></g></g></svg>