<?xml version="1.0" encoding="UTF-8"?>
<!DOCTYPE svg PUBLIC "-//W3C//DTD SVG 1.1//EN" "http://www.w3.org/Graphics/SVG/1.1/DTD/svg11.dtd">
<svg xmlns="http://www.w3.org/2000/svg" width="958pt" height="620pt" viewBox="0 0 958 619.5" xmlns:xlink="http://www.w3.org/1999/xlink"><g id="graph0" class="graph" transform="scale(1 1) rotate(0) translate(4 615.5)"><title>SR_Protocol</title><g id="clust1" class="cluster"><title>cluster_window</title><polygon fill="#add8e6" stroke="#000" points="597,-382.5 597,-548.5 761,-548.5 761,-382.5 597,-382.5"/><text text-anchor="middle" x="679" y="-533.3" font-family="Times,serif" font-size="14">1. 窗口大小设计</text></g><g id="clust2" class="cluster"><title>cluster_sender</title><polygon fill="#ffffe0" stroke="#000" points="648,-89.5 648,-274.5 942,-274.5 942,-89.5 648,-89.5"/><text text-anchor="middle" x="795" y="-259.3" font-family="Times,serif" font-size="14">2. 发送方流程</text></g><g id="clust3" class="cluster"><title>cluster_receiver</title><polygon fill="#ffb6c1" stroke="#000" points="8,-8 8,-274.5 260,-274.5 260,-8 8,-8"/><text text-anchor="middle" x="134" y="-259.3" font-family="Times,serif" font-size="14">3. 接收方流程</text></g><g id="clust4" class="cluster"><title>cluster_features</title><polygon fill="#e6e6fa" stroke="#000" points="268,-89.5 268,-166.5 640,-166.5 640,-89.5 268,-89.5"/><text text-anchor="middle" x="454" y="-151.3" font-family="Times,serif" font-size="14">4. SR协议关键特性</text></g><g id="node1" class="node"><title>title</title><polygon fill="lightgrey" stroke="transparent" points="800.5,-611.5 557.5,-611.5 557.5,-575.5 800.5,-575.5 800.5,-611.5"/><text text-anchor="middle" x="679" y="-589.7" font-family="Microsoft Yahei" font-size="16">选择性重传（SR）协议核心概念</text></g><g id="node2" class="node"><title>window_size</title><polygon fill="#e0ffff" stroke="#000" points="753.5,-517.5 604.5,-517.5 604.5,-479.5 753.5,-479.5 753.5,-517.5"/><text text-anchor="middle" x="679" y="-502.3" font-family="Microsoft Yahei" font-size="14">窗口大小 = 2^(n-1)</text><text text-anchor="middle" x="679" y="-487.3" font-family="Microsoft Yahei" font-size="14">（序号空间的一半）</text></g><g id="edge13" class="edge"><title>title-&gt;window_size</title><path fill="none" stroke="#000" d="M679-575.44C679-562.15 679-543.4 679-527.86"/><polygon fill="#000" stroke="#000" points="682.5,-527.72 679,-517.72 675.5,-527.72 682.5,-527.72"/></g><g id="node3" class="node"><title>window_reason</title><polygon fill="#e0ffff" stroke="#000" points="744.5,-428.5 613.5,-428.5 613.5,-390.5 744.5,-390.5 744.5,-428.5"/><text text-anchor="middle" x="679" y="-413.3" font-family="Microsoft Yahei" font-size="14">防止发送窗口与</text><text text-anchor="middle" x="679" y="-398.3" font-family="Microsoft Yahei" font-size="14">接收窗口重叠歧义</text></g><g id="edge1" class="edge"><title>window_size-&gt;window_reason</title><path fill="none" stroke="#000" d="M679-479.47c0 11.78.0 27.41.0 40.81"/><polygon fill="#000" stroke="#000" points="682.5,-438.5 679,-428.5 675.5,-438.5 682.5,-438.5"/><text text-anchor="middle" x="708" y="-450.3" font-family="Microsoft Yahei" font-size="14">设计原因</text></g><g id="node4" class="node"><title>send_frames</title><polygon fill="#ff0" stroke="#000" points="744.5,-352.5 613.5,-352.5 613.5,-316.5 744.5,-316.5 744.5,-352.5"/><text text-anchor="middle" x="679" y="-330.8" font-family="Microsoft Yahei" font-size="14">在窗口内连续发帧</text></g><g id="edge14" class="edge"><title>window_reason-&gt;send_frames</title><path fill="none" stroke="blue" stroke-dasharray="5,2" d="M679-390.46C679-382.2 679-372.24 679-363.07"/><polygon fill="blue" stroke="blue" points="682.5,-362.83 679,-352.83 675.5,-362.83 682.5,-362.83"/></g><g id="node5" class="node"><title>start_timer</title><polygon fill="#ff0" stroke="#000" points="934.5,-243.5 775.5,-243.5 775.5,-207.5 934.5,-207.5 934.5,-243.5"/><text text-anchor="middle" x="855" y="-221.8" font-family="Microsoft Yahei" font-size="14">为每帧启动独立计时器</text></g><g id="edge2" class="edge"><title>send_frames-&gt;start_timer</title><path fill="none" stroke="#000" d="M707.28-316.31c30.02 18.25 77.6 47.18 110.61 67.25"/><polygon fill="#000" stroke="#000" points="820.07,-251.83 826.79,-243.65 816.43,-245.85 820.07,-251.83"/></g><g id="node6" class="node"><title>timeout_retrans</title><polygon fill="orange" stroke="#000" points="934,-135.5 818,-135.5 818,-97.5 934,-97.5 934,-135.5"/><text text-anchor="middle" x="876" y="-120.3" font-family="Microsoft Yahei" font-size="14">超时仅重传该帧</text><text text-anchor="middle" x="876" y="-105.3" font-family="Microsoft Yahei" font-size="14">（非全部帧）</text></g><g id="edge3" class="edge"><title>start_timer-&gt;timeout_retrans</title><path fill="none" stroke="#000" d="M858.37-207.31C861.64-190.68 866.64-165.2 870.48-145.62"/><polygon fill="#000" stroke="#000" points="873.93,-146.21 872.42,-135.72 867.06,-144.86 873.93,-146.21"/><text text-anchor="middle" x="878.5" y="-178.3" font-family="Microsoft Yahei" font-size="14">超时</text></g><g id="node7" class="node"><title>receive_ack</title><polygon fill="#90ee90" stroke="#000" points="800,-134.5 656,-134.5 656,-98.5 800,-98.5 800,-134.5"/><text text-anchor="middle" x="728" y="-112.8" font-family="Microsoft Yahei" font-size="14">收到ACK后窗口滑动</text></g><g id="edge4" class="edge"><title>start_timer-&gt;receive_ack</title><path fill="none" stroke="#000" d="M825.64-207.48C817.1-202.09 807.95-195.87 8e2-189.5c-17.92 14.37-36.2 32.7-49.85 47.27"/><polygon fill="#000" stroke="#000" points="752.43,-139.54 743.07,-134.57 747.29,-144.29 752.43,-139.54"/><text text-anchor="middle" x="829" y="-178.3" font-family="Microsoft Yahei" font-size="14">收到确认</text></g><g id="node8" class="node"><title>receive_frame</title><polygon fill="pink" stroke="#000" points="259,-353.5 143,-353.5 143,-315.5 259,-315.5 259,-353.5"/><text text-anchor="middle" x="201" y="-338.3" font-family="Microsoft Yahei" font-size="14">接收窗口内的帧</text><text text-anchor="middle" x="201" y="-323.3" font-family="Microsoft Yahei" font-size="14">（允许乱序）</text></g><g id="edge16" class="edge"><title>timeout_retrans-&gt;receive_frame</title><path fill="none" stroke="red" d="M855.57-135.55C842.91-145.91 825.9-158.42 809-166.5 796.55-172.45 791.71-169.12 779-174.5 752.75-185.61 743.18-186.41 724-207.5 701.8-231.91 718.81-255.26 692-274.5c-66.17-47.48-303.93-56.99-422.61-58.73"/><polygon fill="red" stroke="red" points="269.27,-329.73 259.32,-333.36 269.37,-336.73 269.27,-329.73"/><text text-anchor="middle" x="745.5" y="-221.8" font-family="Microsoft Yahei" font-size="14">重传帧</text></g><g id="node13" class="node"><title>selective</title><polygon fill="#b0c4de" stroke="#000" points="535,-53 433,-53 433,-15 535,-15 535,-53"/><text text-anchor="middle" x="484" y="-37.8" font-family="Microsoft Yahei" font-size="14">选择性重传</text><text text-anchor="middle" x="484" y="-22.8" font-family="Microsoft Yahei" font-size="14">只重传丢失帧</text></g><g id="edge17" class="edge"><title>timeout_retrans-&gt;selective</title><path fill="none" stroke="#000" stroke-dasharray="5,2" d="M834.37-97.42C826.09-94.37 817.36-91.54 809-89.5 693.9-61.38 658.64-90.44 544-60.5 539.87-59.42 535.66-58.11 531.48-56.65"/><polygon fill="#000" stroke="#000" points="532.42,-53.27 521.82,-53.04 529.96,-59.82 532.42,-53.27"/></g><g id="edge5" class="edge"><title>receive_ack-&gt;send_frames</title><path fill="none" stroke="#000" d="M700.29-134.67C677.69-150.45 647.4-176.12 634-207.5 622.31-234.89 624.47-246.29 634-274.5 638.19-286.9 646.14-298.74 654.2-308.52"/><polygon fill="#000" stroke="#000" points="651.71,-310.99 660.92,-316.22 656.98,-306.39 651.71,-310.99"/><text text-anchor="middle" x="663" y="-221.8" font-family="Microsoft Yahei" font-size="14">继续发送</text></g><g id="node9" class="node"><title>send_ack</title><polygon fill="#f08080" stroke="#000" points="251.5,-243.5 150.5,-243.5 150.5,-207.5 251.5,-207.5 251.5,-243.5"/><text text-anchor="middle" x="201" y="-221.8" font-family="Microsoft Yahei" font-size="14">立即发送ACK</text></g><g id="edge6" class="edge"><title>receive_frame-&gt;send_ack</title><path fill="none" stroke="#000" d="M201-315.35c0 16.9.0 42.33.0 61.66"/><polygon fill="#000" stroke="#000" points="204.5,-253.68 201,-243.68 197.5,-253.68 204.5,-253.68"/></g><g id="node10" class="node"><title>buffer_frame</title><polygon fill="#ffe4e1" stroke="#000" points="132,-243.5 16,-243.5 16,-207.5 132,-207.5 132,-243.5"/><text text-anchor="middle" x="74" y="-221.8" font-family="Microsoft Yahei" font-size="14">乱序帧缓存等待</text></g><g id="edge7" class="edge"><title>receive_frame-&gt;buffer_frame</title><path fill="none" stroke="#000" d="M179.46-315.35c-21.27 17.92-53.91 45.42-77.24 65.08"/><polygon fill="#000" stroke="#000" points="104.29,-247.44 94.39,-243.68 99.78,-252.8 104.29,-247.44"/><text text-anchor="middle" x="170.5" y="-286.3" font-family="Microsoft Yahei" font-size="14">乱序</text></g><g id="edge15" class="edge"><title>send_ack-&gt;receive_ack</title><path fill="none" stroke="green" d="M251.6-216.28c67.62 10.77 191.27 29.7 297.4 41.78C591.1-169.71 603.6-179.27 644-166.5 662.57-160.63 681.46-150.1 696.61-140.3"/><polygon fill="green" stroke="green" points="698.7,-143.12 705.07,-134.66 694.81,-137.3 698.7,-143.12"/><text text-anchor="middle" x="577.5" y="-178.3" font-family="Microsoft Yahei" font-size="14">ACK传输</text></g><g id="node11" class="node"><title>deliver_ordered</title><polygon fill="#90ee90" stroke="#000" points="125,-134.5 23,-134.5 23,-98.5 125,-98.5 125,-134.5"/><text text-anchor="middle" x="74" y="-112.8" font-family="Microsoft Yahei" font-size="14">按序交付上层</text></g><g id="edge8" class="edge"><title>buffer_frame-&gt;deliver_ordered</title><path fill="none" stroke="#000" d="M74-207.31c0 16.85.0 42.79.0 62.47"/><polygon fill="#000" stroke="#000" points="77.5,-144.65 74,-134.65 70.5,-144.65 77.5,-144.65"/><text text-anchor="middle" x="88.5" y="-178.3" font-family="Microsoft Yahei" font-size="14">补齐</text></g><g id="node14" class="node"><title>high_throughput</title><polygon fill="#b0c4de" stroke="#000" points="498,-135.5 396,-135.5 396,-97.5 498,-97.5 498,-135.5"/><text text-anchor="middle" x="447" y="-120.3" font-family="Microsoft Yahei" font-size="14">高误码率下</text><text text-anchor="middle" x="447" y="-105.3" font-family="Microsoft Yahei" font-size="14">保持高吞吐量</text></g><g id="edge18" class="edge"><title>buffer_frame-&gt;high_throughput</title><path fill="none" stroke="#000" stroke-dasharray="5,2" d="M132.04-209.48C135.07-208.79 138.07-208.13 141-207.5c83.82 17.89 105.34 19.6 190 33C355.83-170.57 363.98-176.6 387-166.5 399.93-160.83 412.34-151.57 422.48-142.63"/><polygon fill="#000" stroke="#000" points="425.13,-144.95 430.1,-135.59 420.38,-139.8 425.13,-144.95"/></g><g id="node12" class="node"><title>slide_window</title><polygon fill="#90ee90" stroke="#000" points="125,-52 23,-52 23,-16 125,-16 125,-52"/><text text-anchor="middle" x="74" y="-30.3" font-family="Microsoft Yahei" font-size="14">接收窗口滑动</text></g><g id="edge9" class="edge"><title>deliver_ordered-&gt;slide_window</title><path fill="none" stroke="#000" d="M74-98.43c0 10.46.0 24.09.0 36.03"/><polygon fill="#000" stroke="#000" points="77.5,-62.05 74,-52.05 70.5,-62.05 77.5,-62.05"/></g><g id="edge10" class="edge"><title>selective-&gt;high_throughput</title><path fill="none" stroke="#000" d="M475.64-53.19C470.91-63.47 464.91-76.53 459.63-88.03"/><polygon fill="#000" stroke="#000" points="456.39,-86.69 455.4,-97.23 462.75,-89.61 456.39,-86.69"/></g><g id="node15" class="node"><title>independent_timer</title><polygon fill="#b0c4de" stroke="#000" points="632,-134.5 516,-134.5 516,-98.5 632,-98.5 632,-134.5"/><text text-anchor="middle" x="574" y="-112.8" font-family="Microsoft Yahei" font-size="14">独立计时器机制</text></g><g id="edge11" class="edge"><title>independent_timer-&gt;selective</title><path fill="none" stroke="#000" d="M554.91-98.43c-12.54 11.22-29.15 26.07-43.14 38.59"/><polygon fill="#000" stroke="#000" points="514.1,-57.22 504.31,-53.17 509.43,-62.44 514.1,-57.22"/></g><g id="node16" class="node"><title>duplicate_ack</title><polygon fill="wheat" stroke="#000" points="377.5,-135.5 276.5,-135.5 276.5,-97.5 377.5,-97.5 377.5,-135.5"/><text text-anchor="middle" x="327" y="-120.3" font-family="Microsoft Yahei" font-size="14">处理重复ACK</text><text text-anchor="middle" x="327" y="-105.3" font-family="Microsoft Yahei" font-size="14">避免误判</text></g><g id="edge12" class="edge"><title>duplicate_ack-&gt;selective</title><path fill="none" stroke="#000" d="M362.23-97.43c22.93 11.75 53.02 27.18 77.55 39.76"/><polygon fill="#000" stroke="#000" points="441.58,-60.68 448.88,-53.01 438.39,-54.45 441.58,-60.68"/></g><g id="node17" class="node"><title>comparison</title><polygon fill="#ffa07a" stroke="#000" points="703,-60.5 553,-60.5 553,-7.5 709,-7.5 709,-54.5 703,-60.5"/><polyline fill="none" stroke="#000" points="703,-60.5 703,-54.5"/><polyline fill="none" stroke="#000" points="709,-54.5 703,-54.5"/><text text-anchor="middle" x="631" y="-45.3" font-family="Microsoft Yahei" font-size="14">SR vs GBN</text><text text-anchor="middle" x="631" y="-30.3" font-family="Microsoft Yahei" font-size="14">SR: 选择性重传单帧</text><text text-anchor="middle" x="631" y="-15.3" font-family="Microsoft Yahei" font-size="14">GBN: 重传所有后续帧</text></g></g></svg>