<?xml version="1.0" encoding="UTF-8"?>
<!DOCTYPE svg PUBLIC "-//W3C//DTD SVG 1.1//EN" "http://www.w3.org/Graphics/SVG/1.1/DTD/svg11.dtd">
<svg xmlns="http://www.w3.org/2000/svg" width="464pt" height="266pt" viewBox="0 0 464 266" xmlns:xlink="http://www.w3.org/1999/xlink"><g id="graph0" class="graph" transform="scale(1 1) rotate(0) translate(4 262)"><title>DNS_Hierarchy</title><g id="node1" class="node"><title>root</title><polygon fill="none" stroke="#000" points="290,-258 188,-258 188,-222 290,-222 290,-258"/><text text-anchor="middle" x="239" y="-236.3" font-family="Times,serif" font-size="14">根域名服务器</text></g><g id="node2" class="node"><title>tld_com</title><polygon fill="none" stroke="#000" points="129,-186 55,-186 55,-148 129,-148 129,-186"/><text text-anchor="middle" x="92" y="-170.8" font-family="Times,serif" font-size="14">com域名</text><text text-anchor="middle" x="92" y="-155.8" font-family="Times,serif" font-size="14">服务器</text></g><g id="edge1" class="edge"><title>root-&gt;tld_com</title><path fill="none" stroke="#000" d="M187.71-246c-46.58.0-108.04.0-108.04.0s0 49.88.0 49.88"/><polygon fill="#000" stroke="#000" points="83.17,-196.12 79.67,-186.12 76.17,-196.12 83.17,-196.12"/></g><g id="node3" class="node"><title>tld_org</title><polygon fill="none" stroke="#000" points="231.5,-186 162.5,-186 162.5,-148 231.5,-148 231.5,-186"/><text text-anchor="middle" x="197" y="-170.8" font-family="Times,serif" font-size="14">org域名</text><text text-anchor="middle" x="197" y="-155.8" font-family="Times,serif" font-size="14">服务器</text></g><g id="edge2" class="edge"><title>root-&gt;tld_org</title><path fill="none" stroke="#000" d="M209.75-221.96v25.85"/><polygon fill="#000" stroke="#000" points="213.25,-196.11 209.75,-186.11 206.25,-196.11 213.25,-196.11"/></g><g id="node4" class="node"><title>tld_cn</title><polygon fill="none" stroke="#000" points="312,-186 250,-186 250,-148 312,-148 312,-186"/><text text-anchor="middle" x="281" y="-170.8" font-family="Times,serif" font-size="14">cn域名</text><text text-anchor="middle" x="281" y="-155.8" font-family="Times,serif" font-size="14">服务器</text></g><g id="edge3" class="edge"><title>root-&gt;tld_cn</title><path fill="none" stroke="#000" d="M270-221.96v25.85"/><polygon fill="#000" stroke="#000" points="273.5,-196.11 270,-186.11 266.5,-196.11 273.5,-196.11"/></g><g id="node8" class="node"><title>dots1</title><text text-anchor="middle" x="357" y="-163.3" font-family="Times,serif" font-size="14">...</text></g><g id="edge4" class="edge"><title>root-&gt;dots1</title><path fill="none" stroke="#000" d="M290.07-234c31.89.0 66.93.0 66.93.0s0 38.69.0 38.69"/><polygon fill="#000" stroke="#000" points="360.5,-195.31 357,-185.31 353.5,-195.31 360.5,-195.31"/></g><g id="node9" class="node"><title>dots2</title><text text-anchor="middle" x="429" y="-163.3" font-family="Times,serif" font-size="14">...</text></g><g id="edge5" class="edge"><title>root-&gt;dots2</title><path fill="none" stroke="#000" d="M290.17-246c56.27.0 138.83.0 138.83.0s0 50.68.0 50.68"/><polygon fill="#000" stroke="#000" points="432.5,-195.32 429,-185.32 425.5,-195.32 432.5,-195.32"/></g><g id="node5" class="node"><title>auth_csgraduates</title><polygon fill="none" stroke="#000" points="152,-112 0,-112 0,-74 152,-74 152,-112"/><text text-anchor="middle" x="76" y="-96.8" font-family="Times,serif" font-size="14">csgraduates.com域</text><text text-anchor="middle" x="76" y="-81.8" font-family="Times,serif" font-size="14">名服务器</text></g><g id="edge6" class="edge"><title>tld_com-&gt;auth_csgraduates</title><path fill="none" stroke="#000" d="M79.67-147.94v25.69"/><polygon fill="#000" stroke="#000" points="83.17,-122.25 79.67,-112.25 76.17,-122.25 83.17,-122.25"/></g><g id="node10" class="node"><title>dots3</title><text text-anchor="middle" x="197" y="-89.3" font-family="Times,serif" font-size="14">...</text></g><g id="edge7" class="edge"><title>tld_org-&gt;dots3</title><path fill="none" stroke="#000" d="M197-147.94v26.71"/><polygon fill="#000" stroke="#000" points="200.5,-121.23 197,-111.23 193.5,-121.23 200.5,-121.23"/></g><g id="node6" class="node"><title>auth_edu</title><polygon fill="none" stroke="#000" points="320,-112 242,-112 242,-74 320,-74 320,-112"/><text text-anchor="middle" x="281" y="-96.8" font-family="Times,serif" font-size="14">edu.cn域</text><text text-anchor="middle" x="281" y="-81.8" font-family="Times,serif" font-size="14">名服务器</text></g><g id="edge8" class="edge"><title>tld_cn-&gt;auth_edu</title><path fill="none" stroke="#000" d="M270.67-147.94v25.69"/><polygon fill="#000" stroke="#000" points="274.17,-122.25 270.67,-112.25 267.17,-122.25 274.17,-122.25"/></g><g id="node7" class="node"><title>sub_hust</title><polygon fill="none" stroke="#000" points="338,-38 224,-38 224,0 338,0 338,-38"/><text text-anchor="middle" x="281" y="-22.8" font-family="Times,serif" font-size="14">hust.edu.cn域</text><text text-anchor="middle" x="281" y="-7.8" font-family="Times,serif" font-size="14">名服务器</text></g><g id="edge9" class="edge"><title>auth_edu-&gt;sub_hust</title><path fill="none" stroke="#000" d="M268-73.94v25.69"/><polygon fill="#000" stroke="#000" points="271.5,-48.25 268,-38.25 264.5,-48.25 271.5,-48.25"/></g></g></svg>