<?xml version="1.0" encoding="UTF-8"?>
<!DOCTYPE svg PUBLIC "-//W3C//DTD SVG 1.1//EN" "http://www.w3.org/Graphics/SVG/1.1/DTD/svg11.dtd">
<svg xmlns="http://www.w3.org/2000/svg" width="958pt" height="418pt" viewBox="0 0 958 418" xmlns:xlink="http://www.w3.org/1999/xlink"><g id="graph0" class="graph" transform="scale(1 1) rotate(0) translate(4 414)"><title>LayeredOS</title><g id="clust1" class="cluster"><title>cluster_os</title><polygon fill="lightgrey" stroke="lightgrey" points="8,-75 8,-402 942,-402 942,-75 8,-75"/><text text-anchor="middle" x="475" y="-385.2" font-family="Microsoft Yahei" font-size="16">分层操作系统结构</text></g><g id="node1" class="node"><title>app</title><polygon fill="#add8e6" stroke="#000" points="540,-368 324,-368 324,-332 540,-332 540,-368"/><text text-anchor="middle" x="432" y="-353.4" font-family="Microsoft Yahei" font-size="12">应用程序层</text><text text-anchor="middle" x="432" y="-340.4" font-family="Microsoft Yahei" font-size="12">(用户程序)</text></g><g id="node2" class="node"><title>syscall</title><polygon fill="#90ee90" stroke="#000" points="540,-285 324,-285 324,-249 540,-249 540,-285"/><text text-anchor="middle" x="432" y="-270.4" font-family="Microsoft Yahei" font-size="12">系统调用接口</text><text text-anchor="middle" x="432" y="-257.4" font-family="Microsoft Yahei" font-size="12">(API)</text></g><g id="edge1" class="edge"><title>app-&gt;syscall</title><path fill="none" stroke="#000" d="M432-331.82c0 10.63.0 24.51.0 36.62"/><polygon fill="#000" stroke="#000" points="435.5,-295.15 432,-285.15 428.5,-295.15 435.5,-295.15"/><text text-anchor="middle" x="442" y="-306" font-family="Microsoft Yahei" font-size="10">调用</text></g><g id="node3" class="node"><title>filesystem</title><polygon fill="#ffffe0" stroke="#000" points="232,-202 16,-202 16,-166 232,-166 232,-202"/><text text-anchor="middle" x="124" y="-187.4" font-family="Microsoft Yahei" font-size="12">文件系统管理</text><text text-anchor="middle" x="124" y="-174.4" font-family="Microsoft Yahei" font-size="12">(文件操作)</text></g><g id="edge2" class="edge"><title>syscall-&gt;filesystem</title><path fill="none" stroke="#000" d="M367.06-248.92c-49.25 12.95-117 30.77-168.47 44.3"/><polygon fill="#000" stroke="#000" points="199.42,-201.21 188.85,-202.06 197.63,-207.98 199.42,-201.21"/><text text-anchor="middle" x="316" y="-223" font-family="Microsoft Yahei" font-size="10">文件操作</text></g><g id="node4" class="node"><title>process</title><polygon fill="#f08080" stroke="#000" points="466,-202 250,-202 250,-166 466,-166 466,-202"/><text text-anchor="middle" x="358" y="-187.4" font-family="Microsoft Yahei" font-size="12">进程管理</text><text text-anchor="middle" x="358" y="-174.4" font-family="Microsoft Yahei" font-size="12">(调度、同步)</text></g><g id="edge3" class="edge"><title>syscall-&gt;process</title><path fill="none" stroke="#000" d="M416.31-248.82c-10.4 11.38-24.21 26.49-35.78 39.16"/><polygon fill="#000" stroke="#000" points="383,-207.18 373.67,-202.15 377.83,-211.9 383,-207.18"/><text text-anchor="middle" x="419" y="-223" font-family="Microsoft Yahei" font-size="10">进程控制</text></g><g id="node5" class="node"><title>memory</title><polygon fill="#ffb6c1" stroke="#000" points="700,-202 484,-202 484,-166 700,-166 700,-202"/><text text-anchor="middle" x="592" y="-187.4" font-family="Microsoft Yahei" font-size="12">内存管理</text><text text-anchor="middle" x="592" y="-174.4" font-family="Microsoft Yahei" font-size="12">(虚拟内存)</text></g><g id="edge4" class="edge"><title>syscall-&gt;memory</title><path fill="none" stroke="#000" d="M465.93-248.82c24.37 12.34 57.4 29.05 83.53 42.28"/><polygon fill="#000" stroke="#000" points="551.05,-209.65 558.39,-202.01 547.89,-203.41 551.05,-209.65"/><text text-anchor="middle" x="541" y="-223" font-family="Microsoft Yahei" font-size="10">内存分配</text></g><g id="node6" class="node"><title>device</title><polygon fill="#e0ffff" stroke="#000" points="934,-202 718,-202 718,-166 934,-166 934,-202"/><text text-anchor="middle" x="826" y="-187.4" font-family="Microsoft Yahei" font-size="12">设备管理</text><text text-anchor="middle" x="826" y="-174.4" font-family="Microsoft Yahei" font-size="12">(驱动程序)</text></g><g id="edge5" class="edge"><title>syscall-&gt;device</title><path fill="none" stroke="#000" d="M515.08-248.92c63.78 13.11 151.83 31.21 217.95 44.81"/><polygon fill="#000" stroke="#000" points="733.95,-207.5 743.04,-202.06 732.54,-200.64 733.95,-207.5"/><text text-anchor="middle" x="672" y="-223" font-family="Microsoft Yahei" font-size="10">设备访问</text></g><g id="node7" class="node"><title>hal</title><polygon fill="wheat" stroke="#000" points="540,-119 324,-119 324,-83 540,-83 540,-119"/><text text-anchor="middle" x="432" y="-104.4" font-family="Microsoft Yahei" font-size="12">硬件抽象层</text><text text-anchor="middle" x="432" y="-91.4" font-family="Microsoft Yahei" font-size="12">(HAL)</text></g><g id="edge6" class="edge"><title>filesystem-&gt;hal</title><path fill="none" stroke="#000" d="M188.94-165.92c49.25 12.95 117 30.77 168.47 44.3"/><polygon fill="#000" stroke="#000" points="358.37,-124.98 367.15,-119.06 356.58,-118.21 358.37,-124.98"/><text text-anchor="middle" x="316" y="-140" font-family="Microsoft Yahei" font-size="10">硬件访问</text></g><g id="edge7" class="edge"><title>process-&gt;hal</title><path fill="none" stroke="#000" d="M373.69-165.82c10.4 11.38 24.21 26.49 35.78 39.16"/><polygon fill="#000" stroke="#000" points="412.17,-128.9 416.33,-119.15 407,-124.18 412.17,-128.9"/><text text-anchor="middle" x="419" y="-140" font-family="Microsoft Yahei" font-size="10">硬件访问</text></g><g id="edge8" class="edge"><title>memory-&gt;hal</title><path fill="none" stroke="#000" d="M558.07-165.82c-24.37 12.34-57.4 29.05-83.53 42.28"/><polygon fill="#000" stroke="#000" points="476.11,-120.41 465.61,-119.01 472.95,-126.65 476.11,-120.41"/><text text-anchor="middle" x="541" y="-140" font-family="Microsoft Yahei" font-size="10">硬件访问</text></g><g id="edge9" class="edge"><title>device-&gt;hal</title><path fill="none" stroke="#000" d="M742.92-165.92c-63.78 13.11-151.83 31.21-217.95 44.81"/><polygon fill="#000" stroke="#000" points="525.46,-117.64 514.96,-119.06 524.05,-124.5 525.46,-117.64"/><text text-anchor="middle" x="672" y="-140" font-family="Microsoft Yahei" font-size="10">硬件访问</text></g><g id="node8" class="node"><title>hardware</title><polygon fill="#b0c4de" stroke="#000" points="540,-36 324,-36 324,0 540,0 540,-36"/><text text-anchor="middle" x="432" y="-21.4" font-family="Microsoft Yahei" font-size="12">硬件层</text><text text-anchor="middle" x="432" y="-8.4" font-family="Microsoft Yahei" font-size="12">(CPU、内存、I/O设备)</text></g><g id="edge10" class="edge"><title>hal-&gt;hardware</title><path fill="none" stroke="red" stroke-width="2" d="M432-82.82c0 10.63.0 24.51.0 36.62"/><polygon fill="red" stroke="red" stroke-width="2" points="435.5,-46.15 432,-36.15 428.5,-46.15 435.5,-46.15"/><text text-anchor="middle" x="452" y="-57" font-family="Microsoft Yahei" font-size="10">直接访问</text></g></g></svg>