<?xml version="1.0" encoding="UTF-8"?>
<!DOCTYPE svg PUBLIC "-//W3C//DTD SVG 1.1//EN" "http://www.w3.org/Graphics/SVG/1.1/DTD/svg11.dtd">
<svg xmlns="http://www.w3.org/2000/svg" viewBox="0 0 820 500" width="820" height="500"><defs><marker id="arrow" markerWidth="10" markerHeight="10" refX="9" refY="3" orient="auto"><path d="M0 0V6L9 3z" fill="#333"/></marker><marker id="arrow-red" markerWidth="10" markerHeight="10" refX="9" refY="3" orient="auto"><path d="M0 0V6L9 3z" fill="#e74c3c"/></marker><marker id="arrow-green" markerWidth="10" markerHeight="10" refX="9" refY="3" orient="auto"><path d="M0 0V6L9 3z" fill="#27ae60"/></marker></defs><rect x="0" y="0" width="800" height="500" fill="none"/><g font-family="monospace" font-size="12" fill="#666"><text x="45" y="70" text-anchor="end">0x00:</text><text x="45" y="110" text-anchor="end">0x04:</text><text x="45" y="150" text-anchor="end">0x08:</text><text x="45" y="190" text-anchor="end">0x0C:</text><text x="45" y="230" text-anchor="end">0x10:</text><text x="445" y="70" text-anchor="end">0x00:</text><text x="445" y="110" text-anchor="end">0x04:</text><text x="445" y="150" text-anchor="end">0x08:</text><text x="445" y="190" text-anchor="end">0x0C:</text><text x="445" y="230" text-anchor="end">0x10:</text></g><g><text x="220" y="30" font-size="16" font-weight="bold" text-anchor="middle" fill="#27ae60">对齐的数据布局</text><g stroke="#333" stroke-width="1.5" fill="#fff"><rect x="60" y="50" width="40" height="30"/><rect x="100" y="50" width="40" height="30"/><rect x="140" y="50" width="40" height="30"/><rect x="180" y="50" width="40" height="30"/><rect x="60" y="90" width="40" height="30"/><rect x="100" y="90" width="40" height="30"/><rect x="140" y="90" width="40" height="30"/><rect x="180" y="90" width="40" height="30"/><rect x="60" y="130" width="40" height="30"/><rect x="100" y="130" width="40" height="30"/><rect x="140" y="130" width="40" height="30"/><rect x="180" y="130" width="40" height="30"/><rect x="60" y="170" width="40" height="30"/><rect x="100" y="170" width="40" height="30"/><rect x="140" y="170" width="40" height="30"/><rect x="180" y="170" width="40" height="30"/><rect x="60" y="210" width="40" height="30"/><rect x="100" y="210" width="40" height="30"/><rect x="140" y="210" width="40" height="30"/><rect x="180" y="210" width="40" height="30"/></g><rect x="60" y="50" width="40" height="30" fill="#a8dadc" opacity=".7"/><text x="80" y="70" text-anchor="middle" font-size="12" font-weight="bold">char</text><rect x="100" y="50" width="40" height="30" fill="#f1f1f1" opacity=".7"/><rect x="140" y="50" width="40" height="30" fill="#f1f1f1" opacity=".7"/><rect x="180" y="50" width="40" height="30" fill="#f1f1f1" opacity=".7"/><text x="160" y="70" text-anchor="middle" font-size="10" fill="#999" font-style="italic">padding</text><rect x="60" y="90" width="160" height="30" fill="#457b9d" opacity=".7"/><text x="140" y="110" text-anchor="middle" font-size="12" font-weight="bold" fill="#fff">int (4字节)</text><rect x="60" y="130" width="80" height="30" fill="#f1ab86" opacity=".7"/><text x="100" y="150" text-anchor="middle" font-size="12" font-weight="bold">short</text><rect x="140" y="130" width="40" height="30" fill="#f1f1f1" opacity=".7"/><rect x="180" y="130" width="40" height="30" fill="#f1f1f1" opacity=".7"/><text x="180" y="150" text-anchor="middle" font-size="10" fill="#999" font-style="italic">pad</text><rect x="60" y="170" width="160" height="30" fill="#c9ada7" opacity=".7"/><text x="140" y="190" text-anchor="middle" font-size="12" font-weight="bold">double (8字节)</text><rect x="60" y="210" width="160" height="30" fill="#c9ada7" opacity=".7"/></g><g><text x="620" y="30" font-size="16" font-weight="bold" text-anchor="middle" fill="#e74c3c">未对齐的数据布局</text><g stroke="#333" stroke-width="1.5" fill="#fff"><rect x="460" y="50" width="40" height="30"/><rect x="500" y="50" width="40" height="30"/><rect x="540" y="50" width="40" height="30"/><rect x="580" y="50" width="40" height="30"/><rect x="460" y="90" width="40" height="30"/><rect x="500" y="90" width="40" height="30"/><rect x="540" y="90" width="40" height="30"/><rect x="580" y="90" width="40" height="30"/><rect x="460" y="130" width="40" height="30"/><rect x="500" y="130" width="40" height="30"/><rect x="540" y="130" width="40" height="30"/><rect x="580" y="130" width="40" height="30"/><rect x="460" y="170" width="40" height="30"/><rect x="500" y="170" width="40" height="30"/><rect x="540" y="170" width="40" height="30"/><rect x="580" y="170" width="40" height="30"/><rect x="460" y="210" width="40" height="30"/><rect x="500" y="210" width="40" height="30"/><rect x="540" y="210" width="40" height="30"/><rect x="580" y="210" width="40" height="30"/></g><rect x="460" y="50" width="40" height="30" fill="#a8dadc" opacity=".7"/><text x="480" y="70" text-anchor="middle" font-size="12" font-weight="bold">char</text><rect x="500" y="50" width="120" height="30" fill="#457b9d" opacity=".7"/><rect x="460" y="90" width="40" height="30" fill="#457b9d" opacity=".7"/><text x="540" y="70" text-anchor="middle" font-size="12" font-weight="bold" fill="#fff">int</text><rect x="500" y="90" width="80" height="30" fill="#f1ab86" opacity=".7"/><text x="540" y="110" text-anchor="middle" font-size="12" font-weight="bold">short</text><rect x="580" y="90" width="40" height="30" fill="#c9ada7" opacity=".7"/><rect x="460" y="130" width="160" height="30" fill="#c9ada7" opacity=".7"/><rect x="460" y="170" width="80" height="30" fill="#c9ada7" opacity=".7"/><text x="540" y="150" text-anchor="middle" font-size="12" font-weight="bold">double</text></g><g><text x="140" y="280" text-anchor="middle" font-size="14" font-weight="bold" fill="#27ae60">CPU 访问 int</text><path d="M140 290v40" stroke="#27ae60" stroke-width="2" marker-end="url(#arrow-green)"/><rect x="240" y="320" width="120" height="40" fill="#e8f5e9" stroke="#27ae60" stroke-width="2" rx="5"/><text x="300" y="345" text-anchor="middle" font-size="13" fill="#2e7d32">1次内存访问</text><text x="540" y="280" text-anchor="middle" font-size="14" font-weight="bold" fill="#e74c3c">CPU 访问 int</text><path d="M5e2 290v40" stroke="#e74c3c" stroke-width="2" marker-end="url(#arrow-red)"/><path d="M580 290v40" stroke="#e74c3c" stroke-width="2" marker-end="url(#arrow-red)"/><rect x="640" y="320" width="120" height="40" fill="#ffebee" stroke="#e74c3c" stroke-width="2" rx="5"/><text x="700" y="345" text-anchor="middle" font-size="13" fill="#c62828">2次内存访问</text></g><g><rect x="60" y="390" width="300" height="80" fill="#f0f0f0" stroke="#999" stroke-width="1" rx="5"/><text x="210" y="415" text-anchor="middle" font-size="14" font-weight="bold" fill="#333">对齐优势</text><text x="70" y="440" font-size="12" fill="#27ae60">✓ 单次访问获取完整数据</text><text x="70" y="460" font-size="12" fill="#27ae60">✓ 硬件优化，访问速度快</text><rect x="460" y="390" width="300" height="80" fill="#f0f0f0" stroke="#999" stroke-width="1" rx="5"/><text x="610" y="415" text-anchor="middle" font-size="14" font-weight="bold" fill="#333">未对齐问题</text><text x="470" y="440" font-size="12" fill="#e74c3c">✗ 需要多次内存访问</text><text x="470" y="460" font-size="12" fill="#e74c3c">✗ 某些架构会触发异常</text></g><g font-size="10" fill="#888" font-family="monospace"><text x="80" y="45" text-anchor="middle">0</text><text x="120" y="45" text-anchor="middle">1</text><text x="160" y="45" text-anchor="middle">2</text><text x="200" y="45" text-anchor="middle">3</text><text x="480" y="45" text-anchor="middle">0</text><text x="520" y="45" text-anchor="middle">1</text><text x="560" y="45" text-anchor="middle">2</text><text x="600" y="45" text-anchor="middle">3</text></g></svg>