<?xml version="1.0" encoding="UTF-8"?>
<!DOCTYPE svg PUBLIC "-//W3C//DTD SVG 1.1//EN" "http://www.w3.org/Graphics/SVG/1.1/DTD/svg11.dtd">
<svg xmlns="http://www.w3.org/2000/svg" width="291pt" height="325pt" viewBox="0 0 291 325" xmlns:xlink="http://www.w3.org/1999/xlink"><g id="graph0" class="graph" transform="scale(1 1) rotate(0) translate(4 321)"><title>BinaryTreePreorder</title><polygon fill="#ffffe0" stroke="transparent" points="51.5,-48 51.5,-70 231.5,-70 231.5,-48 51.5,-48"/><polygon fill="none" stroke="#000" points="51.5,-48 51.5,-70 231.5,-70 231.5,-48 51.5,-48"/><text text-anchor="start" x="73.5" y="-57.2" font-family="Times,serif" font-weight="bold" font-size="11">前序遍历序列（带空指针）</text><polygon fill="#90ee90" stroke="transparent" points="51.5,-26 51.5,-48 71.5,-48 71.5,-26 51.5,-26"/><polygon fill="none" stroke="#000" points="51.5,-26 51.5,-48 71.5,-48 71.5,-26 51.5,-26"/><text text-anchor="start" x="58" y="-34.2" font-family="Times,serif" font-size="11">1</text><polygon fill="#90ee90" stroke="transparent" points="71.5,-26 71.5,-48 91.5,-48 91.5,-26 71.5,-26"/><polygon fill="none" stroke="#000" points="71.5,-26 71.5,-48 91.5,-48 91.5,-26 71.5,-26"/><text text-anchor="start" x="78" y="-34.2" font-family="Times,serif" font-size="11">2</text><polygon fill="#90ee90" stroke="transparent" points="91.5,-26 91.5,-48 111.5,-48 111.5,-26 91.5,-26"/><polygon fill="none" stroke="#000" points="91.5,-26 91.5,-48 111.5,-48 111.5,-26 91.5,-26"/><text text-anchor="start" x="98" y="-34.2" font-family="Times,serif" font-size="11">4</text><polygon fill="#d3d3d3" stroke="transparent" points="111.5,-26 111.5,-48 131.5,-48 131.5,-26 111.5,-26"/><polygon fill="none" stroke="#000" points="111.5,-26 111.5,-48 131.5,-48 131.5,-26 111.5,-26"/><text text-anchor="start" x="116.5" y="-34.2" font-family="Times,serif" font-size="11">#</text><polygon fill="#d3d3d3" stroke="transparent" points="131.5,-26 131.5,-48 151.5,-48 151.5,-26 131.5,-26"/><polygon fill="none" stroke="#000" points="131.5,-26 131.5,-48 151.5,-48 151.5,-26 131.5,-26"/><text text-anchor="start" x="136.5" y="-34.2" font-family="Times,serif" font-size="11">#</text><polygon fill="#d3d3d3" stroke="transparent" points="151.5,-26 151.5,-48 171.5,-48 171.5,-26 151.5,-26"/><polygon fill="none" stroke="#000" points="151.5,-26 151.5,-48 171.5,-48 171.5,-26 151.5,-26"/><text text-anchor="start" x="156.5" y="-34.2" font-family="Times,serif" font-size="11">#</text><polygon fill="#90ee90" stroke="transparent" points="171.5,-26 171.5,-48 191.5,-48 191.5,-26 171.5,-26"/><polygon fill="none" stroke="#000" points="171.5,-26 171.5,-48 191.5,-48 191.5,-26 171.5,-26"/><text text-anchor="start" x="178" y="-34.2" font-family="Times,serif" font-size="11">3</text><polygon fill="#d3d3d3" stroke="transparent" points="191.5,-26 191.5,-48 211.5,-48 211.5,-26 191.5,-26"/><polygon fill="none" stroke="#000" points="191.5,-26 191.5,-48 211.5,-48 211.5,-26 191.5,-26"/><text text-anchor="start" x="196.5" y="-34.2" font-family="Times,serif" font-size="11">#</text><polygon fill="#d3d3d3" stroke="transparent" points="211.5,-26 211.5,-48 231.5,-48 231.5,-26 211.5,-26"/><polygon fill="none" stroke="#000" points="211.5,-26 211.5,-48 231.5,-48 231.5,-26 211.5,-26"/><text text-anchor="start" x="216.5" y="-34.2" font-family="Times,serif" font-size="11">#</text><polygon fill="none" stroke="#000" points="51.5,-4 51.5,-26 71.5,-26 71.5,-4 51.5,-4"/><text text-anchor="start" x="56.5" y="-12.2" font-family="Times,serif" font-size="11">①</text><polygon fill="none" stroke="#000" points="71.5,-4 71.5,-26 91.5,-26 91.5,-4 71.5,-4"/><text text-anchor="start" x="76.5" y="-12.2" font-family="Times,serif" font-size="11">②</text><polygon fill="none" stroke="#000" points="91.5,-4 91.5,-26 111.5,-26 111.5,-4 91.5,-4"/><text text-anchor="start" x="96.5" y="-12.2" font-family="Times,serif" font-size="11">③</text><polygon fill="none" stroke="#000" points="111.5,-4 111.5,-26 131.5,-26 131.5,-4 111.5,-4"/><text text-anchor="start" x="116.5" y="-12.2" font-family="Times,serif" font-size="11">④</text><polygon fill="none" stroke="#000" points="131.5,-4 131.5,-26 151.5,-26 151.5,-4 131.5,-4"/><text text-anchor="start" x="136.5" y="-12.2" font-family="Times,serif" font-size="11">⑤</text><polygon fill="none" stroke="#000" points="151.5,-4 151.5,-26 171.5,-26 171.5,-4 151.5,-4"/><text text-anchor="start" x="156.5" y="-12.2" font-family="Times,serif" font-size="11">⑥</text><polygon fill="none" stroke="#000" points="171.5,-4 171.5,-26 191.5,-26 191.5,-4 171.5,-4"/><text text-anchor="start" x="176.5" y="-12.2" font-family="Times,serif" font-size="11">⑦</text><polygon fill="none" stroke="#000" points="191.5,-4 191.5,-26 211.5,-26 211.5,-4 191.5,-4"/><text text-anchor="start" x="196.5" y="-12.2" font-family="Times,serif" font-size="11">⑧</text><polygon fill="none" stroke="#000" points="211.5,-4 211.5,-26 231.5,-26 231.5,-4 211.5,-4"/><text text-anchor="start" x="216.5" y="-12.2" font-family="Times,serif" font-size="11">⑨</text><g id="node1" class="node"><title>1</title><ellipse fill="#90ee90" stroke="#000" cx="154" cy="-299" rx="18" ry="18"/><text text-anchor="middle" x="154" y="-295.9" font-family="Times,serif" font-size="12">1</text></g><g id="node2" class="node"><title>2</title><ellipse fill="#90ee90" stroke="#000" cx="120" cy="-230" rx="18" ry="18"/><text text-anchor="middle" x="120" y="-226.9" font-family="Times,serif" font-size="12">2</text></g><g id="edge1" class="edge"><title>1-&gt;2</title><path fill="none" stroke="#000" d="M146.11-282.46C142.04-274.43 136.97-264.44 132.38-255.4"/><polygon fill="#000" stroke="#000" points="135.49,-253.79 127.84,-246.46 129.25,-256.96 135.49,-253.79"/><text text-anchor="middle" x="143.5" y="-262" font-family="Times,serif" font-size="10">L</text></g><g id="node3" class="node"><title>3</title><ellipse fill="#90ee90" stroke="#000" cx="188" cy="-230" rx="18" ry="18"/><text text-anchor="middle" x="188" y="-226.9" font-family="Times,serif" font-size="12">3</text></g><g id="edge2" class="edge"><title>1-&gt;3</title><path fill="none" stroke="#000" d="M161.89-282.46C165.96-274.43 171.03-264.44 175.62-255.4"/><polygon fill="#000" stroke="#000" points="178.75,-256.96 180.16,-246.46 172.51,-253.79 178.75,-256.96"/><text text-anchor="middle" x="178" y="-262" font-family="Times,serif" font-size="10">R</text></g><g id="node4" class="node"><title>4</title><ellipse fill="#90ee90" stroke="#000" cx="61" cy="-161" rx="18" ry="18"/><text text-anchor="middle" x="61" y="-157.9" font-family="Times,serif" font-size="12">4</text></g><g id="edge3" class="edge"><title>2-&gt;4</title><path fill="none" stroke="#000" d="M108.34-215.76C100.1-206.4 88.88-193.66 79.43-182.93"/><polygon fill="#000" stroke="#000" points="81.87,-180.4 72.63,-175.21 76.61,-185.03 81.87,-180.4"/><text text-anchor="middle" x="98.5" y="-193" font-family="Times,serif" font-size="10">L</text></g><g id="node5" class="node"><title>null1</title><polygon fill="#d3d3d3" stroke="#000" points="147,-179 93,-179 93,-143 147,-143 147,-179"/><text text-anchor="middle" x="120" y="-158.5" font-family="Times,serif" font-size="10">#</text></g><g id="edge4" class="edge"><title>2-&gt;null1</title><path fill="none" stroke="#000" stroke-dasharray="5,2" d="M120-211.75c0 6.75.0 14.66.0 22.16"/><polygon fill="#000" stroke="#000" points="123.5,-189.43 120,-179.43 116.5,-189.43 123.5,-189.43"/><text text-anchor="middle" x="124" y="-193" font-family="Times,serif" font-size="10">R</text></g><g id="node8" class="node"><title>null4</title><polygon fill="#d3d3d3" stroke="#000" points="215,-179 161,-179 161,-143 215,-143 215,-179"/><text text-anchor="middle" x="188" y="-158.5" font-family="Times,serif" font-size="10">#</text></g><g id="edge7" class="edge"><title>3-&gt;null4</title><path fill="none" stroke="#000" stroke-dasharray="5,2" d="M188-211.75c0 6.75.0 14.66.0 22.16"/><polygon fill="#000" stroke="#000" points="191.5,-189.43 188,-179.43 184.5,-189.43 191.5,-189.43"/><text text-anchor="middle" x="191.5" y="-193" font-family="Times,serif" font-size="10">L</text></g><g id="node9" class="node"><title>null5</title><polygon fill="#d3d3d3" stroke="#000" points="283,-179 229,-179 229,-143 283,-143 283,-179"/><text text-anchor="middle" x="256" y="-158.5" font-family="Times,serif" font-size="10">#</text></g><g id="edge8" class="edge"><title>3-&gt;null5</title><path fill="none" stroke="#000" stroke-dasharray="5,2" d="M200.47-216.71C209.11-208.2 220.9-196.58 231.39-186.24"/><polygon fill="#000" stroke="#000" points="234.08,-188.52 238.74,-179 229.16,-183.53 234.08,-188.52"/><text text-anchor="middle" x="230" y="-193" font-family="Times,serif" font-size="10">R</text></g><g id="node6" class="node"><title>null2</title><polygon fill="#d3d3d3" stroke="#000" points="54,-110 0,-110 0,-74 54,-74 54,-110"/><text text-anchor="middle" x="27" y="-89.5" font-family="Times,serif" font-size="10">#</text></g><g id="edge5" class="edge"><title>4-&gt;null2</title><path fill="none" stroke="#000" stroke-dasharray="5,2" d="M53.11-144.46c-3.76 7.41-8.37 16.5-12.66 24.96"/><polygon fill="#000" stroke="#000" points="43.45,-117.67 35.8,-110.34 37.2,-120.84 43.45,-117.67"/><text text-anchor="middle" x="50.5" y="-124" font-family="Times,serif" font-size="10">L</text></g><g id="node7" class="node"><title>null3</title><polygon fill="#d3d3d3" stroke="#000" points="122,-110 68,-110 68,-74 122,-74 122,-110"/><text text-anchor="middle" x="95" y="-89.5" font-family="Times,serif" font-size="10">#</text></g><g id="edge6" class="edge"><title>4-&gt;null3</title><path fill="none" stroke="#000" stroke-dasharray="5,2" d="M68.89-144.46C72.65-137.05 77.26-127.96 81.55-119.5"/><polygon fill="#000" stroke="#000" points="84.8,-120.84 86.2,-110.34 78.55,-117.67 84.8,-120.84"/><text text-anchor="middle" x="85" y="-124" font-family="Times,serif" font-size="10">R</text></g></g></svg>