<?xml version="1.0" encoding="UTF-8"?>
<!DOCTYPE svg PUBLIC "-//W3C//DTD SVG 1.1//EN" "http://www.w3.org/Graphics/SVG/1.1/DTD/svg11.dtd">
<svg xmlns="http://www.w3.org/2000/svg" width="705pt" height="293pt" viewBox="0 0 705 293" xmlns:xlink="http://www.w3.org/1999/xlink"><g id="graph0" class="graph" transform="scale(1 1) rotate(0) translate(4 289)"><title>topological_sort_dfs</title><g id="clust1" class="cluster"><title>cluster_2</title><polygon fill="#f08080" stroke="#f08080" points="8,-8 8,-71 253,-71 253,-8 8,-8"/><text text-anchor="middle" x="130.5" y="-55.8" font-family="Times,serif" font-size="14">结果</text></g><g id="clust2" class="cluster"><title>cluster_1</title><polygon fill="#ffffe0" stroke="#ffffe0" points="8.5,-79 8.5,-152 689,-152 689,-79 8.5,-79"/><text text-anchor="middle" x="348.75" y="-136.8" font-family="Times,serif" font-size="14">DFS+栈过程</text></g><g id="clust3" class="cluster"><title>cluster_0</title><polygon fill="lightgrey" stroke="lightgrey" points="45.82,-160 45.82,-277 422.47,-277 422.47,-160 45.82,-160"/><text text-anchor="middle" x="234.15" y="-261.8" font-family="Times,serif" font-size="14">原始DAG</text></g><g id="node1" class="node"><title>result</title><polygon fill="lightgrey" stroke="#000" points="123,-44 12,-44 12,-12 123,-12 123,-44"/><text text-anchor="middle" x="67.5" y="-31.2" font-family="Times,serif" font-size="11">栈逆序输出:</text><text text-anchor="middle" x="67.5" y="-19.2" font-family="Times,serif" font-size="11">A→C→E→B→D→F</text></g><g id="node2" class="node"><title>verify</title><polygon fill="lightgrey" stroke="transparent" points="249,-40.5 145,-40.5 145,-15.5 249,-15.5 249,-40.5"/><text text-anchor="middle" x="197" y="-25.2" font-family="Times,serif" font-size="11">✓满足拓扑序约束</text></g><g id="node3" class="node"><title>s1</title><polygon fill="lightgrey" stroke="#000" points="12.5,-84 12.5,-124 122.5,-124 122.5,-84 12.5,-84"/><text text-anchor="middle" x="67.5" y="-111.2" font-family="Times,serif" font-size="11">1.访问A→B→D→F</text><polyline fill="none" stroke="#000" points="12.5,-104 122.5,-104"/><text text-anchor="middle" x="67.5" y="-91.2" font-family="Times,serif" font-size="11">F入栈</text></g><g id="node4" class="node"><title>s2</title><polygon fill="lightgrey" stroke="#000" points="167.5,-84 167.5,-124 226.5,-124 226.5,-84 167.5,-84"/><text text-anchor="middle" x="197" y="-111.2" font-family="Times,serif" font-size="11">2.D完成</text><polyline fill="none" stroke="#000" points="167.5,-104 226.5,-104"/><text text-anchor="middle" x="197" y="-91.2" font-family="Times,serif" font-size="11">栈:[F,D]</text></g><g id="edge2" class="edge"><title>s1-&gt;s2</title><path fill="none" stroke="#000" stroke-dasharray="5,2" d="M122.57-104c11.63.0 23.69.0 34.6.0"/><polygon fill="#000" stroke="#000" points="157.22,-107.5 167.22,-104 157.22,-100.5 157.22,-107.5"/></g><g id="node5" class="node"><title>s3</title><polygon fill="lightgrey" stroke="#000" points="271,-84 271,-124 342,-124 342,-84 271,-84"/><text text-anchor="middle" x="306.5" y="-111.2" font-family="Times,serif" font-size="11">3.B完成</text><polyline fill="none" stroke="#000" points="271,-104 342,-104"/><text text-anchor="middle" x="306.5" y="-91.2" font-family="Times,serif" font-size="11">栈:[F,D,B]</text></g><g id="edge3" class="edge"><title>s2-&gt;s3</title><path fill="none" stroke="#000" stroke-dasharray="5,2" d="M226.53-104c10.38.0 22.38.0 33.85.0"/><polygon fill="#000" stroke="#000" points="260.7,-107.5 270.7,-104 260.7,-100.5 260.7,-107.5"/></g><g id="node6" class="node"><title>s4</title><polygon fill="lightgrey" stroke="#000" points="364,-84 364,-124 439,-124 439,-84 364,-84"/><text text-anchor="middle" x="401.5" y="-111.2" font-family="Times,serif" font-size="11">4.访问C→E</text><polyline fill="none" stroke="#000" points="364,-104 439,-104"/><text text-anchor="middle" x="401.5" y="-91.2" font-family="Times,serif" font-size="11">E完成</text></g><g id="edge4" class="edge"><title>s3-&gt;s4</title><path fill="none" stroke="#000" stroke-dasharray="5,2" d="M342.13-104C345.92-104 349.81-104 353.72-104"/><polygon fill="#000" stroke="#000" points="353.97,-107.5 363.97,-104 353.97,-100.5 353.97,-107.5"/></g><g id="node7" class="node"><title>s5</title><polygon fill="lightgrey" stroke="#000" points="461,-84 461,-124 556,-124 556,-84 461,-84"/><text text-anchor="middle" x="508.5" y="-111.2" font-family="Times,serif" font-size="11">5.C完成</text><polyline fill="none" stroke="#000" points="461,-104 556,-104"/><text text-anchor="middle" x="508.5" y="-91.2" font-family="Times,serif" font-size="11">栈:[F,D,B,E,C]</text></g><g id="edge5" class="edge"><title>s4-&gt;s5</title><path fill="none" stroke="#000" stroke-dasharray="5,2" d="M439.22-104C442.93-104 446.75-104 450.61-104"/><polygon fill="#000" stroke="#000" points="450.83,-107.5 460.83,-104 450.83,-100.5 450.83,-107.5"/></g><g id="node8" class="node"><title>s6</title><polygon fill="lightgrey" stroke="#000" points="578,-84 578,-124 685,-124 685,-84 578,-84"/><text text-anchor="middle" x="631.5" y="-111.2" font-family="Times,serif" font-size="11">6.A完成</text><polyline fill="none" stroke="#000" points="578,-104 685,-104"/><text text-anchor="middle" x="631.5" y="-91.2" font-family="Times,serif" font-size="11">栈:[F,D,B,E,C,A]</text></g><g id="edge6" class="edge"><title>s5-&gt;s6</title><path fill="none" stroke="#000" stroke-dasharray="5,2" d="M556.28-104C560.03-104 563.85-104 567.68-104"/><polygon fill="#000" stroke="#000" points="567.81,-107.5 577.81,-104 567.81,-100.5 567.81,-107.5"/></g><g id="node9" class="node"><title>A</title><ellipse fill="#add8e6" stroke="#000" cx="67.5" cy="-206" rx="17.86" ry="17.86"/><text text-anchor="middle" x="67.5" y="-203.2" font-family="Times,serif" font-size="11">A</text></g><g id="node10" class="node"><title>B</title><ellipse fill="#add8e6" stroke="#000" cx="197" cy="-182" rx="17.86" ry="17.86"/><text text-anchor="middle" x="197" y="-179.2" font-family="Times,serif" font-size="11">B</text></g><g id="edge7" class="edge"><title>A-&gt;B</title><path fill="none" stroke="#000" d="M84.91-202.91C106.21-198.9 143.67-191.85 169.15-187.05"/><polygon fill="#000" stroke="#000" points="170.07,-190.44 179.25,-185.15 168.78,-183.56 170.07,-190.44"/></g><g id="node11" class="node"><title>C</title><ellipse fill="#add8e6" stroke="#000" cx="197" cy="-231" rx="17.86" ry="17.86"/><text text-anchor="middle" x="197" y="-228.2" font-family="Times,serif" font-size="11">C</text></g><g id="edge8" class="edge"><title>A-&gt;C</title><path fill="none" stroke="#000" d="M84.91-209.22C106.21-213.39 143.67-220.74 169.15-225.74"/><polygon fill="#000" stroke="#000" points="168.76,-229.23 179.25,-227.72 170.11,-222.36 168.76,-229.23"/></g><g id="node12" class="node"><title>D</title><ellipse fill="#add8e6" stroke="#000" cx="306.5" cy="-182" rx="18.27" ry="18.27"/><text text-anchor="middle" x="306.5" y="-179.2" font-family="Times,serif" font-size="11">D</text></g><g id="edge9" class="edge"><title>B-&gt;D</title><path fill="none" stroke="#000" d="M214.8-182c16.92.0 43.3.0 63.26.0"/><polygon fill="#000" stroke="#000" points="278.11,-185.5 288.11,-182 278.11,-178.5 278.11,-185.5"/></g><g id="edge10" class="edge"><title>C-&gt;D</title><path fill="none" stroke="#000" d="M213.47-224.41c11.05 4.75 26.26 11.36 39.53 17.41C261.94-202.92 271.68-198.33 280.31-194.2"/><polygon fill="#000" stroke="#000" points="281.98,-197.28 289.48,-189.8 278.95,-190.97 281.98,-197.28"/></g><g id="node13" class="node"><title>E</title><ellipse fill="#add8e6" stroke="#000" cx="306.5" cy="-232" rx="17.86" ry="17.86"/><text text-anchor="middle" x="306.5" y="-229.2" font-family="Times,serif" font-size="11">E</text></g><g id="edge11" class="edge"><title>C-&gt;E</title><path fill="none" stroke="#000" d="M214.8-231.16C231.92-231.32 258.73-231.56 278.77-231.75"/><polygon fill="#000" stroke="#000" points="278.79,-235.25 288.82,-231.84 278.85,-228.25 278.79,-235.25"/></g><g id="node14" class="node"><title>F</title><ellipse fill="#add8e6" stroke="#000" cx="401.5" cy="-207" rx="16.94" ry="16.94"/><text text-anchor="middle" x="401.5" y="-204.2" font-family="Times,serif" font-size="11">F</text></g><g id="edge12" class="edge"><title>D-&gt;F</title><path fill="none" stroke="#000" d="M324.56-186.59C338.67-190.38 358.92-195.82 374.96-200.13"/><polygon fill="#000" stroke="#000" points="374.22,-203.56 384.79,-202.78 376.04,-196.8 374.22,-203.56"/></g><g id="edge13" class="edge"><title>E-&gt;F</title><path fill="none" stroke="#000" d="M323.7-227.65C337.79-223.86 358.45-218.3 374.79-213.91"/><polygon fill="#000" stroke="#000" points="376.05,-217.2 384.8,-211.22 374.23,-210.44 376.05,-217.2"/></g></g></svg>